<?xml version="1.0" encoding="utf-8"?>
<!-- Generator: Adobe Illustrator 19.0.0, SVG Export Plug-In . SVG Version: 6.00 Build 0)  -->
<svg version="1.1" id="Layer_1" xmlns="http://www.w3.org/2000/svg" xmlns:xlink="http://www.w3.org/1999/xlink" x="0px" y="0px"
	 viewBox="126 -36 864 864" style="enable-background:new 126 -36 864 864;" xml:space="preserve">
<style type="text/css">
	.st0{fill:#EE3727;}
	.st1{fill:#EE3326;}
	.st2{fill:#0D7FDF;}
</style>
<g id="XMLID_3_">
	<path id="XMLID_11_" class="st0" d="M289.067,275.804c0.445,0.334,0.891,0.891,1.447,1.447c0.334-0.111,0.668-0.223,1.002-0.223
		C290.514,276.584,289.735,276.138,289.067,275.804z"/>
	<path id="XMLID_12_" class="st0" d="M289.067,275.804c-0.223-0.111-0.334-0.334-0.557-0.334
		C288.621,275.582,288.844,275.693,289.067,275.804z"/>
	<path id="XMLID_39_" class="st0" d="M306.77,274.802c-1.113-0.223-1.113,0.445-1.002,1.002c0.334-0.223,0.557-0.334,0.668-0.557
		C306.547,275.136,306.658,274.914,306.77,274.802z"/>
</g>
<g id="XMLID_1_">
	<path id="XMLID_6_" class="st1" d="M331.349,287.625c0.363,0.296,0.773,0.756,1.196,1.224c0.276-0.119,0.557-0.19,0.846-0.218
		C332.591,288.287,331.879,287.936,331.349,287.625z"/>
	<path id="XMLID_5_" class="st1" d="M331.349,287.625c-0.165-0.135-0.322-0.246-0.462-0.291
		C331.016,287.425,331.177,287.524,331.349,287.625z"/>
	<path id="XMLID_4_" class="st1" d="M346.232,286.779c-0.969-0.183-0.901,0.338-0.874,0.88c0.249-0.163,0.461-0.324,0.605-0.479
		C346.085,287.05,346.166,286.915,346.232,286.779z"/>
</g>
<g id="XMLID_2_">
	<path id="XMLID_14_" class="st2" d="M761.178,184.092c-94.39,38.385-156.936,110.401-171.024,127.709
		c-0.206-2.001-0.333-3.124-0.333-3.124s3.501-1.643,2.917-6.186c-0.303-2.362-3.386-4.665-6.913-4.681
		c20.196-102.689,37.842-128.097,49.244-132.296c5.784-2.13,9.114,0.432,13.925,1.626c4.81,1.194,10.719,1.234,11.781-2.158
		c3.329-10.623-12.377-8.201-12.377-8.201c-26.796,2.713-32.751,22.445-40.32,41.741c-6.764,17.241-20.978,74.798-25.662,100.043
		c-0.177,0.082-0.354,0.156-0.529,0.253c-1.057,0.587-3.733,3.093-3.733,3.093s-1.882-2.681-4.83-3.761
		c-4.743-25.404-18.867-82.554-25.601-99.725c-7.57-19.296-13.524-39.028-40.321-41.741c0,0-15.706-2.422-12.377,8.201
		c1.062,3.391,6.971,3.351,11.781,2.158c4.811-1.194,8.141-3.754,13.925-1.626c11.402,4.199,29.051,29.611,49.249,132.322
		c-3.601,0.19-5.561,1.666-6.528,4.848c-0.483,1.591,1.516,5.606,3.497,6.136c0,0-1.022,12.123-1.416,28.11
		c-0.05-0.188-0.099-0.37-0.15-0.563c-7.645-29.171-42.086-35.963-42.434-36.027c-0.045-0.009-0.088-0.008-0.133-0.013
		c-1.094-0.906-2.339-1.665-3.704-2.309c13.205-6.298,13.281-14.074,12.727-17.062c6.322-5.134,3.183-12.788,2.219-14.763
		c0.205-2.925-0.759-5.428-2.87-7.445c-3.223-3.081-8.297-4.131-10.979-4.481c-0.632-1.972-2.031-3.041-3.208-3.611
		c-3.027-1.465-7.23-0.929-10.305-0.194c0.23-6.323-2.987-13.314-5.851-19.532c-1.649-3.582-3.207-6.964-3.994-9.897
		c-1.514-5.642-3.978-6.609-6.807-7.224c-1.314-0.285-2.108-0.458-3.125-1.955c-1.407-2.072-4.192-3.377-8.053-3.772
		c-7.479-0.76-16.877,1.945-21.863,6.304c-1.816,1.588-2.919,2.246-4.056,2.414c3.257-7.661,16.484-24.69,21.259-28.937
		c3.881-3.453,5.211-6.755,3.556-8.834c-1.003-1.26-3.326-2.426-8.69-0.833c-16.532,4.91-50.26,26.934-55.878,44.813
		c-0.214-0.183-0.423-0.367-0.639-0.548c1.096-2.011,2.207-3.92,3.308-5.664c4.097-6.496,2.802-15.016,1.55-23.257
		c-0.767-5.043-1.491-9.805-1.052-14.027c1.096-10.541-8.502-26.341-19.451-27.461c-2.323-0.24-4.067,0.164-5.191,1.194
		c-2.065,1.888-1.254,4.868-0.131,8.99c0.793,2.91,1.691,6.209,1.719,9.626c0.02,2.483,0.085,5.106,0.151,7.776
		c0.197,8.011,0.402,16.297-0.529,22.534c-0.321,2.151-0.047,5.28,0.825,9.483c-1.032-0.379-1.98-0.76-2.841-1.141
		c0.112-0.284,0.153-0.591,0.081-0.906c-1.573-6.944-2.245-12.871-1.995-17.615c0.91-17.309-2.56-33.91-10.033-48.009
		c-7.572-14.286-25.372-25.564-32.659-23.232c-0.571,0.183-1.362,0.606-1.878,1.579c-2.157,4.059,2.093,21.452,6.518,36.4
		l-0.069,0.028c0.045,0.076,0.099,0.154,0.146,0.229c3.246,10.941,6.566,20.523,7.503,22.508
		c4.918,10.413,9.512,17.105,13.715,22.577c-4.002-2.103-9.279-5.181-15.729-9.622c-3.564-11.518-14.094-34.953-20.392-42.114
		c-2.063-2.346-4.285-4.946-6.614-7.67c-7.579-8.867-16.169-18.918-24.13-25.95c-0.05-0.045-0.104-0.087-0.159-0.127
		c-0.296-0.215-7.278-5.263-9.383-6.649c-5.87-3.867-8.987-3.93-13.344-0.277c-3.33,2.791-3.132,7.09-1.952,9.923
		c0.793,1.899,2.648,6.347,3.023,9.831c0.625,5.785,4.911,9.926,7.686,12.037c-0.372,0.281-0.701,0.575-1.013,0.875
		c-0.116-0.239-0.251-0.478-0.429-0.709c-1.541-2.006-4.786-2.758-9.911-2.307c-2.269,0.2-4.419,1.32-6.428,3.041
		c-0.095-1.954-0.669-3.832-2.169-5.175c0.397-0.814,0.613-1.84,0.102-2.903c-1.27-2.637-5.789-2.914-7.274-3.005
		c-3.419-0.202-5.815,1.781-7.248,2.972c-0.099,0.082-0.21,0.175-0.321,0.265c-0.215-0.235-0.462-0.548-0.65-0.788
		c-1.224-1.559-3.272-4.171-8.028-3.519c-4.204,0.543-11.097,2.743-10.271,7.513c0.021,0.591-1.152,2.493-1.928,3.751
		c-1.273,2.063-2.638,4.288-3.026,6.342c-0.661-0.104-1.346-0.176-2.064-0.204c-1.803-1.269-6.906-4.392-12.456-3.595
		c-5.968,0.86-6.925,3.517-7.559,5.275c-0.359,0.995-0.503,1.27-1,1.475c-4.375,1.811-7.005,4.169-7.818,7.002
		c-0.808,2.815,0.479,5.253,1.258,6.392c-0.161,1.384-0.22,4.389,1.472,7.865c-3.069,0.292-5.44,1.23-7.056,2.826
		c-2.171,2.144-2.317,4.866-2.149,6.526c-2.575,1.245-4.565,3.202-5.693,5.63c-1.271,2.74-1.225,5.663,0.129,8.019
		c1.227,2.135,2.913,2.909,4.601,3.047c2.225,0.925,8.225,3.057,16.268,3.057c4.521,0,9.691-0.681,15.195-2.624
		c-0.036,1.513,0.548,3.054,1.764,4.595c0.237,0.301,0.491,0.552,0.755,0.77c0.7,0.873,2.117,2.3,4.38,3.182
		c-1.597,1.059-2.33,2.525-2.71,3.855l-0.011-0.17c-3.419-0.56-7.619-1.317-12.785-2.341c-35.673-17.97-54.167-3.995-54.939-3.391
		c-0.43,0.337-0.678,0.804-0.69,1.294c-0.012,0.491,0.215,0.964,0.628,1.315c8.703,7.381,19.005,9.634,28.338,9.634
		c12.436,0,23.155-4,26.088-5.201c0.915,0.18,1.799,0.353,2.66,0.519c-11.046,2.719-24.071,8.781-29.128,22.295
		c-0.176,0.469-0.117,0.976,0.164,1.408c0.281,0.432,0.758,0.754,1.327,0.891c0.287,0.07,2.407,0.552,5.795,0.552
		c1.297,0,2.783-0.074,4.42-0.266c-0.423,0.435-0.772,0.935-0.988,1.538c-1.081,3.008-1.125,4.073-1.068,5.47
		c0.023,0.578,0.048,1.175-0.106,2.233c-0.922,6.354,0.333,11.135,3.729,14.207c1.503,1.359,3.11,2.076,4.292,2.451
		c0.277,1.053,0.952,2.492,2.572,3.827c1.137,0.937,2.576,1.665,4.277,2.206c-1.906,1.643-2.951,3.428-3.074,5.34
		c-0.181,2.795,1.672,5.044,3.012,6.287c-1.157,2.277-1.331,4.832-0.472,7.334c0.969,2.824,3.125,5.137,5.915,6.349
		c3.39,1.472,6.223,2.005,8.637,2.005c3.771,0,6.517-1.303,8.756-2.366c2.878-1.367,4.37-1.979,6.85-1.008
		c2.084,0.817,4.258,0.84,6.286,0.065c4.625-1.766,7.54-7.387,8.834-10.469c0.245,0.014,0.489,0.029,0.732,0.029
		c1.774,0,3.497-0.375,5.153-1.125c4.235-1.916,7.226-6.052,9.178-9.758c0.006,0.707-0.035,1.444-0.149,2.203
		c-0.145,0.959-0.52,2.197-0.917,3.508c-1.563,5.162-3.89,12.84,4.212,16.98c0.073,3.747,1.794,14.71,18.905,17.458
		c0.851,1.744,2.169,3.641,4.116,5.361c-1.699,0.468-3.529,1.341-5.121,2.936c-1.626,1.631-1.863,2.585-2.021,3.757
		c-0.096,0.709-0.205,1.512-1.521,3.396c-2.221,3.179-2.209,4.488-1.95,5.991c0.083,0.482,0.149,0.863,0.016,1.529
		c-0.117,0.581-1.765,2.068-2.649,2.866c-2.031,1.832-3.783,3.413-3.05,5.198c0.263,0.639,0.947,1.439,2.642,1.785
		c2.423,1.057,20.414,8.695,40.344,11.639c-2.414,2.389-5.07,5.779-4.213,8.523c0.237,0.762,0.792,1.679,2.042,2.408
		c-0.55,1.033-0.95,2.358-0.543,3.732c0.337,1.142,1.369,2.717,4.371,3.734c5.453,1.849,14.364,0.05,18.186-0.877
		c0.779,0.842,2.046,1.807,3.997,2.325c0.892,0.237,1.837,0.355,2.835,0.355c3.175,0,6.876-1.198,11.045-3.578
		c3.551-2.029,6.405-4.56,8.533-6.825c0.225,1.233,0.641,2.457,1.313,3.649l0.143,0.253c4.932,8.758,6.693,11.885,17.844,12.686
		c0.578,0.637,1.525,1.561,2.885,2.52c0,0.004-0.002,0.009-0.002,0.013c-0.215,2.955,0.072,6.249,3.577,8.657
		c0.056,0.782,0.178,2.009,0.439,3.479l-0.035,0.124c0.018,0.003,0.039,0.006,0.057,0.009c0.441,2.436,1.272,5.524,2.81,8.424
		c-0.629-0.257-1.378-0.621-2.284-1.176c-20.9-29.855-45.178-24.941-46.206-24.717c-0.572,0.125-1.061,0.435-1.355,0.862
		c-0.294,0.425-0.369,0.931-0.209,1.403c1.177,3.469,2.895,6.457,4.97,9.047c-3.152-1.087-6.224-1.308-9.613,0.677
		c-1.045,0.612-2.218,0.524-4.024,0.306c-2.144-0.259-6.142-0.744-7.434,3.429c-0.243,0.782-0.354,1.533-0.369,2.26
		c-5.937-0.595-10.361,1.791-12.572,3.788c-5.188-0.421-8.951,0.487-11.189,2.706c-2.625,2.602-2.198,6.167-1.756,7.949
		c-4.171,3.91-2.541,6.717,0.391,10.826c2.355,3.299,8.678,6.117,12.775,7.675c-5.148,3.878-6.634,8.916-5.877,11.725
		c0.131,0.485,0.117,1.266,0.102,2.093c-0.042,2.517-0.101,5.964,3.448,8.583c2.046,1.511,3.763,1.76,5.102,1.557
		c-0.072,0.072-0.144,0.142-0.213,0.213c-0.571,0.57-1.187,1.184-1.797,1.839c-0.889,0.955-0.997,2.08-0.289,3.01
		c0.007,0.009,0.018,0.018,0.026,0.027c-1.186-0.134-2.218-0.52-3.33-0.949c-3.478-1.339-6.747-2.082-11.178,2.202
		c-1.352-0.238-3.322-0.344-5.252,0.439c-2.183,0.887-3.661,2.621-4.392,5.156c-0.582,2.02,0.129,3.456,0.827,4.306
		c0.733,0.891,1.741,1.509,2.723,1.935c-0.501,0.815-0.874,1.805-0.809,2.901c0.056,0.933,0.459,2.21,1.904,3.463
		c-0.631,1.58-1.264,4.272,0.262,6.788c1.033,1.708,2.845,2.997,5.377,3.871c-1.298,1.06-2.249,2.208-2.839,3.444
		c-0.726,1.52-0.769,2.876-0.605,3.899c-3.872,1.557-8.593,5.115-7.023,10.988c0.509,1.905,1.579,3.207,3.18,3.87
		c1.411,0.586,2.936,0.561,4.435,0.268c-0.178,0.249-0.315,0.521-0.403,0.821c-0.176,0.603-0.199,1.539,0.694,2.574
		c0.808,0.94,1.028,1.424,1.306,2.039c0.449,0.993,0.958,2.12,3.378,4.498c1.198,1.178,2.763,1.637,4.48,1.637
		c4.675,0,10.463-3.414,12.937-5.028c0.547,0.078,1.076,0.112,1.601,0.14c-0.311,1.419-0.263,2.943-0.097,4.245
		c0.334,2.609,1.768,7.905,4.804,9.28c2.068,0.939,2.824,2.313,4.177,5.457c1.062,2.468,3.208,2.72,4.071,2.72
		c2.926-0.017,5.56-2.701,6.649-5.347c0.216-0.523,0.625-1.068,1.108-1.575c-0.798,3.384,0.255,5.206,3.366,6.323
		c0.255,0.09,0.639,0.229,0.719,0.291c0.523,0.597,1.315,1.501,2.633,1.671c0.153,0.02,0.299,0.029,0.441,0.029
		c0.992,0,1.728-0.446,2.335-0.815c0.386-0.235,0.825-0.501,1.466-0.792c2.894-1.307,4.977-6.905,5.956-10.104
		c4.1-1.439,5.555-5.207,5.838-8.365c0.666,0.13,1.352,0.214,2.068,0.214c0.948,0,1.941-0.122,2.981-0.391
		c0.029-0.008,0.052-0.021,0.082-0.029c-2.048,3.242-4.17,6.684-6.205,10.1c-13.94,23.394-13.138,27.031-12.874,28.227
		c0.23,1.046,0.881,1.608,1.386,1.895c1.102,0.629,2.619,0.927,4.432,0.927c8.754,0,24.422-6.949,33.835-17.258
		c11.213-12.282,19.229-27.765,23.185-44.777c1.497-6.442,4.855-13.679,8.328-20.019c-2.171,6.203-4.638,13.367-7.009,20.498
		c-0.274,0.249-0.472,0.562-0.546,0.92c-0.107,0.517-0.196,1.032-0.269,1.545c-1.208,3.666-2.378,7.293-3.455,10.74
		c-0.114,0.156-0.208,0.324-0.263,0.51c-0.028,0.096-0.953,3.287-2.319,8.058c-0.089,0.31-0.177,0.618-0.264,0.921
		c-1.015,3.551-2.242,7.863-3.518,12.394c-0.203,0.09-0.395,0.204-0.562,0.349c-10.203,8.904-17.879,18.165-21.616,26.079
		c-1.276,2.701-2.724,5.653-4.243,8.745c-8.955,18.24-19.106,38.913-13.881,47.09c1.18,1.848,3.121,3.057,5.612,3.499
		c0.757,0.135,1.515,0.202,2.275,0.202c5.913,0,11.896-4.068,17.815-12.126c4.392-5.978,7.247-12.12,7.686-13.091
		c15.762-24.421,13.696-43.221,12.46-54.46c-0.235-2.138-0.439-3.983-0.467-5.472c-0.031-1.638,0.753-5.22,2.065-10.004
		c0.504-1.768,0.97-3.396,1.384-4.837c0.566-1.916,1.189-3.957,1.85-6.08c0.174,5.026,0.521,19.567-0.841,29.068
		c-0.196,1.372-0.419,2.816-0.65,4.314c-1.824,11.832-4.093,26.559,1.097,37.221c2.765,5.681,4.632,11.382,5.995,15.543
		c2.04,6.228,2.727,8.327,5.176,8.544c0.13,0.012,0.255,0.018,0.376,0.018c2.508,0,3.155-2.447,3.964-5.509
		c0.668-2.525,1.581-5.984,3.261-7.459c2.89-2.536,3.836-10.509,4.855-21.495c0.332-3.572,0.645-6.946,1.027-8.461
		c1.489-5.902-1.288-13.421-3.879-18.688c-1.044-2.122-1.714-4.416-2.422-6.843c-1.215-4.165-2.472-8.472-5.779-12.675
		c-2.438-3.099-9.952-13.793-8.354-25.477c1.799-5.452,3.705-11.068,5.563-16.452c0.416,0.626,0.886,1.302,1.455,2.052
		c0.006,0.013,0.011,0.028,0.017,0.04c0.097,0.229,9.63,23.149,10.198,39.769c0.619,18.069,40.236,41.293,48.222,44.155
		c2.088,0.747,3.725,1.034,5.01,1.034c1.942,0,3.08-0.656,3.742-1.372c1.829-1.977,0.825-5.251-2.753-8.979
		c-5.197-5.416-18.467-22.825-19.138-28.934c-0.1-0.913-0.409-1.965-0.881-3.12c8.541,8.441,19.327,14.607,28.598,18.806
		c0.326,0.148,0.686,0.22,1.047,0.22c0.397,0,0.794-0.089,1.148-0.264c0.672-0.333,1.081-0.943,1.077-1.592
		c-0.001-0.051,0.04-5.288,6.971-12.889c6.794-7.452,27.469-30.126,16.338-54.838c-0.828-1.839-1.839-3.649-2.986-5.42
		c1.806-0.148,3.495-0.487,4.922-1.056c0.618,0.043,2.21,0.537,3.503,0.939c3.546,1.1,8.713,2.703,14.874,2.703
		c2.903,0,6.028-0.356,9.306-1.292c11.803-3.361,18.087-10.039,18.678-19.849c0.006-0.107,0.011-0.205,0.018-0.294
		c0.365-0.267,0.969-0.676,1.52-1.049c4.14-2.806,11.848-8.029,13.686-14.219c2.427-8.18-2.184-15.144-5.411-18.787
		c8.951-1.484,13.902-6.233,14.873-10.624c0.144-0.151,0.371-0.372,0.608-0.599c12.588,36.231,28.217,80.946,34.757,98.552
		c11.759,31.657,37.235,22.729,37.235,22.729c25.477-14.611,39.698,7.651,39.698,7.651c7.839-4.87,23.486,5.014,30.346,23.683
		c6.859,18.669-9.291,65.263,26.964,53.898s-10.086-54.045-10.086-54.045c-19.34-16.67,4.223-22.582,4.223-22.582
		c7.295-29.579,37.219-19.969,37.219-19.969c-14.698-28.411,11.759-40.587,11.759-40.587c-20.577-24.352,1.96-35.717,1.96-35.717
		c-16.658-10.553-1.96-29.222-1.96-29.222c-7.839-21.106-37.235-34.905-37.235-34.905c6.859-13.799,30.376-4.87,30.376-4.87
		c0-19.481,25.477-10.553,25.477-10.553c1.96-27.599,29.396-24.352,29.396-24.352c-11.759-17.046,13.718-21.917,13.718-21.917
		c-8.819-18.669,15.678-30.034,15.678-30.034c-7.839-13.799,10.779-21.917,10.779-21.917c-5.879-13.799,12.738-22.729,12.738-22.729
		c-3.919-25.164,23.517-19.481,23.517-19.481c0-22.729,13.718-17.858,24.497-32.469
		C980.669,181.657,868.964,140.258,761.178,184.092z M208.255,210.378c-8.038-0.145-22.694-0.767-38.458-3.19
		C176.061,204.724,188.822,202.287,208.255,210.378z M197.569,215.1c-11.369,1.402-21.04-0.478-28.812-5.59
		c16.311,2.542,31.485,3.171,39.668,3.311C205.461,213.692,201.727,214.586,197.569,215.1z M391.783,576.22
		c5.979-4.751,12.099-9.449,15.799-12.08c-0.672,2.499-1.374,4.923-2.104,7.257c-7.177,4.32-14.404,11.419-19.617,17.148
		C387.821,584.307,389.878,580.1,391.783,576.22z M377.976,619.44c-2.334-3.89,0.117-12.577,4.084-22.236
		c3.39-4.19,12.656-15.124,22.12-21.839C395.756,600.217,384.531,614.934,377.976,619.44z M405.892,594.322
		c-0.734,1.256-1.506,2.524-2.34,3.812c-0.049,0.075-0.091,0.154-0.127,0.234c-2.928,6.586-12.196,22.806-21.346,22.921
		c7.1-5.694,17.491-19.813,25.577-42.664C408.287,586.509,406.497,592.552,405.892,594.322z M394.474,570.721
		c0.662-1.364,1.302-2.689,1.898-3.955c2.951-6.249,8.578-13.447,16.07-20.641c-1.41,5.077-2.772,10.071-3.87,14.261
		C405.672,562.103,399.718,566.62,394.474,570.721z M410.66,584.907c0.233-3.539,0.06-7.765-0.971-12.368
		c0.803-2.554,1.57-5.217,2.304-7.965c1.692,3.294,2.319,6.524,2.534,8.766C413.653,576.977,412.404,580.837,410.66,584.907z
		 M415.844,566.151c-0.669-1.749-1.583-3.576-2.851-5.372c0.876-3.333,1.911-7.147,3.001-11.101
		C416.41,554.254,416.651,559.777,415.844,566.151z M433.918,601.782c-1.312-3.936-3.023-8.764-5.4-13.646
		c-1.304-2.68-2.072-5.7-2.485-8.895c1.685-0.919,5.181-3.117,8.133-6.779C434.4,581.454,434.134,594.042,433.918,601.782z
		 M444.745,569.939c-0.44,1.745-0.749,5.075-1.108,8.928c-0.567,6.106-1.621,17.471-3.662,19.263
		c-0.611,0.537-1.135,1.171-1.589,1.868c0.222-8.484,0.452-21.215,0.136-29.674c-0.101-2.691-0.439-6.025-0.915-9.646
		c1.891,1.813,4.438,3.896,7.424,5.479C445.108,567.545,445.027,568.82,444.745,569.939z M433.29,534.482
		c2.893,3.675,4.058,7.671,5.185,11.535c0.715,2.452,1.455,4.989,2.624,7.366c1.72,3.496,2.885,6.692,3.491,9.512
		c-3.793-2.495-6.626-5.685-7.649-6.923c-1.157-7.617-2.714-15.812-3.926-21.845C433.109,534.25,433.205,534.374,433.29,534.482z
		 M429.241,537.738c1.796,9.189,4.034,21.685,4.697,29.988c-2.279,4.349-5.889,7.189-8.18,8.661
		c-0.491-7.75,0.812-16.275,1.947-23.64c0.233-1.511,0.457-2.965,0.655-4.347C428.822,545.188,429.09,541.469,429.241,537.738z
		 M685.729,234.419c80.349-56.821,145.02-34.905,145.02-6.494s-28.416,39.775-89.168,51.951
		c-60.751,12.176-106.806,17.858-142.081,51.951C599.501,331.827,605.38,291.24,685.729,234.419z M618.038,351.76
		c73.413-0.958,142.202,38.789,156.654,56.985c14.452,18.197-15.608,53.633-41.62,22.027
		C707.058,399.168,618.038,351.76,618.038,351.76z M704.746,447.055c-21.388,10.056-84.397-78.056-84.397-78.056
		C671.219,386.239,726.134,436.999,704.746,447.055z M537.62,420.36c-2.079-6.168-6.354-10.401-8.422-12.176l0.1-1.371
		c0.87-0.629,2.318-1.763,3.73-3.258c2.635,2.816,8.343,9.257,10.192,14.093C541.769,419.606,539.098,420.191,537.62,420.36z
		 M540.249,433.596c-1.335,0.492-2.92,0.564-4.742,0.208c1.931-3.266,2.763-6.406,3.111-8.6
		C539.574,427.256,540.526,430.246,540.249,433.596z M528.426,436.227c-2.011-7.897-6.883-13.786-9.983-16.884
		c1.784-0.413,3.308-1.011,3.83-1.228c1.923-0.796,6.421-2.988,6.649-6.126l0.022-0.313c1.994,2.086,4.529,5.36,5.9,9.559
		c-0.262,0.32-0.403,0.699-0.386,1.09C534.463,422.429,534.669,430.018,528.426,436.227z M470.552,495.011
		c0.1-0.288,0.115-0.595,0.039-0.89c-1.916-7.489-0.583-15.673,3.905-24.333c2.501,0.434,5.672,0.795,9.125,0.748
		c-0.016,1.443-0.012,2.896,0.024,4.368c-5.158,7.314-10.955,20.927-14.196,29.055C469.317,498.808,470.409,495.426,470.552,495.011
		z M476.322,537.608c-3.877-2.09-10.384-6.218-16.95-13.157c-3.912-6.598-8.464-14.327-11.737-19.895
		c0.357,0.288,0.685,0.568,1.059,0.861C461.142,515.162,474.416,530.748,476.322,537.608z M381.371,480.44
		c-0.111-0.24-0.23-0.532-0.365-0.861c-1.324-3.22-4.765-11.559-16.771-9.51c-1.622-1.671-5.205-4.736-10.031-5.222
		c-3.623-0.361-7.112,0.758-10.385,3.33c-0.154,0.12-0.268,0.239-0.41,0.359c-1.02-1.181-2.612-2.787-4.65-4.156
		c2.586-0.094,4.49-0.262,4.543-0.271c4.643-0.824,8.908-4.692,11.733-7.877c0.456,3.054,1.575,5.766,4.053,7.266
		c1.226,0.743,2.651,1.113,4.261,1.113c1.274,0,2.664-0.233,4.163-0.698c7.813-2.428,8.752-4.741,7.756-8.159
		c-0.331-1.133-0.57-1.953,0.304-3.145c4.073-5.556,2.578-8.974,0.818-12.994c-0.459-1.048-0.808-2.094-1.074-3.051
		c0.752,0.051,1.567-0.011,2.375-0.303c1.162-0.42,2.652-1.453,3.153-3.985c0.252-1.27,0.15-2.287-0.09-3.168
		c4.357-2.127,13.393-6.818,15.948-10.279c0.106-0.026,0.2-0.053,0.304-0.08c-7.558,9.329-15.064,25.812-1.072,47.215
		c0.326,0.501,0.916,0.846,1.594,0.938c0.116,0.016,0.233,0.022,0.348,0.022c0.56,0,1.104-0.176,1.518-0.501
		c0.153-0.119,0.845-0.676,1.846-1.669c-2.208,4.112-3.814,8.904-4.483,14.483c-6.169,3.537-11.605,6.208-14.423,7.539
		c-0.31-0.358-0.65-0.697-1.042-0.998c-0.381-0.291-0.864-0.581-1.435-0.835c0.56-0.418,1.037-0.873,1.354-1.395
		C381.807,482.571,381.862,481.495,381.371,480.44z M348.634,507.61c-0.195,0.051-0.392,0.116-0.592,0.199
		c1.153-1.349,1.575-2.829,1.185-3.769c2.734-2.756,4.739-6.047,5.953-8.367c0.109,0.514,0.261,1.126,0.458,1.845
		C354.679,499.575,352.243,504.271,348.634,507.61z M355.032,489.456c-0.15-1.228-0.841-4.092-3.941-7.939
		c-0.634-0.786-1.52-1.563-2.457-2.385c-4.052-3.553-5.443-5.412-1.773-8.297c2.267-1.78,4.553-2.583,6.794-2.352
		c4.474,0.439,7.784,4.603,7.815,4.641c0.523,0.674,1.516,0.99,2.449,0.775c8.504-1.952,11.035,2.318,12.902,6.862
		c0.157,0.381,0.296,0.716,0.461,1.108c-0.035,0.18-0.539,1.155-7.131,2.678c-3.181,0.735-9.423,3.871-12.817,6.361
		C356.716,490.468,355.95,489.973,355.032,489.456z M373.858,407.45c4.073,1.108,4.775,2.355,1.746,11.222
		c-1.847,5.408-0.686,7.839,0.246,9.791c0.54,1.13,0.897,1.877,0.631,3.221c-0.179,0.909-0.487,1.195-0.559,1.221
		c-0.202,0.073-0.916-0.098-1.363-0.332c-0.01-0.006-0.021-0.012-0.031-0.017c-0.001-0.016-0.003-0.025-0.003-0.027
		c-0.026-0.298-0.139-0.589-0.332-0.843l-5.559-7.35c-0.397-1.411-2.127-6.822-6.336-11.341c-2.37-2.545-1.491-3.243,0.634-4.93
		c0.606-0.482,1.231-0.979,1.764-1.551C365.716,405.419,367.462,405.711,373.858,407.45z M367.777,402.227
		c0.049,0.028,0.098,0.055,0.147,0.082c-0.046-0.006-0.097-0.017-0.143-0.021C367.782,402.268,367.777,402.247,367.777,402.227z
		 M370.167,433.264c0.146,1.177,0.648,4.355,2.095,7.662c1.614,3.692,2.504,5.725-0.469,9.783c-1.822,2.484-1.22,4.543-0.823,5.905
		c0.412,1.413,0.618,2.121-5.013,3.87c-1.911,0.593-3.345,0.612-4.263,0.057c-3.028-1.834-2.569-9.384-2.323-13.441
		c0.053-0.867,0.1-1.654,0.119-2.318c0.109-3.818,3.99-12.39,6.379-17.198L370.167,433.264z M379.857,419.669
		c0.111-0.327,0.223-0.652,0.332-0.978c4.913-0.786,9.847-1.196,12.167-1.038c-1.869,1.753-7.137,4.965-13.036,7.903
		C378.921,424.259,378.85,422.613,379.857,419.669z M426.046,444.023c-5.486,2.182-12.217,5.748-17.89,11.446
		c4.558-8.306,8.169-21.378,2.994-39.333c3.252,1.217,7.012,1.372,11.239,0.43c1.269,0.175,4.695,0.599,8.839,0.777
		c-5.517,3.199-8.193,7.628-9.092,14.327C421.41,437.079,423.729,441.277,426.046,444.023z M405.549,450.942
		c-2.016,4.536-4.494,7.876-6.369,10.009c-0.091-15.202,5.254-34.56,7.898-43.188C411.189,432.8,408.651,443.966,405.549,450.942z
		 M422.669,412.889c-0.337-0.052-0.687-0.037-1.018,0.045c-4.265,1.029-7.682,0.711-10.447-0.974
		c-1.011-0.617-1.884-1.388-2.644-2.255c25.813-3.424,42.089-7.545,47.424-9.014c0.122,0.226,0.249,0.457,0.39,0.699
		c-0.018,0.027-0.041,0.05-0.058,0.078c-1.697,2.922-7.495,10.732-13.861,11.765C434.108,414.588,422.781,412.906,422.669,412.889z
		 M406.931,407.446c-1.358-2.3-2.163-4.89-2.642-7.1c2.35,0.205,4.899,0.31,7.612,0.31c15.196,0,34.656-2.821,42.507-4.066
		c0.126,0.612,0.293,1.205,0.519,1.822C449.532,399.891,433.086,404.036,406.931,407.446z M404.376,416.625
		c-2.468,7.911-7.564,25.931-8.097,41.313C386.515,437.443,397.613,422.975,404.376,416.625z M401.068,480.771
		c0.106-0.265,0.135-0.546,0.088-0.824c2.03-17.748,14.254-26.914,23.995-31.423c-5.127,7.475-17.31,25.05-24.213,33.468
		C400.965,481.57,401.029,481.18,401.068,480.771z M427.479,450.073c-0.032,0.463-0.026,0.953,0.033,1.471
		c0.185,1.592,0.86,3.17,1.962,4.726c-7.22,16.269-19.303,23.983-26.205,27.219C410.2,475.072,422.183,457.796,427.479,450.073z
		 M426.528,432.074c1.151-8.582,5.123-12.272,16.346-15.188c0.002-0.001,0.004-0.001,0.007-0.002
		c0.14-0.021,0.286-0.035,0.425-0.058c4.799-0.778,8.879-3.951,11.844-7.058c-0.111,3.66,0.331,8.024,2.208,12.086
		c-0.301,1.795-2.919,9.746-25.195,22.496C430.408,442.984,425.649,438.629,426.528,432.074z M433.085,447.463
		c0.293-0.275,0.472-0.617,0.528-0.975c17.424-9.941,23.515-17.281,25.621-21.404c0.916,1.282,2.022,2.496,3.351,3.607
		c-3.238,4.331-14.326,18.144-29.233,25.822c-0.798-1.101-1.289-2.188-1.428-3.238C431.616,448.949,433.041,447.506,433.085,447.463
		z M435.59,342.129c0.121-0.01,0.241-0.01,0.363-0.025c2.831,4.311,11.035,17.798,10.361,28.299
		c-0.893,1.257-1.928,2.411-3.095,3.455C444.78,358.432,438.968,347.202,435.59,342.129z M430.564,341.677
		c0.106-0.146,0.212-0.294,0.318-0.448c0.304,0.163,0.618,0.304,0.941,0.424c2.718,3.653,10.914,16.458,8.121,34.653
		c-1.541,0.945-3.23,1.727-5.034,2.354C438.195,360.316,432.087,345.082,430.564,341.677z M309.464,287.764
		c2.542-0.954,4.9-1.612,7.082-2.045c3.322,0.961,12.762,3.847,18.641,7.187c-0.735-0.019-1.469-0.047-2.104-0.072
		c-2.828-0.115-5.856-0.233-8.519,0.165C319.012,289.764,313.49,288.357,309.464,287.764z M321.036,293.998
		c-0.762,0.36-1.443,0.815-2.021,1.388c-5.979-1.749-12.746-2.913-16.425-3.472c0.726-0.743,1.578-1.462,2.556-2.107
		C308.046,289.94,314.413,290.647,321.036,293.998z M280.729,242.941c0.301-0.768,0.516-1.496,0.687-2.207
		c1.084,0.438,2.304,0.711,3.479,0.783c0.081,1.257,0.536,2.727,1.941,3.857c1.254,1.009,2.978,1.513,5.155,1.513
		c0.69,0,1.431-0.057,2.211-0.158c-0.274,3.519,3.2,4.379,5.133,4.854c1.088,0.267,1.903,0.511,2.536,0.866
		c-0.431,0.296-0.805,0.579-1.104,0.829c-2.393-0.581-7.139-1.384-11.106,0.131c-2.222,0.848-3.865,2.264-4.897,4.211
		c-0.698-1.513-1.699-2.707-2.299-3.203c-0.004-0.003-0.009-0.007-0.013-0.01c0.147-0.207,0.279-0.412,0.383-0.608
		C284.818,250.061,281.993,244.922,280.729,242.941z M283.851,221.455c-1.398-3.121-1.116-3.6,3.798-6.405
		c3.266-1.865,11.516-1.971,15.517-1.825c2.847,3.361,5.516,5.331,7.227,6.374c-0.983,0.383-1.691,1.716-1.656,3.303
		c0.023,1.017,0.352,1.913,0.843,2.526c0.1,1.818,0.63,3.419,1.347,4.814c-6.202-2.439-14.943-4.756-22.272-2.449
		c-1.197,0.376-2.222,0.664-3.106,0.912c-0.926,0.259-1.761,0.494-2.52,0.76c-0.833-0.564-1.323-1.192-1.444-1.919
		c-0.282-1.683,1.268-3.659,1.884-4.273C283.982,222.769,284.128,222.073,283.851,221.455z M289.925,210.402
		c-1.822,0.376-3.498,0.897-4.785,1.632c-0.058,0.033-0.112,0.066-0.17,0.098c-2.422-8.408-1.842-16.104-0.747-21.495
		C285.668,201.42,288.261,207.466,289.925,210.402z M286.867,188.019c5.113,7.099,8.088,16.517,8.64,21.661
		c-0.852,0.059-1.715,0.138-2.576,0.242C291.396,207.391,288.296,200.882,286.867,188.019z M423.743,235.21
		c2.014-4.587,8.201-15.115,15.952-15.89c-6.313,14.626-14.575,48.29-18.529,65.189c-0.37-4.391-1.834-7.188-2.835-8.62
		c0.679-1.246,1.44-2.595,2.32-4.092C428.807,257.945,429.824,245.93,423.743,235.21z M474.856,284.577
		c0.029-0.091,0.065-0.184,0.091-0.275l-0.131-0.026c-0.104-0.883-0.038-1.406,0.104-1.774c2.768-0.87,8.599-2.786,13.44-4.923
		c-1.957,4.146-8.512,8.305-12.986,9.958c-0.004-0.017-0.008-0.033-0.012-0.049l0.145-0.028
		C475.162,286.222,474.961,285.296,474.856,284.577z M495.557,295.564c3.279,0.959,6.53,1.631,9.673,2.281
		c1.338,0.277,2.627,0.546,3.866,0.824c-12.473,0.608-28.37,3.711-35.395,5.192c0.039-0.111,0.078-0.223,0.116-0.335
		C474.335,302.998,484.847,292.433,495.557,295.564z M472.385,260.388c-1.162,1.238-1.883,2.467-2.303,3.674
		c-11.798,18.633-29.37,31.547-34.889,35.324c2.295-5.815,11.868-29.105,22.458-41.041c1.791-0.197,3.474,0.176,5.122,1.132
		c0.646,0.373,1.483,0.435,2.199,0.16c0.356-0.137,6.781-2.642,11.548-6.704C475.574,255.588,474.16,258.499,472.385,260.388z
		 M511.291,419.397c-0.087-0.757-0.322-1.441-0.628-2.046c0.084-0.006,0.169-0.016,0.254-0.021c0.163,0.755,0.667,1.403,1.461,1.838
		c0.735,0.402,1.633,0.567,2.586,0.589c2.727,2.502,9.14,9.259,10.935,18.627c-1.989,1.451-4.434,2.748-7.452,3.745
		c-0.452,0.149-0.913,0.274-1.376,0.392c-2.374-8.525-6.602-14.464-8.66-16.984c0.104-0.095,0.198-0.168,0.303-0.269
		C510.656,423.4,511.522,421.424,511.291,419.397z M515.152,413.048c-0.24-0.013-0.487-0.001-0.732,0.056
		c-8.79,2.017-15.465-1.21-18.664-3.312c-1.079-0.708-2.589-3.673-3.653-7.057c3.106,1.879,6.725,3.179,8.512,3.82
		c0.735,0.265,1.413,0.395,2.045,0.395c0.072,0,0.14-0.014,0.213-0.018c-0.095,0.524-0.069,1.151,0.274,1.891
		c0.848,1.833,3.66,2.996,7.522,3.115c0.188,0.006,0.38,0.008,0.574,0.008c2.621,0,5.708-0.549,8.257-1.913
		c-0.49,1.956-2.133,2.41-4.068,2.937C515.344,412.995,515.245,413.023,515.152,413.048z M459.692,413.347
		c-0.21-2.427-0.084-4.721,0.141-6.591c0.488,0.717,1.003,1.47,1.584,2.31c5.785,8.378,17.574,15.377,23.303,15.377
		c0.586,0,1.109-0.073,1.554-0.225c1.219-0.418,2.428-1.57,1.82-3.45c-0.393-1.217-0.726-2.168-1.018-2.964
		c3.793,1.322,9.736,2.939,16.149,2.939c1.194,0,2.404-0.081,3.619-0.206c-0.158,0.757-0.649,1.541-1.481,2.339
		c-1.886,1.813-2.27,1.697-2.853,1.52c-1-0.303-2.865-0.865-5.345,0.648c-0.621,0.379-1.155,0.747-1.657,1.096
		c-2.141,1.485-3.318,2.305-10.721,1.227c-0.936-0.136-1.769-0.175-2.554-0.171C468.588,424.652,462.192,417.269,459.692,413.347z
		 M476.722,428.382c-0.525,0.24-1.008,0.49-1.444,0.72c-2.149,1.132-3.33,1.76-8.949-2.497c-2.688-2.035-4.36-4.638-5.37-7.381
		c0.452,0.457,0.93,0.917,1.451,1.382C465.427,423.297,470.063,426.376,476.722,428.382z M510.44,402.027
		c0.041,0.179,0.094,0.4,0.124,0.568c-0.485,0.209-1.279,0.418-2.049,0.618c-0.615,0.16-1.25,0.331-1.871,0.53
		c0.021-0.051,0.045-0.102,0.066-0.155c0.331-0.789,0.705-1.683,1.349-2.545c2.154-2.885,0.402-6.643-0.843-8.636
		c0.845-0.912,1.283-1.969,1.472-2.951c1.197,0.025,2.749-0.077,4.487-0.461c4.009-0.89,4.839-6.156,4.979-9.197
		c1.284-0.249,2.64-0.564,4.048-0.903c1.41,0.94,5.207,3.753,5.861,7.132c-0.073,0.043-0.157,0.096-0.239,0.149
		c-1.449-0.462-3.464,0.138-7.314,2.095c-5.957,3.031-9.623,5.196-10.32,9.729C509.917,399.79,510.232,401.136,510.44,402.027z
		 M522.016,375.128c-3.465,0.838-8.705,2.101-9.893,1.349c-0.147-0.092-0.232-0.422-0.223-0.858c0.024-1.113-0.208-2.084-0.629-2.93
		c-0.077-0.303-0.245-0.578-0.483-0.808c-0.678-0.962-1.62-1.727-2.677-2.335c0.909-0.222,1.892-0.472,2.953-0.745
		c4.732-1.214,11.203-2.871,14.512-2.568c4.833,0.453,11.676,3.411,13.601,6.693c0.055,0.094,0.121,0.177,0.183,0.265
		c-3.046-0.279-6.853-0.226-11.411,0.615C526.011,374.162,523.981,374.654,522.016,375.128z M508.638,378.729
		c0.262,0.269,0.538,0.49,0.802,0.658c1.089,0.69,2.454,0.963,4.034,0.962c0.067,0,0.138-0.007,0.206-0.007
		c-0.235,2.674-0.98,4.844-1.644,5.116c-2.83,0.628-4.904,0.185-4.906,0.185c-0.723-0.169-1.5-0.017-2.065,0.393
		c-0.564,0.411-0.837,1.041-0.724,1.657c0.003,0.02,0.353,2.038-1.142,2.886c-0.994,0.566-1.259,1.686-0.595,2.518
		c1.002,1.256,2.819,4.518,1.699,6.019c-0.901,1.205-1.381,2.35-1.766,3.271c-0.099,0.234-0.217,0.518-0.326,0.748
		c-10.261-3.709-11.206-6.41-11.135-7.403c0.023-0.322-0.063-0.625-0.22-0.896c0.001-0.023,0-0.049,0.002-0.072
		c0.343-4.719,6.373-11.153,11.523-12.295C505.304,381.82,507.29,380.324,508.638,378.729z M501.232,378.932
		c-7.005,1.553-14.332,9.288-14.79,15.614c-0.4,5.509,2.836,15.662,6.568,18.115c2.468,1.623,6.684,3.778,12.185,4.491
		c0.171,0.13,0.607,0.49,0.996,1.001c-8.465,0.773-16.88-2.114-20.266-3.47c-0.18-0.531-0.346-1.08-0.516-1.749
		c-0.153-0.605-0.029-2.045,0.08-3.318c0.33-3.831,0.739-8.601-3.249-10.259c-1.142-0.474-2.691-0.828-4.485-1.237
		c-6.826-1.56-10.14-2.89-9.306-5.835c0.214-0.755,0.464-1.363,0.74-1.886c0.925,0.161,2.258,0.335,3.76,0.335
		c2.457,0,5.324-0.468,7.414-2.228c0.896,0.057,2.072-0.017,3.375-0.492c3.212-1.173,5.775-4.222,7.617-9.062
		c2.027-5.33,5.256-7.101,8.568-7.904c0.253,0.101,0.532,0.166,0.831,0.18c0.218,0.011,4.289,0.251,5.986,2.261
		C506.292,374.914,504.89,378.12,501.232,378.932z M482.317,417.445c0.311,0.817,0.683,1.796,1.154,3.198
		c-3.759-0.948-13.041-5.901-18.216-13.395c-0.468-0.676-0.891-1.294-1.293-1.882c4.473,3.428,10.4,6.835,17.034,7.748
		c0.026,0.193,0.043,0.393,0.088,0.568C481.468,415.209,481.843,416.196,482.317,417.445z M519.223,405.105
		c-1.661,2.445-5.25,3.012-6.771,3.133c-2.716,0.224-4.587-0.353-5.109-0.739c0.531-0.282,1.78-0.607,2.497-0.794
		c0.994-0.258,2.023-0.526,2.879-0.913c2.809-1.266,2.341-3.267,2.061-4.462c-0.183-0.778-0.39-1.66-0.205-2.866
		c0.414-2.689,2.324-4.056,8.248-7.07c0.671-0.342,1.208-0.595,1.687-0.813c-0.385,1.278-0.534,2.846-0.213,4.773
		c0.229,1.374,0.112,1.428-1.009,1.937C520.911,398.373,518.674,399.897,519.223,405.105z M523.81,406.082
		c-0.823-4.475,0.304-4.987,1.608-5.58c1.462-0.664,3.908-1.775,3.261-5.648c-0.313-1.874-0.04-3.188,0.392-4.095
		c0.886,1.853,2.299,3.405,3.676,4.597c-0.066,0.144-0.118,0.293-0.138,0.452c-0.578,4.609-6.747,8.618-6.807,8.656
		c-0.508,0.323-0.821,0.812-0.858,1.341l-0.433,5.967c-0.024,0.336-0.575,1.187-2.482,2.242c-0.063,0.035-0.127,0.069-0.19,0.102
		C523.48,412.643,524.573,410.231,523.81,406.082z M532.59,387.008c0-3.968-2.952-7.254-5.359-9.278
		c0.565-0.121,1.139-0.252,1.68-0.352c3.385-0.624,6.261-0.764,8.623-0.658c-2.529,3.67-4.336,7.554-2.619,9.631
		c0.981,1.184,2.114,1.732,2.865,2.095c0.809,0.391,0.825,0.399,0.745,1.508c-0.061,0.836-0.337,1.854-0.63,2.933
		c-0.104,0.381-0.212,0.78-0.314,1.191C535.696,392.787,532.59,390.178,532.59,387.008z M536.578,398.023
		c0.028,0.014,0.068,0.037,0.08,0.042c0.137,0.07,0.284,0.115,0.43,0.157c0.095,1.341,0.522,2.667,1.554,3.856
		c0.098,0.184,0.212,0.364,0.387,0.52c0.053,0.047,4.887,4.415,5.188,10.732c-2.918-4.867-7.544-9.909-9.439-11.889
		C535.523,400.396,536.165,399.248,536.578,398.023z M542.805,400.47c-1.392-1.041-1.52-2.512-1.146-4.489
		c2.661-1.135,9.632-3.615,18.011-2.751c-0.051,0.616-0.115,1.225-0.185,1.823c-0.283,2.414-0.569,4.878,0.725,7.243
		c-1.653,1.819-4.791,2.924-6.792,3.469c-1.358-1.936-3.684-2.613-5.773-3.214C545.998,402.076,544.294,401.585,542.805,400.47z
		 M542.397,392.987c0.25-0.949,0.475-1.906,0.541-2.812c0.001-0.011-0.001-0.02,0-0.031c2.281-1.381,7.858-3.985,15.946-2.844
		c0.276,0.483,0.495,0.975,0.6,1.483c0.141,0.688,0.205,1.347,0.238,1.994C552.328,390.068,546.071,391.673,542.397,392.987z
		 M542.523,387.43c-0.531-1.081-1.484-1.649-2.512-2.146c-0.564-0.273-0.981-0.474-1.38-0.924c-0.177-0.94,1.427-3.985,3.625-7.027
		c0.164,0.037,0.311,0.076,0.462,0.114c0.197,0.552,0.701,1.02,1.41,1.217c2.749,0.768,8.679,2.947,12.338,5.929
		C550.055,384.265,545.306,385.995,542.523,387.43z M543.851,371.496c-0.56,0.053-0.618-0.04-0.697-0.173
		c-2.733-4.66-10.994-8.16-17.081-8.729c-4.231-0.4-10.928,1.326-16.316,2.709c-2.267,0.581-4.224,1.083-5.478,1.296
		c-0.47,0.079-0.978,0.147-1.512,0.219c-4.508,0.611-12.05,1.633-15.627,11.03c-1.844,4.844-3.958,6.316-5.055,6.763
		c-0.966,0.394-1.634,0.217-1.649,0.217c-0.988-0.381-2.159-0.108-2.766,0.639c-1.15,1.418-3.429,1.663-5.331,1.581
		c1.657-1.394,3.37-3.195,4.002-7.504c0.631-4.316,4.47-5.986,7.274-7.205c1.709-0.744,3.47-1.511,3.601-3.004
		c0.263-0.333,0.923-0.935,1.57-1.506c0.177-0.072,0.348-0.158,0.502-0.273c0.056-0.041,5.747-4.238,15.162-8.124
		c10.525-4.343,17.287-2.255,20.381-0.622c5.368,2.832,11.099,4.858,16.576,5.855c4.251,0.775,6.928,1.843,8.356,3.341
		C549.124,369.075,546.082,371.275,543.851,371.496z M436.16,305.988c2.539-0.749,5.001-0.978,5.074-0.983
		c0.279-0.027,6.143-0.607,10.893-1.757c2.014,11.995-2.891,23.407-5.059,27.697c-0.998,0.834-2.053,1.71-3.182,2.645
		C445.003,319.616,439.279,310.069,436.16,305.988z M343.336,292.8c8.254,1.393,30.793,5.887,40.398,14.646
		c-10.643-7.535-29.939-11.312-40.825-12.924C343.287,293.96,343.393,293.378,343.336,292.8z M342.152,290.115
		c-0.143-0.208-0.285-0.408-0.419-0.595c-0.954-1.333-1.601-2.325-1.239-2.954c0.363-0.631,2.202-2.176,11.255-3.421
		c7.08,2.504,26.05,10.014,33.415,20.784c-0.155,0.289-0.272,0.591-0.399,0.891C373.061,295.342,348.422,291.071,342.152,290.115z
		 M288.676,237.901c-0.73-0.448-1.69-0.491-2.46-0.092c-0.522,0.181-2.529,0.038-3.59-0.74c-0.377-0.278-0.69-0.646-0.416-1.441
		c0.809-2.348,1.182-2.453,4.752-3.453c0.93-0.261,2.006-0.562,3.261-0.958c7.528-2.37,17.686,1.639,22.834,4.098
		c-0.878,0.272-2.078,0.539-3.339,0.817c-4.525,1.002-10.935,2.425-13.942,6.546c-2.886,0.711-5.019,0.738-5.858,0.074
		c-0.815-0.648-0.652-2.235-0.45-2.891C289.706,239.133,289.406,238.348,288.676,237.901z M313.291,222.75
		c0.019,0.028,0.031,0.056,0.051,0.083c0.725,1.034,1.721,1.765,2.632,2.024c2.909,3.966,3.664,7.375,3.838,9.179
		c-0.281,0.009-0.556,0.035-0.834,0.049c-0.028-0.018-0.049-0.039-0.078-0.056c-0.166-0.097-1.211-0.704-2.866-1.523
		c-1.547-1.561-3.289-3.964-3.505-7.07c0.488-0.629,0.793-1.558,0.769-2.604C313.298,222.804,313.292,222.778,313.291,222.75z
		 M298.671,246.548c0.975-4.393,7.194-5.771,12.189-6.877c1.95-0.432,3.634-0.805,4.897-1.334c1.732-0.726,5.176-0.757,8.239-0.538
		c-0.186,0.086-0.365,0.177-0.556,0.259c-6.962,3.005-5.033,7.086-3.997,9.278c0.257,0.546,0.501,1.06,0.62,1.495
		c0.006,0.02,0.014,0.038,0.02,0.058c-1.808-0.219-3.565-0.327-5.239-0.272c-3.823,0.127-6.807,0.876-9.101,1.791
		c-1.548-1.431-3.586-1.948-5.155-2.335C298.449,247.546,298.449,247.546,298.671,246.548z M376.779,280.855l0.116-0.107
		c2.433,2.29,4.772,4.75,6.663,7.047c-0.485-0.438-0.991-0.875-1.538-1.31c-3.828-3.045-9.764-6.305-18.154-7.265
		c-15.745-14.852-40.551-23.126-52.799-26.506c1.169-0.226,2.48-0.387,3.957-0.436C337.173,251.527,376.384,280.562,376.779,280.855
		z M303.285,256.442c0.073-0.087,1.092-1.244,3.36-2.319c9.531,2.442,35.949,10.209,52.915,24.821
		c-2.137-0.032-4.398,0.069-6.812,0.364c-3.58,0.436-6.519,0.952-8.884,1.569c-23.028-14.409-47.533-18.015-56.513-18.88
		c0.436-0.697,0.836-1.457,1.177-2.305c0.58-1.442,1.551-2.407,2.968-2.952c3.057-1.175,7.635-0.137,9.137,0.361
		C301.586,257.421,302.693,257.139,303.285,256.442z M357.536,282.613c18.829-0.612,26.549,11.3,28.183,14.286
		c-0.275,1.077-0.263,2.181,0.042,3.285C378.557,291.883,365.711,285.839,357.536,282.613z M401.155,309.79
		c-3.453,0.213-7.252,1.567-9.683,5.422c-0.255,0.404-0.475,0.804-0.686,1.202c-0.85-1.402-1.725-2.998-2.28-4.437
		c-0.763-1.974-0.361-6.178,2.003-8.274c1.341-1.188,3.152-1.528,5.537-1.039c2.501,0.512,4.162,1.43,4.939,2.727
		C401.911,306.94,401.507,308.772,401.155,309.79z M405.553,313.926c0.318,0.107,0.669,0.153,1.004,0.128
		c1.361-0.09,2.518-1.136,3.659-3.329c2.399,3.419,7.096,8.707,15.038,12.723c-0.18,0.529-0.336,1.053-0.461,1.565
		c-0.42,0.085-0.821,0.196-1.211,0.321c-14.655-0.081-24.422-6.455-27.759-9.022C399.121,312.01,404.886,313.711,405.553,313.926z
		 M389.181,323.419c0.307,3.678,2.511,6.669,5.587,8.406c-1.147,0.308-2.405,0.729-3.745,1.295
		c-7.999-8.291-23.821-17.209-30.181-20.621c0.718-0.5,1.359-1.05,1.936-1.549c1.877-1.621,3.153-2.605,5.036-2.605
		c2.357,0,4.224,2.431,6.03,4.782c1.738,2.262,3.379,4.399,5.953,4.826C385.348,318.872,388.329,320.622,389.181,323.419z
		 M393.598,323.13l0.057-0.009c-0.016-0.07-0.049-0.131-0.067-0.202c-0.076-1.283,0.183-2.724,0.891-4.301
		c3.745,2.775,12.28,7.923,24.886,8.961c-1.032,0.778-1.972,1.631-2.866,2.447c-1.366,1.248-2.655,2.426-3.891,2.938
		c-2.219,0.923-8.077-0.622-14.918-3.929C395.785,328.117,393.853,326.05,393.598,323.13z M420.016,340.183
		c1.245-2.954,0.381-6.007-0.292-7.65c0.017-0.016,0.033-0.03,0.05-0.046c1.515-1.385,2.974-2.702,4.618-3.44
		c0.122,2.424,0.882,4.861,2.345,7.663c0.314,0.601,0.654,1.136,1.007,1.637c-2.523,4.061-4.039,4.598-6.961,5.616
		c-1.518,0.529-3.407,1.187-5.776,2.427c-1.066,0.557-2.609,0.962-4.425,1.263c0.518-0.655,1.524-1.457,3.483-2.238
		C417.053,344.223,419.055,342.462,420.016,340.183z M427.176,315.731c0.543,1.084,0.842,1.681-0.446,4.216
		c-0.197,0.387-0.344,0.748-0.517,1.122c-8.693-4.576-13.121-10.873-14.656-13.455c0.029-0.079,0.058-0.145,0.087-0.226
		c2.237-6.203,5.534-6.203,7.503-6.203c1.521,0,2.69-0.569,3.722-1.07c1.353-0.657,2.523-1.227,4.834-0.942
		c2.051,0.252,3.889,2.298,5.058,4.03c-3.16,1.248-6.144,3.305-6.563,6.693C425.812,313.007,426.6,314.582,427.176,315.731z
		 M431.259,314.327c-0.481-0.96-0.935-1.867-0.664-4.056c0.175-1.412,1.353-2.456,2.86-3.229c2.972,3.848,9.29,14.048,7.203,29.006
		c-3.321,2.252-5.304,2.613-6.434,2.434c-1.261-0.199-2.415-1.285-3.428-3.224c-2.704-5.181-2.702-8.555,0.008-13.889
		C432.665,317.705,432.166,316.139,431.259,314.327z M515.006,343.017c0.236-0.019,0.468-0.069,0.686-0.149
		c2.091-0.769,3.778-1.013,5.164-1.02c0.567,2.668-0.337,7.707-1.365,11.528c-1.683-0.207-3.58-0.256-5.664-0.087
		c-0.166-1.942-0.66-5.625-2.083-8.745C513.869,343.342,514.796,343.068,515.006,343.017z M505.512,343.822
		c-23.787-3.995-42.913-12.693-49.066-15.719c2.408-2.218,4.628-4.474,6.974-7.191c5.707,0.199,32.634,1.887,53.554,17.717
		c-0.883,0.193-1.809,0.439-2.805,0.793C512.178,339.763,508.962,341.553,505.512,343.822z M520.685,338.182
		c-20.111-16.213-46.402-19.128-55.291-19.636c0.549-0.676,1.104-1.369,1.678-2.109c0.079-0.101,0.154-0.215,0.232-0.317
		c5.491,0.076,36.644,1.359,57.757,19.78c-0.206,0.978-0.377,1.891-0.49,2.673C523.559,338.347,522.256,338.159,520.685,338.182z
		 M463.352,314.457c-0.323,0.416-0.638,0.813-0.951,1.207c1.271-4.462,2.167-10.533,1.131-17.605
		c3.086-2.117,5.84-4.646,7.912-7.298C471.9,297.532,468.651,307.63,463.352,314.457z M470.378,284.22
		c-2.216,5.997-10.186,12.771-17.944,15.099c-2.713,0.815-6.47,1.396-8.981,1.726c7.7-3.528,19.341-10.146,27.778-20.677
		C470.603,281.288,470.212,282.308,470.378,284.22z M454.965,302.402c1.983-0.677,3.947-1.57,5.835-2.645
		c1.312,11.95-3.183,20.764-4.172,22.528c-1.437,1.483-2.894,2.867-4.461,4.274C454.433,320.63,456.686,311.745,454.965,302.402z
		 M454.404,329.937c5.551,2.765,24.397,11.523,48.198,15.87c-1.62,1.139-3.231,2.324-4.736,3.46
		c-0.34,0.193-1.748,0.953-4.007,1.725c-16.595-1.8-35.636-15.521-41.054-19.664C453.351,330.857,453.882,330.395,454.404,329.937z
		 M500.561,352.172c0.063-0.038,0.125-0.08,0.181-0.124c3.644-2.757,6.411-4.662,8.51-5.998c1.116,2.78,1.516,5.995,1.647,7.606
		c-2.557,0.448-5.363,1.234-8.418,2.495c-3.168,1.308-5.922,2.64-8.219,3.856c-0.008-0.027-0.011-0.053-0.02-0.08
		c-0.275-0.816-1.073-1.894-3.312-2.4c-1.062-0.241-2.04-0.735-3.099-1.326C495.446,355.201,500.209,352.387,500.561,352.172z
		 M549.613,363.233c-1.903-0.899-4.291-1.604-7.254-2.146c-1.813-0.331-3.661-0.79-5.516-1.363c0.721-2.246,2.92-7.365,8.58-10.957
		c1.628,3.381,4.603,6.723,10.912,8.873C552.741,360.008,550.524,362.232,549.613,363.233z M534.085,358.784
		c-1.275-0.471-2.544-0.993-3.803-1.565c1.092-3.879,4.283-14.386,8.33-20.331c0.248,0.057,0.48,0.126,0.74,0.174
		c2.537,0.468,3.163,2.034,4.186,6.062c0.256,1.011,0.533,2.094,0.902,3.204C537.693,350.234,535.031,355.954,534.085,358.784z
		 M527.615,355.927c-0.136-0.07-0.273-0.135-0.409-0.206c-1.192-0.629-2.814-1.315-4.843-1.817
		c0.762-2.832,1.938-8.027,1.489-11.691c0.252,0.063,0.485,0.127,0.697,0.186c0.966,0.269,2.17,0.602,3.296-0.109
		c0.404-0.255,1.07-0.848,0.995-1.962c-0.077-1.15,0.772-4.919,1.759-8.75c1.108,1.741,2.779,3.339,5.245,4.419
		C531.89,341.991,528.867,351.561,527.615,355.927z M528.317,323.923c-0.148,0.181-0.255,0.383-0.318,0.596
		c-0.336,1.159-1.388,4.831-2.267,8.438c-20.224-16.59-48.222-18.926-56.769-19.239c0.609-0.952,1.194-1.943,1.745-2.979
		c7.996-0.546,38.997-2.039,60.159,5.617C531.324,318.732,530.48,321.272,528.317,323.923z M438.043,300.592
		c6.036-4.235,20.66-15.402,31.853-31.22c0.3,1.345,0.783,2.624,1.233,3.808c0.225,0.59,0.433,1.162,0.621,1.722
		C462.276,289.52,445.437,297.601,438.043,300.592z M432.871,297.408c-1.276-0.924-2.778-1.642-4.522-1.856
		c-0.043-0.006-0.08-0.004-0.122-0.009c0.165-5.151,1.715-19.428,13.578-24.701c0.383-0.17,0.697-0.431,0.903-0.748
		c1.395-2.15,5.282-7.064,9.813-9.823C443.349,272.296,435.582,290.628,432.871,297.408z M425.989,282.853l0.118,0.028
		c-1.611,4.459-2.123,8.762-2.27,11.557c-0.442-0.423-0.983-0.899-1.627-1.422c2.287-10.085,13.213-57.353,20.682-73.827
		c2.368,0.042,4.101,0.394,5.672,0.718c0.311,0.065,0.599,0.11,0.896,0.165c0.094,0.024,0.187,0.051,0.286,0.066
		c0.035,0.004,0.068,0.002,0.101,0.006c0.655,0.111,1.293,0.202,1.909,0.235C443.135,234.479,429.158,273.798,425.989,282.853z
		 M420.424,296.788c0.063,0.059,0.132,0.12,0.191,0.176c-0.619,0.301-1.153,0.559-1.47,0.559c-2.34,0-8.559,0-11.737,8.817
		c-0.747,2.07-1.345,3.193-1.727,3.78c-0.021-0.004-0.046-0.008-0.067-0.012c0.439-1.634,0.686-4.054-0.652-6.313
		c-0.45-0.76-1.05-1.432-1.769-2.031c1.071,0.02,2.191-0.053,3.325-0.31c2.496-0.561,4.572-1.804,6.186-3.702
		C414.605,297.842,417.921,297.805,420.424,296.788z M416.816,293.943c-1.601,0.241-3.591,0.22-4.968,0.072
		c-0.884-0.09-1.763,0.264-2.207,0.909c-3.748,5.442-10.655,2.413-11.423,2.053c-0.728-0.347-1.63-0.323-2.329,0.063
		c-3.165,1.748-4.968,2.213-5.832,2.326c-0.262-0.926-0.134-1.797,0.384-2.684c1.853-3.175,8.226-5.613,11.808-6.404
		c1.388-0.307,2.692-0.44,3.909-0.44C411.303,289.838,414.895,292.222,416.816,293.943z M413.493,287.514
		c0.101-0.929,0.581-2.966,2.427-6.901c0.657,1.924,1.14,4.699,0.787,8.425C415.732,288.474,414.665,287.95,413.493,287.514z
		 M379.675,266.482c-7.126-6.732-10.115-13.29-11.196-18.626c1.653,2.113,3.887,4.322,6.83,6.627
		c14.583,11.417,16.972,22.443,16.557,29.434C389.954,278.767,386.162,272.61,379.675,266.482z M395.649,288.468
		c1.634-7.071,1.818-21.676-17.306-36.647c-8.227-6.441-10.16-11.742-9.248-16.271c0-0.001,0.002-0.006,0.002-0.007h-0.001
		c0.868-4.294,4.293-7.896,7.361-11.114c0.539-0.566,1.054-1.108,1.538-1.636c0.73,3.593,2.146,9.137,4.814,15.769
		c1.111,2.761,2.58,5.756,4.135,8.928c4.892,9.978,10.912,22.291,12.493,39.674C398.3,287.488,396.994,287.925,395.649,288.468z
		 M376.654,217.677c-0.483,1.143-2.03,2.765-3.666,4.481c-1.886,1.978-4.153,4.362-5.875,7.134
		c-1.501-2.992-3.738-6.228-5.099-8.098c4.701-3.104,6.07-6.522,6.803-8.529c2.783,1.593,6.333,2.551,8.553,3.04
		C377.165,216.36,376.933,217.02,376.654,217.677z M365.428,232.651c-0.233,0.611-0.428,1.238-0.581,1.881
		c-0.718,1.885-6.042,17.789,11.504,34.364c6.732,6.359,10.561,13.048,12.001,18.264c-4.046-5.314-10.425-11.263-15.065-14.681
		c-0.769-0.567-1.622-1.184-2.531-1.842c-6.718-4.86-17.96-12.994-19.807-19.207c-2.855-9.603-0.686-22.258,8.72-28.727
		C361.655,225.469,364.535,229.841,365.428,232.651z M352.447,260.883c-4.844-2.61-9.978-5.105-15.092-7.162
		c5.331-1.402,6.372-6.749,7.448-12.36c0.235-1.225,0.523-2.19,0.848-2.982c-0.675,4.469-0.394,9.223,1.004,13.927
		C347.484,255.098,349.659,258.026,352.447,260.883z M347.829,229.281c-0.44,1.312-1.142,1.865-2.206,2.703
		c-1.837,1.449-4.123,3.251-5.187,8.801c-1.746,9.102-3.02,9.99-7.272,9.576c-6.687-0.647-8.418-0.99-8.789-2.34
		c-0.193-0.704-0.509-1.373-0.815-2.02c-1.073-2.271-1.518-3.211,1.923-4.696c6.113-2.638,10.424-6.948,11.499-8.09l8.771-4.736
		c0.115-0.062,0.223-0.134,0.322-0.213c0.035-0.028,0.243-0.194,0.57-0.475c0.422-0.029,1.133,0.037,1.293,0.184
		C347.993,228.025,348.128,228.39,347.829,229.281z M334.997,210.024c-0.873,1.665-1.523,4.184-2.009,6.918
		c-1.45-1.642-3.437-3.256-5.972-3.98c-0.493-0.56-1.286-1.1-2.28-1.495c-2.036-0.808-4.126-0.698-4.668,0.246
		c-0.541,0.944,0.67,2.364,2.708,3.172c1.285,0.51,2.59,0.652,3.515,0.452c2.975,0.954,5.069,3.763,6.12,5.514
		c-0.09,0.738-0.169,1.469-0.242,2.183c-1.425-1.777-3.522-3.753-6.355-4.935c-0.402-0.676-1.225-1.376-2.345-1.895
		c-1.971-0.913-4.067-0.915-4.682-0.004c-0.615,0.911,0.484,2.389,2.455,3.302c1.047,0.485,2.121,0.705,2.997,0.676
		c4.995,1.933,7.495,7.354,7.523,7.413c0.008,0.018,0.025,0.031,0.033,0.049c-0.135,2.15-0.178,3.65-0.184,3.843
		c-0.01,0.365,0.11,0.707,0.324,0.996c-0.734,0.662-1.69,1.461-2.811,2.28c-0.061-0.023-0.125-0.042-0.188-0.061
		c0.117-1.747-0.069-5.46-2.892-9.397c0.076-0.743-0.174-1.677-0.777-2.59c-1.084-1.641-2.859-2.565-3.964-2.064
		c-1.105,0.501-1.121,2.238-0.037,3.878c0.592,0.896,1.39,1.567,2.172,1.919c2.344,3.226,2.611,6.309,2.561,7.846
		c-0.932-0.095-2.035-0.185-3.228-0.235c-0.164-2.134-1.007-6.214-4.633-10.945c-0.053-0.665-0.332-1.431-0.854-2.176
		c-0.521-0.744-1.184-1.322-1.853-1.691c0.153-0.781-0.313-1.582-1.217-1.942c-0.036-0.014-3.773-1.599-8.008-6.872
		c-3.711-4.622-1.67-7.832,0.169-9.823c0.428-0.341,2.502-0.636,3.874-0.832c3.079-0.44,6.91-0.986,9.491-3.052
		c5.805-4.648,8.726-2.443,10.47-1.125c0.278,0.209,0.512,0.382,0.698,0.497c4.89,3.044,6.384,8.964,6.405,9.047
		c0.01,0.042,0.031,0.08,0.045,0.12c-0.475,0.929-0.922,1.844-1.342,2.704C335.642,208.741,335.303,209.44,334.997,210.024z
		 M285.555,264.292c6.867,0.54,31.546,3.413,55.079,17.632c-1.813,0.74-3.061,1.597-3.812,2.592
		c-2.568-1.374-6.938-3.051-13.042-3.15l-0.011-0.12c-20.145,1.307-38.741-6.402-44.848-8.935c-0.089-0.037-0.159-0.066-0.243-0.1
		c-0.149-1.49-0.451-2.792-0.753-3.79C280.083,267.928,283.096,266.81,285.555,264.292z M338.124,291.661
		c-4.221-2.671-10.574-5.049-15.354-6.626c8.77-0.128,13.307,3.558,13.58,3.789l0.03-0.023c0.399,0.957,1.012,1.837,1.55,2.588
		C337.991,291.472,338.057,291.566,338.124,291.661z M322.372,297.76c1.579-1.632,6.521-1.431,10.494-1.269
		c2.324,0.094,4.362,0.166,6.044-0.037c9.982,1.317,34.61,5.389,44.916,14.44c0.081,0.822,0.232,1.584,0.469,2.199
		c0.305,0.792,0.69,1.612,1.108,2.424c-1.412-0.472-2.979-0.864-4.739-1.156c-0.724-0.12-2.206-2.049-3.09-3.201
		c-2.217-2.886-4.976-6.478-9.76-6.478c-3.3,0-5.517,1.479-7.288,2.94c-15.055-7.914-32.216-8.758-38.697-8.764
		C321.918,298.441,322.082,298.06,322.372,297.76z M358.402,309.395c-1.288,1.004-1.96,1.205-2.981,0.876
		c-9.497-3.059-16.776-2.776-22.091-2.571c-6.852,0.265-9.158,0.355-11.112-5.529c-0.089-0.269-0.17-0.559-0.244-0.854
		C328.168,301.363,344.368,302.224,358.402,309.395z M330.504,313.881c2.443,1.204,5.64,2.682,9.605,4.323
		c-3.132,0.301-6.217,0.853-9.266,1.404c-5.323,0.963-10.83,1.961-16.345,1.477c-6.479-0.566-10.169-3.089-12.286-5.676
		c1.783,0.729,3.955,1.255,6.542,1.255c1.113,0,2.304-0.097,3.571-0.315c3.16-0.546,5.368-1.204,7.141-1.734
		C322.812,313.617,324.918,312.997,330.504,313.881z M331.787,323.187c6.582-1.19,12.87-2.324,19.226-0.832
		c1.477,0.519,2.997,1.04,4.597,1.564c1.361,0.61,2.616,1.199,3.791,1.769c-2.343-0.691-5.02-1.276-8.104-1.634
		c-5.431-0.63-11.013-0.255-16.409,0.107c-4.101,0.275-7.923,0.53-11.156,0.306C326.47,324.141,329.15,323.664,331.787,323.187z
		 M357.612,320.653c-1.73-0.775-3.443-1.349-5.139-1.765c-8.031-2.834-14.208-5.526-18.432-7.55
		c5.112-0.194,11.429-0.344,19.778,2.345c1.577,0.509,2.947,0.495,4.148,0.191c4.699,2.488,20.344,11.047,29.076,19.13
		c-2.282-0.226-5.195-0.471-8.379-0.632c-0.946-0.423-2.073-1.155-3.58-2.149C371.819,328.065,366.881,324.804,357.612,320.653z
		 M382.234,336.274c0.898,0.068,1.754,0.139,2.556,0.21c-1.891,1.077-3.494,1.837-4.941,2.52c-3.175,1.497-5.684,2.681-7.934,5.861
		c-1.323,1.869-3.556,3.779-5.35,5.313c-1.298,1.11-2.299,1.969-2.922,2.742c-1.933,1.039-5.926,2.438-13.777,2.953
		c3.179-1.339,6.323-3.191,8.746-5.761C363.739,344.676,370.989,338.344,382.234,336.274z M375.726,346.719
		c1.652-2.335,3.306-3.115,6.308-4.53c1.894-0.893,4.251-2.005,7.171-3.819c6.482-4.028,11.452-3.74,11.713-3.718
		c0.069,0.006,0.137,0,0.205,0c2.639,0.995,5.353,1.785,7.834,2.083c-0.618,1.454-2.53,3.609-8.386,4.655
		c-6.127,1.096-8.996,5.402-9.807,6.86c-1.435-0.049-2.763-0.102-3.894-0.148c-2.114-0.087-3.783-0.155-4.91-0.155
		c-3.066,0-6.698,1.38-9.905,2.753C373.393,349.478,374.727,348.131,375.726,346.719z M401.191,343.776
		c7.892-1.41,10.134-4.808,10.757-6.942c0.956-0.075,1.844-0.264,2.637-0.591c1.002-0.415,1.915-1.004,2.778-1.671
		c0.373,1.346,0.579,3.126-0.129,4.809c-0.694,1.644-2.189,2.936-4.448,3.836c-3.988,1.591-5.216,3.523-5.556,4.851
		c-4.093,0.361-8.906,0.372-13.188,0.276C395.118,346.846,397.379,344.457,401.191,343.776z M417.366,349.486
		c2.061-1.078,3.691-1.646,5.131-2.147c2.313-0.806,4.134-1.525,5.953-3.221c2.056,5.269,6.548,19.365,3.314,35.441
		c-0.237,0.053-0.463,0.125-0.703,0.173c-9.373,1.869-13.828,5.355-15.951,8.28c-6.84-15.227-9.001-30.807-9.572-36.144
		C410.473,351.569,414.703,350.88,417.366,349.486z M438.835,341.372c1.388-0.527,2.864-1.317,4.44-2.372
		c0.73,0.93,1.808,2.075,3.39,3.403c4.485,10.148,4.149,17.632,2.333,22.842C447.578,355.635,441.533,345.507,438.835,341.372z
		 M446.611,336.503c0.063-0.052,0.124-0.096,0.188-0.149c1.41-1.167,2.707-2.243,3.936-3.276
		c4.967,3.835,21.112,15.571,37.159,19.358c-5.606,0.85-13.193,0.644-21.82-3.2C452.289,343.096,447.908,338.375,446.611,336.503z
		 M473.394,357.429c1.829-0.537,3.335-0.759,4.632-0.759c2.801,0,4.629,1.038,6.645,2.181c1.521,0.864,3.094,1.757,5.096,2.21
		c0.029,0.006,0.057,0.013,0.082,0.019c-0.464,0.861-2.211,2.427-3.322,3.401c-8.839-0.356-15.471,0.597-19.433,1.454
		c0.71-1.015,1.388-2.05,2.034-3.034C470.456,360.872,472.464,357.805,473.394,357.429z M483.94,366.851
		c-0.547,0.582-0.916,1.111-1.066,1.647c-0.337,0.174-0.884,0.411-1.313,0.598c-1.951,0.848-4.976,2.173-7.137,4.655
		c-5.038-0.485-10.13-0.434-13.259-0.323c0.764-1.328,1.542-2.362,2.205-2.989c0.428-0.405,0.844-0.853,1.254-1.318
		C466.57,368.521,473.387,366.711,483.94,366.851z M472.88,376.071c-0.434,0.897-0.76,1.901-0.925,3.031
		c-0.046,0.313-0.104,0.585-0.16,0.86l-12.571-2.242c0.218-0.628,0.455-1.221,0.7-1.793
		C462.436,375.81,467.64,375.66,472.88,376.071z M471.007,382.319c-0.616,1.174-1.425,1.848-2.357,2.608
		c-0.999,0.814-2.152,1.768-3.129,3.345c-3.112-0.675-6.007-3.905-7.456-5.954c0.122-0.763,0.271-1.508,0.451-2.227L471.007,382.319
		z M464.448,390.548c-0.104,0.291-0.209,0.577-0.301,0.898c-1.961,6.914,7.05,8.972,12.433,10.202
		c1.504,0.343,2.924,0.668,3.676,0.981c1.353,0.562,1.008,4.572,0.823,6.726c-0.038,0.443-0.075,0.868-0.104,1.278
		c-10.08-1.626-18.678-9.908-21.81-13.276c-0.48-1.3-0.595-2.396-0.762-4.075c-0.102-1.029-0.224-2.256-0.449-3.832
		c-0.155-1.089-0.225-2.167-0.223-3.226C459.411,387.988,461.726,389.848,464.448,390.548z M464.806,430.369
		c1.908,1.326,3.508,2.177,4.907,2.682c-1.79,3.821-8.186,15.515-25.927,32.854c-1.083-2.174-2.822-5.168-4.673-6.35
		c-1.593-1.017-2.93-2.044-4.01-3.069C450.201,448.657,461.156,435.236,464.806,430.369z M472.608,433.644
		c0.073,0.002,0.151,0.013,0.224,0.013c0.836,0,1.602-0.15,2.345-0.385c1.188,1.987,3.542,3.395,6.178,4.399
		c-0.117,3.634-1.495,13.728-11.894,27.368c-0.607,0.09-1.166,0.362-1.505,0.823c-2.662,3.616-6.477,3.103-12.997,1.883
		c-2.543-0.478-5.305-0.992-8.096-1.077C464.78,448.995,470.939,437.367,472.608,433.644z M472.517,465.603
		c9.614-12.872,11.477-22.552,11.762-26.994c3.238,0.865,6.429,1.244,8.106,1.391c2.851,2.998,7.847,5.413,13.493,6.401
		c-0.254,4.396-3.122,15.388-12.598,18.841C485.409,468.108,476.349,466.511,472.517,465.603z M495.414,437.23
		c-0.38-0.468-0.998-0.765-1.676-0.806c-3.459-0.209-12.911-1.554-14.663-4.932c1.246-0.538,2.651-0.852,4.95-0.518
		c8.967,1.303,11.286,0.08,14.324-2.026c0.436-0.302,0.9-0.625,1.44-0.954c0.571-0.35,0.572-0.352,1.21-0.157
		c1.698,0.514,3.273,0.546,5.216-0.611c1.992,2.521,5.813,8.083,7.976,15.817C506.605,443.932,498.584,441.143,495.414,437.23z
		 M510.101,448.636c0.119-0.645,0.217-1.224,0.274-1.776c0.327,0.01,0.655,0.023,0.983,0.023c2.924,0,5.894-0.418,8.728-1.353
		c3.076-1.018,5.633-2.306,7.785-3.744c0.433,6.03,0.122,18.643-7.705,31.399c-3.395-1.784-7.041-4.928-8.932-10.48
		C508.815,455.603,509.588,451.411,510.101,448.636z M548.534,415.788c2.111,1.512,5.065,3.936,7.628,7.156
		c-1.791,1.607-4.893,2.697-9.258,3.234c-0.943,0.116-1.689,0.72-1.852,1.498c-0.006,0.029-0.455,1.983-1.833,3.714
		c-0.195-3.292-1.3-6.093-2.271-7.947C544.344,422.464,547.902,420.221,548.534,415.788z M548.596,412.674
		c-0.196-2.467-0.931-4.662-1.848-6.502c1.916,0.568,2.681,0.921,3.077,1.833c1.493,3.446,6.057,6.045,7.621,6.854
		c0.038,0.163,0.076,0.325,0.122,0.513c0.328,1.314,0.819,3.297,0.192,5.19C554.333,416.577,550.517,413.889,548.596,412.674z
		 M554.769,407.963c2.109-0.611,5.058-1.725,7.112-3.535c0.605,0.576,1.357,1.141,2.249,1.697c0.295,0.854,0.507,3.171-4.326,5.63
		C558.538,411.103,556.142,409.632,554.769,407.963z M560.053,382.42c-1.071-0.933-2.282-1.781-3.544-2.539
		c7.363-0.432,19.828-2.042,37.661-7.107c3.655-1.038,7.518-2.21,11.627-3.56c0.891,0.804,1.96,1.648,3.233,2.47l1.058,0.672
		c2.611,1.652,6.077,3.856,8.274,6.768c-1.689,0.376-3.404,0.715-5.132,1.024c-1.249,0.224-2.505,0.435-3.767,0.627
		c-4.015,0.61-8.068,1.06-12.045,1.391C580.59,383.563,565.153,382.763,560.053,382.42z M744.632,370.915
		c-58.931-22.007-105.785-28.254-105.785-28.254c41.485-3.443,85.28,9.338,105,16.691
		C760.747,365.655,773.335,381.634,744.632,370.915z M725.024,318.038c1.887,0.191,30.718,3.386,25.377,18.659
		c-5.429,15.526-39.195,1.623-56.832-1.623c-17.637-3.247-52.913-9.741-77.41-7.306c0,0,72.767-37.883,127.253-39.619
		c10.492-0.334,22.711,5.922,19.772,19.722C760.336,321.245,727.072,318.236,725.024,318.038z M590.359,362.167
		c0.094-0.077,0.175-0.161,0.267-0.239c0.661-0.562,1.3-1.138,1.884-1.741c0.267,0.002,0.514,0.022,0.768,0.036
		c6.612,0.352,8.688,4.288,8.788,4.491c0.04,0.079,0.578,1.102,1.796,2.522c-3.693,1.2-7.185,2.255-10.502,3.195
		c-21.81,6.186-35.521,7.103-41.346,7.139c-1.082-0.48-2.109-0.887-3.014-1.224C557.875,375.175,579.111,371.497,590.359,362.167z
		 M582.945,353.367c2.289-0.065,3.787,1.008,4.966,2.445c0.537,0.655,1.013,1.376,1.456,2.114c0.203,0.337,0.404,0.665,0.625,0.965
		c-0.184,0.185-0.403,0.353-0.596,0.533c-10.171,9.516-32.289,13.345-41.044,14.518c2.327-1.12,4.344-2.797,5.243-4.134
		c1.166-1.737,0.598-2.928,0.156-3.482c-0.214-0.268-0.457-0.522-0.707-0.772C554.579,363.863,564.376,353.91,582.945,353.367z
		 M563.87,346.46c0.626,1.823,1.15,3.179,1.553,4.222c0.296,0.764,0.579,1.494,0.687,1.895c-0.065,0.042-0.146,0.095-0.249,0.158
		c-0.125,0.077-0.236,0.164-0.334,0.257c-1.712,0.642-3.288,1.341-4.724,2.065c-9.23-2.153-11.271-6.558-12.516-11.079
		c9.763-0.432,15.472,2.515,15.533,2.547L563.87,346.46z M561.063,337.047c0.656,2.5,1.263,4.597,1.817,6.381
		c-2.864-0.99-8.067-2.259-15.225-1.865c-0.938-3.599-2.174-7.124-7.346-8.075c-0.909-0.167-1.691-0.423-2.386-0.73
		c5.084-4.391,13.316-7.541,16.915-8.781C557.539,327.669,559.739,331.994,561.063,337.047z M553.199,321.89
		c-4.072,1.425-12.313,4.687-17.586,9.332c-2.493-2.405-2.52-5.813-2.465-6.833c2.153-3.237,2.789-6.433,1.879-9.526
		c-1.434-4.874-6.32-7.941-8.325-9.021c-0.102-0.301-0.229-0.578-0.348-0.861C532.75,306.972,544.791,311.819,553.199,321.89z
		 M522.631,307.429c0.141,0.51,0.541,0.946,1.097,1.196c0.046,0.02,3.625,1.67,5.747,4.616c-20.632-6.604-47.879-5.647-57.516-5.04
		c0.242-0.527,0.477-1.054,0.7-1.591c6.737-1.453,31.438-6.507,44.318-5.46C519.78,302.514,521.79,304.412,522.631,307.429z
		 M513.895,296.044c-2.406-0.672-4.977-1.209-7.593-1.751c-3.044-0.629-6.192-1.28-9.275-2.182
		c-8.608-2.515-16.583,1.383-21.54,4.852c0.22-1.333,0.355-2.635,0.401-3.897c7.336-2.364,35.51-11.122,51.589-11.625
		C527.878,283.626,527.862,290.538,513.895,296.044z M528.027,278.767c-0.098,0.066-0.168,0.149-0.25,0.227
		c-13.14,0.345-33.673,5.929-45.53,9.487c0.755-0.434,1.5-0.898,2.23-1.388c9.571-3.027,38.228-12.267,46.465-16.904
		C531.576,272.756,531.624,276.384,528.027,278.767z M517.172,257.368c0.306,0.156,0.644,0.274,1.025,0.289
		c0.063,0.003,6.472,0.353,9.651,3.391c1.425,1.363,2.002,3.059,1.766,5.186c-0.036,0.32,0.033,0.645,0.195,0.938
		c0.024,0.043,0.128,0.238,0.264,0.531c-4.552,3.134-25.873,10.408-40.436,15.123c1.23-1.289,2.233-2.621,2.85-3.936
		c0.814-1.734,2.387-4.069,4.209-6.774c0.842-1.249,1.727-2.565,2.608-3.925l0.032,0.028
		C502.575,265.615,511.556,259.052,517.172,257.368z M506.082,254.394c2.641-0.811,6.707-1.632,8.689-0.673
		c0.399,0.193,0.907,0.553,1.175,1.433c-4.166,1.323-9.312,4.544-13.159,7.227C504.203,259.751,505.395,257.054,506.082,254.394z
		 M501.092,242.792c0.926,2.992,1.427,5.891,1.103,8.573c-0.745,6.179-5.522,13.269-9.36,18.967
		c-0.793,1.177-1.522,2.27-2.192,3.307c-3.32,1.853-9.101,4.048-14.096,5.714c0.11-0.5,0.179-1.071,0.179-1.769
		c0-1.867-0.704-3.717-1.384-5.506c-0.08-0.212-0.16-0.422-0.239-0.631C479.221,267.759,494.153,254.013,501.092,242.792z
		 M488.924,217.254c1.542,0.335,2.562,0.557,3.613,4.476c0.857,3.194,2.471,6.699,4.18,10.408c1.09,2.368,2.192,4.764,3.126,7.132
		c-5.288,10.181-19.938,24.143-25.626,29.354c-0.44-2.033-0.238-3.97,1.658-5.989c4.186-4.459,7.432-14.746,6.018-17.115
		c-0.432-0.723-1.308-1.181-2.218-1.161c-1.685,0.011-2.574,1.32-3.275,2.546c-2.505,4.38-9.561,7.795-12.242,8.968
		c-0.291-0.136-0.583-0.256-0.878-0.37c3.635-5.52,17.843-27.549,21.546-40.021C486.276,216.662,487.754,217,488.924,217.254z
		 M455.148,219.957c1.512-0.495,3.128-1.455,5.066-3.151c4.452-3.894,12.872-5.724,18.112-5.188c1.863,0.19,3.291,0.656,4.153,1.331
		c-2.398,11.574-18.909,37.02-22.069,41.815c-1.482-0.208-3.005-0.168-4.564,0.139c-8.444,1.668-15.164,10.74-16.709,12.977
		c-2.457,1.167-4.518,2.639-6.255,4.294C441.338,249.022,450.459,227.021,455.148,219.957z M448.536,216.135
		c-2.161-0.42-5.016-0.829-9.12-0.483c5.967-6.084,16.506-15.598,24.838-22.974C458.255,199.972,450.818,210.29,448.536,216.135z
		 M470.566,181.545c0.155-0.046,0.292-0.081,0.434-0.12c-5.525,4.797-19.658,17.156-29.589,26.611
		c3.339-7.232,7.952-14.455,9.788-17.238C458.268,186.504,465.232,183.13,470.566,181.545z M445.571,194.405
		c-3.043,4.975-7.113,12.233-9.317,18.674c-1.01,1.024-1.894,1.955-2.654,2.792c1.351-8.573,4.667-14.688,6.6-17.667
		C441.953,196.899,443.752,195.63,445.571,194.405z M434.493,202.719c-1.891,4.151-3.728,9.828-4.267,16.818
		c-2.287,1.803-4.23,4.014-5.82,6.18c-0.788-5.389-0.99-9.924-1.04-11.939C426.233,210.24,429.984,206.504,434.493,202.719z
		 M416.679,270.192c-1.759,2.988-3.58,6.296-5.006,9.363c0.369-5.37,1.206-12.649,3.094-19.817
		c2.11-8.012,3.992-18.013,3.096-25.907C427.819,247.654,421.989,261.174,416.679,270.192z M416.891,226.342
		c0.337-2.622,1.609-5.596,3.702-8.792c0.198,3.053,0.605,7.246,1.431,11.77c-0.37,0.621-0.711,1.219-1.007,1.764
		c-1.24-1.627-2.627-3.21-4.128-4.738C416.891,226.344,416.891,226.343,416.891,226.342z M411.946,215.003
		c-0.93,1.472-1.862,3.074-2.789,4.73c-0.698-0.503-1.41-0.991-2.13-1.469c0.289-2.621,0.589-5.487,0.866-8.441l0.055,0.007
		c0.715-3.787,3.413-8.652,5.63-12.177C414.462,204.098,414.841,210.414,411.946,215.003z M411.957,179.102
		c-0.465,4.479,0.266,9.497,1.007,14.375c-1.104,1.601-2.767,4.136-4.309,6.961c0.247-3.767,0.396-7.336,0.373-10.31
		c-0.139-18.005-5.951-28.586-9.842-33.669C405.465,159.463,412.943,169.612,411.957,179.102z M404.607,190.152
		c0.019,2.425-0.08,5.263-0.255,8.287c-1.995-5.872-4.722-10.715-6.35-13.332c-0.032-1.877-0.078-3.766-0.124-5.64
		c-0.066-2.652-0.129-5.259-0.149-7.726c-0.031-3.812-1.028-7.469-1.827-10.407c-0.276-1.012-0.621-2.281-0.843-3.375
		C398.506,162.32,404.47,172.414,404.607,190.152z M403.618,208.119c-0.237,2.618-0.497,5.192-0.754,7.615
		c-1.361-0.759-2.747-1.469-4.153-2.122c-1.545-6.417-1.62-9.565-1.393-11.088c0.509-3.416,0.689-7.366,0.72-11.523
		C400.292,195.436,402.819,201.605,403.618,208.119z M392.148,214.975c7.942,2.878,15.824,8.031,21.618,13.995
		c2.329,6.097,1.693,16.684-1.878,30.245c-2.977,11.305-3.394,22.886-3.44,27.101c-0.558-0.061-1.127-0.104-1.71-0.12
		c-0.779-8.997-4.843-50.186-15.465-71.555C391.562,214.753,391.844,214.865,392.148,214.975z M403.788,286.321
		c-0.475,0.049-0.959,0.117-1.447,0.199c-1.675-17.515-7.736-29.895-12.665-39.948c-1.536-3.134-2.988-6.096-4.069-8.782
		c-3.401-8.452-4.732-15.22-5.188-18.102c0.155-0.268,0.297-0.534,0.409-0.799c1.286-3.041,1.816-6.091,2.011-8.521
		c1.119,0.774,2.521,1.61,4.24,2.458C398.446,232.44,402.955,277.016,403.788,286.321z M386.158,207.864
		c-1.204-0.793-2.043-1.494-2.601-2.029c0.1-1.65,0.419-3.915,1.268-6.542C385.088,201.944,385.536,204.807,386.158,207.864z
		 M384.584,191.735c-0.018,0.347-0.021,0.714-0.03,1.072c-1.636,2.888-2.621,5.62-3.201,7.988c-0.946-2.38-1.811-4.586-2.594-6.607
		c0.2-2.704,0.786-7.928,2.498-16.447c0.728-3.622,1.362-6.337,1.877-8.538C384.488,176.449,384.99,184.014,384.584,191.735z
		 M379.553,155.871c0.733,2.043,1.384,4.127,1.963,6.244c-0.082,1.554-0.509,3.376-1.206,6.34c-0.532,2.262-1.192,5.077-1.957,8.884
		c-0.897,4.467-1.487,8.023-1.881,10.816c-1.55-4.187-2.526-7.106-2.875-8.614c-0.255-1.106-0.634-2.62-1.119-4.438
		C374.352,171.586,378.168,163.745,379.553,155.871z M374.92,145.358c0.779,1.47,1.504,2.974,2.192,4.498
		c0.165,7.265-3.263,15.855-5.776,21.134c-2.262-7.904-5.84-19.01-10.212-29.105c0.345-2.906,0.579-7.622-0.547-12.346
		C365.784,133.233,371.355,138.633,374.92,145.358z M356.78,127.099c1.149,2.936,1.57,6.104,1.648,8.919
		c-2.102-4.289-4.343-8.187-6.677-11.328C353.202,125.215,354.922,126.027,356.78,127.099z M356.344,161.72
		c-3.846-12.737-7.836-28.166-8.196-34.919c8.778,11.85,16.314,35.513,19.653,47.749
		C364.411,171.181,359.842,166.374,356.344,161.72z M362.645,180.064c-0.933-1.976-2.431-6.135-4.116-11.344
		c4.19,4.748,8.503,8.906,10.568,10.839c0.056,0.232,0.111,0.464,0.158,0.669c0.888,3.846,5.238,15.084,9.187,24.932
		C373.518,198.977,368.406,192.265,362.645,180.064z M357.612,209.974c-0.189-1.386,0.443-2.046,1.318-2.961
		c1.679-1.754,2.409-3.377,1.214-5.594c9.52,6.002,15.747,8.647,18.186,9.57c-0.04,0.36-0.084,0.725-0.141,1.106
		c-2.245-0.515-5.403-1.449-7.442-2.8c-0.527-0.35-1.925-1.278-3.55-0.858c-1.613,0.416-2.083,1.71-2.536,2.961
		c-0.697,1.921-1.748,4.822-6.273,7.478c-2.894,1.698-5.344,3.931-7.33,6.528c-0.377-0.314-0.788-0.567-1.223-0.747
		c0.807-0.91,1.626-1.944,2.319-3.044c0.585-0.925,1.288-1.693,2.033-2.507C356.092,217.025,358.251,214.667,357.612,209.974z
		 M349.491,197.91c1.008,0,2.146,0.527,3.389,1.571c0.415,0.348,0.772,0.661,1.099,0.955c0.065,0.107,0.11,0.185,0.117,0.195
		c0.205,0.35,0.531,0.612,0.912,0.788c1.817,1.879,1.308,2.428,0.459,3.317c-1.051,1.099-2.641,2.759-2.247,5.647
		c0.441,3.238-0.815,4.609-2.552,6.507c-0.784,0.856-1.672,1.826-2.427,3.023c-1.719,2.722-4.447,5.068-5.085,5.599l-7.031,3.797
		c0.269-5.194,1.091-14.325,2.929-17.828c0.318-0.609,0.674-1.338,1.067-2.144c1.833-3.768,5.243-10.781,8.921-11.391
		C349.187,197.922,349.337,197.91,349.491,197.91z M332.549,154.395c4.082,4.642,10.844,18.144,15.602,29.757
		c-4.437-6.029-9.949-12.731-15.674-17.755c-0.173-2.924-1.572-9.554-2.928-15.454C330.58,152.138,331.584,153.297,332.549,154.395z
		 M329.671,169.274c6.051,5.416,11.948,12.899,16.432,19.204c-0.564-0.298-1.147-0.605-1.748-0.921
		c-9.684-5.102-25.338-13.351-36.968-21.444c5.322,1.63,12.649,3.179,21.365,3.179C329.052,169.292,329.366,169.278,329.671,169.274
		z M300.113,160.581c-3.209-2.724-5.656-5.338-6.918-7.701c4.442,2.016,12.614,4.99,26.606,7.96
		c2.199,1.957,4.524,3.947,6.961,5.962C312.458,166.376,302.223,161.641,300.113,160.581z M325.405,146.104
		c1.614,6.732,3.101,13.532,3.786,17.532c-2.179-1.815-4.27-3.61-6.251-5.375c-0.532-7.341-3.868-16.213-6.892-22.937
		C319.245,138.908,322.401,142.589,325.405,146.104z M293.086,114.708c1.906,1.256,8.335,5.898,9.144,6.482
		c2.3,2.038,4.667,4.349,7.052,6.816c2.432,4.612,8.579,16.979,10.319,27.21c-21.377-19.842-30.209-35.971-30.809-42.632
		C289.756,112.693,291,113.334,293.086,114.708z M287.969,130.991c-0.373-3.463-1.852-7.353-3.248-10.701
		c-0.508-1.218-0.914-3.428,0.08-5.127c2.077,8.283,11.329,23.741,31.328,42.334c-14.072-3.279-21.052-6.409-23.897-7.936
		c0-0.008-0.002-0.016-0.002-0.022c0.022-1.801,1.254-3.292,3.763-4.555c0.646-0.325,1.047-0.9,1.062-1.525
		c0.017-0.626-0.353-1.215-0.981-1.562C296.001,141.855,288.696,137.736,287.969,130.991z M287.896,150.683
		c1.662,11.435,28.688,26.583,54.088,39.964c2.621,1.381,4.952,2.61,6.846,3.64c-0.219,0.019-0.439,0.032-0.659,0.069
		c-3.372,0.56-5.969,3.097-8.055,6.156c-1.208-2.358-3.246-5.285-6.55-7.342c-0.101-0.063-0.225-0.161-0.375-0.276
		c-5.129-3.874-10.689-3.472-16.521,1.197c-1.6,1.282-4.558,1.703-7.168,2.076c-2.835,0.404-5.283,0.755-6.615,2.197
		c-3.825,4.141-3.65,8.043-2.212,11.15c-0.241-0.001-0.495,0.001-0.752,0.002c-0.73-7.521-5.727-21.15-13.776-28.541
		c-0.512-0.471-1.283-0.689-2.039-0.575c-0.754,0.114-1.382,0.543-1.661,1.135c-0.302,0.638-7.108,15.425-1.286,33.075
		c-0.599,0.49-1.09,1.003-1.479,1.552c-2.356-5.77-4.842-9.478-6.235-11.298c2.806-3.084,1.305-7.916-0.875-11.632
		c1.369-0.497,2.482-1.054,3.236-1.822c2.27-2.308,2.301-5.21,2.091-6.828c0.311-1.54,0.369-2.874,0.241-4.03
		c1.955-0.379,4.594-1.349,7.898-2.915c8.868-4.198,3.484-16.305,0.896-22.122C285.659,152.649,287.04,151.241,287.896,150.683z
		 M268.919,232.872c0.439,0.36,1.054,0.558,1.655,0.53c0.04,0.006,4.067-0.092,5.853,1.922c1.634,1.843,0.802,4.916-0.186,7.169
		c-0.226,0.517-0.16,1.089,0.178,1.561c1.008,1.404,3.606,5.939,2.367,8.273c-0.148,0.278-0.406,0.624-0.962,0.925
		c-0.51,0.12-0.984,0.296-1.414,0.477c-0.087,0.018-0.164,0.039-0.258,0.055c-8.622,1.489-10.724,1.118-17.406-0.711
		c-0.058-0.042-0.121-0.08-0.185-0.118c-0.862-2.944-2.998-13.405-2.35-17.41c0.075-0.462,0.147-0.955,0.223-1.47
		c0.857-5.822,2.038-11.086,6.998-11.535c0.951-0.089,1.657,0.09,2.285,0.575c2.301,1.771,2.621,6.777,2.551,8.391
		C268.244,232.015,268.48,232.512,268.919,232.872z M279.076,232.293c-1.97-1.601-4.566-2.208-6.413-2.429
		c-0.143-2.536-0.847-7.048-3.932-9.428c-1.563-1.207-3.567-1.738-5.781-1.536c-1.901,0.173-3.436,0.725-4.709,1.514
		c-1.746-2.747-4.811-5.664-9.13-5.74c-1.104-1.611-3.397-4.449-6.56-6.058c3.298-1.245,6.816-3.535,10.527-6.864
		c0.301-0.269,0.617-0.499,0.925-0.748c2.671,2.152,8.425,6.234,13.67,6.234c0.73,0,1.45-0.08,2.15-0.255
		c1.717,2.292,5.359,7.901,8.018,17.155c-0.521,1.137-0.87,2.475-0.64,3.885c0.228,1.402,1.007,2.668,2.275,3.727
		C279.337,231.919,279.204,232.1,279.076,232.293z M267.231,190.958c-4.979,1.387-11.799,3.286-17.399,8.31
		c-6.808,6.107-11.222,7.041-13.734,6.747c-1.01-0.118-1.819-0.454-2.466-0.843c0.514-0.548,1.003-1.214,1.533-1.94
		c1.079-1.477,2.422-3.317,4.402-4.938c0.483-0.396,2.208-0.637,3.466-0.812c2.073-0.289,4.422-0.617,6.026-1.82
		c1.294-0.973,1.977-2.348,2.64-3.678c0.456-0.916,1.024-2.056,1.569-2.356c1.042-0.575,3.305-0.145,5.302,0.234
		c2.933,0.558,6.255,1.189,8.207-0.946c2.871-3.139,5.166-2.913,6.763-2.586c-0.067,0.903-0.342,1.936-1.158,2.766
		C271.805,189.684,269.479,190.331,267.231,190.958z M269.313,203.163c-2.722,1.607-8.387-1.785-11.871-4.505
		c3.68-2.088,7.573-3.219,10.93-4.154C270.089,197.332,271.918,201.621,269.313,203.163z M271.482,153.232l0.019,0.006
		c0.013-0.03,0.038-0.088,0.057-0.129c2.916-4.696,5.999-8.005,8.809-8.254c3.606-0.321,5.33,0.139,5.712,0.629
		c0.312,0.401,0.05,1.297-0.308,1.958c-2.31,1.239-5.203,4.351-2.985,9.34c2,4.494,6.679,15.016,1.06,17.677
		c-4.077,1.93-6.079,2.443-6.89,2.576c-1.206-1.901-3.043-2.902-4.455-3.408c-2.981-1.07-6.749-0.97-10.015-0.283
		C264.725,166.57,267.978,158.908,271.482,153.232z M239.619,145.031c1.481-2.4,2.651-4.297,2.37-5.913
		c-0.352-2.034,5.187-3.217,6.591-3.403c1.766-0.239,2.365,0.299,3.623,1.899c0.873,1.112,2.069,2.635,4.344,2.734
		c1.425,0.057,2.417-0.756,3.459-1.62c1.07-0.887,2.398-2.006,3.793-1.906c2.79,0.171,3.44,0.689,3.478,0.661
		c-0.003,0.167-0.265,0.579-0.513,0.815c-0.463,0.423-0.662,1.001-0.538,1.562c0.125,0.562,0.558,1.043,1.172,1.302
		c2.818,1.185,1.45,7.085,0.216,10.181c-5.365,8.448-9.043,19.72-10.273,23.801c-0.122,0.068-0.243,0.137-0.356,0.207
		c0.563-3.191,0.894-7.825-0.843-11.384c0.353-0.666,0.49-1.584,0.307-2.575c-0.336-1.832-1.609-3.191-2.842-3.035
		c-1.234,0.156-1.96,1.767-1.623,3.598c0.16,0.871,0.534,1.627,1.012,2.171c3.201,4.96,0.294,14.194,0.264,14.286
		c-0.032,0.1-0.02,0.199-0.022,0.298c-0.028,0.022-0.053,0.049-0.082,0.071c-0.819-3.328-2.52-9.138-5.165-13.297
		c0.185-0.726,0.07-1.678-0.402-2.642c-0.38-0.775-0.92-1.408-1.502-1.847c0.063-0.301,0.047-0.617-0.085-0.925
		c-0.14-0.328-2.761-6.216-9.017-9.062C236.747,149.702,238.576,146.721,239.619,145.031z M206.067,160.478
		c0.51-1.717,2.356-3.246,5.486-4.542c2.262-0.937,2.838-2.536,3.259-3.704c0.503-1.398,0.808-2.243,4.079-2.714
		c4.543-0.657,9.247,3.077,9.289,3.111c0.413,0.335,0.968,0.522,1.545,0.522c0.029-0.002,0.063-0.001,0.095,0
		c8.374,0,11.873,7.818,12.018,8.152c0.197,0.456,0.593,0.804,1.076,1.009c0.003,0.593,0.158,1.265,0.489,1.941
		c0.438,0.895,1.088,1.609,1.773,2.039c2.933,4.39,4.744,11.413,5.387,14.234c-0.583,0.325-1.18,0.627-1.804,0.891
		c-0.375-2.402-1.599-8.379-4.888-12.911c0.124-0.701-0.012-1.582-0.446-2.47c-0.841-1.717-2.459-2.795-3.615-2.406
		s-1.412,2.095-0.571,3.812c0.482,0.983,1.219,1.745,1.979,2.153c2.937,3.938,4.149,9.383,4.562,11.818
		c-1.826-1.018-5.381-3.468-6.52-7.52c0.32-0.748,0.241-1.848-0.303-2.957c-0.841-1.717-2.459-2.795-3.615-2.406
		c-1.156,0.389-1.412,2.095-0.571,3.812c0.394,0.805,0.96,1.46,1.568,1.898c0.983,3.773,3.641,6.386,5.864,7.976
		c-3.128-1.233-8.23-3.56-11.475-6.646c-0.187-0.774-0.917-1.679-2.042-2.406c-1.764-1.139-3.816-1.402-4.583-0.587
		c-0.767,0.815,0.041,2.399,1.806,3.538c0.838,0.541,1.738,0.877,2.537,1.002c2.883,2.767,6.98,4.932,10.239,6.369
		c-4.279,0.102-7.324,0.735-9.433,1.51c-24.768-5.826-21.921-18.431-21.788-18.96c0.137-0.51-0.007-1.055-0.375-1.48
		C207.074,164.537,205.432,162.616,206.067,160.478z M197.749,195.607c-3.118,1.132-3.347,0.942-4.038-0.262
		c-0.823-1.433-0.821-3.351,0.006-5.131c0.909-1.956,2.624-3.452,4.832-4.209c1.008-0.346,1.559-1.258,1.298-2.137
		c-0.009-0.03-0.855-2.987,0.985-4.786c1.123-1.099,3.129-1.636,5.967-1.611c3.082,3.723,8.55,7.537,18.127,10.24
		c-0.052,0.065-0.101,0.127-0.135,0.174c-0.808,1.131-2.461,1.264-5.089,1.388c-2.596,0.122-5.541,0.261-7.417,2.248
		c-2.497,2.643-4.957,2.785-9.031,3.017c-0.611,0.036-1.239,0.071-1.886,0.117C200.116,194.749,198.913,195.185,197.749,195.607z
		 M228.824,195.013c-11.16,5.498-21.222,4.722-27.273,3.327c0.066-0.01,0.141-0.029,0.2-0.033c0.62-0.045,1.223-0.079,1.809-0.112
		c4.369-0.251,8.496-0.487,12.206-4.413c0.644-0.681,2.366-0.763,4.189-0.848c2.781-0.131,6.59-0.311,8.64-3.178
		c0.291-0.406,0.788-0.753,1.421-1.053c0.294-0.067,0.567-0.174,0.804-0.331c2.327-0.825,5.914-1.172,9.309-1.197
		c-0.598,0.718-1.454,1.567-2.684,2.514c-0.567,0.436-1.632,1.009-2.76,1.614C232.832,192.296,230.595,193.499,228.824,195.013z
		 M231.383,201.338c-0.21,0.288-0.442,0.605-0.661,0.893c-0.488-0.832-0.636-1.593-0.452-2.313c0.181-0.711,0.694-1.386,1.373-2.03
		c0.01-0.006,0.02-0.009,0.03-0.014l-0.007-0.009c1.401-1.317,3.556-2.49,5.426-3.494c1.351-0.726,2.516-1.352,3.365-2.005
		c3.336-2.57,4.645-4.733,5.154-6.128c5.522-1.086,9.991-3.607,13.625-7.68c0.916-1.027,7.383-3.053,11.509-1.573
		c2.281,0.819,3.29,2.712,3.013,5.639c-2.37-0.353-6.473-0.318-10.47,4.058c-0.494,0.224-2.518-0.16-3.727-0.39
		c-2.863-0.544-6.108-1.16-8.736,0.284c-1.67,0.919-2.487,2.561-3.209,4.01c-0.453,0.911-0.968,1.943-1.524,2.363
		c-0.644,0.483-2.314,0.716-3.788,0.922c-2.144,0.298-4.362,0.608-5.841,1.818C234.089,197.633,232.525,199.775,231.383,201.338z
		 M222.638,218.363c1.238-1.072,2.108-0.939,4.274-0.283c1.505,0.454,3.565,1.078,5.456,0.026c1.19-0.662,1.386-1.806,1.593-3.017
		c0.213-1.241,0.477-2.787,1.652-3.41c1.113-0.591,2.149-0.746,3.26-0.484c3.222,0.759,6.119,4.719,6.963,6.178
		c0.426,0.744,1.398,1.158,2.379,1.017c3.849-0.552,6.275,3.891,6.877,5.144c-2.019,3.119-2.615,7.166-3.047,10.1
		c-0.073,0.499-0.144,0.976-0.217,1.426c-0.341,2.105-0.065,5.337,0.322,8.185c-0.616-0.488-1.305-1.001-2.044-1.523
		c-0.04-0.866-0.69-1.961-1.836-2.891c-1.725-1.402-3.888-1.892-4.832-1.094c-0.943,0.797-0.31,2.579,1.415,3.98
		c0.856,0.696,1.819,1.166,2.689,1.366l-0.022,0.022c2.439,1.651,4.312,3.309,5.282,4.22c0.014,0.079,0.028,0.15,0.042,0.228
		c-2.485-1.804-5.92-3.957-9.633-5.303c-0.452-0.649-1.246-1.307-2.277-1.822c-0.675-0.336-1.364-0.559-2.016-0.687
		c-0.166-0.238-0.391-0.453-0.686-0.616c-0.35-0.193-6.723-3.601-13.794-2.758c-1.135-0.942-1.825-4.23-2.215-6.094
		c-0.556-2.657-0.994-4.755-2.39-5.909C218.078,222.91,221.649,219.209,222.638,218.363z M220.044,237.473
		c-0.534,0.218-1.067,0.462-1.594,0.748c-1.671-0.362-4.519-0.884-7.456-1.032c2.394-0.844,4.925-1.97,7.542-3.445
		C218.898,235.094,219.351,236.395,220.044,237.473z M216.526,219.05c-0.361,0.527-0.679,1.074-0.939,1.634
		c-5.944,2.605-12.22,5.952-17.274,10.068C202.355,225.533,208.46,221.623,216.526,219.05z M196.666,235.945
		c4.63-4.97,11.533-9.035,18.278-12.156c0.098,1.122,0.607,2.203,1.748,3.146c0.337,0.35,0.671,1.64,0.94,2.85
		C208.778,235.239,201.047,236.062,196.666,235.945z M213.466,266.535c-1.551-1.229-1.536-2.591-1.538-2.615
		c0.065-0.94-0.776-1.773-1.899-1.918c-0.314-0.041-7.685-1.138-5.966-12.981c0.194-1.338,0.161-2.146,0.135-2.795
		c-0.04-0.958-0.068-1.649,0.885-4.302c0.59-1.643,7.439-1.328,13.167,0.052c0.675,0.163,1.401,0.051,1.957-0.302
		c6.704-4.233,15.216,0.302,15.582,0.502c0.198,0.108,0.411,0.178,0.628,0.228c0.469,0.536,1.147,1.059,2,1.484
		c1.426,0.71,2.923,0.949,3.949,0.723c4.919,1.868,9.412,5.357,11.281,6.923c0.166,0.725,0.323,1.335,0.471,1.843
		c-2.698-2.083-7.137-5.083-11.934-6.596c-0.463-0.485-1.104-0.953-1.882-1.341c-2.071-1.032-4.312-1.092-5.006-0.136
		c-0.695,0.956,0.421,2.569,2.492,3.6c1.697,0.845,3.494,1.028,4.475,0.543c4.841,1.81,9.289,5.214,11.254,6.849
		c-2.288,0.098-7.2-0.114-11.134-3.113c-0.244-0.855-1.198-1.834-2.62-2.543c-2.071-1.032-4.312-1.092-5.006-0.136
		c-0.695,0.956,0.421,2.569,2.492,3.6c1.053,0.524,2.149,0.795,3.064,0.812c3.622,2.8,7.865,3.629,10.922,3.801
		c-3.195,0.536-8.491,1.17-13.121,0.534c-0.678-0.704-2.176-1.21-3.938-1.237c-2.416-0.037-4.393,0.84-4.418,1.955
		c-0.024,1.116,1.914,2.05,4.33,2.087c1.138,0.017,2.17-0.174,2.956-0.491c1.744,0.278,3.561,0.399,5.345,0.399
		c2.245,0,4.426-0.175,6.33-0.402c-4.439,3.276-11.726,6.493-23.49,7.1C218.178,269.023,214.942,267.707,213.466,266.535z
		 M248.6,291.953c-0.847,0.323-1.633,0.307-2.543-0.05c-4.678-1.833-8.002-0.253-10.938,1.141
		c-3.395,1.612-6.602,3.134-13.143,0.295c-1.697-0.736-3.085-2.271-3.714-4.105c-0.691-2.016-0.402-4.065,0.815-5.768
		c0.556-0.778,0.334-1.783-0.51-2.355c-0.029-0.019-2.849-1.963-2.681-4.317c0.109-1.532,1.493-3.054,4.084-4.53
		c0.95,0.075,1.932,0.125,2.982,0.125c0.821,0,1.671-0.022,2.551-0.068c14.377-0.743,22.852-5.107,27.74-9.279
		c0.037,1.064-0.042,2.394-0.395,4.022c-0.137,0.63-0.573,1.618-1.037,2.664c-1.352,3.053-3.202,7.235-1.293,10.634
		c0.856,1.523,2.389,2.678,4.491,3.486C253.634,287.022,251.222,290.953,248.6,291.953z M274.793,264.586
		c-0.907,0.107-1.641,0.667-1.845,1.406c-0.878,3.188-4.369,12.009-9.899,14.508c-1.736,0.784-3.542,0.876-5.515,0.284
		c-1.539-0.462-2.523-1.107-3.008-1.971c-1.136-2.02,0.289-5.241,1.435-7.828c0.554-1.251,1.032-2.333,1.237-3.278
		c0.992-4.575,0.235-7.414-0.219-8.58c0.593-0.778,1.058-1.488,1.413-2.095c4.311,1.159,11.545,1.967,14.818,1.589
		c2.113-0.246,3.605-0.916,4.693-1.406c0.051-0.023,0.109-0.049,0.164-0.073c0.363-0.094,0.699-0.2,1.014-0.317
		c0.063,0.039,0.139,0.089,0.252,0.181c0.621,0.516,2.339,3.028,1.611,4.832C280.239,263.595,277.209,264.302,274.793,264.586z
		 M276.911,290.891c-1.444-2.582-0.629-6.078,0.659-10.333c0.431-1.422,0.838-2.766,1.015-3.945
		c0.085-0.562,0.129-1.109,0.157-1.647c5.571,2.289,17.644,6.968,31.96,8.418c-1.665,0.516-3.391,1.132-5.195,1.889
		c-4.942,2.075-7.866,5.738-9.432,8.379C288.473,294.911,279.35,291.803,276.911,290.891z M281.931,295.782
		c0.036-0.269-0.025-0.528-0.125-0.774c3.008,0.747,6.699,1.397,10.428,1.397c0.84,0,1.68-0.041,2.515-0.114
		c-0.341,0.806-1.901,1.532-2.6,1.755c-0.58,0.18-1.042,0.553-1.274,1.03c-0.232,0.477-0.212,1.011,0.056,1.474
		c1.931,3.346,4.019,7.573,4.052,8.532c0,0.265,0.038,0.616,0.097,1.002C280.786,306.79,281.873,296.263,281.931,295.782z
		 M299.807,310.954c-0.335-1.098-0.402-1.842-0.402-1.868c0-1.726-2.085-5.809-3.586-8.523c1.195-0.657,2.553-1.681,3.135-3.126
		c0.253-0.629,0.828-1.888,1.814-3.309c2.988,0.43,10.449,1.61,16.887,3.452c-0.511,1.532-0.42,3.388,0.302,5.564
		c1.52,4.577,3.871,6.674,6.743,7.606l-0.023,0.027c0.042,0.026,0.206,0.124,0.434,0.256c-2.584,0.084-4.421,0.625-6.644,1.288
		c-1.775,0.53-3.787,1.13-6.744,1.64C305.47,315.04,301.604,312.58,299.807,310.954z M295.681,331.388
		c1.78-2.549,1.958-3.862,2.088-4.823c0.09-0.667,0.124-0.916,1.037-1.833c2.621-2.631,6.33-2.073,6.465-2.052l0.038-0.149
		c2.162,0.985,4.755,1.726,7.853,2.08c4.964,4.334,13.285,3.789,22.083,3.199c5.157-0.347,10.49-0.705,15.438-0.13
		c7.159,0.831,11.93,2.995,14.738,4.733c-1.288,0.097-2.541,0.228-3.734,0.402c-24.053-5.235-57.645,0.842-67.317,2.816
		c-0.027-0.223-0.058-0.428-0.089-0.607C294.151,334.264,294.056,333.714,295.681,331.388z M290.529,342.417
		c1.501-1.355,3.041-2.75,3.592-4.212c7.316-1.51,38.106-7.341,61.665-3.951c-3.293,1.254-5.711,2.978-8.042,4.654
		c-5.2,3.738-10.575,7.601-27.319,7.912c-0.073-0.012-8.288-0.006-31.145-3.247C289.68,343.181,290.152,342.756,290.529,342.417z
		 M303.797,349.148c11.371,1.287,16.051,1.333,16.638,1.333c0.023,0,0.04,0,0.05,0c18.377-0.341,24.634-4.839,30.155-8.807
		c2.383-1.711,4.439-3.191,7.338-4.23c3.99-1.43,10.39-1.717,16.511-1.567c-8.383,3.173-14.218,8.509-18.202,12.733
		c-4.135,4.386-10.89,6.469-15.58,7.435c-0.344-0.007-0.679-0.011-1.033-0.021C326.982,355.675,313.646,352.296,303.797,349.148z
		 M327.276,366.169c-0.397-1.272,2.265-4.48,5.178-6.948c1.249,0.126,2.502,0.224,3.754,0.304c-2.497,1.629-5.521,3.994-8.183,7.166
		C327.672,366.565,327.348,366.397,327.276,366.169z M347.352,372.169c-3.192,0.892-12.434,2.886-16.811,1.401
		c-0.704-0.238-1.579-0.641-1.75-1.211c-0.245-0.808,0.648-2.042,1.11-2.506c0.464-0.454,0.618-1.064,0.441-1.637
		c3.694-4.445,8.23-7.224,10.645-8.501c0.786,0.013,1.558,0.023,2.303,0.023c10.071,0,16.298-1.217,20.141-2.623
		c-2.491,6.077-11.652,12.709-15.011,14.99C348.071,372.056,347.708,372.069,347.352,372.169z M358.732,373.981
		c-3.084,1.244-5.065,1.258-6.266,0.955c-0.969-0.242-1.572-0.727-1.924-1.111c3.946-2.688,13.94-10.052,16.064-17.027
		c1.471-0.215,3.26-0.998,5.722-2.08c0.222-0.097,0.453-0.198,0.681-0.298C369.137,364.099,361.705,371.356,358.732,373.981z
		 M374.128,361.009l-0.12-0.049c-0.028,0.047-1.925,3.192-5.406,6.53c3.062-3.896,6.15-8.857,8.031-14.57
		c0.809-0.307,1.604-0.579,2.369-0.797C377.314,354.338,375.268,357.503,374.128,361.009z M378.925,370.711l-0.141-0.253
		c-4.017-7.13,4.023-16.649,5.958-18.775c0.402,0.016,0.822,0.031,1.263,0.05c-1.377,5.265-4.072,18.769,1.223,28.661
		C383.745,379.249,382.334,376.764,378.925,370.711z M395.898,382.271c-0.369-0.528-1.03-0.87-1.764-0.91
		c-1.188-0.067-2.238-0.144-3.175-0.243c-6.421-9.384-3.275-24.292-1.96-29.268c1.968,0.072,3.955,0.132,5.923,0.169
		c-1.417,4.985-3.635,17.359,3.161,32.353C396.65,383.284,395.955,382.35,395.898,382.271z M397.965,352.055
		c1.578,0.006,3.125-0.012,4.631-0.058c0.582,5.47,2.826,21.707,10.024,37.454c-1.739-0.726-3.821-1.433-5.863-1.697
		c-1.653-0.214-3.086-0.595-4.336-1.052C393.792,370.455,396.625,356.602,397.965,352.055z M400.059,389.811
		c1.71,0.684,3.683,1.261,6.015,1.563c3.655,0.472,7.983,3.023,8.027,3.05c0.376,0.223,0.821,0.335,1.268,0.335
		c0.342,0,0.686-0.066,1.003-0.196c0.733-0.302,1.205-0.926,1.228-1.602c0.009-0.279,0.39-6.856,14.495-9.67
		c8.145-1.623,14.776-5.858,18.671-11.922c3.149-4.901,5.757-12.937,2.173-24.572c2.88,1.739,6.492,3.641,11.04,5.667
		c2.18,0.971,4.292,1.718,6.343,2.311c-1.591,1.14-3.033,3.252-5.082,6.38c-1.581,2.412-3.372,5.146-5.197,6.875
		c-3.509,3.321-7.838,12.297-6.477,21.849c0.217,1.523,0.334,2.709,0.433,3.703c0.02,0.199,0.039,0.383,0.059,0.571
		c-9.081,1.43-35.296,5.206-50.21,3.711c-0.22-1.6-0.252-2.668-0.253-2.703c-0.013-0.599-0.38-1.157-0.98-1.49
		C401.02,392.782,400.245,391.678,400.059,389.811z M403.323,412.277c-0.048,0.041-0.092,0.077-0.141,0.119
		c-1.432,0.837-3.611,1.837-6.816,2.694c-2.287-1.657-8.86-1.208-14.987-0.313c0.681-2.758,0.822-5.28-0.467-7.287
		c7.783,2.095,14.608,2.487,16.847,2.559C400.089,411.452,401.94,412.053,403.323,412.277z M392.993,404.34
		c-7.641-2.969-22.699-9.543-33.361-18.793C366.453,385.734,379.979,388.371,392.993,404.34z M389.079,405.514
		c-2.668-0.429-5.688-1.06-8.809-2.01c-10.176-3.096-17.332-8.157-21.355-15.073C368.678,396.458,381.164,402.293,389.079,405.514z
		 M340.619,398.914c0.304-0.981,0.302-0.982,2.515-0.716c1.962,0.236,4.652,0.562,7.217-0.941c2.787-1.634,4.976-0.683,10.092,1.815
		l0.444,0.217c2.486,1.212,2.625,2.647,2.434,3.48c-0.773,0.333-1.482,0.819-2.129,1.515c-0.328,0.353-0.811,0.736-1.32,1.141
		c-2.051,1.63-5.87,4.662-1.074,9.811c0.131,0.141,0.248,0.287,0.374,0.431c-2.889-0.866-5.999-2.092-7.207-3.357
		c-0.878-0.92-2.217-1.843-3.768-2.913C344.223,406.653,339.278,403.241,340.619,398.914z M314.649,423.666
		c-3.036-4.254-3.052-4.789-0.2-7.134c0.595-0.489,0.804-1.215,0.542-1.874c-0.367-0.921-1.042-3.916,0.611-5.555
		c1.706-1.689,5.528-1.64,8.432-1.302c0.825,0.096,1.647-0.2,2.123-0.768c0.037-0.045,3.764-4.338,10.758-2.896
		c1.749,3.43,5.575,6.085,8.454,8.072c1.265,0.873,2.449,1.693,3.062,2.309c-3.091,0.821-6.954,2.866-9.304,6.241
		c-1.012,0.265-2.133,0.933-3.051,1.918c-1.602,1.724-1.961,3.72-0.801,4.46c1.16,0.74,3.399-0.057,5.001-1.779
		c1.104-1.187,1.601-2.496,1.434-3.443c2.737-3.889,7.841-5.446,9.481-5.383c1.326,0.73,2.837,1.356,4.306,1.872
		c-3.119,1.45-7.576,3.792-11.032,6.703c-1.069,0.216-2.295,0.922-3.28,1.982c-0.247,0.265-0.453,0.538-0.64,0.811
		c-2.034-0.057-6.985,0.151-12.729,2.827C323.317,429.209,316.483,426.235,314.649,423.666z M324.233,452.871
		c-2.041-1.505-2.004-3.688-1.967-5.796c0.018-1.049,0.035-2.039-0.209-2.945c-0.393-1.457,0.558-6.494,7.097-9.818
		c5.226-2.657,9.762-2.794,11.255-2.755c1.166,0.717,3.386-0.077,4.978-1.789c1.007-1.082,1.521-2.271,1.477-3.191
		c4.125-3.371,9.817-5.979,12.325-7.04c1.297,0.346,2.269,0.557,2.562,0.618c0.109,0.022,0.217,0.025,0.325,0.033
		c-2.834,0.948-7.524,2.767-10.194,5.144c-0.933,0.255-1.952,0.809-2.839,1.604c-1.781,1.598-2.354,3.56-1.278,4.382
		c1.076,0.823,3.391,0.196,5.173-1.402c1.296-1.162,1.942-2.512,1.789-3.482c2.406-1.802,6.255-3.252,8.604-4.03
		c0.127,0.299,0.242,0.583,0.344,0.848c-0.341,0.188-0.621,0.456-0.797,0.79c-0.117,0.222-1.212,2.311-2.547,5.161
		c-1.46,1.035-5.2,3.384-9.328,3.612c-0.851-0.659-2.474-1.049-4.316-0.932c-2.618,0.167-4.648,1.282-4.536,2.491
		c0.112,1.209,2.325,2.054,4.942,1.888c1.432-0.091,2.672-0.471,3.498-0.99c2.992-0.045,5.758-0.978,7.925-2.017
		c-0.452,1.061-0.895,2.149-1.305,3.23c-1.894,1.235-5.184,2.978-8.309,2.763c-0.71-0.828-2.523-1.346-4.614-1.212
		c-2.618,0.167-4.648,1.282-4.536,2.491c0.112,1.209,2.325,2.054,4.942,1.888c1.261-0.08,2.38-0.384,3.194-0.809
		c0.505,0.071,1.012,0.115,1.514,0.115c2.369,0,4.66-0.735,6.57-1.619c-0.52,1.741-0.863,3.337-0.898,4.594
		c-0.018,0.636-0.065,1.388-0.115,2.22c-0.056,0.923-0.114,1.904-0.153,2.907c-0.094,0.091-0.178,0.19-0.251,0.3
		c-1.738,2.601-7.312,9.543-12.168,10.405c-1.63,0.255-9.988,0.436-13.488-0.128c0.233-0.236,0.463-0.465,0.685-0.687
		c1.976-1.97,3.404-3.393,3.014-5.043c-0.19-0.807-0.824-1.485-1.783-1.909c-1.917-0.851-3.499-0.018-4.348,0.428
		C325.557,453.672,325.419,453.745,324.233,452.871z M308.836,486.866c-1.289-2.103,0.359-4.819,0.371-4.838
		c0.511-0.807,0.228-1.803-0.664-2.335c-0.903-0.541-1.379-1.087-1.416-1.623c-0.063-0.932,1.051-1.991,1.435-2.28
		c0.644-0.471,0.893-1.209,0.65-1.891c-0.243-0.681-0.946-1.186-1.795-1.294c-0.561-0.07-2.311-0.455-2.974-1.27
		c-0.181-0.224-0.397-0.611-0.175-1.385c0.408-1.412,1.087-2.324,2.019-2.711c1.167-0.484,2.718-0.126,3.2,0.047
		c0.941,0.351,2.049,0.119,2.672-0.562c3.184-3.477,4.162-3.104,6.769-2.099c2.182,0.841,5.171,1.989,9.53,0.9
		c6.287-1.58,11.574,5.33,12.306,6.34c-1.745,4.144,2.247,7.672,4.654,9.783c0.806,0.707,1.569,1.376,1.994,1.904
		c1.109,1.375,1.823,2.569,2.302,3.555c-6.493-2.207-16.368-3.403-29.906,0.678c-1.889,0.569-3.556,1.201-5.043,1.882
		C311.68,489.172,309.676,488.235,308.836,486.866z M329.74,517.627c-0.68-0.134-1.401,0-1.941,0.372
		c-4.586,3.162-10.709,5.717-12.045,4.406c-1.928-1.895-2.248-2.602-2.619-3.421c-0.296-0.655-0.627-1.388-1.547-2.524
		c0.432-0.233,1.082-0.51,1.524-0.698c1.876-0.799,5.37-2.288,3.909-5.079c-0.343-0.656-0.963-1.153-1.746-1.404
		c-1.657-0.533-3.462,0.145-5.55,0.927c-1.455,0.546-3.889,1.459-4.782,1.087c-0.336-0.139-0.644-0.645-0.843-1.387
		c-1.408-5.27,5.233-7.154,5.987-7.348c0.626-0.157,1.133-0.536,1.39-1.033c0.256-0.497,0.235-1.062-0.06-1.545
		c-0.007-0.012-0.662-1.214,0.107-2.822c0.757-1.587,3.073-3.904,9.798-5.931c11.076-3.338,19.309-2.801,24.958-1.268
		c-2.899,0.659-6.353,1.673-9.383,3.163c-1.059-0.19-2.485-0.037-3.906,0.502c-2.388,0.905-3.83,2.534-3.22,3.637
		c0.61,1.103,3.04,1.264,5.428,0.358c1.574-0.597,2.721-1.506,3.156-2.374c3.838-1.897,8.595-2.976,11.604-3.511
		c-2.657,1.143-6.045,3.234-8.036,6.84c-0.836,0.365-1.695,0.985-2.406,1.814c-1.522,1.773-1.788,3.78-0.595,4.484
		c1.194,0.704,3.395-0.164,4.917-1.937c1.234-1.437,1.626-3.016,1.101-3.941c2.262-3.514,6.263-5.155,8.278-5.789
		c-1.067,2.259-3.693,7.204-7.548,10.473c-0.69,0.376-1.375,0.92-1.96,1.601c-1.522,1.773-1.788,3.78-0.595,4.484
		c0.618,0.364,1.506,0.301,2.431-0.085c-0.503,0.589-0.855,1.199-1.074,1.783c-0.268,0.138-0.509,0.322-0.691,0.556
		C343.723,512.086,337.986,519.307,329.74,517.627z M366.645,529.702c-0.812,0.163-1.443,0.69-1.633,1.363
		c-1.148,4.067-3.056,8.149-4.063,8.723c-0.573,0.258-1.041,0.511-1.414,0.726c-0.723-0.689-1.626-1.013-2.305-1.256
		c-0.863-0.31-1.679-0.603,0.124-4.921c0.544-1.304,0.426-2.341-0.351-3.082c-0.664-0.632-1.675-0.897-2.767-0.715
		c-2.595,0.421-6.341,3.524-7.422,6.148c-0.598,1.45-1.671,2.458-2.279,2.771c-0.029-0.052-0.06-0.116-0.094-0.193
		c-1.492-3.467-2.731-5.857-6.178-7.419c-0.853-0.533-2.527-4.033-2.67-7.619c-0.062-1.57,0.208-2.583,0.539-3.121
		c6.851-1.539,11.044-6.708,11.346-7.091c0.834-0.365,1.689-0.984,2.398-1.81c0.988-1.15,1.436-2.393,1.312-3.319
		c2.441-2.356,4.337-5.171,5.634-7.451c0.057,0.177,0.107,0.337,0.167,0.522c0.356,1.098,0.842,2.521,1.406,4.014
		c-0.363,0.807-0.828,1.759-1.398,2.777c-1.164,0.243-2.436,1.336-3.182,2.867c-0.984,2.017-0.68,4.02,0.677,4.476
		c1.358,0.454,3.257-0.812,4.24-2.829c0.487-0.998,0.656-1.991,0.541-2.797c0.2-0.34,0.387-0.672,0.567-0.999
		c0.66,1.447,1.366,2.785,2.078,3.758c0.283,0.386,0.578,0.801,0.886,1.234c1.81,2.545,4.312,6.048,7.665,8.24
		C370.515,524.028,370.43,528.944,366.645,529.702z M378.591,520.86c-4.766,1.23-8.386-3.206-11.979-8.259
		c-0.317-0.445-0.621-0.874-0.913-1.273c-2.523-3.452-5.608-13.735-6.243-16.729c0.043-0.06,0.083-0.12,0.119-0.183
		c5.237-3.882,6.988-4.918,15.605-6.408c1.837-0.32,2.655,0.112,3.114,0.461c0.33,0.252,0.593,0.6,0.831,0.984
		c0.019,0.255,0.097,0.51,0.252,0.749c0.066,0.101,0.154,0.184,0.237,0.271c0.732,1.98,0.758,4.66,0.503,6.366
		c-0.081,0.542,0.135,1.09,0.59,1.486c1.986,1.735,4.229,4.269,3.633,6.497c-0.656,2.451-4.413,3.704-4.442,3.713
		c-0.577,0.184-1.034,0.558-1.261,1.033c-0.228,0.477-0.205,1.01,0.062,1.471c0.844,1.451,2.968,6.133,1.71,8.532
		C380.067,520.227,379.506,520.622,378.591,520.86z M365.923,558.812c1.145-3.291,4.116-9.81,11.691-22.541
		c3.221-5.413,6.517-10.667,9.379-15.072c5.93-4.821,10.593-7.576,13.666-9.085C395.814,520.747,379.364,547.508,365.923,558.812z
		 M374.288,560.283c-2.107,0.686-4.007,1.146-5.564,1.38c3.148-2.609,6.419-5.97,9.662-9.739
		C377.524,554.646,376.229,557.645,374.288,560.283z M378.663,558.638c2.415-4.377,3.506-9.007,3.983-11.9
		c1.373-1.742,2.727-3.525,4.051-5.325c-0.976,4.799-2.779,11.189-5.989,16.307C380.019,558.045,379.335,558.353,378.663,558.638z
		 M400.427,542.054c-1.096,1.351-2.221,2.674-3.389,3.954c-3.478,3.809-7.623,6.9-11.775,9.315
		c3.611-7.489,4.903-15.961,5.295-19.305c3.948-5.677,7.461-11.189,10.162-15.633C401.687,526.005,402.62,535.019,400.427,542.054z
		 M391.376,514.617c1.57-2.288,2.773-3.947,3.427-4.728c9.013-10.759,15.859-16.307,22.377-21.376
		c-5.361,7.171-11.272,15.235-14.32,19.905C401.001,509.068,397.044,510.744,391.376,514.617z M412.251,509.594
		c0.158,3.205-0.518,11.372-0.886,15.463c-2.034,4.054-4.329,7.94-6.882,11.612c0.855-7.925-0.664-16.285-1.504-20.066
		c0.981-1.676,1.773-3.076,2.33-4.103c1.086-1.997,4.049-6.263,7.625-11.201C412.505,504.302,412.149,507.553,412.251,509.594z
		 M419.408,502.748c-1.141,4.91-2.638,9.682-4.452,14.28c0.195-2.982,0.322-5.861,0.239-7.534
		c-0.163-3.286,0.999-10.28,1.558-13.414c0.679-0.921,1.363-1.844,2.046-2.763c-0.098,2.419,0.099,5.274,0.886,8.405
		C419.597,502.062,419.486,502.411,419.408,502.748z M421.756,495.275c-0.077-2.869,0.304-5.234,0.695-6.847
		c3.02-4.024,5.74-7.606,7.495-9.909C427.022,483.559,423.977,489.437,421.756,495.275z M428.403,473.713
		c-4.396,4.489-8.543,7.705-12.933,11.111c-6.755,5.24-14.412,11.177-24.3,22.978c-1.115,1.331-3.332,4.485-6.061,8.601
		c-0.245-2.026-0.976-3.985-1.589-5.313c1.845-0.948,4.38-2.702,5.128-5.442c0.785-2.874-0.574-5.971-4.044-9.214
		c0.121-1.327,0.203-3.855-0.504-6.271c2.35-1.099,6.894-3.305,12.333-6.311c-0.028,1.138-0.031,2.294,0.018,3.491
		c0.023,0.569,0.364,1.096,0.922,1.427c0.38,0.225,0.831,0.342,1.286,0.342c0.215,0,0.432-0.027,0.641-0.079
		c0.919-0.232,21.808-5.742,33.333-29.356c1.093,0.939,2.347,1.867,3.782,2.782c0.478,0.305,1.104,1.109,1.754,2.13
		C436.389,465.843,433.535,468.473,428.403,473.713z M436.228,485.511c-0.042-0.114-0.099-0.22-0.165-0.322
		c1.961-5.62,3.8-10.796,5.315-15.006c0.516,0.346,1.189,0.519,1.877,0.383c3.298-0.647,7.076,0.063,10.729,0.749
		c2.592,0.485,5.325,0.998,7.955,0.998c2.767,0,5.417-0.578,7.665-2.34c-4.117,8.614-5.283,16.837-3.444,24.481
		c-0.58,1.983-2.493,10.003,0.863,20.443c0.403,1.253,0.864,2.475,1.373,3.671c-5.138-5.761-11.155-11.498-16.666-15.811
		C439.212,492.957,436.283,485.656,436.228,485.511z M495.848,573.211c-3.276-1.175-14.483-7.129-25.547-15.573
		c-12.677-9.677-19.785-18.671-20.012-25.324c-0.232-6.774-1.844-14.405-3.733-21.23c5.616,9.538,12.873,21.825,15.708,26.439
		c4.24,6.902,26.506,28.672,33.855,35.781C496.027,573.272,495.945,573.246,495.848,573.211z M489.975,561.602
		c-9.241-9.174-20.978-21.193-23.771-25.743c-0.516-0.838-1.185-1.944-1.956-3.23c5.605,4.548,10.439,7.112,12.827,8.231
		C478.893,546.336,484.847,554.995,489.975,561.602z M479.234,528.394c-5.399-6.589-7.971-12.934-9.072-18.294
		c1.658-4.375,7.866-20.367,13.709-30.327c0.239,3.742,0.662,7.581,1.239,11.497C479.388,505.568,478.946,520.471,479.234,528.394z
		 M482.381,531.917c-0.415-5.174-1.003-19.806,3.709-34.793c1.368,7.372,3.272,15.002,5.774,22.887
		c4.012,12.64,9.452,22.437,12.832,27.829C494.782,542.721,487.581,537.283,482.381,531.917z M509.001,546.728
		c-3.008-4.746-8.085-13.658-12.02-25.113c1.83,1.637,4.055,3.372,6.635,4.897c6.198,3.662,9.953,10.588,10.682,12.022
		C511.606,541.707,509.975,544.494,509.001,546.728z M516.303,536.266c-1.587-2.782-5.289-8.38-10.977-11.743
		c-4.743-2.802-8.3-6.47-10.121-8.569c-0.983-3.272-1.889-6.509-2.67-9.689c4.898,4.516,12.23,9.848,17.634,12.696
		c5.931,3.125,9.841,8.623,11.401,11.127C519.637,532.537,517.795,534.618,516.303,536.266z M523.381,527.716
		c-2.04-3.01-5.933-7.812-11.631-10.813c-7.255-3.823-17.013-11.672-20.362-15.684c-1.961-9.111-3.077-17.815-3.307-26.031
		c6.227,6.619,20.164,20.886,29.212,25.996c9.982,5.638,12.326,14.15,12.668,15.635
		C528.063,520.858,525.722,524.533,523.381,527.716z M531.649,512.771c-1.626-3.729-5.178-9.359-12.695-13.605
		c-10.021-5.658-27.059-23.842-30.895-28.005c0.002-0.307,0.004-0.613,0.003-0.922c2.321-0.291,4.689-0.804,6.998-1.647
		c5.072-1.848,8.507-5.187,10.813-8.797c0.272,1.212,0.63,2.508,1.106,3.905c2.232,6.555,7.213,11.525,14.024,13.997
		c1.957,0.709,4.04,1.179,6.105,1.425c1.599,2.199,2.953,4.48,4,6.806C535.426,495.515,534.59,504.727,531.649,512.771z
		 M535.423,474.812c-0.01,0.004-0.021,0.006-0.032,0.01c-2.516,1.059-7.535,1.362-12.615-0.48c-0.003-0.001-0.008-0.003-0.011-0.004
		c9.253-15.021,8.529-29.527,7.876-34.687c0.954-0.841,1.802-1.706,2.546-2.589c0.48,0.128,0.953,0.235,1.418,0.324
		C536.196,441.985,540.944,458.242,535.423,474.812z M550.162,477.693c-3.057-0.504-5.736-1.335-7.923-2.013
		c-1.443-0.448-2.65-0.817-3.711-1.015c5.055-16.011,1.155-31.211-0.74-36.965c1.842-0.011,3.546-0.374,5.095-1.094
		c0.13-0.06,0.239-0.137,0.364-0.202C546.292,440.901,553.189,454.078,550.162,477.693z M563.429,477.061
		c-3.705,1.055-7.187,1.238-10.35,0.988c3.254-25.136-4.288-38.737-7.509-43.24c1.646-1.484,2.634-3.237,3.19-4.555
		c5.657,3.441,20.395,15.227,20.721,44.484C567.785,475.601,565.787,476.389,563.429,477.061z M579.52,458.695
		c-0.31,0.483-0.338,0.949-0.389,1.796c-0.15,2.493-0.492,8.044-6.736,12.488c-0.823-27.451-13.902-39.533-20.627-43.945
		c0.858-0.209,1.676-0.44,2.434-0.705c5.245,2.496,21.982,11.796,25.56,30.057C579.669,458.49,579.587,458.592,579.52,458.695z
		 M582.334,456.462c-4.015-16.715-18.504-26.016-25.123-29.468c0.909-0.516,1.7-1.093,2.378-1.73
		c6.208,2.914,24.295,12.408,29.489,26.137C586.686,453.508,584.062,455.292,582.334,456.462z M594.475,444.237
		c-0.508,1.712-1.696,3.41-3.169,5c-6.118-13.778-23.532-22.973-30.056-26.017c0.622-1.045,0.963-2.11,1.119-3.135
		c6.296,3.429,17.363,6.699,25.551,6.699c0.068,0,0.131-0.003,0.199-0.004C590.204,428.744,596.952,435.896,594.475,444.237z
		 M588.946,423.099c-9.181,0.405-23.674-4.733-26.917-7.935c-0.018-0.075-0.034-0.147-0.052-0.217
		c3.349-1.682,5.469-3.673,6.306-5.931c0.176-0.477,0.264-0.921,0.318-1.348c7.815,4.041,21.766,10.561,32.271,11.651
		C598.322,421.322,594.279,422.861,588.946,423.099z M610.006,407.449c-0.438,1.072-1.538,2.327-2.633,3.435
		c-0.522,0.529-1.044,1.028-1.491,1.452c-1.294,1.229-1.829,1.738-1.958,2.491c-0.126,0.728-0.426,1.465-0.887,2.186
		c-10.77-0.337-27.495-8.563-34.909-12.498c-0.101-0.21-0.189-0.36-0.22-0.408c-0.011-0.018-0.028-0.032-0.04-0.05
		c-0.04-0.057-0.086-0.11-0.133-0.163c-0.04-0.046-0.08-0.091-0.126-0.133c-0.048-0.045-0.101-0.086-0.155-0.127
		c-0.052-0.04-0.105-0.079-0.161-0.114c-0.026-0.017-0.047-0.037-0.073-0.052c-3.904-2.239-3.774-4.244-3.362-7.785
		c5.958,1.364,20.758,4.299,39.985,5.023c2.125,0.08,4.29,0.14,6.518,0.161C610.656,402.414,610.913,405.222,610.006,407.449z
		 M612.147,397.349c-0.642,0.442-1.108,0.764-1.445,1.077c-2.649-0.021-5.22-0.092-7.719-0.197
		c-19.11-0.799-33.593-3.787-38.884-5.024c0.114-1.534,0.124-3.195-0.257-5.04c-0.232-1.121-0.733-2.171-1.415-3.153
		c3.425,0.186,8.604,0.391,14.807,0.391c6.233,0,13.491-0.213,21.009-0.856c4.065-0.348,8.205-0.826,12.303-1.464
		c1.557-0.243,3.104-0.509,4.641-0.799c1.518-0.287,3.025-0.593,4.51-0.933c0.442,0.99,0.725,2.048,0.778,3.181
		c0.052,1.138-0.076,2.19-0.318,3.175c-0.713,2.885-2.503,5.128-4.349,6.817C614.478,395.738,613.128,396.675,612.147,397.349z
		 M694.341,518.407c-24.857,10.535-41.62-13.409-50.291-49.323c-4.951-20.508-17.056-49.578-26.538-70.767
		c2.059-1.623,4.45-3.925,5.947-7.001c14.819,16.205,33.469,36.741,36.199,40.416C664.282,437.956,719.198,507.871,694.341,518.407z
		 M705.325,459.506c7.509-0.541,31.215,27.296,13.295,34.479C700.7,501.167,692.029,460.463,705.325,459.506z M729.025,524.632
		c-19.076,6.704-23.7-16.76-10.405-21.07C730.895,499.583,748.1,517.927,729.025,524.632z M757.927,495.899
		c-17.92,11.492-42.777-44.535-30.637-46.93C738.209,446.816,775.847,484.407,757.927,495.899z M786.252,474.83
		c-14.452,7.662-27.638-14.765-22.544-19.634C771.222,448.012,800.704,467.167,786.252,474.83z M789.72,415.929
		c5.203-7.662,24.279,8.141,6.936,12.45C779.316,432.689,787.108,419.777,789.72,415.929z M796.657,448.97
		c-14.452,8.62-16.839-6.038-15.03-10.535C785.096,429.816,811.109,440.351,796.657,448.97z M776.096,364.363
		c-18.561,0-16.526-10.213-15.286-12.415s3.539-4.005,11.875-0.881C785.94,356.035,794.657,364.363,776.096,364.363z
		 M780.938,348.986c-14.633-6.876-20.836-15.539-14.526-20.391c6.311-4.851,35.873,4.705,39.948,15.711
		C807.595,347.643,804.359,359.992,780.938,348.986z M801.579,328.091c-24.64-5.655-24.994-14.464-20.982-18.384
		c4.012-3.92,7.771-0.88,22.574,1.865c25.345,4.699,23.426,12.175,23.426,12.175S827.923,334.136,801.579,328.091z M855.533,300.522
		c-4.529,8.319-5.514,9.462-44.897,4.405c-39.383-5.057-31.9-19.738-31.9-19.738c2.757-7.014,17.329-7.993,40.761-6.036
		S860.062,292.202,855.533,300.522z M875.422,276.215c-1.97,4.241-7.876,13.05-29.734,3.752
		c-21.858-9.298-16.44-18.113-13.784-21.043c0,0,6.227-7.243,26.583,1.957C870.188,266.17,877.391,271.974,875.422,276.215z
		 M887.434,248.484c-2.56,7.341-12.012,8.809-29.537,4.078c-17.526-4.731-20.777-9.456-17.526-15.824
		c2.166-4.241,17.132-6.198,26.781-3.752C876.8,235.434,889.994,241.143,887.434,248.484z M898.264,214.879
		c-0.984,5.22-7.286,8.483-31.507,8.809c-24.221,0.326-31.627-8.026-30.916-12.888c1.575-10.767,19.691-9.462,35.051-9.95
		C886.253,200.362,899.25,209.66,898.264,214.879z M910.671,188.127c-1.772,9.462-32.491,5.546-39.58,5.546
		c-51.939,0-62.802,0.017-62.226-5.872c1.181-12.071,55.531-8.809,57.696-8.809C877.211,178.992,912.442,178.666,910.671,188.127z"
		/>
</g>
</svg>
