<?xml version="1.0" encoding="utf-8"?>
<!-- Generator: Adobe Illustrator 19.0.0, SVG Export Plug-In . SVG Version: 6.00 Build 0)  -->
<svg version="1.1" id="Layer_1" xmlns="http://www.w3.org/2000/svg" xmlns:xlink="http://www.w3.org/1999/xlink" x="0px" y="0px"
	 viewBox="-67 319 864 864" style="enable-background:new -67 319 864 864;" xml:space="preserve">
<style type="text/css">
	.st0{fill:#EE2F24;}
</style>
<path class="st0" d="M703.9,511L682,484.6c0-0.1-0.1-0.1-0.3-0.3c-15.6-16.8-33.4-31.1-47.5-38.1c-24.3-12.2-62.8-26.7-108.6-27
	c-62.1-0.3-117.5,25.8-164.7,77.4c-91.6-100.5-194.9-81.6-249-61.2c-0.1,0-0.3,0.1-0.4,0.1l-24.4,11.3c-0.7,0.3-1.3,0.7-1.6,1
	c-2.1-1.8-6.9-6-8.6-7.3c-6-4.8-9.1-4.8-13.6-0.3c-3.4,3.4-3.1,8.6-1.9,12.1c0.7,2.4,2.7,7.7,3.1,12.1c0.6,7,4.9,12.1,7.7,14.7
	c-0.4,0.3-0.7,0.7-1,1c-0.1-0.3-0.3-0.6-0.4-0.9c-1.5-2.4-4.8-3.4-10-2.8c-2.2,0.3-4.5,1.6-6.6,3.7c-0.1-2.4-0.7-4.6-2.2-6.3
	c0.4-1,0.6-2.2,0.1-3.6c-1.3-3.3-5.8-3.6-7.3-3.7c-3.4-0.3-5.8,2.2-7.3,3.6c-0.1,0.1-0.1,0.1-0.3,0.3c-0.1-0.3-0.4-0.6-0.6-0.9
	c-1.2-1.9-3.3-5.1-8-4.3c-4.3,0.6-11.2,3.3-10.4,9.2c0,0.7-1.2,3-1.9,4.6c-1.3,2.5-2.7,5.2-3.1,7.7c-0.6-0.1-1.3-0.1-2.1-0.3
	c-1.8-1.5-7-5.4-12.7-4.3c-6.1,1-7,4.3-7.6,6.4c-0.3,1.2-0.4,1.5-1,1.8c-4.5,2.2-7.1,5.1-7.9,8.5c-0.8,3.4,0.4,6.4,1.3,7.7
	c-0.1,1.6-0.1,5.4,1.5,9.5c-3.1,0.3-5.5,1.5-7.1,3.4c-2.2,2.7-2.4,6-2.2,7.9c-2.5,1.5-4.6,3.9-5.8,6.9c-1.3,3.3-1.2,6.9,0.1,9.8
	c1.2,2.5,3,3.6,4.6,3.7c2.2,1.2,8.3,3.7,16.4,3.7c4.6,0,9.8-0.9,15.3-3.1c0,1.8,0.6,3.7,1.8,5.7c0.3,0.3,0.4,0.7,0.7,0.9
	c0.7,1,2.1,2.8,4.5,3.9c-1.6,1.3-2.4,3.1-2.7,4.8v-0.1c-3.4-0.7-7.7-1.6-13-2.8c-36-21.9-54.8-4.9-55.6-4.2c-0.4,0.4-0.7,1-0.7,1.6
	s0.1,1.2,0.6,1.6c8.8,8.9,19.2,11.8,28.6,11.8c12.5,0,23.4-4.9,26.4-6.4c0.9,0.1,1.8,0.4,2.7,0.6C-11.9,569-25,576.4-30.2,593
	c-0.1,0.6-0.1,1.2,0.1,1.8c0.3,0.6,0.7,0.9,1.3,1c0.3,0.1,2.4,0.7,5.8,0.7c1.3,0,2.8-0.1,4.5-0.3c-0.4,0.6-0.7,1.2-1,1.9
	c-1,3.7-1.2,4.9-1,6.7c0,0.7,0,1.5-0.1,2.7c-0.6,4.9-0.3,8.9,0.9,12.2c-1.6,0.9-2.8,2.4-3,4.5c-2.7,24,2.1,49.7,2.2,50.8
	c4.7,28.7,15.1,57.8,31,86.4c16.2,29.2,48.7,74.3,76.3,108.7l0,0c-0.6,0.1-1.2,0.3-1.6,0.6c-2.2,1-3.7,3.1-4.5,6.3
	c-0.6,2.5,0.1,4.2,0.9,5.2c0.7,1,1.8,1.8,2.7,2.4c-0.4,1-0.9,2.2-0.7,3.6c0,1.2,0.4,2.7,1.9,4.2c-0.6,1.9-1.3,5.2,0.3,8.3
	c1,2.1,2.8,3.7,5.4,4.8c-1.3,1.3-2.2,2.7-2.8,4.2c-0.7,1.8-0.7,3.6-0.6,4.8c-3.9,1.9-8.6,6.3-7.1,13.4c0.4,2.4,1.6,3.9,3.3,4.8
	c1.5,0.7,3,0.7,4.5,0.3c-0.1,0.3-0.3,0.6-0.4,1c-0.1,0.7-0.1,1.9,0.7,3.1c0.7,1.2,1,1.8,1.3,2.5c0.4,1.2,0.9,2.5,3.4,5.5
	c1.2,1.5,2.8,1.9,4.5,1.9c4.8,0,10.6-4.2,13.1-6.1c0.6,0.1,1,0.1,1.6,0.1c-0.3,1.8-0.3,3.6-0.1,5.2c0.3,3.1,1.8,9.7,4.9,11.3
	c2.1,1.2,2.8,2.8,4.2,6.7c1,3,3.3,3.3,4.2,3.3c3,0,5.7-3.3,6.7-6.6c0.1-0.6,0.6-1.3,1.2-1.9c-0.7,4.2,0.3,6.4,3.4,7.7
	c0.3,0.1,0.6,0.3,0.7,0.3c0.6,0.7,1.3,1.8,2.7,2.1c0.1,0,0.3,0,0.4,0c1,0,1.8-0.6,2.4-1c0.4-0.3,0.9-0.6,1.5-0.9
	c3-1.6,5.1-8.5,6-12.4c4.2-1.8,5.7-6.4,6-10.3c0.7,0.1,1.3,0.3,2.1,0.3c0.9,0,1.9-0.1,3-0.4c0,0,0,0,0.1,0c-2.1,4-4.2,8.2-6.3,12.4
	c-14.1,28.6-13.3,32.9-13,34.4c0.3,1.3,0.9,1.9,1.3,2.4c1,0.7,2.7,1.2,4.5,1.2c8.8,0,24.7-8.5,34.3-21c11.3-15,19.5-33.8,23.4-54.7
	c1.5-7.9,4.9-16.7,8.5-24.4c-2.2,7.6-4.6,16.4-7.1,25c-0.3,0.3-0.4,0.7-0.6,1.2c-0.1,0.6-0.1,1.2-0.3,1.9c-1.2,4.5-2.4,8.9-3.4,13.1
	c-0.1,0.1-0.1,0.4-0.3,0.6c0,0.1-0.9,4-2.4,9.8c-0.1,0.4-0.1,0.7-0.3,1.2c-1,4.3-2.2,9.5-3.6,15.2c-0.1,0.1-0.4,0.3-0.6,0.4
	c-10.3,10.9-18,22.2-21.9,31.9c-1.3,3.3-2.7,6.9-4.3,10.7c-9.1,22.2-19.4,47.5-14,57.5c1.2,2.2,3.1,3.7,5.7,4.3
	c0.7,0.1,1.5,0.3,2.2,0.3c6,0,12.1-4.9,18-14.7c4.5-7.3,7.3-14.7,7.7-15.9c15.9-29.8,13.9-52.7,12.7-66.4c-0.3-2.7-0.4-4.9-0.4-6.7
	c0-1.9,0.7-6.4,2.1-12.2c0.4-2.1,1-4.2,1.3-6c0.6-2.4,1.2-4.8,1.9-7.4c0.1,6.1,0.6,23.8-0.9,35.4c-0.1,1.6-0.4,3.4-0.6,5.2
	c-1.8,14.4-4.2,32.5,1,45.4c2.8,7,4.6,13.9,6.1,18.9c2.1,7.6,2.8,10.1,5.2,10.4c0.1,0,0.3,0,0.4,0c2.5,0,3.1-3,4-6.7
	c0.7-3.1,1.6-7.3,3.3-9.1c2.4-2.5,3.4-9.2,4.3-18.8c64.6,59.4,126.4,110.8,127,111.2c1,0.9,2.4,1.3,3.7,1.3c1.3,0,2.7-0.4,3.9-1.5
	c0.9-0.7,87.1-74,164.9-148.5c2.8,4.5,5.4,9.7,7.1,15.8c7,22.8-9.4,79.7,27.3,65.8c36.6-13.9-10.1-66-10.1-66
	c-19.5-20.4,4.3-27.6,4.3-27.6c7.4-36,37.7-24.4,37.7-24.4c-9.7-20.6,1.8-38.1,8.2-45.6l5.1-5.4c32.5-38.1,81.5-95.9,101.9-132.8
	c31-56,41-111.7,29.6-165.6c0-0.1-0.1-0.3-0.1-0.6l-6.4-20.8c3-17.3,14.6-14.9,24.1-30.4C763.5,535.5,740.7,519.7,703.9,511z
	 M-11.5,561.1c-8.2-0.1-22.9-0.9-38.9-3.9C-44,554.2-31.2,551.2-11.5,561.1z M-22.2,566.9c-11.5,1.6-21.3-0.6-29.2-6.9
	c16.5,3.1,31.9,3.9,40.1,4C-14.3,565.1-18.1,566.3-22.2,566.9z M174.1,1007.4c6.1-5.8,12.2-11.5,15.9-14.7c-0.7,3-1.3,6-2.1,8.8
	c-7.3,5.2-14.6,14-19.8,20.8C170,1017.2,172.1,1012.2,174.1,1007.4z M160.1,1060.1c-2.4-4.8,0.1-15.3,4.2-27.1
	c3.4-5.1,12.8-18.5,22.3-26.7C178.1,1036.7,166.6,1054.6,160.1,1060.1z M188.2,1029.4c-0.7,1.5-1.5,3.1-2.4,4.6
	c0,0.1-0.1,0.1-0.1,0.3c-3,8-12.4,27.8-21.6,28c7.1-7,17.7-24.1,25.9-52.1C190.7,1019.9,189,1027.4,188.2,1029.4z M176.7,1000.7
	c0.6-1.6,1.3-3.3,1.9-4.8c3-7.6,8.6-16.4,16.2-25.2c-1.5,6.3-2.8,12.4-3.9,17.4C188.1,990.1,182.1,995.6,176.7,1000.7z M193.1,1018
	c0.3-4.3,0-9.5-1-15c0.7-3.1,1.6-6.4,2.4-9.7c1.6,4,2.4,7.9,2.5,10.7C196.1,1008.3,194.9,1013.1,193.1,1018z M198.3,995.2
	c-0.7-2.1-1.6-4.3-2.8-6.6c0.9-4,1.9-8.8,3-13.6C198.9,980.6,199.1,987.3,198.3,995.2z M698.4,534c-1.8,11.6-32.8,6.7-40.1,6.7
	c-52.4,0-63.4,0-62.8-7.1c1.2-14.7,56.1-10.7,58.4-10.7C664.6,522.8,700.2,522.3,698.4,534z M588.2,704.6
	c-24.9-6.9-25.3-17.6-21.1-22.5c4-4.8,7.9-1,22.8,2.2c25.6,5.7,23.7,14.9,23.7,14.9S614.7,712.1,588.2,704.6z M329.4,834.9
	c1.6-1.8,2.7-4,3.3-5.5c5.7,4.2,20.6,18.6,21,54.2c-1.8,1-3.7,2.1-6.1,2.8c-3.7,1.3-7.3,1.5-10.4,1.2
	C340.3,857,332.7,840.5,329.4,834.9z M321.6,838.4c1.9,0,3.6-0.4,5.2-1.3c0.1,0,0.3-0.1,0.3-0.3c3.1,5.5,10,21.6,7,50.3
	c-3.1-0.6-5.8-1.6-8-2.4c-1.5-0.6-2.7-1-3.7-1.2C327.5,864,323.4,845.4,321.6,838.4z M262.4,949c-5.5-8-8-15.8-9.2-22.3
	c1.6-5.4,7.9-24.9,13.9-36.9c0.3,4.6,0.6,9.2,1.2,14C262.5,921.2,262.1,939.3,262.4,949z M163.5,890.5c-0.1-0.3-0.3-0.6-0.3-1
	c-1.3-3.9-4.8-14.1-17-11.6c-1.6-2.1-5.2-5.8-10.1-6.4c-3.7-0.4-7.1,0.9-10.4,4c-0.1,0.1-0.3,0.3-0.4,0.4c-1-1.5-2.7-3.4-4.8-5.1
	c2.7-0.1,4.5-0.3,4.6-0.3c4.8-1,8.9-5.7,11.9-9.7c0.4,3.7,1.6,7,4.2,8.9c1.2,0.9,2.7,1.3,4.3,1.3c1.3,0,2.7-0.3,4.2-0.9
	c7.9-3,8.8-5.8,7.9-10c-0.3-1.3-0.6-2.4,0.3-3.9c4.2-6.9,2.5-11,0.9-15.8c-0.4-1.3-0.7-2.5-1-3.7c0.7,0,1.6,0,2.4-0.3
	c1.2-0.4,2.7-1.8,3.1-4.9c0.3-1.5,0.1-2.8-0.1-3.9c4.5-2.5,13.6-8.3,16.1-12.5c0.1,0,0.1,0,0.3-0.1c-7.6,11.3-15.2,31.4-1,57.6
	c0.3,0.6,0.9,1,1.6,1.2c0.1,0,0.3,0,0.3,0c0.6,0,1-0.1,1.5-0.6c0.1-0.1,0.9-0.9,1.9-2.1c-2.2,5.1-3.9,10.9-4.5,17.7
	c-6.3,4.3-11.8,7.6-14.6,9.2c-0.3-0.4-0.6-0.9-1-1.2s-0.9-0.7-1.5-1c0.6-0.4,1-1,1.3-1.6C163.9,893.2,163.9,891.8,163.5,890.5z
	 M131,919.4c2.8-3.4,4.8-7.4,6-10.3c0.1,0.6,0.3,1.3,0.4,2.2c-1,2.5-3.4,8.2-7.1,12.4c-0.1,0-0.4,0.1-0.6,0.3
	C131,922.4,131.3,920.4,131,919.4z M136.8,901.5c-0.1-1.5-0.9-5.1-4-9.7c-0.6-0.9-1.5-1.9-2.5-3c-4-4.3-5.5-6.6-1.8-10.1
	c2.2-2.2,4.6-3.1,6.9-2.8c4.5,0.6,7.9,5.7,7.9,5.7c0.6,0.9,1.5,1.2,2.5,0.9c8.6-2.4,11.2,2.8,13.1,8.3c0.1,0.4,0.3,0.9,0.4,1.3
	c0,0.1-0.6,1.3-7.1,3.3c-3.3,0.9-9.5,4.8-13,7.7C138.6,902.9,137.7,902.3,136.8,901.5z M114.2,859.1c-0.1-1-0.9-1.8-1.8-2.4
	c-1.9-1-3.6,0-4.5,0.6s-1,0.7-2.2-0.4c-2.1-1.8-2.1-4.5-1.9-7c0-1.3,0-2.5-0.1-3.6c-0.4-1.8,0.6-7.9,7.1-11.9
	c5.2-3.3,9.8-3.4,11.3-3.4c1.2,0.9,3.4-0.1,5.1-2.2c1-1.3,1.5-2.8,1.5-3.9c4.2-4.2,10-7.3,12.5-8.6c1.3,0.4,2.2,0.7,2.5,0.7
	c0.1,0,0.1,0,0.3,0c-2.8,1.2-7.6,3.4-10.3,6.3c-0.9,0.3-1.9,1-2.8,1.9c-1.8,1.9-2.4,4.3-1.3,5.4c1,1,3.4,0.3,5.2-1.6
	c1.3-1.5,1.9-3.1,1.8-4.3c2.4-2.2,6.3-4,8.6-4.9c0.1,0.3,0.3,0.7,0.3,1c-0.3,0.3-0.6,0.6-0.7,0.9c-0.1,0.3-1.2,2.8-2.5,6.3
	c-1.5,1.2-5.2,4.2-9.4,4.5c-0.9-0.7-2.5-1.3-4.3-1.2c-2.7,0.1-4.8,1.6-4.6,3c0.1,1.5,2.4,2.5,5.1,2.2c1.5-0.1,2.7-0.6,3.6-1.2
	c3,0,5.8-1.2,8-2.5c-0.4,1.3-0.9,2.7-1.3,3.9c-1.9,1.5-5.2,3.6-8.3,3.4c-0.7-1-2.5-1.6-4.6-1.5c-2.7,0.1-4.8,1.6-4.6,3
	c0.1,1.5,2.4,2.5,5.1,2.2c1.3-0.1,2.4-0.4,3.3-1c0.4,0.1,1,0.1,1.5,0.1c2.4,0,4.8-0.9,6.7-1.9c-0.6,2.1-0.9,4-0.9,5.7
	c0,0.7,0,1.6-0.1,2.7c0,1.2-0.1,2.4-0.1,3.6c-0.1,0.1-0.1,0.3-0.3,0.3c-1.8,3.1-7.4,11.6-12.4,12.7c-1.6,0.3-10.1,0.6-13.7-0.1
	c0.3-0.3,0.4-0.6,0.7-0.9C113.1,862.9,114.6,861.2,114.2,859.1z M96.5,810.4c-0.3-1.2-1-4.8,0.6-6.9c1.8-2.1,5.7-1.9,8.5-1.6
	c0.9,0.1,1.6-0.3,2.1-0.9c0,0,3.9-5.4,10.9-3.6c1.8,4.2,5.7,7.4,8.5,9.8c1.3,1,2.5,2.1,3.1,2.8c-3.1,1-7,3.4-9.4,7.6
	c-1,0.3-2.1,1.2-3.1,2.4c-1.6,2.1-1.9,4.5-0.7,5.5s3.4,0,5.1-2.2c1-1.5,1.6-3,1.5-4.2c2.8-4.8,7.9-6.7,9.5-6.6
	c1.3,0.9,2.8,1.6,4.3,2.2c-3.1,1.8-7.6,4.6-11.2,8.2c-1,0.3-2.4,1.2-3.3,2.4c-0.3,0.3-0.4,0.6-0.6,1c-2.1,0-7,0.1-12.8,3.4
	c-4.6-1.8-11.5-5.5-13.3-8.6c-3.1-5.2-3.1-5.8-0.1-8.6C96.5,812,96.6,811.1,96.5,810.4z M62.8,664.3c3,0.9,6.7,1.6,10.6,1.6
	c0.9,0,1.6,0,2.5-0.1c-0.3,1-1.9,1.9-2.7,2.1c-0.6,0.1-1,0.7-1.3,1.2c-0.3,0.4-0.1,1.2,0,1.8c1.9,4,4,9.2,4,10.4
	c0,0.3,0,0.7,0.1,1.2c-14.4-4-13.4-16.8-13.3-17.4C63,665,63,664.6,62.8,664.3z M57.9,659.4c-1.5-3.1-0.6-7.4,0.6-12.7
	c0.4-1.8,0.9-3.4,1-4.8c0.1-0.7,0.1-1.3,0.1-1.9c5.7,2.8,17.9,8.5,32.3,10.3c-1.6,0.6-3.4,1.3-5.2,2.2c-5.1,2.5-7.9,7-9.5,10.3
	C69.7,664.3,60.4,660.4,57.9,659.4z M-1.1,647.4c0,0-2.8-2.4-2.7-5.2c0.1-1.9,1.5-3.7,4.2-5.5c0.9,0.1,1.9,0.1,3,0.1
	c0.9,0,1.6,0,2.5-0.1c14.6-0.9,23.1-6.3,28-11.3c0,1.3,0,3-0.4,4.9c-0.1,0.7-0.6,1.9-1,3.3c-1.3,3.7-3.3,8.8-1.3,13
	c0.9,1.8,2.4,3.3,4.5,4.3c-1.3,3.9-3.9,8.6-6.6,9.8c-0.9,0.4-1.6,0.4-2.5,0c-4.8-2.2-8-0.3-11,1.3c-3.4,1.9-6.7,3.9-13.3,0.3
	c-1.8-0.9-3.1-2.8-3.7-5.1c-0.7-2.5-0.4-4.9,0.9-7C0,649.2-0.2,648-1.1,647.4z M35.3,644.6c-1.2-2.5,0.3-6.4,1.5-9.5
	c0.6-1.5,1-2.8,1.2-4c1-5.5,0.3-9.1-0.1-10.4c0.6-0.9,1-1.8,1.5-2.5c4.3,1.3,11.6,2.4,15,1.9c2.1-0.3,3.6-1.2,4.8-1.8
	c0,0,0.1,0,0.1-0.1c0.3-0.1,0.7-0.3,1-0.4c0,0,0.1,0.1,0.3,0.1c0.6,0.6,2.4,3.7,1.6,6c-0.7,2.1-3.7,3-6.3,3.3
	c-0.9,0.1-1.6,0.7-1.9,1.8c-0.9,3.9-4.5,14.6-10,17.7c-1.8,0.9-3.6,1-5.5,0.3C36.7,646.4,35.7,645.7,35.3,644.6z M48.1,537.4
	c-5.1,1.6-11.9,4-17.6,10.1c-6.9,7.4-11.3,8.6-13.9,8.2c-1-0.1-1.8-0.6-2.5-1c0.4-0.6,1-1.5,1.5-2.4c1-1.8,2.4-4,4.5-6
	c0.4-0.4,2.2-0.7,3.6-1c2.1-0.3,4.5-0.7,6.1-2.2c1.3-1.2,1.9-2.8,2.7-4.5c0.4-1.2,1-2.5,1.6-2.8c1-0.7,3.3-0.1,5.4,0.3
	c3,0.7,6.3,1.5,8.3-1.2c2.8-3.9,5.2-3.6,6.9-3.1c0,1-0.3,2.4-1.2,3.4C52.7,535.9,50.5,536.6,48.1,537.4z M50.3,552.3
	c-2.7,1.9-8.5-2.2-12.1-5.5c3.7-2.5,7.6-3.9,11-5.1C51,545.1,52.8,550.3,50.3,552.3z M33.8,550.5c0.3-0.3,0.6-0.6,0.9-0.9
	c2.7,2.7,8.5,7.6,13.9,7.6c0.7,0,1.5-0.1,2.2-0.3c1.8,2.8,5.4,9.7,8,21c-0.6,1.3-0.9,3-0.6,4.8c0.3,1.6,1,3.3,2.2,4.6
	c-0.1,0.1-0.3,0.4-0.4,0.6c-1.9-1.9-4.6-2.7-6.6-3c-0.1-3.1-0.9-8.6-4-11.5c-1.6-1.5-3.6-2.1-5.8-1.9c-1.9,0.1-3.4,0.9-4.8,1.8
	c-1.8-3.4-4.9-6.9-9.2-7c-1-1.9-3.4-5.4-6.7-7.4C26.5,557.3,30,554.7,33.8,550.5z M49.9,588.5c0.4,0.4,1,0.7,1.6,0.6
	c0,0,4.2-0.1,6,2.4c1.6,2.2,0.7,6-0.1,8.8c-0.3,0.6-0.1,1.3,0.1,1.9c1,1.8,3.6,7.3,2.4,10.1c-0.1,0.3-0.4,0.7-1,1.2
	c-0.4,0.1-1,0.3-1.5,0.6c-0.1,0-0.1,0-0.3,0c-8.8,1.8-10.9,1.3-17.6-0.9l-0.1-0.1c-0.9-3.6-3-16.4-2.4-21.3c0.1-0.6,0.1-1.2,0.3-1.8
	c0.9-7.1,2.1-13.6,7-14c0.9-0.1,1.6,0.1,2.4,0.7c2.4,2.2,2.7,8.3,2.5,10.3C49.1,587.4,49.4,588,49.9,588.5z M64.9,574.6
	c-1.3-3.9-1.2-4.3,3.9-7.7c3.3-2.2,11.6-2.4,15.6-2.2c2.8,4.2,5.5,6.6,7.3,7.7c-1,0.4-1.6,2.1-1.6,4c0,1.2,0.3,2.4,0.9,3.1
	c0.1,2.2,0.6,4.2,1.3,5.8c-6.3-3-15-5.8-22.5-3c-1.2,0.4-2.2,0.7-3.1,1s-1.8,0.6-2.5,0.9c-0.9-0.7-1.3-1.5-1.5-2.4
	c-0.3-2.1,1.3-4.5,1.9-5.2C65,576.3,65.2,575.4,64.9,574.6z M71,561.1c-1.8,0.4-3.6,1-4.8,1.9l-0.1,0.1c-2.4-10.3-1.9-19.7-0.7-26.2
	C66.8,550.2,69.4,557.5,71,561.1z M68,533.8c5.2,8.6,8.2,20.1,8.8,26.4c-0.9,0-1.8,0.1-2.5,0.3C72.5,557.5,69.4,549.4,68,533.8z
	 M139.5,560.6c-0.1-1.6,0.4-2.5,1.3-3.6c1.6-2.1,2.4-4.2,1.2-6.9c9.7,7.3,15.9,10.6,18.3,11.6c0,0.4-0.1,0.9-0.1,1.3
	c-2.2-0.6-5.5-1.8-7.6-3.4c-0.6-0.4-1.9-1.5-3.6-1c-1.6,0.4-2.1,2.1-2.5,3.6c-0.7,2.4-1.8,6-6.4,9.1c-3,2.1-5.4,4.8-7.4,7.9
	c-0.4-0.4-0.7-0.7-1.2-0.9c0.7-1,1.6-2.4,2.4-3.7c0.6-1.2,1.3-2.1,2.1-3.1C137.9,569.3,140.1,566.3,139.5,560.6z M149.8,517.4
	c-3.4-4.2-8-10-11.6-15.6c-3.9-15.5-7.9-34.4-8.3-42.6C138.8,473.5,146.4,502.4,149.8,517.4z M133.6,456.5c1.5,0.6,3.3,1.6,5.1,3
	c1.2,3.6,1.6,7.4,1.6,10.9C138.2,465.2,135.9,460.4,133.6,456.5z M195.4,540.5c-1,1.9-2.8,5.1-4.3,8.5c0.3-4.6,0.4-8.9,0.4-12.5
	c-0.1-21.9-6-34.8-10-41.1c6.4,3.7,13.9,16.1,13,27.6C193.9,528.5,194.6,534.6,195.4,540.5z M196.1,545.6c0.9,7.9,1.3,15.6-1.6,21.1
	c-0.9,1.8-1.9,3.7-2.8,5.8c-0.7-0.6-1.5-1.2-2.1-1.8c0.3-3.1,0.6-6.7,0.9-10.3l0,0C191,555.9,193.9,549.9,196.1,545.6z M187,536.3
	c0,3-0.1,6.4-0.3,10.1c-2.1-7.1-4.8-13.1-6.4-16.2c0-2.2-0.1-4.6-0.1-6.9c0-3.3-0.1-6.4-0.1-9.4c0-4.6-1-9.1-1.8-12.7
	c-0.3-1.2-0.6-2.8-0.9-4.2C180.8,502.4,186.9,514.7,187,536.3z M186,558.4c-0.3,3.1-0.4,6.4-0.7,9.2c-1.3-0.9-2.8-1.8-4.2-2.5
	c-1.5-7.9-1.6-11.6-1.3-13.6c0.4-4.2,0.7-8.9,0.7-14C182.6,542.9,185.2,550.3,186,558.4z M196.3,583.7c2.4,7.4,1.6,20.4-1.9,36.9
	c-3,13.9-3.4,27.8-3.4,33.1c-0.6-0.1-1.2-0.1-1.8-0.1c-0.7-11-4.9-61.2-15.6-87.3c0.3,0.1,0.6,0.3,0.9,0.4
	C182.4,570.2,190.4,576.6,196.3,583.7z M200.4,589.7c10.1,16.8,4.2,33.4-1.2,44.4c-1.8,3.6-3.6,7.7-5.1,11.5
	c0.4-6.6,1.2-15.5,3.1-24.1C199.4,611.6,201.3,599.3,200.4,589.7z M199.4,580.6L199.4,580.6c0.3-3.3,1.6-6.9,3.7-10.7
	c0.1,3.7,0.6,8.8,1.5,14.3c-0.4,0.7-0.7,1.5-1,2.1C202.4,584.3,200.9,582.4,199.4,580.6z M300.8,618.4c0.3,0.1,0.6,0.3,1,0.3
	c0,0,6.6,0.4,9.7,4.2c1.5,1.6,2.1,3.7,1.8,6.3c0,0.4,0,0.7,0.1,1.2c0,0,0.1,0.3,0.3,0.6c-4.6,3.9-26.2,12.7-40.8,18.5
	c1.2-1.6,2.2-3.1,2.8-4.8c0.9-2.1,2.4-4.9,4.3-8.2c0.9-1.5,1.8-3.1,2.7-4.8l0,0C286.1,628.5,295,620.5,300.8,618.4z M286.2,624.5
	c1.5-3.3,2.7-6.6,3.3-9.7c2.7-1,6.9-1.9,8.8-0.9c0.4,0.3,0.9,0.7,1.2,1.8C295.3,617.4,290.1,621.2,286.2,624.5z M510.8,692.4
	c1.9,0.3,31,4.2,25.6,22.8c-5.5,18.9-39.6,1.9-57.5-1.9c-17.9-3.9-53.5-11.9-78.2-8.9c0,0,73.6-46.2,128.7-48.4
	c10.6-0.4,22.9,7.3,20,24.1C546.5,696.3,512.9,692.7,510.8,692.4z M530.6,756.9c-59.6-26.8-106.9-34.4-106.9-34.4
	c42-4.2,86.2,11.3,106.2,20.4C547,750.5,559.6,770,530.6,756.9z M321.4,817.2c-2.1-7.6-6.4-12.7-8.5-14.9l0.1-1.6
	c0.9-0.7,2.4-2.1,3.7-4c2.7,3.4,8.5,11.3,10.3,17.1C325.7,816.3,322.8,817.1,321.4,817.2z M324,833.5c-1.3,0.6-3,0.7-4.8,0.3
	c1.9-4,2.8-7.7,3.1-10.4C323.4,825.7,324.3,829.3,324,833.5z M312.1,836.6c-2.1-9.7-7-16.8-10.1-20.6c1.8-0.4,3.3-1.2,3.9-1.5
	c1.9-1,6.6-3.6,6.7-7.4v-0.4c2.1,2.5,4.6,6.6,6,11.6c-0.3,0.4-0.4,0.9-0.4,1.3C318.2,819.8,318.4,829,312.1,836.6z M253.6,908.4
	c0.1-0.3,0.1-0.7,0-1c-1.9-9.1-0.6-19.1,3.9-29.6c2.5,0.6,5.7,1,9.2,0.9c0,1.8,0,3.6,0,5.4c-5.2,8.9-11,25.5-14.3,35.4
	C252.4,913,253.4,908.8,253.6,908.4z M259.4,960.3c-3.9-2.5-10.4-7.6-17.1-16.1c-4-8-8.5-17.4-11.9-24.3c0.3,0.3,0.7,0.7,1,1
	C244.1,932.9,257.5,952,259.4,960.3z M218.3,721.8c0.1,0,0.3,0,0.3,0c2.8,5.2,11.2,21.7,10.4,34.6c-0.9,1.5-1.9,3-3.1,4.2
	C227.5,741.7,221.7,728,218.3,721.8z M213.2,721.3c0.1-0.1,0.1-0.3,0.3-0.6c0.3,0.1,0.6,0.3,0.9,0.4c2.7,4.5,11,20.1,8.2,42.3
	c-1.5,1.2-3.3,2.1-5.1,2.8C221,743.9,214.7,725.5,213.2,721.3z M139.5,695.5c-1.8-0.9-3.4-1.6-5.2-2.1c-8.2-3.4-14.3-6.7-18.6-9.2
	c5.2-0.3,11.6-0.4,20,2.8c1.6,0.6,3,0.6,4.2,0.3c4.8,3,20.6,13.4,29.3,23.4c-2.2-0.3-5.2-0.6-8.5-0.7c-0.9-0.4-2.1-1.3-3.6-2.7
	C153.8,704.6,148.9,700.6,139.5,695.5z M141.3,701.8c-2.4-0.9-5.1-1.5-8.2-1.9c-5.5-0.7-11.2-0.3-16.5,0.1c-4.2,0.3-8,0.6-11.3,0.4
	c2.8-0.4,5.5-1,8.2-1.5c6.7-1.5,13-2.8,19.4-1c1.5,0.6,3,1.3,4.6,1.9C138.8,700.3,140.1,701.1,141.3,701.8z M90.8,655.5
	c2.5-1.2,4.9-1.9,7.1-2.5c3.4,1.2,13,4.8,18.9,8.8c-0.7,0-1.5,0-2.1-0.1c-2.8-0.1-6-0.3-8.6,0.1C100.5,657.9,94.8,656.2,90.8,655.5z
	 M102.6,663.1c-0.7,0.4-1.5,1-2.1,1.6c-6.1-2.1-12.8-3.6-16.5-4.2c0.7-0.9,1.6-1.8,2.5-2.5C89.3,658.2,95.9,659.1,102.6,663.1z
	 M69.8,594.7c-0.7-0.6-1.6-0.6-2.5-0.1c-0.6,0.1-2.5,0-3.6-0.9c-0.4-0.3-0.7-0.7-0.4-1.8c0.7-2.8,1.2-3,4.8-4.2
	c0.9-0.3,2.1-0.7,3.3-1.2c7.6-2.8,17.9,1.9,23.1,5.1c-0.9,0.3-2.1,0.6-3.4,1c-4.6,1.2-11,3-14.1,8c-3,0.9-5.1,0.9-6,0.1
	s-0.6-2.7-0.4-3.6C70.9,596.2,70.6,595.2,69.8,594.7z M94.7,576.1C94.7,576.3,94.7,576.3,94.7,576.1c0.7,1.3,1.8,2.2,2.7,2.5
	c3,4.8,3.7,8.9,3.9,11.2c-0.3,0-0.6,0-0.9,0c0,0,0,0-0.1,0c-0.1-0.1-1.2-0.9-2.8-1.8c-1.5-1.9-3.3-4.8-3.6-8.6
	C94.4,578.6,94.7,577.6,94.7,576.1C94.7,576.3,94.7,576.3,94.7,576.1z M79.9,605.1c1-5.4,7.3-7,12.4-8.3c1.9-0.6,3.7-1,4.9-1.6
	c1.8-0.9,5.2-0.9,8.3-0.6c-0.1,0.1-0.3,0.1-0.6,0.3c-7,3.7-5.1,8.6-4,11.3c0.3,0.6,0.4,1.3,0.6,1.8l0,0c-1.8-0.3-3.6-0.4-5.4-0.3
	c-3.9,0.1-6.9,1-9.2,2.2c-1.6-1.8-3.6-2.4-5.2-2.8C79.6,606.5,79.6,606.5,79.9,605.1z M257.9,651.6c0-0.1,0-0.3,0.1-0.3h-0.1
	c-0.1-1,0-1.8,0.1-2.2c2.8-1,8.6-3.4,13.6-6c-1.9,5.1-8.6,10.1-13.1,12.2l0,0h0.1C258.4,653.6,258.1,652.5,257.9,651.6z M278.9,665
	c3.3,1.2,6.6,1.9,9.8,2.8c1.3,0.3,2.7,0.6,3.9,1c-12.7,0.7-28.7,4.5-35.7,6.4c0-0.1,0.1-0.3,0.1-0.4
	C257.5,674.1,268,661.1,278.9,665z M255.5,622.1c-1.2,1.5-1.9,3-2.4,4.5c-11.9,22.8-29.6,38.4-35.3,43c2.4-7.1,12.1-35.4,22.6-50
	c1.8-0.3,3.6,0.1,5.2,1.3c0.6,0.4,1.5,0.6,2.2,0.1c0.3-0.1,6.9-3.3,11.6-8.2C258.7,616.2,257.3,619.7,255.5,622.1z M294.8,816
	c-0.1-0.9-0.3-1.8-0.6-2.5c0.1,0,0.1,0,0.3,0c0.1,0.9,0.7,1.6,1.5,2.2c0.7,0.4,1.6,0.7,2.7,0.7c2.8,3,9.2,11.3,11,22.8
	c-1.9,1.8-4.5,3.4-7.6,4.6c-0.4,0.1-0.9,0.3-1.3,0.4c-2.4-10.4-6.7-17.6-8.8-20.7c0.1-0.1,0.1-0.1,0.3-0.3
	C294.1,820.9,295,818.6,294.8,816z M298.7,808.3c-0.3,0-0.4,0-0.7,0c-8.9,2.5-15.6-1.5-18.9-4c-1-0.9-2.7-4.5-3.7-8.6
	c3.1,2.2,6.9,3.9,8.6,4.6c0.7,0.3,1.5,0.4,2.1,0.4h0.1c-0.1,0.6,0,1.3,0.3,2.2c0.9,2.2,3.7,3.7,7.6,3.9c0.1,0,0.4,0,0.6,0
	c2.7,0,5.8-0.6,8.3-2.4c-0.4,2.4-2.1,3-4.2,3.6C298.9,808.3,298.9,808.3,298.7,808.3z M265.5,791.6c-1.2-0.6-2.7-1-4.5-1.5
	c-6.9-1.9-10.3-3.6-9.4-7.1c0.1-0.9,0.4-1.6,0.7-2.2c0.9,0.1,2.2,0.4,3.9,0.4c2.5,0,5.4-0.6,7.4-2.7c0.9,0,2.1,0,3.4-0.6
	c3.3-1.5,5.8-5.2,7.7-11c2.1-6.6,5.4-8.6,8.6-9.7c0.3,0.1,0.6,0.1,0.9,0.1c0.1,0,4.3,0.3,6.1,2.8c-0.4,1.8-1.9,5.7-5.5,6.7
	c-7.1,1.9-14.4,11.3-14.9,19.1c-0.4,6.7,2.8,19.1,6.7,22c2.5,1.9,6.7,4.6,12.4,5.5c0.1,0.1,0.6,0.6,1,1.2
	c-8.5,0.9-17.1-2.5-20.6-4.2c-0.1-0.6-0.3-1.3-0.4-2.1c-0.1-0.7,0-2.5,0.1-4C269.1,799.5,269.5,793.7,265.5,791.6z M266.7,817.7
	c-3.9-1.2-13.3-7.1-18.5-16.4c-0.4-0.9-0.9-1.6-1.3-2.2c4.5,4.2,10.6,8.3,17.3,9.4c0,0.3,0,0.4,0.1,0.7c0.4,1.9,0.7,3.1,1.2,4.6
	C265.8,814.7,266.2,815.9,266.7,817.7z M293.9,794.9c0,0.1,0.1,0.4,0.1,0.7c-0.4,0.3-1.3,0.4-2.1,0.7c-0.6,0.1-1.2,0.4-1.9,0.6v-0.1
	c0.3-0.9,0.7-2.1,1.3-3.1c2.2-3.6,0.4-8-0.9-10.6c0.9-1,1.3-2.4,1.5-3.6c1.2,0,2.8-0.1,4.5-0.6c4-1,4.9-7.4,5.1-11.2
	c1.3-0.3,2.7-0.7,4-1c1.5,1.2,5.2,4.6,6,8.6c0,0-0.1,0.1-0.3,0.1c-1.5-0.6-3.6,0.1-7.4,2.5c-6,3.7-9.7,6.4-10.4,11.9
	C293.4,792.2,293.8,793.8,293.9,794.9z M305.6,762.1c-3.6,1-8.8,2.5-10,1.6c-0.1-0.1-0.3-0.4-0.3-1c0-1.3-0.1-2.5-0.6-3.6
	c-0.1-0.3-0.3-0.7-0.4-1c-0.7-1.2-1.6-2.1-2.7-2.8c0.9-0.3,1.9-0.6,3-0.9c4.8-1.5,11.3-3.6,14.6-3.1c4.9,0.6,11.8,4.2,13.7,8.2
	c0,0.1,0.1,0.1,0.1,0.3c-3.1-0.3-7-0.3-11.5,0.7C309.7,760.9,307.6,761.5,305.6,762.1z M292.2,766.4c0.3,0.3,0.6,0.6,0.7,0.7
	c1,0.9,2.5,1.2,4,1.2h0.1c-0.3,3.3-1,6-1.6,6.3c-2.8,0.7-4.9,0.3-4.9,0.3c-0.7-0.1-1.5,0-2.1,0.4s-0.9,1.3-0.7,2.1
	c0,0,0.3,2.5-1.2,3.6c-1,0.7-1.3,2.1-0.6,3.1c1,1.5,2.8,5.5,1.8,7.3c-0.9,1.5-1.3,2.8-1.8,4c-0.1,0.3-0.1,0.6-0.3,0.9
	c-10.4-4.5-11.3-7.9-11.3-9.1c0-0.4,0-0.7-0.1-1c0,0,0,0,0-0.1c0.3-5.8,6.4-13.6,11.6-15C288.7,770.3,290.8,768.4,292.2,766.4z
	 M302.9,798.6c-1.6,3-5.4,3.7-6.9,3.9c-2.7,0.3-4.6-0.4-5.2-0.9c0.6-0.3,1.8-0.7,2.5-1c1-0.3,2.1-0.6,3-1c2.8-1.5,2.4-4,2.1-5.5
	c-0.1-0.9-0.4-2.1-0.1-3.4c0.4-3.3,2.4-4.9,8.3-8.6c0.7-0.4,1.2-0.7,1.6-1c-0.4,1.5-0.6,3.4-0.1,5.8c0.3,1.6,0.1,1.8-1,2.4
	C304.5,790.4,302.3,792.4,302.9,798.6z M307.5,799.8c-0.9-5.5,0.3-6.1,1.6-6.9c1.5-0.7,4-2.2,3.3-6.9c-0.3-2.2,0-3.9,0.4-5.1
	c0.9,2.2,2.4,4.2,3.7,5.7c0,0.1-0.1,0.3-0.1,0.6c-0.6,5.7-6.9,10.6-6.9,10.6c-0.4,0.4-0.9,1-0.9,1.6l-0.4,7.3c0,0.4-0.6,1.5-2.5,2.7
	l-0.1,0.1C307.1,807.8,308.2,804.9,307.5,799.8z M316.3,776.6c0-4.9-3-8.8-5.4-11.3c0.6-0.1,1.2-0.3,1.6-0.4
	c3.4-0.7,6.3-0.9,8.8-0.7c-2.5,4.5-4.3,9.2-2.7,11.8c1,1.5,2.1,2.1,2.8,2.5c0.7,0.4,0.9,0.4,0.7,1.8c0,1-0.3,2.2-0.6,3.6
	c-0.1,0.4-0.1,0.9-0.3,1.5C319.4,783.6,316.3,780.4,316.3,776.6z M320.3,790C320.3,790,320.5,790.1,320.3,790
	c0.1,0.1,0.3,0.1,0.4,0.3c0.1,1.6,0.6,3.3,1.6,4.8c0.1,0.3,0.1,0.4,0.4,0.6c0,0,4.9,5.4,5.2,13.1c-3-6-7.6-12.1-9.5-14.4
	C319.3,792.9,319.9,791.5,320.3,790z M326.7,792.9c-1.3-1.3-1.5-3.1-1.2-5.5c2.7-1.3,9.7-4.5,18.2-3.4c0,0.7-0.1,1.5-0.1,2.2
	c-0.3,3-0.6,6,0.7,8.8c-1.6,2.2-4.9,3.6-6.9,4.2c-1.3-2.4-3.7-3.1-5.8-3.9C329.8,794.9,328.2,794.3,326.7,792.9z M326.3,783.9
	c0.3-1.2,0.4-2.4,0.6-3.4l0,0c2.2-1.6,7.9-4.9,16.1-3.4c0.3,0.6,0.4,1.2,0.6,1.8c0.1,0.9,0.1,1.6,0.3,2.4
	C336.2,780.3,330,782.2,326.3,783.9z M326.4,777.2c-0.6-1.3-1.5-2.1-2.5-2.7c-0.6-0.3-1-0.6-1.3-1.2c-0.1-1.2,1.5-4.9,3.7-8.6
	c0.1,0,0.3,0.1,0.4,0.1c0.1,0.7,0.7,1.2,1.5,1.5c2.8,0.9,8.8,3.6,12.5,7.3C334,773.3,329.2,775.4,326.4,777.2z M327.8,757.7
	c-0.6,0-0.6,0-0.7-0.1c-2.8-5.7-11.2-10-17.3-10.7c-4.3-0.4-11,1.6-16.5,3.3c-2.2,0.7-4.3,1.3-5.5,1.6c-0.4,0.1-1,0.1-1.5,0.3
	c-4.6,0.7-12.2,1.9-15.8,13.4c-1.9,6-4,7.7-5.1,8.2c-1,0.4-1.6,0.3-1.6,0.3c-1-0.4-2.2-0.1-2.8,0.7c-1.2,1.8-3.4,2.1-5.4,1.9
	c1.6-1.6,3.4-3.9,4-9.1c0.6-5.2,4.5-7.3,7.3-8.8c1.8-0.9,3.6-1.8,3.6-3.7c0.3-0.4,0.9-1.2,1.6-1.8c0.1-0.1,0.3-0.1,0.4-0.3
	c0,0,5.8-5.2,15.3-10c10.6-5.4,17.4-2.7,20.6-0.7c5.4,3.4,11.2,6,16.7,7.1c4.3,0.9,7,2.2,8.5,4C333,754.7,330,757.4,327.8,757.7z
	 M218.9,677.7c2.5-0.9,5.1-1.2,5.1-1.2c0.3,0,6.3-0.7,11-2.1c2.1,14.6-3,28.6-5.1,33.8c-1,1-2.1,2.1-3.3,3.3
	C227.8,694.4,222,682.7,218.9,677.7z M214,688c-0.4-1.2-0.9-2.2-0.7-4.9c0.1-1.8,1.3-3,2.8-3.9c3,4.8,9.4,17.1,7.3,35.4
	c-3.4,2.7-5.4,3.1-6.6,3c-1.3-0.3-2.4-1.6-3.4-3.9c-2.7-6.3-2.7-10.4,0-17C215.3,692,214.9,690,214,688z M298.6,723
	c0.3,0,0.4-0.1,0.7-0.1c2.1-0.9,3.9-1.2,5.2-1.2c0.6,3.3-0.3,9.4-1.3,14c-1.6-0.3-3.6-0.3-5.7-0.1c-0.1-2.4-0.6-6.9-2.1-10.7
	C297.4,723.2,298.3,723,298.6,723z M288.9,723.8c-24-4.9-43.3-15.5-49.6-19.2c2.4-2.7,4.6-5.5,7-8.8c5.8,0.3,32.9,2.2,54.1,21.6
	c-0.9,0.3-1.8,0.6-2.8,0.9C295.7,718.9,292.5,721.2,288.9,723.8z M304.2,717c-20.3-19.8-46.9-23.4-55.8-24c0.6-0.9,1-1.6,1.6-2.5
	c0.1-0.1,0.1-0.3,0.3-0.4c5.5,0.1,37.1,1.6,58.4,24.1c-0.1,1.2-0.4,2.2-0.4,3.3C307.2,717.1,305.9,717,304.2,717z M246.3,688.1
	c-0.3,0.4-0.6,1-0.9,1.5c1.3-5.5,2.2-12.8,1.2-21.4c3.1-2.5,6-5.7,8-8.9C254.9,667.4,251.7,679.8,246.3,688.1z M253.4,651.2
	c-2.2,7.3-10.3,15.6-18.2,18.5c-2.7,1-6.6,1.6-9.1,2.1c7.7-4.3,19.5-12.4,28.1-25.2C253.7,647.6,253.3,648.8,253.4,651.2z
	 M237.8,673.4c1.9-0.9,4-1.9,6-3.3c1.3,14.6-3.3,25.3-4.2,27.6c-1.5,1.8-3,3.4-4.5,5.2C237.4,695.5,239.6,684.7,237.8,673.4z
	 M237.4,707c5.7,3.4,24.7,14,48.7,19.4c-1.6,1.3-3.3,2.8-4.8,4.2c-0.3,0.3-1.8,1.2-4,2.1c-16.8-2.2-36-18.9-41.6-24
	C236.2,708.1,236.8,707.5,237.4,707z M284,734.1l0.1-0.1c3.7-3.4,6.6-5.7,8.6-7.3c1.2,3.4,1.5,7.3,1.6,9.2c-2.5,0.6-5.4,1.5-8.5,3
	c-3.3,1.6-6,3.3-8.3,4.8c0,0,0,0,0-0.1c-0.3-1-1-2.4-3.3-3c-1-0.3-2.1-0.9-3.1-1.6C278.8,737.7,283.5,734.3,284,734.1z M333.6,747.5
	c-1.9-1-4.3-1.9-7.3-2.7c-1.8-0.4-3.7-0.9-5.5-1.6c0.7-2.7,3-8.9,8.6-13.4c1.6,4.2,4.6,8.2,11,10.9
	C336.7,743.7,334.5,746.3,333.6,747.5z M317.8,742.2c-1.3-0.6-2.5-1.2-3.9-1.9c1-4.8,4.3-17.6,8.5-24.9c0.3,0,0.4,0.1,0.7,0.1
	c2.5,0.6,3.1,2.5,4.2,7.4c0.3,1.2,0.6,2.5,0.9,3.9C321.5,731.7,318.8,738.7,317.8,742.2z M311.2,738.6c-0.1-0.1-0.3-0.1-0.4-0.3
	c-1.2-0.7-2.8-1.6-4.9-2.2c0.7-3.4,1.9-9.8,1.5-14.3c0.3,0.1,0.4,0.1,0.7,0.3c1,0.3,2.2,0.7,3.3-0.1c0.4-0.3,1-1,1-2.4
	c-0.1-1.3,0.7-6,1.8-10.7c1.2,2.1,2.8,4,5.4,5.4C315.5,721.6,312.6,733.4,311.2,738.6z M312,699.6c-0.1,0.1-0.3,0.4-0.3,0.7
	c-0.3,1.3-1.3,6-2.2,10.3c-20.4-20.3-48.7-23.1-57.3-23.5c0.6-1.2,1.2-2.4,1.8-3.6c8-0.6,39.5-2.5,60.8,6.9
	C315.1,693.3,314.2,696.4,312,699.6z M220.8,671.1c6.1-5.2,20.8-18.8,32.2-38.1c0.3,1.6,0.7,3.1,1.2,4.6c0.3,0.7,0.4,1.5,0.6,2.1
	C245.2,657.6,228.3,667.5,220.8,671.1z M215.5,667.3c-1.3-1.2-2.8-1.9-4.6-2.2h-0.1c0.1-6.3,1.8-23.7,13.7-30.1
	c0.4-0.1,0.7-0.6,0.9-0.9c1.3-2.7,5.4-8.6,10-11.9C226.2,636.6,218.3,658.9,215.5,667.3z M215.5,674.4c-3.1,1.5-6.3,4-6.7,8.2
	c-0.4,3.7,0.4,5.7,1,7.1c0.6,1.3,0.9,2.1-0.4,5.2c-0.1,0.4-0.3,0.9-0.6,1.3c-8.8-5.5-13.3-13.3-14.7-16.4c0-0.1,0-0.1,0.1-0.3
	c2.2-7.6,5.7-7.6,7.6-7.6c1.5,0,2.7-0.7,3.7-1.3c1.3-0.7,2.5-1.5,4.9-1.2C212.3,669.8,214.3,672.2,215.5,674.4z M125.1,661.6
	c8.3,1.6,31.1,7.1,40.8,17.9c-10.7-9.2-30.2-13.9-41.3-15.8C125.1,663.1,125.1,662.3,125.1,661.6z M123.9,658.3
	c-0.1-0.3-0.3-0.4-0.4-0.7c-0.9-1.6-1.6-2.8-1.2-3.6c0.3-0.7,2.2-2.7,11.3-4.2c7.1,3.1,26.4,12.2,33.8,25.3c-0.1,0.3-0.3,0.7-0.4,1
	C155.1,664.7,130.1,659.5,123.9,658.3z M139.4,649.2c19.1-0.7,26.8,13.9,28.4,17.4c-0.3,1.3-0.3,2.7,0,4
	C160.7,660.5,147.7,653.1,139.4,649.2z M92.4,612.7c1.2-0.3,2.5-0.4,4-0.6c22.3-0.9,62,34.6,62.4,34.8l0.1-0.1
	c2.5,2.8,4.8,5.8,6.7,8.6c-0.4-0.6-1-1-1.5-1.6c-3.9-3.7-9.8-7.7-18.3-8.9C129.8,626.9,104.8,616.9,92.4,612.7z M183.4,682.3
	c-3.4,0.3-7.3,1.9-9.8,6.6c-0.3,0.4-0.4,1-0.7,1.5c-0.9-1.6-1.8-3.7-2.2-5.4c-0.7-2.4-0.3-7.6,2.1-10.1c1.3-1.5,3.1-1.9,5.7-1.3
	c2.5,0.6,4.2,1.8,5.1,3.3C184.2,678.9,183.9,681.1,183.4,682.3z M187.9,687.4c0.3,0.1,0.7,0.1,1,0.1c1.3-0.1,2.5-1.3,3.7-4
	c2.4,4.2,7.1,10.6,15.2,15.5c-0.1,0.6-0.3,1.3-0.4,1.9c-0.4,0.1-0.9,0.3-1.2,0.4c-14.7-0.1-24.7-7.9-28-11
	C181.4,685.1,187.3,687.2,187.9,687.4z M171.4,699c0.3,4.5,2.5,8.2,5.7,10.3c-1.2,0.4-2.4,0.9-3.7,1.6c-8-10.1-24.1-21-30.5-25.2
	c0.7-0.6,1.3-1.3,1.9-1.9c1.9-1.9,3.1-3.1,5.1-3.1c2.4,0,4.3,3,6.1,5.8s3.4,5.4,6,6C167.5,693.5,170.5,695.5,171.4,699z
	 M175.8,698.7L175.8,698.7c0-0.1,0-0.1,0-0.3c-0.1-1.6,0.1-3.3,0.9-5.2c3.7,3.4,12.4,9.7,25.2,10.9c-1,0.9-1.9,1.9-2.8,3
	c-1.3,1.5-2.7,3-3.9,3.6c-2.2,1.2-8.2-0.7-15-4.8C178.1,704.8,176.1,702.2,175.8,698.7z M202.5,719.4c1.2-3.6,0.4-7.3-0.3-9.4l0,0
	c1.5-1.6,3-3.3,4.6-4.2c0.1,3,0.9,6,2.4,9.4c0.3,0.7,0.6,1.3,1,1.9c-2.5,4.9-4,5.7-7,6.9c-1.5,0.6-3.4,1.5-5.8,3
	c-1,0.7-2.7,1.2-4.5,1.5c0.6-0.7,1.5-1.8,3.6-2.7C199.5,724.4,201.6,722.2,202.5,719.4z M201.6,667.4c-2.4,0-8.6,0-11.9,10.7
	c-0.7,2.5-1.3,3.9-1.8,4.6l0,0c0.4-1.9,0.7-4.9-0.6-7.7c-0.4-0.9-1-1.8-1.8-2.5c1,0,2.2,0,3.4-0.4c2.5-0.7,4.6-2.2,6.3-4.5
	c1.9,0.1,5.2,0,7.7-1.2l0.1,0.1C202.5,667.1,202.1,667.4,201.6,667.4z M199.4,663.1c-1.6,0.3-3.6,0.3-5.1,0.1
	c-0.9-0.1-1.8,0.3-2.2,1c-3.7,6.7-10.7,3-11.6,2.5c-0.7-0.4-1.6-0.4-2.4,0.1c-3.1,2.1-5.1,2.7-6,2.8c-0.3-1.2-0.1-2.2,0.4-3.3
	c1.9-3.9,8.3-6.9,11.9-7.7c1.3-0.4,2.7-0.6,4-0.6C193.7,658,197.3,661,199.4,663.1z M196,655.2c0.1-1.2,0.6-3.6,2.4-8.5
	c0.6,2.4,1.2,5.7,0.7,10.3C198.2,656.4,197.1,655.8,196,655.2z M161.7,629.6c-7.1-8.2-10.3-16.2-11.3-22.8c1.6,2.5,3.9,5.2,6.9,8
	c14.7,14,17.1,27.4,16.7,35.9C172.1,644.5,168.4,637,161.7,629.6z M177.9,656.4c1.6-8.6,1.8-26.5-17.4-44.7
	c-8.3-7.9-10.3-14.3-9.4-19.8l0,0l0,0c0.9-5.2,4.3-9.7,7.4-13.6c0.6-0.7,1-1.3,1.5-1.9c0.7,4.3,2.2,11.2,4.9,19.2
	c1.2,3.4,2.7,7,4.2,10.9c4.9,12.2,11,27.3,12.7,48.4C180.6,655.2,179.3,655.6,177.9,656.4z M158.7,570c-0.4,1.3-2.1,3.4-3.7,5.5
	c-1.9,2.4-4.2,5.4-6,8.6c-1.5-3.7-3.7-7.6-5.2-9.8c4.8-3.7,6.1-7.9,6.9-10.4c2.8,1.9,6.4,3.1,8.6,3.7
	C159.2,568.4,159,569.1,158.7,570z M147.4,588.3c-0.3,0.7-0.4,1.5-0.6,2.2c-0.7,2.2-6.1,21.7,11.6,42c6.9,7.7,10.7,15.9,12.1,22.3
	c-4-6.6-10.6-13.7-15.2-17.9c-0.7-0.7-1.6-1.5-2.5-2.2c-6.9-6-18.2-15.8-20-23.4c-2.8-11.8-0.7-27.1,8.8-35
	C143.5,579.5,146.5,584.9,147.4,588.3z M134.3,622.7c-4.9-3.1-10.1-6.3-15.2-8.8c5.4-1.6,6.4-8.2,7.6-15c0.3-1.5,0.6-2.7,0.9-3.6
	c-0.7,5.5-0.4,11.3,1,17C129.2,615.6,131.5,619.1,134.3,622.7z M129.5,584.1c-0.4,1.6-1.2,2.2-2.2,3.3c-1.8,1.8-4.2,4-5.2,10.7
	c-1.8,11.2-3,12.2-7.3,11.6c-6.7-0.7-8.5-1.2-8.9-2.8c-0.1-0.9-0.4-1.6-0.9-2.5c-1-2.8-1.5-3.9,1.9-5.7c6.1-3.3,10.6-8.5,11.6-9.8
	l8.9-5.8c0.1-0.1,0.3-0.1,0.3-0.3c0,0,0.3-0.3,0.6-0.6c0.4,0,1.2,0,1.3,0.3C129.7,582.7,129.8,583.1,129.5,584.1z M84.6,617.2
	c0-0.1,1-1.5,3.4-2.8c9.7,3,36.3,12.5,53.5,30.2c-2.2,0-4.5,0.1-6.9,0.4c-3.6,0.6-6.6,1.2-8.9,1.9c-23.2-17.6-48.1-22-57.2-23.1
	c0.4-0.9,0.9-1.8,1.2-2.8c0.6-1.8,1.6-3,3-3.6c3.1-1.5,7.7-0.1,9.2,0.4C82.9,618.4,84,618.1,84.6,617.2z M122.4,648.3
	c-1.8,0.9-3.1,1.9-3.9,3.1c-5.5-3.6-13.3-4-13.3-4c-20.4,1.6-39.2-7.7-45.3-10.9c-0.1,0-0.1-0.1-0.3-0.1c-0.1-1.8-0.4-3.4-0.7-4.6
	c2.2-0.6,5.2-1.9,7.7-5.1C73.5,627.5,98.6,631.1,122.4,648.3z M119.9,660.3c-4.3-3.3-10.7-6.1-15.5-8c8.9-0.1,13.4,4.3,13.7,4.6l0,0
	c0.4,1.2,1,2.2,1.6,3.1C119.7,660,119.7,660.1,119.9,660.3z M103.9,667.7c1.6-1.9,6.6-1.8,10.6-1.5c2.4,0.1,4.5,0.1,6.1,0
	c10.1,1.6,35,6.6,45.4,17.6c0.1,1,0.3,1.9,0.4,2.7c0.3,0.9,0.7,1.9,1.2,3c-1.5-0.6-3-1-4.8-1.3c-0.7-0.1-2.2-2.5-3.1-3.9
	c-2.2-3.6-5.1-7.9-9.8-7.9c-3.3,0-5.5,1.8-7.3,3.6c-15.2-9.7-32.6-10.7-39.2-10.7C103.5,668.4,103.6,668,103.9,667.7z M140.3,681.8
	c-1.3,1.2-1.9,1.5-3,1c-9.5-3.7-17-3.4-22.3-3.1c-6.9,0.3-9.2,0.4-11.2-6.7c-0.1-0.3-0.1-0.7-0.3-1
	C109.7,672,126.1,673.1,140.3,681.8z M164.4,714.6c0.9,0.1,1.8,0.1,2.5,0.3c-1.9,1.3-3.6,2.2-5.1,3.1c-3.3,1.8-5.8,3.3-8,7.1
	c-1.3,2.2-3.6,4.6-5.4,6.6c-1.3,1.3-2.4,2.4-3,3.3c-1.9,1.3-6,3-13.9,3.6c3.3-1.6,6.4-3.9,8.8-7
	C145.6,724.9,153.1,717.1,164.4,714.6z M157.8,727.4c1.6-2.8,3.3-3.9,6.4-5.5c1.9-1,4.3-2.4,7.3-4.6c6.6-4.9,11.6-4.6,11.8-4.5h0.1
	c2.7,1.2,5.4,2.2,7.9,2.5c-0.6,1.8-2.5,4.5-8.5,5.7c-6.3,1.3-9.1,6.6-10,8.3c-1.5,0-2.8-0.1-3.9-0.1c-2.1-0.1-3.9-0.1-4.9-0.1
	c-3.1,0-6.7,1.6-10,3.4C155.4,730.8,156.8,729.2,157.8,727.4z M183.6,723.8c8-1.8,10.3-5.8,10.9-8.5c0.9-0.1,1.9-0.3,2.7-0.7
	c1-0.4,1.9-1.2,2.8-2.1c0.4,1.6,0.6,3.9-0.1,5.8s-2.2,3.6-4.5,4.6c-4,1.9-5.2,4.3-5.7,6c-4.2,0.4-8.9,0.4-13.3,0.3
	C177.3,727.6,179.7,724.6,183.6,723.8z M199.8,730.8c2.1-1.3,3.7-1.9,5.2-2.7c2.4-1,4.2-1.8,6-3.9c2.1,6.4,6.6,23.7,3.3,43.2
	c-0.3,0-0.4,0.1-0.7,0.1c-9.5,2.2-14,6.6-16.1,10.1c-6.9-18.6-9.1-37.5-9.7-44.1C192.8,733.4,197.1,732.5,199.8,730.8z M221.6,720.9
	c1.3-0.6,2.8-1.6,4.5-2.8c0.7,1.2,1.8,2.5,3.4,4.2c4.5,12.4,4.2,21.4,2.4,27.8C230.4,738.3,224.3,725.9,221.6,720.9z M229.5,714.9
	l0.1-0.1c1.5-1.5,2.7-2.7,4-4c5.1,4.6,21.3,19.1,37.5,23.7c-5.7,1-13.4,0.7-22-3.9C235.1,723,230.8,717.3,229.5,714.9z M256.6,740.5
	c1.8-0.6,3.4-0.9,4.6-0.9c2.8,0,4.6,1.3,6.7,2.7c1.5,1,3.1,2.1,5.2,2.7c0,0,0,0,0.1,0c-0.4,1-2.2,3-3.4,4.2
	c-8.9-0.4-15.6,0.7-19.7,1.8c0.7-1.2,1.3-2.5,2.1-3.7C253.6,744.7,255.5,741,256.6,740.5z M267.1,752c-0.6,0.7-0.9,1.3-1,1.9
	c-0.3,0.1-0.9,0.4-1.3,0.7c-1.9,1-5.1,2.7-7.1,5.7c-5.1-0.6-10.3-0.6-13.4-0.4c0.7-1.6,1.5-2.8,2.2-3.6c0.4-0.4,0.9-1,1.3-1.6
	C249.6,754.1,256.4,751.8,267.1,752z M256,763.2c-0.4,1-0.7,2.4-0.9,3.7c0,0.4-0.1,0.7-0.1,1l-12.7-2.7c0.1-0.7,0.4-1.5,0.7-2.2
	C245.4,762.9,250.6,762.7,256,763.2z M254,770.9c-0.6,1.5-1.5,2.2-2.4,3.1c-1,1-2.2,2.1-3.1,4c-3.1-0.9-6.1-4.8-7.6-7.3
	c0.1-0.9,0.3-1.8,0.4-2.7L254,770.9z M247.5,780.9c-0.1,0.3-0.1,0.7-0.3,1c-1.9,8.5,7.1,10.9,12.5,12.5c1.5,0.4,3,0.7,3.7,1.2
	c1.3,0.7,1,5.5,0.9,8.2c0,0.6-0.1,1-0.1,1.5c-10.1-1.9-18.9-12.1-22-16.2c-0.4-1.6-0.6-3-0.7-4.9c-0.1-1.2-0.3-2.7-0.4-4.6
	c-0.1-1.3-0.3-2.7-0.3-3.9C242.4,777.8,244.7,780,247.5,780.9z M242.7,800.7c0.4,0.9,1,1.8,1.6,2.8c5.8,10.3,17.7,18.8,23.5,18.8
	c0.6,0,1.2-0.1,1.6-0.3c1.2-0.4,2.4-1.9,1.8-4.2c-0.4-1.5-0.7-2.7-1-3.6c3.9,1.6,9.8,3.6,16.4,3.6c1.2,0,2.4-0.1,3.7-0.3
	c-0.1,0.9-0.6,1.9-1.5,2.8c-1.9,2.2-2.2,2.1-2.8,1.8c-1-0.3-2.8-1-5.4,0.7c-0.6,0.4-1.2,0.9-1.6,1.3c-2.2,1.8-3.4,2.8-10.9,1.5
	c-0.9-0.1-1.8-0.1-2.5-0.1c-13.9-3.1-20.3-12.1-22.8-16.8C242.4,805.8,242.6,802.9,242.7,800.7z M245.4,817.5c3,3.3,7.7,7,14.4,9.5
	c-0.6,0.3-1,0.6-1.5,0.9c-2.2,1.3-3.4,2.1-9.1-3c-2.7-2.5-4.5-5.7-5.4-8.9C244.4,816.5,244.8,816.9,245.4,817.5z M256,833.5
	c0.9,0,1.6-0.1,2.4-0.4c1.2,2.4,3.6,4.2,6.3,5.4c-0.1,4.5-1.5,16.7-12.1,33.4c-0.6,0.1-1.2,0.4-1.5,1c-2.7,4.5-6.6,3.7-13.1,2.2
	c-2.5-0.6-5.4-1.2-8.2-1.3c18.2-21.6,24.3-35.7,26.1-40.4C255.8,833.5,255.8,833.5,256,833.5z M255.7,872.5
	c9.7-15.6,11.6-27.6,11.9-32.9c3.3,1,6.6,1.5,8.2,1.6c2.8,3.7,7.9,6.6,13.7,7.7c-0.3,5.4-3.1,18.8-12.7,22.9
	C268.6,875.5,259.5,873.5,255.7,872.5z M278.8,837.8c-0.4-0.6-1-0.9-1.6-1c-3.4-0.3-13.1-1.9-14.9-6c1.2-0.6,2.7-1,5.1-0.6
	c9.1,1.6,11.5,0.1,14.4-2.5c0.4-0.3,0.9-0.7,1.5-1.2c0.6-0.4,0.6-0.4,1.2-0.1c1.8,0.6,3.3,0.6,5.2-0.7c2.1,3.1,5.8,9.8,8,19.4
	C290.1,846,281.9,842.7,278.8,837.8z M293.7,851.8c0.1-0.7,0.1-1.5,0.3-2.2c0.3,0,0.6,0,1,0c3,0,6-0.4,8.8-1.6
	c3.1-1.2,5.7-2.8,7.9-4.6c0.4,7.3,0.1,22.8-7.7,38.3c-3.4-2.2-7.1-6-9.1-12.8C292.3,860.3,293.1,855.2,293.7,851.8z M332.4,811.7
	c2.1,1.8,5.1,4.8,7.7,8.8c-1.8,1.9-4.9,3.3-9.4,4c-0.9,0.1-1.6,0.9-1.9,1.8c0,0-0.4,2.4-1.8,4.5c-0.1-4-1.3-7.4-2.2-9.7
	C328.2,819.9,331.8,817.1,332.4,811.7z M332.5,807.8c-0.1-3-0.9-5.7-1.9-7.9c1.9,0.7,2.7,1.2,3.1,2.2c1.5,4.2,6.1,7.4,7.7,8.3
	c0,0.1,0.1,0.4,0.1,0.6c0.3,1.6,0.9,4,0.1,6.4C338.3,812.6,334.5,809.3,332.5,807.8z M338.8,802.2c2.1-0.7,5.1-2.1,7.1-4.3
	c0.6,0.7,1.3,1.3,2.2,2.1c0.3,1,0.4,3.9-4.3,6.9C342.5,805.9,340.1,804.1,338.8,802.2z M344.1,770.9c-1-1.2-2.2-2.2-3.6-3.1
	c7.4-0.6,20.1-2.5,38.1-8.6c3.7-1.3,7.6-2.7,11.8-4.3c0.9,1,1.9,1.9,3.3,3l1,0.9c2.7,2.1,6.1,4.8,8.3,8.2c-1.6,0.4-3.4,0.9-5.2,1.2
	c-1.2,0.3-2.5,0.6-3.9,0.7c-4,0.7-8.2,1.3-12.2,1.6C364.8,772.4,349.2,771.4,344.1,770.9z M527.6,645.8
	c-61.4,14.9-108,21.7-143.6,63.4c0,0,6-49.4,87.1-118.8c81.2-69.3,146.5-42.6,146.5-7.9C617.6,617.2,589,631.1,527.6,645.8z
	 M386.6,749.3c0,0.1,0.6,1.3,1.8,3.1c-3.7,1.5-7.3,2.7-10.6,3.9c-22,7.6-35.9,8.6-41.8,8.6c-1-0.6-2.1-1-3-1.5
	c8.9-1.5,30.4-6,41.8-17.3c0.1-0.1,0.1-0.1,0.3-0.3c0.6-0.7,1.3-1.3,1.9-2.1c0.3,0,0.4,0,0.7,0C384.3,744.2,386.4,749.2,386.6,749.3
	z M373.8,742.9c-10.3,11.6-32.6,16.2-41.6,17.7c2.4-1.3,4.3-3.4,5.4-5.1c1.2-2.1,0.6-3.6,0.1-4.3c-0.1-0.3-0.4-0.6-0.7-0.9
	c1.5-2.1,11.5-14.1,30.2-14.9c2.4-0.1,3.9,1.2,5.1,3c0.6,0.7,1,1.6,1.5,2.5c0.1,0.4,0.4,0.7,0.6,1.2
	C374.2,742.5,373.9,742.8,373.8,742.9z M349.9,734.7c-0.1,0.1-0.3,0.1-0.3,0.3c-1.8,0.7-3.3,1.6-4.8,2.5c-9.4-2.7-11.3-8-12.7-13.6
	c9.8-0.6,15.6,3.1,15.6,3.1v-0.1c0.6,2.2,1.2,3.9,1.6,5.2c0.3,0.9,0.6,1.8,0.7,2.4C350.1,734.6,350.1,734.7,349.9,734.7z
	 M331.5,721.2c-0.9-4.3-2.2-8.6-7.4-9.8c-0.9-0.1-1.6-0.4-2.4-0.9c5.2-5.4,13.4-9.2,17.1-10.7c2.7,4.5,4.9,9.8,6.3,15.9
	c0.6,3,1.3,5.7,1.8,7.7C344,722.2,338.8,720.7,331.5,721.2z M319.4,708.5c-2.5-3-2.5-7.1-2.5-8.3c2.2-4,2.8-7.9,1.9-11.6
	c-1.5-6-6.4-9.7-8.3-11c-0.1-0.3-0.3-0.7-0.3-1c6.4,2.4,18.6,8.3,27.1,20.7C333,698.8,324.8,702.8,319.4,708.5z M313.2,686.6
	c-20.8-8-48.4-6.9-58.1-6.1c0.3-0.6,0.4-1.3,0.7-1.9c6.9-1.8,31.7-7.9,44.8-6.7c2.8,1.6,4.9,4,5.7,7.6c0.1,0.6,0.6,1.2,1,1.5
	C307.4,681,311.1,683,313.2,686.6z M297.4,665.6c-2.4-0.9-5.1-1.5-7.7-2.1c-3.1-0.7-6.3-1.5-9.4-2.7c-8.6-3.1-16.8,1.6-21.7,6
	c0.1-1.6,0.3-3.3,0.4-4.8c7.4-2.8,35.9-13.6,52.1-14.1C311.5,650.4,311.5,658.9,297.4,665.6z M265.5,656.4c0.7-0.6,1.5-1,2.2-1.6
	c9.7-3.7,38.6-14.9,46.9-20.6c0.6,3.1,0.7,7.6-3,10.4c-0.1,0.1-0.1,0.1-0.3,0.3C298.1,645.2,277.4,652.1,265.5,656.4z M285.6,611.1
	c-0.7,7.6-5.5,16.2-9.5,23.1c-0.7,1.5-1.5,2.8-2.2,4c-3.4,2.2-9.2,4.9-14.3,7c0.1-0.6,0.1-1.3,0.1-2.1c0-2.2-0.7-4.5-1.3-6.7
	c-0.1-0.3-0.1-0.4-0.3-0.7c4.2-4.5,19.2-21.3,26.2-35C285.5,604.3,285.9,607.8,285.6,611.1z M257.3,632.1c-0.4-2.5-0.3-4.9,1.6-7.3
	c4.2-5.5,7.4-18,6.1-20.8c-0.4-0.9-1.3-1.5-2.2-1.5c-1.6,0-2.5,1.6-3.3,3.1c-2.5,5.4-9.7,9.5-12.4,10.9c-0.3-0.1-0.6-0.3-0.9-0.4
	c3.7-6.7,18-33.7,21.7-48.8c1.5,1.5,3,1.8,4.2,2.1c1.5,0.4,2.5,0.7,3.7,5.5c0.9,3.9,2.5,8.2,4.2,12.7c1,2.8,2.2,5.8,3.1,8.6
	C277.9,608.7,263.1,625.8,257.3,632.1z M243.3,615.3c-1.5-0.3-3-0.1-4.6,0.1c-8.5,2.1-15.3,13.1-16.8,15.8c-2.5,1.5-4.6,3.3-6.3,5.2
	c8.5-28.3,17.7-55.1,22.5-63.7c1.5-0.6,3.1-1.8,5.1-3.9c4.5-4.8,13-7,18.3-6.3c1.9,0.3,3.3,0.7,4.2,1.6
	C263.3,578.3,246.6,609.3,243.3,615.3z M208.6,649.5L208.6,649.5c-1.5,5.5-2.1,10.7-2.2,14.1c-0.4-0.4-1-1-1.6-1.8
	c2.4-12.4,13.4-70,20.8-90.1c2.4,0,4.2,0.4,5.7,0.9c0.3,0.1,0.6,0.1,0.9,0.1c0.1,0,0.1,0,0.3,0.1c0,0,0,0,0.1,0
	c0.6,0.1,1.3,0.3,1.9,0.3C225.9,590.6,211.7,638.5,208.6,649.5z M231.4,568.1c-2.2-0.4-5.1-1-9.2-0.6c6-7.4,16.7-19.1,25.2-28
	C241.2,548.4,233.6,560.9,231.4,568.1z M224.1,558.2c3.4-8.8,8-17.6,9.8-21c7.1-5.2,14.1-9.4,19.5-11.3c0.1,0,0.3-0.1,0.4-0.1
	C248.5,531.6,234.2,546.6,224.1,558.2z M218.9,564.3c-1,1.2-1.9,2.4-2.7,3.4c1.3-10.4,4.8-17.9,6.7-21.6c1.8-1.6,3.6-3.1,5.4-4.6
	C225.3,547.7,221.1,556.4,218.9,564.3z M212.9,572.2c-2.4,2.2-4.3,4.9-5.8,7.6c-0.7-6.6-1-12.1-1-14.6c2.8-4.3,6.7-8.9,11.3-13.6
	C215.3,556.7,213.4,563.7,212.9,572.2z M206.4,591.3c2.1-5.7,8.3-18.5,16.1-19.4c-6.4,17.9-14.7,59-18.8,79.5
	c-0.4-5.4-1.8-8.8-2.8-10.6c0.7-1.5,1.5-3.1,2.4-5.1C211.4,619.1,212.5,604.4,206.4,591.3z M186.1,653.7c-0.4,0-1,0.1-1.5,0.3
	c-1.6-21.3-7.7-36.5-12.8-48.7c-1.5-3.9-3-7.4-4.2-10.7c-3.4-10.3-4.8-18.6-5.2-22c0.1-0.3,0.3-0.6,0.4-1c1.3-3.7,1.8-7.4,2.1-10.4
	c1.2,0.9,2.5,1.9,4.3,3C180.8,588,185.2,642.4,186.1,653.7z M165.7,555.6c0.1-2.1,0.4-4.8,1.3-8c0.3,3.3,0.7,6.7,1.3,10.4
	C167.1,557,166.3,556.2,165.7,555.6z M166.8,538.3c0,0.4,0,0.9,0,1.3c-1.6,3.6-2.7,6.9-3.3,9.7c-0.9-3-1.8-5.7-2.7-8
	c0.1-3.3,0.7-9.7,2.5-20.1c0.7-4.5,1.3-7.7,1.9-10.4C166.6,519.7,167.2,528.9,166.8,538.3z M162.4,510c-0.6,2.8-1.2,6.3-1.9,10.9
	c-0.9,5.5-1.5,9.8-1.9,13.3c-1.6-5.1-2.5-8.6-3-10.6c-0.3-1.3-0.6-3.1-1.2-5.4c1.9-4.3,5.8-13.9,7.1-23.5c0.7,2.5,1.3,5.1,1.9,7.6
	C163.5,504,163.2,506.3,162.4,510z M153.4,513c-2.2-9.7-6-23.2-10.3-35.4c0.3-3.6,0.6-9.2-0.6-15c5.2,4.5,10.9,11,14.4,19.4
	c0.7,1.8,1.5,3.6,2.2,5.5C159.3,496.1,155.9,506.6,153.4,513z M151.1,523.5c0,0.3,0.1,0.6,0.1,0.7c0.9,4.8,5.4,18.5,9.2,30.4
	c-4.9-7.6-10.1-15.8-15.9-30.7c-0.9-2.4-2.4-7.4-4.2-13.9C144.6,516.1,149,521.2,151.1,523.5z M137.3,554.2c-1,1.3-2.7,3.4-2.2,6.9
	c0.4,4-0.9,5.7-2.5,7.9c-0.7,1-1.6,2.2-2.4,3.7c-1.8,3.3-4.5,6.3-5.2,6.9l-7.1,4.6c0.3-6.4,1-17.4,3-21.7c0.3-0.7,0.7-1.6,1-2.7
	c1.8-4.6,5.4-13.1,9.1-13.9c0.1,0,0.3,0,0.4,0c1,0,2.2,0.6,3.4,1.9c0.4,0.4,0.7,0.7,1,1.2c0,0.1,0.1,0.3,0.1,0.3
	c0.1,0.4,0.6,0.7,0.9,0.9C138.6,552.4,138.2,553.2,137.3,554.2z M117.6,558.1c-0.4,0.9-0.7,1.8-1,2.5c-0.9,2.1-1.5,5.1-2.1,8.5
	c-1.5-1.9-3.4-4-6.1-4.9c-0.4-0.7-1.3-1.3-2.2-1.8c-2.1-1-4.2-0.9-4.8,0.3s0.7,2.8,2.7,3.9c1.3,0.6,2.7,0.7,3.6,0.6
	c3,1.2,5.1,4.6,6.3,6.7c-0.1,0.9-0.1,1.8-0.3,2.7c-1.5-2.2-3.6-4.6-6.4-6c-0.4-0.9-1.2-1.6-2.4-2.4c-1.9-1-4.2-1-4.8,0s0.4,3,2.5,4
	c1,0.6,2.1,0.9,3,0.9c5.1,2.4,7.6,8.9,7.6,9.1l0,0c-0.1,2.7-0.1,4.5-0.1,4.6c0,0.4,0.1,0.9,0.3,1.2c-0.7,0.7-1.6,1.8-2.8,2.8
	c0,0-0.1,0-0.1-0.1c0.1-2.1,0-6.7-3-11.5c0.1-0.9-0.1-2.1-0.7-3.1c-1-1.9-2.8-3.1-4-2.5s-1.2,2.7,0,4.8c0.6,1,1.3,1.9,2.2,2.4
	c2.4,3.9,2.7,7.7,2.5,9.5c-0.9-0.1-2.1-0.3-3.3-0.3c-0.1-2.5-1-7.6-4.6-13.4c0-0.7-0.3-1.8-0.9-2.7s-1.2-1.6-1.9-2.1
	c0.1-0.9-0.3-1.9-1.2-2.4c0,0-3.9-1.9-8-8.3c-3.7-5.7-1.6-9.5,0.1-11.9c0.4-0.4,2.5-0.7,3.9-1c3.1-0.6,7-1.2,9.5-3.7
	c5.8-5.7,8.8-3,10.6-1.3c0.3,0.3,0.4,0.4,0.7,0.6c4.9,3.7,6.4,10.9,6.4,11v0.1C118.5,556,118.1,557,117.6,558.1z M65.9,599
	c0.1,1.5,0.6,3.3,1.9,4.8c1.3,1.2,3,1.8,5.2,1.8c0.7,0,1.5,0,2.2-0.1c-0.3,4.3,3.3,5.4,5.2,6c1,0.3,1.9,0.6,2.5,1
	c-0.4,0.3-0.7,0.7-1,1c-2.4-0.7-7.1-1.6-11.2,0.1c-2.2,1-3.9,2.8-4.9,5.1c-0.7-1.8-1.8-3.3-2.4-3.9l0,0c0.1-0.3,0.3-0.4,0.4-0.7
	c1.9-4.6-0.9-10.9-2.1-13.3c0.3-0.9,0.4-1.8,0.7-2.7C63.6,598.6,64.7,599,65.9,599z M80.2,667.3c0.3-0.7,0.9-2.2,1.8-4
	c3,0.6,10.6,1.9,17.1,4.2c-0.4,1.9-0.4,4.2,0.3,6.9c1.5,5.5,3.9,8.2,6.9,9.2l0,0c0,0,0.1,0.1,0.4,0.3c-2.7,0.1-4.5,0.7-6.7,1.6
	c-1.8,0.6-3.9,1.3-6.9,1.9c-6.3,1.3-10.3-1.6-12.1-3.7c-0.3-1.3-0.4-2.2-0.4-2.2c0-2.1-2.1-7.1-3.6-10.4
	C78.3,670.2,79.6,669,80.2,667.3z M90.1,690.8c1.2,0,2.4-0.1,3.6-0.4c3.1-0.6,5.4-1.5,7.1-2.1c3.4-1.2,5.5-1.9,11.2-0.9
	c2.5,1.5,5.7,3.3,9.7,5.2c-3.1,0.3-6.3,1-9.4,1.8c-5.4,1.2-11,2.4-16.5,1.8c-6.6-0.7-10.3-3.7-12.4-6.9
	C85.3,690,87.5,690.8,90.1,690.8z M86.6,698.1L86.6,698.1c2.2,1.1,4.8,2,7.9,2.4c5.1,5.4,13.4,4.6,22.3,3.9
	c5.2-0.4,10.6-0.9,15.6-0.1c7.3,1,12.1,3.7,14.9,5.8c-1.3,0.1-2.5,0.3-3.7,0.4c-24.3-6.4-58.2,1-68.1,3.4c0-0.3,0-0.6-0.1-0.7
	c-0.1-0.9-0.3-1.6,1.3-4.5c1.8-3.1,1.9-4.8,2.1-6c0.1-0.7,0.1-1.2,1-2.2C82.6,697.3,86.5,698.1,86.6,698.1z M137.6,712.2
	c-3.3,1.5-5.8,3.6-8.2,5.7c-5.2,4.6-10.7,9.2-27.6,9.7c0,0-8.3,0-31.4-4c0.4-0.4,0.9-1,1.2-1.3c1.5-1.6,3.1-3.4,3.6-5.2
	C82.8,715.2,113.7,708.1,137.6,712.2z M101.8,732C102,732,102,732,101.8,732c18.6-0.4,25-6,30.5-10.7c2.4-2.1,4.5-3.9,7.4-5.2
	c4-1.8,10.6-2.1,16.7-1.9c-8.5,3.9-14.3,10.4-18.5,15.5c-4.2,5.4-11,7.9-15.8,9.1c-0.3,0-0.7,0-1,0c-12.8-0.4-26.4-4.6-36.2-8.3
	C96.6,731.9,101.2,732,101.8,732z M114,742.6c1.2,0.1,2.5,0.3,3.7,0.3c-2.5,1.9-5.5,4.9-8.3,8.8c-0.3-0.1-0.7-0.3-0.7-0.6
	C108.4,749.6,111.1,745.7,114,742.6z M111.5,755.7c0.4-0.6,0.6-1.3,0.4-1.9c3.7-5.4,8.3-8.8,10.7-10.4c0.7,0,1.6,0,2.4,0
	c10.1,0,16.5-1.5,20.4-3.1c-2.5,7.4-11.8,15.5-15.2,18.3c-0.3,0-0.7,0-1,0.1c-3.3,1-12.5,3.6-17,1.6c-0.7-0.3-1.6-0.7-1.8-1.5
	C110,757.7,111.1,756.2,111.5,755.7z M148.6,739.8c1.5-0.3,3.3-1.2,5.8-2.5c0.3-0.1,0.4-0.3,0.7-0.3c-3.9,11.8-11.5,20.7-14.4,23.8
	c-3.1,1.5-5.1,1.5-6.4,1.2c-1-0.3-1.6-0.9-1.9-1.3C136.4,757.2,146.4,748.3,148.6,739.8z M158.7,735c0.7-0.4,1.6-0.7,2.4-1
	c-1.6,2.7-3.7,6.6-4.9,10.9h-0.1c0,0-1.9,3.9-5.5,7.9C153.7,748,156.8,742,158.7,735z M166.9,733.5c0.4,0,0.9,0,1.3,0
	c-1.3,6.4-4.2,22.9,1.2,35c-3.6-1.3-4.9-4.5-8.3-11.8l-0.1-0.3C156.8,747.7,165,736.1,166.9,733.5z M171.2,733.7
	c1.9,0.1,4,0.1,6,0.1c-1.5,6.1-3.7,21.1,3.1,39.5c-1.5-1.3-2.1-2.5-2.2-2.5c-0.3-0.6-1-1-1.8-1c-1.2-0.1-2.2-0.1-3.3-0.3
	C166.6,757.9,169.9,739.8,171.2,733.7z M180.3,734c1.6,0,3.1,0,4.6,0c0.6,6.7,2.8,26.5,10.1,45.7c-1.8-0.9-3.9-1.8-6-2.1
	c-1.6-0.3-3.1-0.7-4.3-1.3C176,756.3,179,739.5,180.3,734z M188.5,781.9c3.7,0.6,8,3.7,8,3.7c0.4,0.3,0.9,0.4,1.3,0.4
	c0.3,0,0.7-0.1,1-0.3c0.7-0.3,1.2-1.2,1.2-1.9c0-0.3,0.4-8.3,14.6-11.8c8.2-1.9,14.9-7.1,18.9-14.6c3.1-6,5.8-15.8,2.2-29.9
	c3,2.1,6.6,4.5,11.2,6.9c2.2,1.2,4.3,2.1,6.4,2.8c-1.6,1.3-3.1,4-5.1,7.7c-1.6,3-3.4,6.3-5.2,8.3c-3.6,4-7.9,15-6.6,26.7
	c0.1,1.8,0.3,3.3,0.4,4.5c0,0.3,0,0.4,0,0.7c-9.2,1.8-35.7,6.4-50.8,4.5c-0.1-1.9-0.3-3.3-0.3-3.3c0-0.7-0.4-1.3-1-1.8
	c-1.6-1-2.4-2.4-2.5-4.8C184,780.9,186.1,781.5,188.5,781.9z M208.6,846.1c-5.5,2.7-12.4,7-18,14c4.6-10.1,8.2-26.1,3-48
	c3.3,1.5,7.1,1.6,11.3,0.6c1.3,0.1,4.8,0.7,8.9,0.9c-5.5,3.9-8.3,9.2-9.2,17.4C204,837.6,206.2,842.8,208.6,846.1z M186.7,812.8
	c-2.5,9.7-7.6,31.6-8.2,50.3C168.7,838.1,179.9,820.5,186.7,812.8z M186.7,792.8c2.4,0.3,4.9,0.4,7.7,0.4c15.3,0,35-3.4,42.9-4.9
	c0.1,0.7,0.3,1.5,0.6,2.2c-5.5,1.8-22,6.9-48.6,11C187.9,798.8,187.2,795.5,186.7,792.8z M189.4,814.1c4.2,18.3,1.6,32-1.5,40.5
	c-2.1,5.5-4.5,9.7-6.4,12.2C181.4,848.2,186.9,824.7,189.4,814.1z M205.2,808.1c-0.3,0-0.7,0-1,0c-4.3,1.2-7.7,0.9-10.6-1.2
	c-1-0.7-1.9-1.6-2.7-2.7c26.1-4.2,42.6-9.2,48-11c0.1,0.3,0.3,0.6,0.4,0.9c0,0,0,0,0,0.1c-1.8,3.6-7.6,13.1-14,14.3
	C216.8,810.2,205.3,808.1,205.2,808.1z M185.7,807.4C185.7,807.4,185.5,807.5,185.7,807.4c-1.6,1.2-3.7,2.4-7,3.4
	c-2.4-2.1-8.9-1.5-15.2-0.4c0.7-3.4,0.9-6.4-0.4-8.9c7.9,2.5,14.7,3,17,3.1C182.4,806.4,184.3,807.1,185.7,807.4z M174.7,813.9
	c-1.9,2.1-7.1,6.1-13.1,9.7c-0.4-1.6-0.4-3.6,0.6-7.1c0.1-0.4,0.3-0.7,0.3-1.2C167.2,814.2,172.3,813.8,174.7,813.9z M171.2,799.2
	c-2.7-0.6-5.8-1.3-8.9-2.4c-10.3-3.7-17.6-10-21.6-18.3C150.7,788,163.3,795.2,171.2,799.2z M141.4,774.8
	c6.9,0.3,20.6,3.4,33.7,22.9C167.5,794.1,152.3,786.1,141.4,774.8z M158,827.2c0.6,1.3,0.9,2.2,0.6,3.9c-0.1,1-0.4,1.5-0.6,1.5
	c-0.1,0.1-0.9-0.1-1.3-0.4l0,0l0,0c0-0.3-0.1-0.7-0.3-1l-5.7-8.9c-0.4-1.8-2.1-8.3-6.4-13.9c-2.4-3.1-1.5-4,0.6-6
	c0.6-0.6,1.2-1.2,1.8-1.9c1-1.3,2.8-1,9.2,1.2c4.2,1.3,4.8,2.8,1.8,13.7C155.7,821.8,156.9,824.8,158,827.2z M152.9,861.5
	c0.4,1.8,0.6,2.5-5.1,4.8c-1.9,0.7-3.4,0.7-4.3,0c-3.1-2.2-2.5-11.5-2.4-16.4c0-1,0.1-2.1,0.1-2.8c0.1-4.6,4-15.2,6.4-21l4.3,7
	c0.1,1.5,0.6,5.4,2.1,9.4c1.6,4.5,2.5,7-0.4,11.9C152,857.3,152.6,859.8,152.9,861.5z M149.8,795.2L149.8,795.2L149.8,795.2
	L149.8,795.2z M142.3,791.3l0.4,0.3c2.5,1.5,2.7,3.3,2.5,4.3c-0.7,0.4-1.5,1-2.1,1.8c-0.3,0.4-0.7,0.9-1.3,1.3
	c-2.1,1.9-6,5.7-1,11.9c0.1,0.1,0.3,0.3,0.4,0.6c-3-1-6.1-2.5-7.3-4.2c-0.9-1.2-2.2-2.2-3.9-3.6c-4-3.3-9.1-7.4-7.6-12.8
	c0.3-1.2,0.3-1.2,2.5-0.9c1.9,0.3,4.8,0.7,7.3-1.2C134.9,787.1,137.1,788.2,142.3,791.3z M183.4,890.9c0.1-0.3,0.1-0.6,0.1-1
	c2.1-21.6,14.4-32.8,24.3-38.3c-5.2,9.1-17.4,30.5-24.4,40.8C183.3,892,183.3,891.5,183.4,890.9z M210.1,853.6c0,0.6,0,1.2,0,1.8
	c0.1,1.9,0.9,3.9,1.9,5.8c-7.3,19.8-19.5,29.2-26.5,33.2C192.7,883.9,204.7,862.9,210.1,853.6z M209.1,831.5
	c1.2-10.4,5.2-15,16.5-18.5l0,0c0.1,0,0.3,0,0.4,0c4.9-0.9,8.9-4.8,11.9-8.6c-0.1,4.5,0.3,9.8,2.2,14.7c-0.3,2.2-3,11.9-25.5,27.4
	C213.1,844.9,208.2,839.6,209.1,831.5z M215.8,850.3c0.3-0.3,0.4-0.7,0.6-1.2C234,837,240.2,828,242.3,823c0.9,1.5,2.1,3,3.4,4.5
	c-3.3,5.2-14.4,22.2-29.5,31.6c-0.7-1.3-1.3-2.7-1.5-4C214.3,852.1,215.8,850.4,215.8,850.3z M247.8,829.4c1.9,1.6,3.6,2.7,4.9,3.3
	c-1.8,4.6-8.3,18.9-26.2,40.1c-1-2.7-2.8-6.3-4.8-7.7c-1.6-1.2-3-2.5-4-3.7C233,851.8,244.1,835.4,247.8,829.4z M224.1,878
	c0.4,0.4,1.2,0.6,1.9,0.4c3.3-0.7,7.1,0.1,10.9,0.9c2.7,0.6,5.4,1.2,8,1.2c2.8,0,5.5-0.7,7.7-2.8c-4.2,10.6-5.4,20.6-3.4,29.9
	c-0.6,2.4-2.5,12.2,0.9,24.9c0.4,1.5,0.9,3,1.3,4.5c-5.2-7-11.3-14-16.8-19.4c-12.7-11.9-15.6-20.8-15.6-21s-0.1-0.3-0.1-0.4
	C220.7,889.5,222.6,883.2,224.1,878z M245.2,960.2c4.3,8.5,26.8,35,34.3,43.6c-0.1,0-0.1,0-0.3-0.1c-3.3-1.5-14.6-8.6-25.8-19.1
	c-12.8-11.8-20-22.8-20.3-30.8c-0.3-8.2-1.9-17.6-3.7-25.9C235,939.6,242.4,954.5,245.2,960.2z M249.3,958.1c-0.4-1-1.2-2.4-1.9-3.9
	c5.7,5.5,10.6,8.6,13,10c1.8,6.7,7.9,17.3,13.1,25.3C263.9,978.4,252.1,963.8,249.3,958.1z M269.4,910.9c1.3,8.9,3.3,18.3,5.8,27.8
	c4,15.5,9.5,27.4,13,34c-10-6.3-17.3-12.8-22.5-19.4C265.2,947.1,264.6,929.2,269.4,910.9z M280.4,940.8c1.8,1.9,4.2,4.2,6.7,6
	c6.3,4.5,10.1,13,10.7,14.6c-2.7,3.9-4.3,7.3-5.4,10C289.5,965.7,284.3,954.8,280.4,940.8z M288.7,944.4c-4.8-3.4-8.3-7.9-10.3-10.4
	c-1-4-1.9-7.9-2.7-11.8c4.9,5.5,12.4,12.1,17.9,15.5c6,3.9,10,10.6,11.5,13.6c-1.9,3-3.9,5.5-5.4,7.6
	C298.3,955.3,294.5,948.4,288.7,944.4z M295.3,935c-7.3-4.6-17.1-14.3-20.6-19.1c-1.9-11.2-3.1-21.7-3.3-31.7
	c6.3,8,20.4,25.5,29.5,31.7c10.1,6.9,12.5,17.3,12.8,19.1c-1.9,4.9-4.3,9.4-6.7,13.3C305,944.6,300.9,938.7,295.3,935z M302.6,913.4
	c-10.1-6.9-27.4-29-31.3-34.1c0-0.4,0-0.7,0-1.2c2.4-0.3,4.8-1,7-1.9c5.1-2.2,8.6-6.3,10.9-10.7c0.3,1.5,0.6,3.1,1.2,4.8
	c2.2,8,7.3,14,14.1,17.1c1.9,0.9,4,1.5,6.1,1.8c1.6,2.7,3,5.5,4,8.3c4.3,11.8,3.6,22.9,0.6,32.8
	C313.8,925.5,310.2,918.6,302.6,913.4z M306.5,883L306.5,883c9.4-18.3,8.6-36,7.9-42.3c0.9-1,1.8-2.1,2.5-3.1
	c0.4,0.1,0.9,0.3,1.5,0.4c1.6,5.7,6.4,25.5,0.9,45.7l0,0C316.6,885,311.5,885.4,306.5,883z M335.6,827.8c0.9-0.3,1.6-0.6,2.5-0.9
	c5.4,3,22.2,14.4,25.8,36.6c-0.1,0.1-0.1,0.3-0.3,0.4c-0.3,0.6-0.3,1.2-0.4,2.2c-0.1,3-0.4,9.8-6.9,15.2
	C355.8,847.9,342.5,833.2,335.6,827.8z M341.2,825.4c0.9-0.6,1.8-1.3,2.4-2.1c6.3,3.6,24.6,15.2,29.8,31.9c-2.4,2.5-5.1,4.8-6.9,6.1
	C362.6,840.9,347.9,829.6,341.2,825.4z M345.3,820.8c0.6-1.3,1-2.5,1.2-3.9c6.4,4.2,17.6,8.2,25.8,8.2h0.1
	c2.1,2.4,8.9,11.2,6.4,21.3c-0.4,2.1-1.8,4.2-3.3,6.1C369.5,835.7,351.9,824.5,345.3,820.8z M346.1,811c0-0.1,0-0.1,0-0.3
	c3.4-2.1,5.5-4.5,6.4-7.3c0.1-0.6,0.3-1.2,0.3-1.6c7.9,4.9,22,13,32.6,14.1c-2.5,2.4-6.7,4.3-12.1,4.6
	C363.9,821.1,349.3,814.8,346.1,811z M352.2,797.9c-0.1-0.3-0.1-0.4-0.1-0.4l0,0l-0.1-0.1l-0.1-0.1l-0.1-0.1l-0.1-0.1c0,0,0,0-0.1,0
	c-3.9-2.7-3.9-5.2-3.4-9.5c6,1.6,21,5.2,40.4,6.1c2.1,0.1,4.3,0.1,6.6,0.1c0.3,1.9,0.6,5.4-0.3,8c-0.4,1.3-1.5,2.8-2.7,4.2
	c-0.6,0.6-1,1.2-1.5,1.8c-1.3,1.5-1.8,2.1-1.9,3s-0.4,1.8-0.9,2.7C376.6,812.8,359.8,802.8,352.2,797.9z M387.5,790.3
	c-19.4-1-34-4.6-39.3-6.1c0.1-1.9,0.1-3.9-0.3-6.1c-0.3-1.3-0.7-2.7-1.5-3.9c3.4,0.3,8.6,0.4,14.9,0.4s13.7-0.3,21.3-1
	c4.2-0.4,8.3-1,12.4-1.8c1.6-0.3,3.1-0.6,4.6-1c1.5-0.3,3.1-0.7,4.6-1.2c0.4,1.2,0.7,2.5,0.7,3.9s-0.1,2.7-0.3,3.9
	c-0.7,3.6-2.5,6.3-4.5,8.3c-1.3,1.5-2.7,2.7-3.7,3.4c-0.6,0.6-1.2,0.9-1.5,1.3C392.5,790.4,390,790.4,387.5,790.3z M405,754.7
	c51.4,21,106.9,83,85.3,95.2C468.6,862,405,754.7,405,754.7z M408.2,781.8c15,19.8,33.8,44.8,36.6,49.3c4.6,7.6,60.2,92.9,35,105.7
	c-25.2,12.8-42-16.4-50.8-60.2c-5.1-25-17.3-60.5-26.8-86.4C404.3,788.3,406.7,785.6,408.2,781.8z M490.8,865
	c7.6-0.6,31.6,33.4,13.4,42C486.2,915.8,477.4,866.2,490.8,865z M402.7,733.5c74.2-1.2,143.7,47.4,158.3,69.5
	c14.6,22.2-15.8,65.4-42,26.8C492.6,791.5,402.7,733.5,402.7,733.5z M562.5,749c-18.8,0-16.7-12.5-15.5-15.2c1.2-2.7,3.6-4.9,12.1-1
	C572.4,738.7,581.2,749,562.5,749z M567.4,730.2c-14.7-8.3-21-18.9-14.7-24.9c6.3-6,36.2,5.8,40.4,19.2
	C594.3,728.6,591.1,743.7,567.4,730.2z M597.3,676.5c-39.7-6.1-32.2-24.1-32.2-24.1c2.8-8.5,17.6-9.7,41.3-7.3
	c23.7,2.4,41,15.9,36.5,26.1C638.1,681.3,637.1,682.6,597.3,676.5z M632.8,646c-22-11.3-16.7-22-14-25.6c0,0,6.3-8.8,26.8,2.4
	c11.8,6.4,19.1,13.6,17.1,18.8C660.8,646.6,654.8,657.3,632.8,646z M645.1,612.6c-17.7-5.8-21-11.5-17.7-19.4
	c2.2-5.2,17.3-7.6,27.1-4.6c9.7,3,23.1,10,20.6,18.9C672.4,616.5,662.8,618.3,645.1,612.6z M654.1,577.3c-24.4,0.4-32-9.8-31.3-15.8
	c1.6-13.1,20-11.6,35.4-12.2s28.6,10.7,27.7,17.1C684.9,573,678.5,576.9,654.1,577.3z M116.6,446.7c52-19.7,152.2-37.5,240.1,63
	c1.2,1.3,2.8,2.1,4.5,2.1s3.4-0.7,4.5-2.1c101.1-115.9,218-75.5,263.5-52.7c12.8,6.4,29.3,19.7,43.9,35.4l12.5,15.2
	c-39-5.7-89.1-2.7-138.2,21.4c-95.5,46.8-158.6,134.6-172.9,155.8c-0.1-2.4-0.3-3.9-0.3-3.9s3.6-1.9,3-7.6c-0.3-2.8-3.4-5.7-7-5.7
	c20.4-125.2,38.3-156.2,49.7-161.4c5.8-2.5,9.2,0.6,14.1,1.9s10.9,1.5,11.9-2.7c3.4-13-12.5-10-12.5-10
	c-27.1,3.3-33.1,27.4-40.8,50.9c-6.9,21-21.1,91.3-25.9,122.1c-0.1,0.1-0.3,0.1-0.6,0.3c-1,0.7-3.7,3.7-3.7,3.7s-1.9-3.3-4.9-4.6
	c-4.8-31-19.1-100.7-25.9-121.7c-7.6-23.5-13.7-47.7-40.8-50.9c0,0-15.9-3-12.5,10c1,4.2,7,4,11.9,2.7c4.9-1.5,8.2-4.6,14.1-1.9
	c11.5,5.1,29.3,36.2,49.7,161.4c-3.6,0.3-5.7,2.1-6.6,6c-0.4,1.9,1.5,6.9,3.6,7.4c0,0-1,14.7-1.5,34.3c0-0.3-0.1-0.4-0.1-0.7
	c-7.7-35.6-42.6-43.9-42.9-43.9h-0.1c-1-1-2.4-2.1-3.7-2.8c13.4-7.7,13.4-17.1,12.8-20.8c6.4-6.3,3.3-15.6,2.2-18
	c0.1-3.6-0.7-6.6-2.8-9.1c-3.3-3.7-8.3-5.1-11.2-5.5c-0.6-2.4-2.1-3.7-3.3-4.5c-3.1-1.8-7.3-1.2-10.4-0.3c0.3-7.7-3-16.2-6-23.8
	c-1.6-4.3-3.3-8.5-4-12.1c-1.5-6.9-4-8-6.9-8.8c-1.3-0.3-2.1-0.6-3.1-2.4c-1.5-2.5-4.2-4.2-8.2-4.6c-7.6-0.9-17.1,2.4-22,7.7
	c-1.8,1.9-3,2.7-4.2,3c3.3-9.4,16.7-30.1,21.4-35.3c3.9-4.2,5.2-8.2,3.6-10.7c-1-1.5-3.4-3-8.8-1c-16.7,6-50.8,32.9-56.4,54.7
	c-0.1-0.1-0.4-0.4-0.6-0.6c1-2.4,2.2-4.8,3.3-6.9c4.2-7.9,2.8-18.3,1.6-28.4c-0.7-6.1-1.5-11.9-1-17.1c1-12.8-8.6-32.2-19.7-33.5
	c-2.4-0.3-4.2,0.1-5.2,1.5c-2.1,2.2-1.3,6-0.1,11c0.7,3.6,1.6,7.6,1.8,11.8c0,3,0.1,6.3,0.1,9.5c0.1,9.8,0.4,20-0.6,27.6
	c-0.3,2.7,0,6.4,0.9,11.6c-1-0.4-1.9-0.9-2.8-1.3c0.1-0.3,0.1-0.7,0.1-1c-1.6-8.5-2.2-15.6-2.1-21.4c0.9-21.1-2.5-41.4-10.1-58.5
	c-7.6-17.4-25.6-31.1-33.1-28.3c-0.6,0.1-1.3,0.7-1.9,1.9c-2.2,4.9,2.1,26.2,6.6,44.4l0,0c0,0.1,0.1,0.1,0.1,0.3
	c3.3,13.4,6.7,25,7.6,27.4c4.9,12.7,9.7,20.8,13.9,27.6c-4-2.5-9.4-6.3-15.9-11.8c-3.6-14-14.3-42.6-20.6-51.4
	c-2.1-2.8-4.3-6.1-6.7-9.4c-5.5-7.7-11.5-16.2-17.4-23.5L116.6,446.7z M108.2,507.9c-14.4-0.4-24.9-6.3-27-7.6
	c-3.3-3.3-5.7-6.6-7-9.4c4.5,2.5,12.8,6.1,27,9.7C103.5,503,105.9,505.5,108.2,507.9z M97.5,469.5c3.3,4.3,6.4,8.9,9.5,13.1
	c1.6,8.2,3.1,16.5,3.9,21.4c-2.2-2.2-4.3-4.5-6.3-6.6C103.9,488.5,100.5,477.7,97.5,469.5z M110.3,510.9c0.3,0,0.6,0,0.9,0
	c6.1,6.6,12.1,15.8,16.7,23.4c-0.6-0.3-1.2-0.7-1.8-1.2c-9.8-6.3-25.6-16.2-37.4-26.2C94.1,509.1,101.5,510.9,110.3,510.9z
	 M114,507.5c-0.1-3.6-1.6-11.6-3-18.9c1,1.5,2.1,2.8,3,4.2c4.2,5.7,11,22.2,15.8,36.3C125.4,521.7,119.9,513.6,114,507.5z
	 M74.3,444.3c1.9,1.5,8.5,7.1,9.2,7.9c2.4,2.5,4.8,5.4,7.1,8.3c2.5,5.7,8.6,20.7,10.4,33.2c-21.6-24.3-30.5-43.9-31.1-52
	C70.9,441.9,72.2,442.7,74.3,444.3z M69.1,464.3c-0.4-4.2-1.9-8.9-3.3-13.1c-0.4-1.5-0.9-4.2,0.1-6.3c2.1,10.1,11.5,28.9,31.7,51.7
	c-14.1-4-21.3-7.9-24.1-9.7l0,0c0-2.2,1.3-4,3.9-5.5c0.6-0.4,1-1,1-1.8c0-0.7-0.3-1.5-1-1.9C77.3,477.5,69.8,472.5,69.1,464.3z
	 M69.1,488.2c1.6,14,29,32.5,54.7,48.7c2.7,1.6,5.1,3.1,6.9,4.5c-0.1,0-0.4,0-0.6,0.1c-3.4,0.7-6.1,3.7-8.2,7.4
	c-1.2-2.8-3.3-6.4-6.6-8.9c-0.1-0.1-0.3-0.1-0.4-0.3c-5.2-4.8-10.9-4.2-16.7,1.5c-1.6,1.5-4.6,2.1-7.3,2.5c-2.8,0.4-5.4,0.9-6.7,2.7
	c-3.9,5.1-3.7,9.8-2.2,13.6c-0.3,0-0.4,0-0.7,0c-0.7-9.2-5.8-25.8-13.9-34.8c-0.4-0.6-1.3-0.9-2.1-0.7c-0.7,0.1-1.3,0.6-1.6,1.3
	c-0.3,0.7-7.1,18.8-1.3,40.4c-0.6,0.6-1,1.2-1.5,1.9c-2.4-7-4.9-11.6-6.3-13.9c2.8-3.7,1.3-9.7-0.9-14.1c1.3-0.6,2.5-1.3,3.3-2.2
	c2.2-2.8,2.4-6.4,2.1-8.3c0.3-1.9,0.3-3.6,0.3-4.9c1.9-0.4,4.6-1.6,8-3.6c8.9-5.1,3.6-20,0.9-27C66.7,490.6,68.2,489,69.1,488.2z
	 M52.4,491.4L52.4,491.4c0,0,0-0.1,0.1-0.1c3-5.7,6.1-9.8,8.9-10.1c3.6-0.4,5.4,0.1,5.8,0.7c0.3,0.4,0,1.6-0.3,2.4
	c-2.4,1.5-5.2,5.4-3,11.5c2.1,5.5,6.7,18.3,1,21.6c-4.2,2.4-6.1,3-7,3.1c-1.2-2.4-3.1-3.6-4.5-4.2c-3-1.3-6.9-1.2-10.1-0.3
	C45.5,507.6,48.8,498.2,52.4,491.4z M20.2,481.4c1.5-3,2.7-5.2,2.4-7.1c-0.3-2.5,5.2-3.9,6.7-4.2c1.8-0.3,2.4,0.3,3.7,2.4
	c0.9,1.3,2.1,3.3,4.3,3.3c1.5,0,2.4-0.9,3.4-1.9s2.4-2.4,3.9-2.4c2.8,0.1,3.4,0.9,3.6,0.7c0,0.1-0.3,0.7-0.4,1
	c-0.4,0.4-0.6,1.2-0.6,1.9c0.1,0.7,0.6,1.3,1.2,1.6c2.8,1.5,1.5,8.6,0.1,12.4c-5.4,10.3-9.1,24.1-10.4,29c-0.1,0.1-0.3,0.1-0.3,0.3
	c0.6-3.9,0.9-9.5-0.9-13.9c0.3-0.7,0.4-1.9,0.3-3.1c-0.3-2.2-1.6-3.9-2.8-3.7c-1.2,0.1-1.9,2.1-1.6,4.3c0.1,1,0.6,1.9,1,2.7
	c3.3,6.1,0.3,17.3,0.3,17.4c0,0.1,0,0.3,0,0.3s0,0-0.1,0.1c-0.9-4-2.5-11.2-5.2-16.2c0.1-0.9,0-2.1-0.4-3.3
	c-0.4-0.9-0.9-1.8-1.5-2.2c0-0.3,0-0.7-0.1-1.2s-2.8-7.6-9.1-11C17.4,487,19.2,483.5,20.2,481.4z M-13.7,500.2
	c0.4-2.1,2.4-4,5.5-5.5c2.2-1.2,2.8-3.1,3.3-4.5c0.4-1.6,0.7-2.7,4.2-3.3c4.6-0.7,9.4,3.7,9.4,3.7c0.4,0.4,1,0.6,1.5,0.6
	c0,0,0,0,0.1,0c8.5,0,12.1,9.5,12.2,10c0.1,0.6,0.6,1,1,1.2c0,0.7,0.1,1.5,0.4,2.4c0.4,1,1,1.9,1.8,2.5c3,5.4,4.8,13.9,5.5,17.4
	c-0.6,0.4-1.2,0.7-1.8,1c-0.4-3-1.6-10.3-4.9-15.8c0.1-0.9,0-1.9-0.4-3c-0.9-2.1-2.5-3.4-3.7-3s-1.5,2.5-0.6,4.6
	c0.4,1.2,1.2,2.1,1.9,2.7c3,4.8,4.2,11.5,4.6,14.4c-1.8-1.2-5.5-4.2-6.6-9.2c0.3-0.9,0.3-2.2-0.3-3.6c-0.9-2.1-2.5-3.4-3.7-3
	s-1.5,2.5-0.6,4.6c0.4,1,1,1.8,1.6,2.4c1,4.6,3.7,7.7,6,9.7c-3.1-1.5-8.3-4.3-11.6-8c-0.1-0.9-0.9-2.1-2.1-3
	c-1.8-1.3-3.9-1.6-4.6-0.7s0,3,1.8,4.3c0.9,0.6,1.8,1,2.5,1.2c3,3.4,7,6,10.3,7.7c-4.3,0.1-7.4,0.9-9.5,1.8
	c-25-7.1-22.2-22.5-22-23.1c0.1-0.6,0-1.3-0.4-1.8C-12.7,505.2-14.3,502.8-13.7,500.2z M-22.1,543c-3.1,1.3-3.4,1.2-4-0.3
	c-0.9-1.8-0.9-4,0-6.3c0.9-2.4,2.7-4.2,4.9-5.1c1-0.4,1.6-1.5,1.3-2.7c0,0-0.9-3.6,1-5.8c1.2-1.3,3.1-1.9,6-1.9
	c3.1,4.5,8.6,9.2,18.3,12.5c0,0.1-0.1,0.1-0.1,0.1c-0.7,1.3-2.5,1.5-5.2,1.6s-5.7,0.3-7.4,2.7c-2.5,3.3-5.1,3.4-9.1,3.7
	c-0.6,0-1.2,0.1-1.9,0.1C-19.7,542-20.9,542.6-22.1,543z M9.3,542.3c-11.3,6.7-21.4,5.8-27.6,4h0.1c0.6,0,1.2-0.1,1.8-0.1
	c4.5-0.3,8.6-0.6,12.4-5.4c0.6-0.9,2.4-0.9,4.2-1c2.8-0.1,6.7-0.4,8.8-3.9c0.3-0.4,0.7-0.9,1.5-1.3c0.3-0.1,0.6-0.1,0.7-0.4
	c2.4-1,6-1.5,9.4-1.5c-0.6,0.9-1.5,1.9-2.7,3.1c-0.6,0.6-1.6,1.2-2.8,1.9C13.4,539,11.1,540.5,9.3,542.3z M11.9,550
	c-0.1,0.3-0.4,0.7-0.6,1c-0.4-1-0.6-1.9-0.4-2.8c0.1-0.9,0.7-1.6,1.3-2.5l0,0l0,0c1.5-1.6,3.6-3,5.5-4.3c1.3-0.9,2.5-1.6,3.4-2.4
	c3.4-3.1,4.8-5.8,5.2-7.4c5.5-1.3,10.1-4.5,13.7-9.4c0.9-1.2,7.4-3.7,11.6-1.9c2.2,1,3.3,3.3,3,6.9c-2.4-0.4-6.6-0.4-10.6,4.9
	c-0.4,0.3-2.5-0.1-3.7-0.4c-2.8-0.6-6.1-1.5-8.8,0.3c-1.6,1.2-2.5,3.1-3.3,4.9c-0.4,1-1,2.4-1.5,2.8c-0.6,0.6-2.4,0.9-3.9,1.2
	c-2.2,0.3-4.5,0.7-6,2.2C14.6,545.6,13.1,548.1,11.9,550z M3.1,570.7c1.2-1.3,2.1-1.2,4.3-0.3c1.5,0.6,3.6,1.3,5.5,0
	c1.2-0.7,1.3-2.2,1.6-3.7c0.1-1.5,0.4-3.4,1.6-4.2s2.2-0.9,3.3-0.6c3.3,0.9,6.3,5.8,7,7.6c0.4,0.9,1.3,1.3,2.4,1.2
	c3.9-0.7,6.4,4.8,7,6.3c-2.1,3.9-2.7,8.8-3.1,12.4c0,0.6-0.1,1.2-0.1,1.8c-0.3,2.5,0,6.6,0.3,10c-0.6-0.6-1.3-1.2-2.1-1.8
	c0-1-0.7-2.4-1.8-3.6c-1.8-1.6-3.9-2.2-4.9-1.3c-0.9,1-0.3,3.1,1.5,4.9c0.9,0.9,1.8,1.5,2.7,1.6l0,0c2.5,2.1,4.3,4,5.4,5.2
	c0,0.1,0,0.1,0,0.3c-2.5-2.2-6-4.8-9.7-6.4c-0.4-0.7-1.2-1.6-2.2-2.2c-0.7-0.4-1.3-0.7-2.1-0.9c-0.1-0.3-0.4-0.6-0.7-0.7
	c-0.3-0.3-6.9-4.3-14-3.4c-1.2-1.2-1.8-5.2-2.2-7.4c-0.6-3.3-1-5.8-2.4-7.1C-1.5,576.4,2,571.8,3.1,570.7z M0.4,594.1
	c-0.6,0.3-1,0.6-1.6,0.9c-1.6-0.4-4.6-1-7.6-1.2c2.4-1,4.9-2.4,7.6-4.2C-0.8,591.3-0.3,592.8,0.4,594.1z M-3.2,571.6
	c-0.3,0.6-0.7,1.3-0.9,1.9c-6,3.1-12.4,7.3-17.4,12.2C-17.5,579.5-11.2,574.8-3.2,571.6z M-23.3,592.3c4.6-6.1,11.6-11,18.5-14.9
	c0.1,1.3,0.6,2.7,1.8,3.9c0.3,0.4,0.7,1.9,0.9,3.4C-10.9,591.4-18.8,592.3-23.3,592.3z M-15.7,608.3c0.1-1.6,0.1-2.7,0.1-3.4
	c0-1.2,0-2.1,0.9-5.2c0.6-1.9,7.4-1.6,13.3,0c0.7,0.1,1.5,0,1.9-0.3c6.7-5.2,15.3,0.3,15.8,0.6c0.1,0.1,0.4,0.1,0.6,0.3
	c0.4,0.6,1.2,1.3,2.1,1.8c1.5,0.9,3,1.2,4,0.9c4.9,2.2,9.5,6.6,11.5,8.5c0.1,0.9,0.3,1.6,0.4,2.2c-2.7-2.5-7.1-6.3-12.1-8
	c-0.4-0.6-1-1.2-1.9-1.6c-2.1-1.2-4.3-1.3-5.1-0.1c-0.7,1.2,0.4,3.1,2.5,4.3c1.8,1,3.6,1.2,4.5,0.6c4.9,2.2,9.4,6.4,11.3,8.3
	c-2.4,0.1-7.3-0.1-11.3-3.9c-0.3-1-1.2-2.2-2.7-3.1c-2.1-1.2-4.3-1.3-5.1-0.1c-0.7,1.2,0.4,3.1,2.5,4.3c1,0.6,2.2,1,3.1,1
	c3.7,3.4,7.9,4.5,11,4.6c-3.3,0.6-8.6,1.5-13.3,0.6c-0.7-0.9-2.2-1.5-4-1.5c-2.4,0-4.5,1-4.5,2.4c0,1.3,1.9,2.5,4.3,2.5
	c1.2,0,2.2-0.1,3-0.6c1.8,0.3,3.6,0.4,5.4,0.4c2.2,0,4.5-0.1,6.4-0.4c-4.5,4-11.9,7.9-23.7,8.6c-7.1,0.4-10.4-1.2-11.9-2.5
	c-1.6-1.5-1.5-3.1-1.5-3.1c0-1.2-0.7-2.2-1.9-2.4C-10,624.1-17.5,622.7-15.7,608.3z M21.6,755.4C6.4,728-3.6,700.3-8.2,673
	c0-0.3-3.9-21.4-2.5-42.1c0.4,0.6,0.9,1.2,1.5,1.8c1.2,1.2,2.5,2.1,4.3,2.7c-1.9,1.9-3,4.2-3.1,6.6c-0.1,3.4,1.6,6.1,3,7.7
	c-1.2,2.8-1.3,6-0.4,8.9c1,3.4,3.1,6.3,6,7.7c3.4,1.8,6.3,2.4,8.8,2.4c3.9,0,6.6-1.6,8.8-2.8c3-1.6,4.5-2.4,6.9-1.2
	c2.1,1,4.3,1,6.4,0.1c4.6-2.1,7.6-9.1,8.9-12.8c0.3,0,0.4,0,0.7,0c1.8,0,3.6-0.4,5.2-1.3c4.3-2.4,7.3-7.4,9.2-11.9
	c0,0.9,0,1.8-0.1,2.7c-0.1,1.2-0.6,2.7-0.9,4.3c-1.6,6.3-3.9,15.6,4.3,20.7c0,4.6,1.8,18,19.1,21.3c0.9,2.1,2.2,4.5,4.2,6.6
	c-1.8,0.6-3.6,1.6-5.2,3.6c-1.6,1.9-1.9,3.1-2.1,4.6c-0.1,0.9-0.1,1.8-1.5,4.2c-2.2,3.9-2.2,5.5-1.9,7.3c0.1,0.6,0.1,1,0,1.9
	c-0.1,0.7-1.8,2.5-2.7,3.4c-2.1,2.2-3.9,4.2-3.1,6.4c0.3,0.7,0.9,1.8,2.7,2.2c2.4,1.3,20.7,10.6,40.8,14.1c-2.4,3-5.1,7-4.3,10.4
	c0.3,0.9,0.7,2.1,2.1,3c-0.6,1.2-0.9,2.8-0.6,4.6c0.3,1.3,1.3,3.3,4.5,4.6c5.5,2.2,14.4,0,18.3-1c0.7,1,2.1,2.2,4,2.8
	c0.9,0.3,1.8,0.4,2.8,0.4c3.3,0,7-1.5,11.2-4.3c3.6-2.5,6.4-5.5,8.6-8.3c0.3,1.5,0.6,3,1.3,4.5l0.1,0.3c4.9,10.7,6.7,14.4,18,15.5
	c0.6,0.7,1.5,1.9,3,3.1l0,0c-0.1,3.6,0,7.6,3.6,10.6c0,0.9,0.1,2.4,0.4,4.3v0.1l0,0c0.4,3,1.3,6.7,2.8,10.3
	c-0.6-0.3-1.3-0.7-2.2-1.5c-21.1-36.5-45.7-30.4-46.8-30.1c-0.6,0.1-1,0.6-1.3,1s-0.4,1.2-0.1,1.6c1.2,4.2,3,7.9,5.1,11
	c-3.1-1.3-6.3-1.6-9.7,0.9c-1,0.7-2.2,0.6-4,0.4c-2.2-0.3-6.3-0.9-7.4,4.2c-0.3,0.9-0.3,1.9-0.4,2.8c-6-0.7-10.4,2.2-12.7,4.6
	c-5.2-0.4-9.1,0.6-11.3,3.3c-2.7,3.1-2.2,7.6-1.8,9.7c-4.2,4.8-2.5,8.2,0.4,13.3c2.4,4,8.8,7.4,13,9.4c-5.2,4.8-6.7,10.9-6,14.3
	c0.1,0.6,0.1,1.5,0.1,2.5c0,3.1-0.1,7.3,3.4,10.4c2.1,1.8,3.9,2.1,5.2,1.9c0,0.1-0.1,0.1-0.1,0.3c-0.6,0.7-1.2,1.5-1.8,2.2
	c-0.9,1.2-1,2.5-0.3,3.7l0,0c-1.2-0.1-2.2-0.6-3.4-1.2c-1-0.4-2.1-0.9-3.1-1c0,0,0,0-0.1-0.1C71.9,832.3,37.3,784,21.6,755.4z
	 M90.2,898.4c-1.3-2.5,0.3-5.8,0.4-6c0.4-1,0.3-2.2-0.7-2.8c-0.9-0.6-1.3-1.3-1.5-1.9c0-1.2,1-2.4,1.5-2.8c0.6-0.6,0.9-1.5,0.6-2.2
	s-0.9-1.5-1.8-1.6c-0.6-0.1-2.4-0.6-3-1.5c-0.1-0.3-0.4-0.7-0.1-1.6c0.4-1.8,1-2.8,2.1-3.3c1.2-0.6,2.7-0.1,3.3,0
	c0.9,0.4,2.1,0.1,2.7-0.7c3.3-4.2,4.2-3.7,6.9-2.5c2.2,1,5.2,2.4,9.7,1c6.4-1.9,11.8,6.6,12.5,7.7c-1.8,5.1,2.2,9.4,4.8,11.9
	c0.7,0.9,1.6,1.6,2.1,2.4c1.2,1.6,1.8,3.1,2.4,4.3c-6.6-2.7-16.5-4.2-30.2,0.9c-1.9,0.7-3.6,1.5-5.1,2.2C93,901.2,91,900,90.2,898.4
	z M111.4,935.9c-0.7-0.1-1.5,0-1.9,0.4c-4.6,3.9-10.9,7-12.2,5.4c-1.9-2.4-2.2-3.1-2.7-4.2c-0.3-0.7-0.6-1.6-1.5-3.1
	c0.4-0.3,1-0.6,1.5-0.9c1.9-1,5.4-2.8,4-6.3c-0.3-0.7-1-1.3-1.8-1.8c-1.6-0.6-3.4,0.1-5.7,1.2c-1.5,0.6-3.9,1.8-4.8,1.3
	c-0.3-0.1-0.6-0.7-0.9-1.6c-1.5-6.4,5.4-8.8,6.1-8.9c0.6-0.1,1.2-0.6,1.3-1.2c0.3-0.6,0.3-1.3,0-1.9c0,0-0.6-1.5,0.1-3.4
	s3.1-4.8,9.8-7.3c11.2-4,19.5-3.4,25.2-1.5c-3,0.7-6.4,2.1-9.5,3.9c-1-0.3-2.5,0-4,0.6c-2.4,1-3.9,3.1-3.3,4.5
	c0.6,1.3,3.1,1.5,5.5,0.4c1.6-0.7,2.7-1.8,3.1-2.8c3.9-2.4,8.6-3.6,11.8-4.3c-2.7,1.3-6.1,4-8.2,8.3c-0.9,0.4-1.8,1.2-2.4,2.2
	c-1.5,2.2-1.8,4.6-0.6,5.5s3.4-0.1,4.9-2.4c1.2-1.8,1.6-3.7,1-4.8c2.2-4.3,6.4-6.3,8.3-7c-1,2.8-3.7,8.8-7.6,12.8
	c-0.7,0.4-1.3,1.2-1.9,1.9c-1.5,2.2-1.8,4.6-0.6,5.5c0.6,0.4,1.5,0.3,2.4-0.1c-0.4,0.7-0.9,1.5-1,2.2c-0.3,0.1-0.4,0.4-0.7,0.7
	C125.4,929.2,119.7,938,111.4,935.9z M148.6,950.7c-0.9,0.1-1.5,0.9-1.6,1.6c-1.2,4.9-3.1,10-4.2,10.6c-0.6,0.3-1,0.6-1.5,0.9
	c-0.7-0.9-1.6-1.2-2.4-1.5c-0.9-0.4-1.6-0.7,0.1-6c0.6-1.6,0.4-2.8-0.3-3.7c-0.7-0.7-1.6-1-2.8-0.9c-2.7,0.4-6.4,4.3-7.4,7.4
	c-0.6,1.8-1.6,3-2.2,3.4c0,0,0-0.1-0.1-0.3c-1.5-4.2-2.8-7.1-6.3-9.1c-0.9-0.6-2.5-4.9-2.7-9.2c0-1.9,0.1-3.1,0.6-3.9
	c6.9-1.9,11.2-8.2,11.5-8.6c0.9-0.4,1.6-1.2,2.4-2.2c1-1.3,1.5-3,1.3-4c2.5-2.8,4.3-6.3,5.7-9.1c0,0.1,0.1,0.4,0.1,0.6
	c0.3,1.3,0.9,3.1,1.5,4.9c-0.3,1-0.9,2.1-1.3,3.4c-1.2,0.3-2.5,1.6-3.3,3.4c-1,2.5-0.7,4.9,0.7,5.5c1.3,0.6,3.3-1,4.3-3.4
	c0.4-1.2,0.6-2.4,0.6-3.4c0.1-0.4,0.4-0.9,0.6-1.2c0.6,1.8,1.3,3.4,2.1,4.6c0.3,0.4,0.6,1,0.9,1.5c1.8,3.1,4.3,7.4,7.7,10.1
	C152.5,943.8,152.5,949.8,148.6,950.7z M160.7,939.9c-4.8,1.5-8.5-3.9-12.1-10.1c-0.3-0.6-0.6-1-0.9-1.5c-2.5-4.2-5.7-16.8-6.3-20.4
	l0.1-0.1c5.4-4.8,7-6,15.8-7.7c1.8-0.4,2.7,0.1,3.1,0.6c0.3,0.3,0.6,0.7,0.9,1.2c0,0.3,0.1,0.6,0.3,0.9c0,0.1,0.1,0.3,0.3,0.3
	c0.7,2.4,0.7,5.7,0.4,7.7c-0.1,0.6,0.1,1.3,0.6,1.8c1.9,2.1,4.3,5.2,3.7,7.9c-0.6,3-4.5,4.5-4.5,4.5c-0.6,0.3-1,0.7-1.3,1.2
	c-0.3,0.6-0.1,1.2,0,1.8c0.9,1.8,3,7.4,1.8,10.4C162.1,939,161.6,939.6,160.7,939.9z M147.9,986.1c1.2-4,4.2-11.9,11.8-27.6
	c3.3-6.6,6.6-13,9.5-18.3c6-5.8,10.7-9.2,13.9-11C178.1,939.8,161.4,972.4,147.9,986.1z M156.3,988c-2.1,0.9-4,1.3-5.7,1.6
	c3.1-3.1,6.6-7.3,9.8-11.9C159.6,981,158.3,984.8,156.3,988z M160.8,986c2.4-5.4,3.6-11,4-14.4c1.3-2.1,2.8-4.3,4-6.6
	c-1,5.8-2.8,13.7-6.1,20C162.1,985.2,161.4,985.7,160.8,986z M182.7,965.7c-1,1.6-2.2,3.3-3.4,4.8c-3.6,4.6-7.7,8.5-11.9,11.3
	c3.7-9.1,4.9-19.5,5.4-23.5c4-7,7.6-13.7,10.3-19.1C184,946.2,184.9,957.2,182.7,965.7z M173.6,932.2c1.6-2.8,2.8-4.8,3.4-5.8
	c9.1-13.1,16.1-20,22.6-26.1c-5.4,8.8-11.3,18.6-14.4,24.3C183.3,925.5,179.3,927.6,173.6,932.2z M194.8,926.1
	c0.1,3.9-0.6,13.9-0.9,18.9c-2.1,4.9-4.3,9.7-7,14.1c0.9-9.7-0.7-19.8-1.5-24.4c1-2.1,1.8-3.7,2.4-5.1c1-2.4,4-7.6,7.7-13.7
	C194.9,919.7,194.6,923.7,194.8,926.1z M201.9,917.7c-1.2,6-2.7,11.8-4.5,17.4c0.1-3.6,0.3-7.1,0.3-9.2c-0.1-4,1-12.5,1.6-16.4
	c0.7-1.2,1.3-2.2,2.1-3.4c-0.1,3,0.1,6.4,0.9,10.3C202.1,917,202.1,917.3,201.9,917.7z M204.3,908.7c-0.1-3.6,0.3-6.4,0.7-8.3
	c3-4.9,5.8-9.2,7.6-12.1C209.7,894.4,206.5,901.5,204.3,908.7z M211,882.3c-4.5,5.5-8.6,9.4-13.1,13.6c-6.9,6.4-14.6,13.7-24.6,28
	c-1.2,1.6-3.4,5.5-6.1,10.4c-0.3-2.5-1-4.9-1.6-6.6c1.9-1.2,4.5-3.3,5.2-6.7c0.7-3.6-0.6-7.3-4-11.2c0.1-1.6,0.1-4.8-0.4-7.6
	c2.4-1.3,7-4,12.5-7.7c0,1.3,0,2.8,0,4.3c0,0.7,0.3,1.3,0.9,1.8c0.4,0.3,0.9,0.4,1.3,0.4c0.1,0,0.4,0,0.6-0.1
	c0.9-0.3,22-7,33.7-35.7c1,1.2,2.4,2.2,3.9,3.4c0.4,0.3,1,1.3,1.8,2.5C219,872.8,216.2,875.9,211,882.3z M210.3,978.8
	c0.3-1.8,0.4-3.6,0.6-5.4c0.4-3.9,0.7-8.5,0.9-13c1.8,11.2,4,26.5,4.8,36.6c-2.2,5.4-6,8.8-8.3,10.6
	C207.9,998.2,209.2,987.7,210.3,978.8z M216.7,1038.7c-1.3-4.8-3.1-10.7-5.5-16.7c-1.3-3.3-2.1-7-2.5-10.9c1.6-1.2,5.2-3.9,8.2-8.3
	C217.1,1013.8,216.8,1029.1,216.7,1038.7z M219.6,982.7c-1.2-9.2-2.7-19.4-4-26.7c0.1,0.1,0.1,0.3,0.3,0.4c3,4.5,4.2,9.4,5.2,14
	c0.7,3,1.5,6.1,2.7,8.9c1.8,4.3,3,8.2,3.6,11.6C223.5,988,220.7,984.2,219.6,982.7z M227.5,999.8c-0.4,2.1-0.7,6.3-1.2,10.9
	c-0.6,7.4-1.6,21.3-3.7,23.5c-0.6,0.6-1.2,1.5-1.6,2.2c0.3-10.4,0.4-25.9,0.1-36.2c-0.1-3.3-0.4-7.3-0.9-11.8
	c1.9,2.2,4.5,4.8,7.4,6.7C228,996.8,227.8,998.3,227.5,999.8z M361,1117.3c-14.7-12.2-69.8-58.5-126.1-110.8
	c-1.3-1.2-2.4-1.8-3.6-1.6c0.1-1.8,0.3-3.3,0.6-4.3c1.5-7.1-1.3-16.4-3.9-22.8c-1-2.5-1.8-5.4-2.4-8.3c-1.2-5.1-2.5-10.3-5.8-15.5
	c-2.5-3.7-10.1-16.8-8.5-31.1c1.8-6.7,3.7-13.6,5.7-20.1c0.4,0.7,0.9,1.6,1.5,2.5l0,0c0.1,0.3,9.7,28.3,10.3,48.6
	c0.6,22,40.7,50.3,48.7,53.9c2.1,0.9,3.7,1.2,5.1,1.2c1.9,0,3.1-0.7,3.7-1.6c1.8-2.4,0.9-6.4-2.8-11c-5.2-6.6-18.6-27.8-19.4-35.3
	c-0.1-1-0.4-2.4-0.9-3.9c8.6,10.3,19.5,17.9,28.9,22.9c0.3,0.1,0.7,0.3,1,0.3c0.4,0,0.7-0.1,1.2-0.3c0.7-0.4,1-1.2,1-1.9
	c0,0,0-6.4,7-15.8c6.9-9.1,27.7-36.8,16.5-66.9c-0.9-2.2-1.8-4.5-3-6.6c1.8-0.1,3.6-0.6,4.9-1.3c0.6,0,2.2,0.6,3.6,1.2
	c3.6,1.3,8.8,3.3,15,3.3c3,0,6.1-0.4,9.4-1.6c11.9-4.2,18.3-12.2,18.9-24.3c0-0.1,0-0.3,0-0.3c0.3-0.3,1-0.9,1.5-1.3
	c4.2-3.4,11.9-9.8,13.9-17.3c2.4-10-2.2-18.5-5.5-22.9c9.1-1.8,14-7.6,15-13c0.1-0.1,0.4-0.4,0.6-0.7
	c12.7,44.2,28.4,98.7,35.1,120.2c11.9,38.6,37.7,27.7,37.7,27.7c25.8-17.9,40.1,9.4,40.1,9.4c4-3,10-1.3,15.9,3.9
	C453.9,1037.5,378.5,1102.4,361,1117.3z M514.8,944.4c-19.2,8.2-24-20.4-10.6-25.8C516.7,913.9,534.2,936.4,514.8,944.4z M544,909.4
	c-18.2,14-43.2-54.4-31-57.2C524.2,849.5,562.2,895.4,544,909.4z M572.7,883.6c-14.6,9.4-28-18-22.8-24
	C557.6,851,587.3,874.4,572.7,883.6z M583.2,852.2c-14.6,10.6-17-7.3-15.2-12.8C571.6,828.8,597.8,841.6,583.2,852.2z M583.2,827.1
	c-17.6,5.2-9.7-10.4-7-15.2C581.5,802.5,600.7,821.8,583.2,827.1z M700.7,755.4c-19.7,35.4-66.9,91.3-99,129.1
	c-9.1-22.2,8-32.6,8-32.6c-16.8-12.8-1.9-35.6-1.9-35.6c-7.9-25.8-37.7-42.6-37.7-42.6c7-16.8,30.7-6,30.7-6
	c0-23.8,25.8-12.8,25.8-12.8c1.9-33.7,29.6-29.6,29.6-29.6c-11.9-20.8,13.9-26.8,13.9-26.8c-8.9-22.8,15.8-36.6,15.8-36.6
	c-7.9-16.8,10.9-26.8,10.9-26.8c-6-16.8,12.8-27.7,12.8-27.7c-2.4-18.8,7-23.5,14.7-24.3l4.8,15.3
	C739.8,649.2,730.2,702.1,700.7,755.4z"/>
</svg>
