<svg width="102" height="110" viewBox="0 0 94 102" fill="none" xmlns="http://www.w3.org/2000/svg">
<path
d="M53.4248 16.6298C53.1557 16.8989 52.7916 17.0096 52.4751 17.1362C51.6679 17.4528 50.8607 17.7535 50.0535 18.0542C49.9269 18.1017 49.7845 18.1492 49.6578 18.2125C48.2492 18.9248 46.8247 19.637 45.5744 20.6341C44.8938 21.1722 44.1974 21.6787 43.5801 22.2643C43.0103 22.8183 42.5356 23.4514 42.0449 24.0845C41.4909 24.7967 41.0635 25.6039 40.7786 26.4586C40.4621 27.4082 40.0823 28.3578 39.9557 29.3708C39.7499 31.0485 39.56 32.7262 39.5758 34.4197C39.6075 36.5247 39.3226 38.5823 38.278 40.4815C37.6449 41.6528 37.0276 42.824 36.2679 43.9319C35.6348 44.8499 35.1125 45.8312 34.9384 46.9708C34.7485 48.3319 34.8751 49.6298 35.3974 50.896C35.6981 51.624 36.0304 52.3521 36.4261 53.0326C36.9643 53.9981 37.7557 54.742 38.737 55.2485C39.6233 55.7233 40.5255 56.1664 41.5384 56.3722C42.0765 56.483 42.5988 56.5463 43.1527 56.5305C44.0232 56.5305 44.8779 56.4988 45.7484 56.483C45.97 56.483 46.1758 56.4355 46.3816 56.3722C47.996 55.7549 49.6737 55.3276 51.3514 54.9636C51.4622 54.9478 51.5571 54.9003 51.6678 54.8686C51.9053 54.7895 52.0002 54.6312 51.9844 54.3779C51.9686 53.9031 51.8261 53.46 51.6837 53.001C51.4621 52.7794 51.1614 52.7952 50.8765 52.7794C49.2304 52.7003 48.0118 51.8931 47.1571 50.5319C46.5873 49.6139 45.9384 48.7434 45.4477 47.778C44.8305 46.5593 44.2607 45.3247 43.77 44.0427C43.6276 43.6787 43.5643 43.283 43.4852 42.8873C43.3269 42.1434 43.2003 41.3996 43.042 40.6557C42.8679 39.8485 42.6305 39.0571 42.2507 38.3132C41.9816 37.7909 41.7916 37.2528 41.6808 36.683C41.57 36.1923 41.4434 35.7017 41.3327 35.2111C41.0319 33.929 41.111 32.6312 41.2693 31.3492C41.2851 31.1593 41.3801 31.001 41.57 30.9219C41.7283 30.8427 41.9024 30.7794 42.0607 30.7161C42.8045 30.4312 43.5326 30.1621 44.2765 29.8931C45.4319 29.4815 46.5082 28.8643 47.5686 28.2628C49.1355 27.3765 50.6708 26.4427 52.1111 25.3506C52.8549 24.7808 53.583 24.1794 54.2794 23.5621C55.6247 22.3751 56.9542 21.1406 58.1571 19.8111C58.6952 19.2254 59.17 18.5924 59.7082 18.0068C59.8664 17.8168 60.0722 17.6586 60.2779 17.5161C60.5312 17.342 60.8635 17.3895 61.0693 17.6111C61.2117 17.7694 61.3542 17.9435 61.465 18.1176C61.7973 18.719 62.1456 19.3046 62.383 19.9535C62.8736 21.3146 63.6492 22.5334 64.4722 23.7204C65.1844 24.765 66.1815 25.4614 67.2261 26.1103C67.7168 26.4111 68.2391 26.6485 68.7614 26.8859C69.4104 27.1866 70.0751 27.4715 70.819 27.4715C70.9614 27.4715 71.1038 27.424 71.1671 27.2658C71.2621 27.0283 71.3254 26.7909 71.452 26.5694C71.7686 26.0154 72.2276 25.6513 72.8607 25.4931C73.4779 25.3348 74.0636 25.3348 74.665 25.5405C75.583 25.8413 76.2002 26.4111 76.4851 27.3607C76.8491 28.6111 77.1657 29.8614 77.0865 31.1751C77.0549 31.824 76.9442 32.4571 76.7701 33.0902C76.501 34.1348 75.8363 34.847 74.7917 35.1636C74.665 35.3693 74.8233 35.5118 74.8866 35.6701C75.4089 37.3003 75.6621 38.9463 75.4088 40.6715C75.1714 42.2859 74.7758 43.8528 74.2535 45.3722C73.9053 46.3852 73.4463 47.3823 72.9715 48.3477C72.6549 48.9966 72.2434 49.5823 71.8319 50.1837C71.0563 51.3074 70.2967 52.447 69.442 53.5233C68.4132 54.8211 67.2103 55.9765 65.8175 56.9103C64.6463 57.6859 63.4276 58.3823 62.1139 58.9046C61.7183 59.0628 61.3226 59.2686 60.9269 59.4427C60.1988 59.7592 59.4233 59.9492 58.6319 59.9967C57.0808 60.0758 55.5456 60.1708 53.9945 60.2341C53.4564 60.2499 52.9182 60.2024 52.3801 60.2024C52.1269 60.2024 51.8737 60.2024 51.6363 60.2183C51.5413 60.2183 51.5096 60.2815 51.5096 60.3765C51.5254 60.4398 51.5254 60.5348 51.5729 60.5664C51.6837 60.6614 51.7945 60.7564 51.937 60.8039C52.9816 61.2312 54.0262 61.5794 55.1816 61.5003C55.7988 61.4686 56.4002 61.4527 57.0175 61.4369C57.3974 61.4211 57.6031 61.6427 57.7456 61.9751C57.8406 62.1967 57.793 62.4024 57.6031 62.5448C57.3182 62.7664 57.0333 62.988 56.7326 63.178C56.0362 63.6211 55.324 64.0327 54.6118 64.4758C54.3427 64.6499 54.0578 64.824 53.8362 65.0614C52.665 66.2327 51.4938 67.4038 50.6233 68.8441C50.3701 69.2714 50.1643 69.7305 49.9586 70.1895C49.8003 70.5218 49.7844 70.8858 49.7844 71.2499C49.8002 71.6297 49.9268 71.8988 50.0851 71.8513C50.3225 71.7722 50.4175 71.5664 50.4334 71.3448C50.4967 70.7434 50.8449 70.2686 51.0981 69.7621C51.747 68.4168 52.6808 67.2773 53.7729 66.2643C54.3269 65.7578 54.9758 65.4887 55.6722 65.2988C55.7513 65.283 55.9096 65.3304 55.9412 65.4096C55.9887 65.4729 55.9571 65.6153 55.9254 65.7103C55.7988 66.0585 55.4981 66.2801 55.2607 66.5492C54.0103 67.9578 52.8233 69.3981 52.0161 71.1075C51.937 71.2658 51.8736 71.4399 51.8103 71.5981C51.7629 71.7247 51.8895 71.8672 52.0319 71.883C52.2535 71.8988 52.4592 71.883 52.5859 71.6456C52.6492 71.5189 52.7442 71.4082 52.8075 71.2657C53.1082 70.6326 53.583 70.1419 54.1528 69.7463C54.3902 69.588 54.5801 69.3822 54.7542 69.1448C55.3715 68.3851 56.0046 67.6571 56.6535 66.929C56.7485 66.8183 56.8593 66.7233 56.9701 66.6442C57.1283 66.5334 57.3341 66.5334 57.4607 66.66C57.6348 66.8341 57.6823 67.1032 57.5557 67.2456C57.4449 67.3881 57.3024 67.4988 57.1758 67.6254C56.8909 67.8945 56.606 68.1636 56.4319 68.5435C56.7484 68.5909 56.8434 68.306 57.0492 68.1794C57.4132 67.9578 57.7298 67.9737 58.0463 68.2269C58.1571 68.306 58.2521 68.4168 58.3629 68.5118C58.6794 68.4326 58.8218 68.1478 58.9801 67.9262C59.9297 66.565 60.9427 65.2513 61.5916 63.716C61.7341 63.3837 61.924 63.083 62.1298 62.7823C62.2406 62.6082 62.4146 62.434 62.5887 62.3391C63.2377 61.9434 63.7916 62.0701 64.1398 62.7032C64.2664 62.9406 64.3139 63.1779 64.3614 63.4153C64.4247 63.7319 64.4247 64.0484 64.5988 64.3175C64.8679 64.2858 64.9628 64.0801 65.1052 63.9218C65.8649 63.0513 66.5931 62.165 67.3528 61.2945C67.8751 60.7089 68.4607 60.1549 69.0305 59.601C69.2046 59.4269 69.4261 59.2844 69.6635 59.1895C70.2175 58.9204 70.7398 59.0787 71.0563 59.601C71.1671 59.7909 71.2304 59.9808 71.3412 60.2024C71.6261 60.1075 71.8952 59.9967 72.1643 59.9333C72.4333 59.87 72.6391 59.965 72.829 60.1866C73.1772 60.6139 73.2721 61.0888 73.2247 61.6111C73.193 61.9593 73.1139 62.3233 73.0664 62.6715C73.0506 62.7823 73.2722 62.9563 73.3672 62.9247C73.9844 62.6398 74.6334 62.3866 75.1715 61.9751C75.6305 61.6269 76.0895 61.2945 76.5485 60.9463C76.7542 60.788 76.9441 60.6297 77.1182 60.4556C77.9096 59.6168 78.8117 58.8887 79.3815 57.86C79.5081 57.6384 79.7139 57.5592 79.9355 57.6542C80.1888 57.765 80.4578 57.8916 80.6952 58.0657C81.1859 58.4298 81.6606 58.8254 82.1355 59.2053C82.2462 59.3003 82.3571 59.3952 82.452 59.506C83.6391 60.8039 84.8261 62.1017 86.029 63.3996C86.124 63.5104 86.2348 63.6053 86.3139 63.7319C87.1527 65.0297 88.0233 66.3118 88.6247 67.7521C89.1154 68.9075 89.5902 70.0787 90.2233 71.1708C90.619 72.4844 91.2204 73.7189 91.3945 75.0959C91.5844 76.5204 91.8376 77.9448 92.0592 79.3693C92.4074 81.6484 92.7715 83.9276 93.0722 86.2067C93.2305 87.4254 93.2779 88.6441 93.4045 89.8628C93.5628 91.4139 93.4836 92.9491 93.4995 94.5002C93.4995 94.975 93.5153 95.4341 93.4995 95.9089C93.4995 96.5895 93.5154 97.27 93.3729 97.9506C93.3096 98.2355 93.3412 98.5204 93.3254 98.8053C93.3254 98.9794 93.3254 99.1693 93.3095 99.3434C93.2621 99.6916 93.0247 99.9449 92.6765 99.9765C92.2808 100.008 91.8851 100.024 91.4895 100.024C88.2132 100.024 84.9211 100.024 81.6448 100.04C80.9326 100.04 80.2046 100.008 79.4923 100.151C79.3182 100.182 79.1282 100.182 78.9541 100.182C77.1973 100.103 75.4247 100.151 73.6679 100.246C72.6549 100.309 71.8477 99.9449 71.088 99.3909C69.8535 98.4888 68.8563 97.3967 67.9858 96.1146C67.0045 94.6585 66.2923 93.1233 65.8175 91.4456C65.4535 90.1635 65.0895 88.8815 64.8679 87.5678C64.7254 86.7132 64.6463 85.8427 64.6621 84.988C64.6779 83.8801 64.6779 82.7564 64.9153 81.6484C64.9628 81.4427 64.9628 81.2211 64.9628 80.9996C64.9154 79.9075 65.1369 78.847 65.4218 77.8024C65.5326 77.3909 65.6593 76.9636 65.5801 76.5204C65.5643 76.4096 65.5326 76.2988 65.406 76.283C65.311 76.2671 65.1685 76.2672 65.1052 76.3146C64.5038 76.742 64.0607 77.3118 63.8075 78.0082C63.5859 78.6254 63.4276 79.2427 63.5068 79.9075C63.5384 80.1924 63.5859 80.4772 63.5068 80.7621C63.4434 80.9995 63.2851 81.1736 63.0794 81.1736C62.842 81.1895 62.6362 81.0945 62.5412 80.8888C62.4463 80.6988 62.3988 80.4772 62.383 80.2715C62.3038 79.306 62.2247 78.3247 62.1772 77.3592C62.1456 76.5995 62.1455 75.8398 62.1455 75.0959C62.1455 74.7002 62.1614 74.3045 62.2089 73.9089C62.3514 72.7218 62.5254 71.5506 62.6837 70.3794C62.7628 69.8096 62.8262 69.2398 62.6837 68.6542C62.6521 68.5117 62.4621 68.4168 62.3513 68.5118C61.7657 68.9708 61.3225 69.5089 61.3542 70.3161C61.3858 71.1866 61.2434 72.0413 61.1327 72.896C61.006 74.0039 60.9744 75.1276 60.9111 76.2355C60.8952 76.5995 60.8636 76.9477 60.642 77.2642C60.5154 77.4542 60.3096 77.5333 60.0722 77.4542C59.6606 77.3275 59.5499 77.2009 59.5341 76.7736C59.5024 75.5391 59.5974 74.3203 59.7082 73.1016C59.8031 72.0254 59.9298 70.9492 60.0247 69.8729C60.0564 69.4456 60.0406 69.0024 60.0406 68.5751C60.0406 68.4801 60.0247 68.3377 59.8822 68.3377C59.7873 68.3377 59.6765 68.3851 59.6132 68.4484C59.0592 69.0024 58.6477 69.6038 58.6952 70.4427C58.711 70.6168 58.6636 70.8067 58.6161 70.9808C58.2362 72.5319 58.0621 74.0988 58.0463 75.6815C58.0463 76.188 57.9988 76.6945 57.8405 77.1693C57.7772 77.3434 57.6665 77.4859 57.4607 77.5017C57.255 77.5175 57.0334 77.3592 56.9701 77.1534C56.9068 76.8685 56.8276 76.5837 56.8117 76.2988C56.7801 75.6815 56.7327 75.0643 56.7801 74.4629C56.8751 73.3233 56.8909 72.152 57.2549 71.0441C57.429 70.5218 57.4132 69.9837 57.3973 69.4455C57.3973 69.3822 57.3499 69.3031 57.3024 69.2715C57.1916 69.2081 57.0808 69.2873 57.0333 69.3664C56.8118 69.6988 56.5743 70.0153 56.4002 70.3635C56.0045 71.1707 55.7197 72.0096 55.6722 72.9434C55.6247 73.8456 55.4664 74.7319 55.324 75.6182C55.2448 76.1564 55.0707 76.6787 55.1499 77.2168C55.1657 77.2801 55.1341 77.3593 55.1024 77.4226C55.055 77.565 54.96 77.6758 54.8017 77.7075C54.6593 77.7391 54.4218 77.5967 54.3744 77.4384C54.311 77.1219 54.2319 76.8053 54.2003 76.4887C54.0895 75.2542 54.1686 74.0355 54.4218 72.8326C54.5326 72.3103 54.6434 71.7722 54.7542 71.2499C54.7859 71.1233 54.7384 70.965 54.7068 70.8225C54.7068 70.7908 54.5642 70.7434 54.5326 70.7592C54.4218 70.8384 54.2636 70.9175 54.2161 71.0283C53.6147 72.2628 53.1398 73.5132 52.9974 74.9218C52.8391 76.5046 52.8391 78.0873 52.8549 79.67C52.8866 81.4427 53.2665 83.1679 53.7888 84.8614C54.1211 85.9693 54.4693 87.0614 54.8175 88.1534C55.0232 88.7707 55.2607 89.3722 55.4981 89.9736C56.0521 91.3031 56.606 92.6326 57.1758 93.9463C57.524 94.7377 57.9196 95.4973 58.2995 96.2729C58.3945 96.4628 58.5369 96.6369 58.6002 96.8426C58.9326 97.8556 59.5182 98.7103 60.1197 99.565C60.1988 99.6758 60.2779 99.8024 60.357 99.929C60.452 100.103 60.4046 100.309 60.2463 100.388C59.9614 100.53 59.6607 100.689 59.3283 100.625C58.7902 100.53 58.252 100.61 57.7297 100.673C57.4765 100.705 57.2233 100.689 56.9701 100.689C56.796 100.689 56.606 100.657 56.4319 100.673C54.5643 100.974 52.6967 100.815 50.8132 100.847C48.5499 100.879 46.2708 100.863 43.9916 100.879C43.7067 100.879 43.4219 100.894 43.137 100.926C41.8075 101.084 40.478 101.084 39.1485 101.037C38.6737 101.021 38.1988 101.1 37.7398 101.037C37.3125 100.989 36.9168 100.894 36.4737 101.037C36.2204 101.132 35.888 101.1 35.619 101.053C34.8434 100.91 34.0521 100.989 33.2607 100.974C32.4693 100.958 31.678 100.926 30.8866 100.894C30.5226 100.879 30.1744 100.863 29.8104 100.831C29.5571 100.815 29.3197 100.736 29.0823 100.641C28.7499 100.499 28.5758 100.261 28.56 99.8974C28.4967 98.9952 28.3859 98.1089 28.3542 97.2067C28.3067 95.9405 28.2751 94.6902 28.3542 93.424C28.3859 92.9492 28.4334 92.4902 28.5125 92.0312C28.6233 91.3981 28.6549 90.7492 28.7499 90.1003C28.9398 88.8974 29.1614 87.6945 29.383 86.4916C29.3988 86.4283 29.4146 86.3491 29.4305 86.2858C29.4938 84.6081 30.0794 83.0412 30.4751 81.4427C30.57 81.0312 30.8391 80.6513 30.8074 80.1607C30.7283 80.0974 30.6333 79.9708 30.5067 79.9075C29.4621 79.4801 28.5758 78.7995 27.6578 78.1506C26.1226 77.0743 24.6348 75.9348 23.2895 74.6211C22.9729 74.3204 22.6564 74.0196 22.3873 73.7031C21.2794 72.4211 20.124 71.1865 19.206 69.7463C18.5096 68.6542 17.8449 67.5463 17.2909 66.375C16.8794 65.4887 16.4204 64.634 16.0564 63.7319C15.5974 62.5923 15.2017 61.437 14.996 60.2183C14.9485 59.965 14.8377 59.7434 14.6952 59.5377C14.5686 59.3319 14.7585 59.0154 14.996 58.9679C15.0593 58.9521 15.1384 58.9362 15.2017 58.9521C15.9614 59.0787 16.7053 58.9362 17.465 58.8729C18.7945 58.7621 20.124 58.6197 21.4218 58.3822C21.5326 58.3664 21.6276 58.3348 21.7384 58.3031C23.1629 57.8916 24.5873 57.5118 25.996 57.0844C26.3758 56.9737 26.724 56.7837 27.0722 56.5938C28.0219 56.0715 28.9873 55.5967 29.8895 54.9003C29.8737 54.2988 29.8737 53.6816 29.8104 53.0801C29.6679 51.4657 29.6837 49.8355 29.4622 48.2211C29.3989 47.7147 29.3038 47.224 29.2247 46.7334C29.0506 45.483 28.9398 44.2326 28.7499 42.9823C28.5758 41.8111 28.3859 40.6398 27.8794 39.5477C27.4046 38.5031 26.819 37.5218 26.17 36.5722C26.0276 36.3664 25.8535 36.1607 25.7585 35.9391C25.3787 35.1477 24.6981 34.6729 24.0176 34.1981C23.1945 33.6283 20.9154 33.1852 19.9658 33.3909C19.396 33.5017 18.8262 33.6283 18.2881 33.8182C16.9269 34.2931 15.6607 34.942 14.4895 35.7967C13.619 36.4456 12.7643 37.0945 12.1629 38.0125C11.9413 38.3449 11.688 38.6456 11.4664 38.978C10.5801 40.2916 9.69379 41.6053 8.80746 42.919C7.41466 44.9923 6.41757 47.2715 5.6262 49.6297C5.18304 50.9592 4.75566 52.3046 4.34415 53.6499C4.10674 54.4413 3.91682 55.2485 3.71106 56.0557C3.37869 57.3852 3.0305 58.6988 2.72978 60.0441C2.5715 60.7089 2.49238 61.3895 2.39742 62.07C2.31828 62.5607 2.27079 63.0672 2.19165 63.5737C1.84345 65.9319 1.62186 68.2902 1.59021 70.6801C1.59021 70.9333 1.62186 71.1866 1.63769 71.4398C1.65351 71.9463 1.63771 72.4528 1.51109 72.9434C1.46361 73.1492 1.4003 73.3708 1.16289 73.4657C0.893822 73.2442 0.814668 72.9275 0.79884 72.611C0.751358 71.9304 0.703882 71.2499 0.6564 70.5693C0.624745 69.9995 0.672224 69.4139 0.75136 68.8441C0.862151 68.0211 0.941313 67.198 0.925486 66.375C0.925486 65.5837 0.972947 64.7923 1.05208 64.0009C1.25784 61.7376 1.47941 59.4902 2.08085 57.2902C2.2233 56.7679 2.28661 56.2298 2.38157 55.7075C2.68229 54.1089 3.10963 52.5578 3.56862 51.0068C3.99596 49.5981 4.45497 48.1895 5.02476 46.8283C6.05353 44.3909 7.41467 42.1593 9.01323 40.0542C9.44057 39.4844 9.85209 38.883 10.2636 38.2974C10.7701 37.5852 11.324 36.9204 11.9729 36.3506C12.9226 35.5276 13.8722 34.7046 14.9168 33.9924C16.3571 33.0111 17.9557 32.3621 19.665 31.9981C20.4089 31.8398 21.1528 31.7607 21.8967 31.9981C22.2291 32.1089 22.5931 32.1722 22.9571 32.2197C24.3816 32.4413 25.4578 33.2485 26.3758 34.2931C27.4996 35.5751 28.4017 36.9995 29.0981 38.5506C29.1931 38.7405 29.3197 38.9305 29.4147 39.1204C29.6204 39.5478 29.7945 39.9751 29.8736 40.4499C29.9528 40.9089 30.0794 41.3679 30.1744 41.8269C30.206 42.001 30.2535 42.1751 30.2693 42.365C30.4276 44.1535 30.7125 45.942 31.0132 47.7146C31.0607 47.9679 31.1082 48.2053 31.124 48.4585C31.2031 49.7564 31.2823 51.0542 31.3456 52.3362C31.4089 53.6341 31.5197 54.9161 31.7413 56.1981C31.8363 56.7679 31.9154 57.3377 31.9787 57.9074C32.2952 60.1391 33.1974 62.1017 34.6218 63.8427C34.9859 64.2859 35.3183 64.7607 35.7931 65.1564C36.3312 64.3334 36.8377 63.5103 37.3758 62.7189C37.8981 61.9276 38.5945 61.2945 39.2434 60.614C39.924 59.9176 40.6837 59.3161 41.4909 58.7621C42.2506 58.2557 43.0895 57.8441 43.865 57.3535C43.7225 57.1161 43.5643 57.1636 43.4377 57.1636C42.8205 57.1636 42.2031 57.1477 41.6017 57.1794C40.3672 57.2427 39.2435 56.8945 38.183 56.3247C37.36 55.8815 36.5844 55.3751 35.9197 54.6787C34.6535 53.3175 33.8938 51.719 33.4665 49.9463C33.1341 48.506 33.229 47.0657 33.7355 45.6887C34.1154 44.6441 34.6851 43.6629 35.3657 42.7765C35.888 42.0959 36.4103 41.3996 36.9485 40.719C37.2175 40.3708 37.3916 39.9909 37.5341 39.5636C37.9931 38.1391 38.1672 36.6672 38.1513 35.1952C38.1355 33.7549 38.2779 32.3305 38.1988 30.8902C38.1355 29.7348 38.3888 28.5952 38.7528 27.4873C38.9585 26.8701 39.1642 26.2528 39.3858 25.6513C39.7182 24.765 40.1773 23.9578 40.7312 23.1981C41.6334 21.9636 42.678 20.8873 43.8967 19.9693C44.1183 19.7952 44.3873 19.6528 44.514 19.3521C44.1183 18.8456 43.7067 18.355 43.2477 17.896C42.393 17.0255 41.5701 16.1233 40.8262 15.1578C40.4305 14.6513 40.0189 14.1449 39.6074 13.6542C38.4362 12.2773 37.3758 10.837 36.6319 9.17509C36.5686 9.04847 36.5211 8.90604 36.4261 8.79525C36.3628 8.70028 36.2679 8.65282 36.1413 8.71613C36.1096 8.73196 36.0779 8.74778 36.0463 8.76361C35.2707 9.41253 34.4953 10.0615 33.7197 10.6945C33.3873 10.9636 33.0391 11.2485 32.6593 11.4384C31.583 11.9607 30.5226 12.4672 29.4147 12.8945C28.7183 13.1636 27.9585 13.2902 27.2147 13.4485C26.8823 13.5276 26.629 13.3219 26.6132 13.0053C26.5974 12.7521 26.5974 12.4988 26.6291 12.2456C26.6765 11.6442 26.4708 11.106 26.1226 10.6312C25.6636 10.014 24.9514 9.90314 24.3183 10.3621C23.8118 10.7262 23.4161 11.201 23.147 11.7549C22.7988 12.4988 22.5139 13.2744 22.4506 14.1133C22.4031 14.7622 22.2132 15.3794 22.2449 16.0441C22.2766 16.6139 22.3873 17.1046 22.7672 17.5319C22.9413 17.7218 23.0521 17.9434 23.2103 18.1492C23.4003 18.4024 23.4161 18.6873 23.3211 18.9722C23.3053 19.0039 23.3053 19.0514 23.2895 19.083C22.7988 20.0168 22.5139 21.014 22.1974 22.0111C22.0233 22.565 21.6593 23.024 21.2794 23.4672C21.1528 23.6096 20.9787 23.6571 20.7888 23.5938C20.6463 23.5463 20.5513 23.4355 20.5355 23.2772C20.5197 23.2139 20.5039 23.1348 20.5039 23.0557C20.5672 21.9161 20.2981 20.8398 20.0132 19.7636C19.5226 17.8485 19.4118 15.9334 19.6176 13.9708C19.7125 13.0686 19.9341 12.1981 20.219 11.3435C20.3931 10.7895 20.5355 10.2355 20.7096 9.69742C20.8996 9.1118 21.1053 8.54202 21.4377 8.01972C22.2291 6.81685 23.0521 5.6298 24.1442 4.66434C24.2233 4.60103 24.3024 4.50602 24.3658 4.42689C25.4578 3.19236 26.819 2.32187 28.2434 1.53051C29.1614 1.02403 30.1744 0.754948 31.1873 0.470056C31.2981 0.438401 31.4089 0.438436 31.5039 0.406781C33.1182 -0.131348 34.7643 -0.05225 36.4261 0.169333C37.17 0.264297 37.9298 0.375109 38.6737 0.438418C40.3355 0.580864 41.9341 0.976552 43.501 1.53051C43.6751 1.59382 43.8334 1.6571 43.9916 1.75207C44.688 2.19523 45.3686 2.67006 46.0809 3.0974C47.2363 3.80963 48.1226 4.80677 49.0247 5.78806C49.7528 6.59526 50.4808 7.38662 51.0664 8.3046C51.3355 8.73194 51.6204 9.14345 51.8736 9.58661C52.1585 10.0931 52.3801 10.6154 52.665 11.1219C53.0765 11.8974 53.2506 12.7521 53.3455 13.6068C53.5513 14.6355 53.6305 15.6485 53.4248 16.6298ZM54.0104 62.9088C53.583 62.7664 53.2822 62.6715 52.9657 62.5765C52.3484 62.3708 51.7787 62.0701 51.2406 61.706C50.7499 61.3737 50.5283 60.9147 50.5283 60.3291C50.5283 60.0125 50.655 59.7751 50.9399 59.6326C51.3988 59.3952 51.8895 59.3161 52.4118 59.3636C53.1398 59.4427 53.852 59.4269 54.5643 59.2686C54.9916 59.1737 55.4189 59.1261 55.8463 59.142C56.7959 59.1736 57.7139 58.9679 58.6319 58.8255C59.0118 58.7621 59.4074 58.6513 59.7714 58.493C61.465 57.7808 63.1427 57.0053 64.678 55.9924C66.1024 55.0427 67.2578 53.8082 68.3499 52.5103C68.6032 52.2096 68.8405 51.8772 69.0938 51.5924C70.0276 50.5319 70.819 49.3765 71.4995 48.1578C72.0377 47.2082 72.2909 46.1636 72.734 45.1823C73.1772 44.1851 73.3671 43.1247 73.6203 42.0801C74.0319 40.3866 74.206 38.6773 73.842 36.9521C73.747 36.4931 73.7153 36.0183 73.652 35.5593C73.6204 35.3377 73.6521 35.1319 73.7787 34.942C73.8578 34.8312 73.9844 34.7046 73.9844 34.578C74.0003 34.1981 74.2535 34.024 74.5384 33.8499C74.9815 33.5808 75.3139 33.1851 75.4247 32.6628C75.5355 32.1089 75.5988 31.5233 75.6304 30.9535C75.6779 29.8614 75.3456 28.8168 75.0448 27.7722C74.9657 27.4873 74.8074 27.2499 74.5384 27.0916C73.9053 26.696 73.0664 26.8068 72.5758 27.3607C72.3859 27.5823 72.2434 27.8355 72.0693 28.0571C71.9585 28.1996 71.8477 28.3578 71.7053 28.437C71.278 28.6427 70.8347 28.7535 70.3599 28.7377C69.4103 28.706 68.5081 28.4845 67.6851 28.0096C67.4319 27.8672 67.1628 27.7722 66.9096 27.6614C65.5484 27.0917 64.4405 26.2053 63.5383 25.0499C62.6837 23.9262 61.9082 22.7549 61.4175 21.4413C61.196 20.8715 60.9585 20.3017 60.7211 19.7478C60.642 19.5579 60.6261 19.3204 60.3887 19.2096C60.1038 19.2887 59.9298 19.542 59.7557 19.7478C58.6161 21.2039 57.3815 22.5492 56.1153 23.8787C54.7858 25.2557 53.3298 26.4902 51.7312 27.5348C50.3701 28.4053 48.9614 29.2125 47.5369 29.9881C46.0492 30.8111 44.4981 31.46 42.7729 31.6499C42.6305 31.6657 42.4881 31.6974 42.3456 31.7132C42.1715 31.7449 42.029 31.919 42.0607 32.1089C42.0765 32.283 42.1081 32.4729 42.1556 32.6312C42.4405 33.6283 42.7096 34.6413 43.0262 35.6384C43.2003 36.224 43.3902 36.8096 43.6592 37.3478C44.2923 38.6139 44.6405 39.9751 44.8621 41.3679C45.052 42.5074 45.1945 43.647 45.7168 44.6916C45.8592 44.9765 46.0175 45.2772 46.1283 45.5779C46.7139 47.1923 47.7111 48.5535 48.6607 49.9621C49.1197 50.6427 49.8002 51.07 50.5916 51.2758C50.9398 51.3708 51.3038 51.3549 51.6678 51.3866C52.3009 51.4499 52.7916 51.8931 52.9657 52.5103C53.1556 53.2226 53.1398 53.9506 53.0607 54.6629C52.9815 55.3909 52.6017 55.9449 51.8736 56.1823C51.5254 56.2931 51.2088 56.4355 50.8606 56.5463C49.6894 56.8945 48.5024 57.211 47.347 57.5909C46.2233 57.9549 45.1154 58.3823 44.1183 59.047C44.9096 60.3449 45.9859 61.3737 47.0463 62.3866C47.9326 63.2413 49.0089 63.8427 50.006 64.5391C50.1484 64.6341 50.3225 64.7132 50.4966 64.7449C50.8132 64.824 51.1298 64.8715 51.4463 64.9348C51.6363 64.9664 51.8104 64.9347 51.937 64.7923C52.4593 64.0801 53.1873 63.5578 54.0104 62.9088ZM15.9298 60.0916C15.9614 60.2816 15.9773 60.3923 16.0089 60.4873C16.5787 61.7693 17.0693 63.083 17.7183 64.3333C18.6996 66.1693 19.6967 67.9894 20.9628 69.6671C22.5931 71.8355 24.4291 73.7981 26.5816 75.46C28.5283 76.9478 30.5384 78.3247 32.7542 79.401C33.1816 79.6067 33.5931 79.8283 34.0204 79.9866C34.8276 80.2873 35.6506 80.5405 36.4578 80.8412C37.7082 81.3161 39.0377 81.506 40.3514 81.601C41.7125 81.7118 43.0894 81.6801 44.4506 81.6801C46.065 81.696 47.6794 81.5535 49.2938 81.3794C49.642 81.3477 49.9902 81.2369 50.3543 81.1578C50.7025 81.0787 51.0348 80.9995 51.3988 80.9203C51.3988 80.2556 51.3988 79.6542 51.3988 79.0369C51.4146 77.0901 51.3989 75.1434 51.842 73.2441C51.8737 73.1017 51.7312 72.9592 51.5887 73.0067C51.1614 73.1175 50.7499 73.2283 50.3067 73.1016C49.8161 72.975 49.3096 72.9909 48.8031 72.9751C48.3758 72.9593 47.9326 72.9751 47.5053 72.896C46.0333 72.5953 44.5456 72.342 43.0895 71.9463C40.8578 71.3448 38.8952 70.237 37.0434 68.9233C35.6506 67.942 34.4478 66.7549 33.4665 65.3463C32.7384 64.3175 32.1845 63.1779 31.6305 62.0542C30.8866 60.5664 30.4751 58.9521 30.301 57.2902C30.2852 57.0686 30.2377 56.8628 30.1744 56.6571C30.1111 56.388 29.9211 56.2772 29.6996 56.4038C29.4147 56.5463 29.1456 56.7204 28.8607 56.8787C27.9111 57.401 26.9614 57.9391 25.9168 58.2082C24.0334 58.683 22.1974 59.3002 20.2665 59.6326C19.9499 59.6801 19.6334 59.7592 19.3168 59.7909C18.2247 59.8859 17.1168 59.9808 15.9298 60.0916ZM72.0219 61.0571C71.2147 61.1837 71.1039 61.2629 70.8031 61.7852C70.3758 62.529 69.9484 63.2887 69.5053 64.0326C69.3628 64.2859 69.2046 64.5233 69.0305 64.7449C68.6981 65.1564 68.3341 65.5679 67.9701 65.9636C67.8276 66.1219 67.701 66.296 67.5427 66.4542C67.3211 66.6758 67.1154 66.6916 66.8621 66.5492C66.6247 66.4068 66.5614 66.1535 66.7197 65.9002C66.9729 65.4729 67.242 65.0456 67.5427 64.6341C67.8909 64.1276 68.2866 63.6528 68.619 63.1463C68.9988 62.5765 69.347 61.9909 69.6952 61.4053C69.8218 61.1837 69.901 60.9463 69.9959 60.7089C70.0276 60.614 70.0751 60.5031 69.9326 60.4556C69.8852 60.4398 69.7902 60.4715 69.7427 60.519C69.1888 61.0888 68.6189 61.6427 68.0966 62.2441C66.9571 63.542 65.7859 64.824 64.4722 65.9478C64.2506 66.1377 64.0765 66.3593 63.8549 66.565C63.6492 66.755 63.4118 66.9448 63.1902 67.1031C63.0636 67.1823 62.9053 67.1506 62.7787 67.0714C62.652 66.9923 62.5888 66.8657 62.6046 66.7074C62.6204 66.5966 62.6204 66.4858 62.6679 66.3909C63.0161 65.7736 63.0161 65.0772 63.206 64.4283C63.2852 64.1592 63.2535 63.8585 63.2535 63.5737C63.2535 63.4787 63.1902 63.352 63.1111 63.3204C63.0003 63.2571 62.9053 63.3679 62.8578 63.4629C62.7945 63.5895 62.7312 63.7319 62.6837 63.8585C62.3988 64.6816 62.0031 65.4412 61.4175 66.106C61.101 66.4858 60.816 66.8816 60.4678 67.3564C60.9427 67.578 60.9901 68.0527 61.1642 68.3534C61.37 68.4009 61.4334 68.3219 61.5125 68.2427C61.6391 68.1161 61.7499 67.9737 61.8923 67.8471C62.4938 67.3248 63.2693 67.4988 63.57 68.2111C63.7125 68.5434 63.8391 68.8758 63.8549 69.2556C63.8549 69.8254 63.9024 70.4111 63.8075 70.9808C63.6967 71.8039 63.5858 72.6269 63.5225 73.4499C63.4592 74.2413 63.4276 75.0326 63.396 75.824C63.396 75.9664 63.4276 76.1089 63.6176 76.1406C63.8233 75.9506 64.029 75.7606 64.2506 75.5865C64.4722 75.3966 64.7254 75.27 65.0261 75.2067C65.311 75.1592 65.596 75.1751 65.8809 75.2225C66.1657 75.27 66.324 75.5865 66.7038 75.5707C67.2419 75.0484 67.8592 74.542 68.3815 73.9564C69.3153 72.8959 70.2333 71.8513 70.9931 70.6484C71.5312 69.7938 71.9268 68.86 72.2434 67.9103C72.2909 67.7521 72.3225 67.5621 72.1643 67.388C71.8635 67.6096 71.6736 67.8945 71.4679 68.1952C71.1671 68.6067 70.8664 69.0024 70.5498 69.3981C70.439 69.5405 70.2967 69.6671 70.1384 69.7463C69.901 69.857 69.6478 69.8096 69.442 69.6355C69.2996 69.5088 69.2837 69.2873 69.442 69.0499C69.5053 68.9549 69.5528 68.8758 69.6161 68.7808C69.9801 68.2902 70.3441 67.7995 70.7082 67.3089C71.2146 66.6125 71.6578 65.8686 71.9743 65.0614C72.0218 64.9348 72.0693 64.8082 71.9111 64.6499C71.642 64.9823 71.3413 65.2988 71.1039 65.647C70.5657 66.4226 69.8851 67.0715 69.2837 67.7837C69.2204 67.8628 69.1413 67.942 69.0463 68.0053C68.888 68.1161 68.5082 68.0686 68.3499 67.9103C68.2075 67.7679 68.1917 67.5463 68.3658 67.3247C68.7614 66.8499 69.157 66.3909 69.5686 65.9319C70.4391 64.9664 71.183 63.906 71.8003 62.7664C72.101 62.1967 72.196 61.6427 72.0219 61.0571Z"
fill="black"
/>
<path
d="M34.2734 32.821C33.0705 32.8368 32.1209 32.3145 31.3137 31.4915C30.918 31.08 30.5698 30.621 30.2216 30.1779C29.8418 29.6872 29.6993 29.0857 29.4936 28.516C29.4461 28.3893 29.4619 28.2311 29.4777 28.0886C29.4777 28.0253 29.5252 27.9462 29.5885 27.9304C29.636 27.9145 29.7468 27.9146 29.7785 27.962C29.9684 28.2153 30.1583 28.4843 30.3483 28.7376C30.4907 28.9433 30.5857 29.1965 30.7756 29.3548C31.7094 30.1937 32.7065 30.9692 33.8936 31.4282C34.5425 31.6814 35.2072 31.7606 35.9036 31.7131C36.0777 31.6973 36.2518 31.6973 36.4259 31.7922C36.5367 31.8555 36.5843 32.0771 36.5051 32.1563C36.1886 32.4728 35.777 32.6153 35.3497 32.7102C34.9857 32.7577 34.6216 32.7735 34.2734 32.821Z"
fill="black"
/>
<path
d="M36.6469 26.4111C36.8368 26.2054 36.8526 25.9521 36.9159 25.7147C37.1058 25.05 37.2958 24.4011 37.4382 23.7363C37.5807 23.0874 37.8972 22.5334 38.1505 21.932C38.1821 21.8687 38.2296 21.7896 38.293 21.7737C38.3879 21.7421 38.4986 21.7262 38.5936 21.742C38.6411 21.742 38.7202 21.837 38.7202 21.9003C38.7361 22.1061 38.7519 22.3277 38.7044 22.5334C38.5145 23.5305 38.3245 24.5118 38.1029 25.4931C37.9763 26.0471 37.8023 26.601 37.5966 27.1392C37.4225 27.614 37.0584 27.8039 36.5677 27.7406C35.7605 27.6298 35.08 27.2341 34.4785 26.7118C34.431 26.6644 34.3994 26.5852 34.3519 26.5377C34.1462 26.2528 34.3044 25.873 34.6684 25.7938C34.89 25.7464 35.0958 25.778 35.2857 25.8888C35.539 26.0312 35.7605 26.2054 36.0138 26.3478C36.2195 26.4586 36.4253 26.4903 36.6469 26.4111Z"
fill="black"
/>
<path
d="M33.0545 19.953C32.2948 19.8423 31.4718 19.5732 30.9495 18.7185C30.6013 18.1646 30.2689 17.6106 30.2847 16.9301C30.2847 16.7876 30.3164 16.6451 30.3322 16.5027C30.3797 16.2653 30.7754 16.1545 30.9495 16.3444C31.0761 16.471 31.171 16.6293 31.266 16.7718C31.4559 17.0725 31.63 17.389 31.82 17.6898C32.2473 18.3545 32.8962 18.6078 33.656 18.5444C33.8617 18.5286 34.0675 18.4495 34.289 18.497C34.5106 18.5444 34.7164 18.7502 34.7638 19.0192C34.7955 19.2092 34.7006 19.4782 34.5106 19.5732C34.1308 19.8106 33.7034 20.0005 33.0545 19.953Z"
fill="black"
/>
<path
d="M60.436 39.5162C60.5943 39.4055 60.7842 39.4055 60.9425 39.4846C61.5914 39.8012 62.2086 40.181 62.5726 40.8457C62.7151 41.099 62.905 41.3205 63.0316 41.5738C63.4115 42.3968 64.0129 42.9824 64.8359 43.3464C64.9626 43.4097 65.0892 43.4731 65.2316 43.5364C65.3424 43.5839 65.4215 43.6472 65.4215 43.758C65.4374 43.9162 65.3267 44.027 65.2 44.1062C64.931 44.2644 64.6302 44.2328 64.3611 44.1378C63.5381 43.8529 62.7626 43.4731 62.1928 42.7925C62.0978 42.6817 62.0187 42.5709 61.7813 42.5551C61.3856 43.1723 60.7684 43.5997 60.1511 44.027C58.8058 44.9767 57.3497 45.4673 55.6878 45.1191C55.4662 45.0717 55.3237 45.1983 55.3395 45.404C55.3712 45.6889 55.387 45.9738 55.4503 46.2587C55.5928 46.9393 55.3871 47.5566 55.1022 48.1422C54.8806 48.6012 54.5323 48.9968 53.9467 48.9652C53.8201 48.9652 53.646 48.9019 53.5669 48.8227C53.4561 48.7119 53.5194 48.5537 53.5986 48.427C53.6777 48.3004 53.7568 48.1738 53.8518 48.0788C54.2633 47.6832 54.3266 47.2083 54.2 46.686C54.0576 46.0846 53.9151 45.499 53.7568 44.9134C53.5827 44.2645 53.6619 43.6314 53.7252 42.9824C53.7411 42.84 53.8201 42.7134 53.8835 42.5868C53.9784 42.3968 54.1842 42.286 54.3108 42.3335C54.4691 42.3968 54.5007 42.5551 54.5007 42.6817C54.5007 43.1249 54.6748 43.5206 54.8172 43.9321C54.9913 44.4069 55.0863 44.4702 55.6244 44.4385C57.3496 44.3277 58.9324 43.8371 60.3252 42.7608C60.7367 42.4443 61.0058 42.017 61.2115 41.558C61.3381 41.2731 61.259 40.9882 61.1166 40.7349C60.9741 40.4817 60.8 40.2443 60.6418 40.0069C60.5626 39.8328 60.4043 39.722 60.436 39.5162Z"
fill="black"
/>
<path
d="M56.3841 40.3548C55.7668 40.3548 55.2128 40.0857 54.6589 39.8166C54.374 39.6742 54.2316 39.4368 54.1682 39.1361C54.1049 38.8512 54.105 38.5663 54.2158 38.2814C54.3107 38.0123 54.4056 37.7274 54.5481 37.49C54.8172 37.0469 54.8014 36.6195 54.6747 36.1447C54.5639 35.7648 54.4848 35.385 54.4057 34.9893C54.374 34.8468 54.3582 34.7044 54.3899 34.562C54.4057 34.467 54.4689 34.372 54.5481 34.3087C54.6747 34.1979 54.8488 34.2454 54.9438 34.3404C55.4028 34.8469 55.8301 35.385 56.0517 36.0497C56.21 36.5404 56.1941 37.0469 55.9092 37.5059C55.7351 37.7749 55.5611 38.044 55.387 38.3289C55.1179 38.772 55.2287 39.0569 55.7668 39.1677C56.0042 39.2152 56.2574 39.231 56.5107 39.231C56.7797 39.231 57.0013 39.3418 57.2071 39.4843C57.4128 39.6267 57.397 39.9749 57.2071 40.149C56.9697 40.3548 56.6848 40.3706 56.3841 40.3548Z"
fill="black"
/>
<path
d="M59.8027 33.09C59.8819 32.172 60.3567 31.4439 61.1797 30.9533C62.3668 30.2569 63.5697 30.2885 64.8042 30.8583C64.8992 30.9058 64.9783 30.9849 65.0574 31.0641C65.184 31.2065 65.2315 31.3806 65.1841 31.5706C65.1208 31.7605 64.8992 31.9346 64.6934 31.9188C64.4085 31.8871 64.1236 31.8554 63.8387 31.7763C62.7308 31.4914 61.8603 31.9029 61.1323 32.6943C60.8949 32.9633 60.7049 33.2799 60.4991 33.5648C60.42 33.6756 60.3093 33.7863 60.151 33.7547C59.9452 33.7072 59.8977 33.5173 59.8503 33.359C59.8186 33.2957 59.8186 33.2166 59.8027 33.09Z"
fill="black"
/>
<path
d="M49.6891 37.4744C48.6761 37.3795 47.8532 37.7119 47.2834 38.5824C47.1884 38.7248 47.0459 38.8514 46.9193 38.9622C46.8402 39.0413 46.587 38.9464 46.5553 38.8514C46.3495 38.0917 46.492 37.4111 47.0935 36.8888C47.6791 36.3665 48.3597 36.0816 49.1669 36.1449C49.5942 36.1766 50.0373 36.1766 50.4172 36.414C50.5121 36.4773 50.6071 36.5248 50.6862 36.5881C50.8287 36.7147 50.9078 36.873 50.8761 37.063C50.8445 37.2687 50.6388 37.4745 50.4489 37.4903C50.1956 37.4745 49.9423 37.4744 49.6891 37.4744Z"
fill="black"
/>
<path
d="M61.7333 35.5277C61.1794 35.5435 60.657 35.2269 60.1664 34.8629C60.1505 34.8471 60.1348 34.7838 60.1506 34.7679C60.1823 34.7204 60.2455 34.6413 60.2772 34.6413C60.5304 34.6729 60.7837 34.673 61.0053 34.7521C61.4642 34.942 61.9074 34.8787 62.3505 34.7046C62.8728 34.4989 63.411 34.3089 63.9491 34.119C63.9808 34.1032 64.0282 34.119 64.0441 34.1506C64.0757 34.214 64.1074 34.2773 64.1074 34.3406C64.0916 34.4356 64.06 34.5621 63.9966 34.6413C63.8859 34.7837 63.7593 34.9262 63.6168 35.0053C63.0787 35.3061 62.4772 35.5277 61.7333 35.5277Z"
fill="black"
/>
<path
d="M52.6486 37.7118C52.6644 37.965 52.6011 38.2024 52.4745 38.424C51.9047 39.4844 51.0659 40.2125 49.863 40.4815C49.7997 40.4974 49.6889 40.4658 49.673 40.4183C49.6097 40.3075 49.7047 40.2442 49.7838 40.165C49.8155 40.1334 49.8471 40.1175 49.8788 40.1017C50.8126 39.6427 51.4932 38.9463 51.9522 38.0125C52.0471 37.8226 52.1897 37.6643 52.3321 37.5061C52.3638 37.4586 52.4745 37.4427 52.522 37.4586C52.5695 37.4744 52.6169 37.5535 52.6486 37.601C52.6486 37.6327 52.6486 37.6643 52.6486 37.7118Z"
fill="black"
/>
        </svg>