<?xml version="1.0" standalone="no"?>
<!DOCTYPE svg PUBLIC "-//W3C//DTD SVG 20010904//EN"
 "http://www.w3.org/TR/2001/REC-SVG-20010904/DTD/svg10.dtd">
<svg version="1.0" xmlns="http://www.w3.org/2000/svg"
 width="900.000000pt" height="761.000000pt" viewBox="0 0 900.000000 761.000000"
 preserveAspectRatio="xMidYMid meet">

<g transform="translate(0.000000,761.000000) scale(0.100000,-0.100000)"
fill="#000000" stroke="none">
<path d="M5770 7591 c-111 -18 -354 -173 -501 -320 -93 -92 -168 -241 -209
-415 -23 -92 -24 -110 -10 -101 6 4 10 -20 10 -63 0 -143 36 -399 75 -530 18
-60 39 -67 79 -27 14 14 29 25 35 25 5 0 11 -40 13 -89 1 -49 6 -93 10 -97 5
-4 25 10 45 30 l38 38 6 -39 c3 -21 3 -83 1 -138 -3 -73 0 -117 12 -164 9 -36
19 -67 22 -70 3 -4 24 14 46 39 52 60 151 200 145 206 -2 3 -45 -39 -95 -92
l-92 -96 1 119 1 119 50 37 c28 20 57 37 64 37 8 0 16 -18 20 -49 6 -48 8 -50
52 -65 25 -9 60 -16 78 -16 l32 0 12 -72 c17 -105 61 -278 70 -278 24 0 284
316 274 332 -12 19 -35 5 -65 -39 -37 -55 -147 -190 -176 -216 -19 -17 -20
-14 -56 125 -20 78 -34 144 -32 146 2 2 68 4 147 3 159 -1 221 10 316 58 128
65 241 188 317 345 57 118 79 185 111 342 32 156 29 244 -11 415 -33 139 -60
198 -130 288 -96 122 -240 217 -390 256 -68 18 -248 27 -315 16z m339 -76
c184 -44 347 -187 412 -362 69 -184 83 -301 54 -469 -30 -172 -132 -434 -208
-534 -113 -149 -244 -230 -404 -249 -34 -4 -66 -4 -71 1 -4 4 -59 8 -122 9
-101 0 -119 3 -147 22 -28 19 -45 51 -47 92 -1 6 -6 19 -12 29 -11 18 -13 19
-55 2 -23 -10 -55 -26 -71 -37 l-28 -20 0 26 c0 14 -7 39 -15 56 -15 28 -16
29 -45 14 -38 -19 -37 -20 -33 13 5 34 -18 124 -33 129 -6 2 -28 -8 -49 -22
-21 -15 -41 -23 -45 -18 -20 21 -74 312 -88 474 -10 103 -6 136 34 302 21 89
28 105 77 165 175 216 344 333 540 376 86 19 277 19 356 1z"/>
<path d="M6211 7277 c-78 -205 -162 -338 -308 -486 -45 -47 -81 -87 -79 -89 6
-5 135 104 179 152 99 106 179 248 212 375 16 64 14 95 -4 48z"/>
<path d="M2940 7574 c-14 -2 -68 -11 -120 -20 -56 -10 -103 -23 -115 -33 -11
-10 -35 -24 -53 -31 -91 -36 -229 -266 -283 -470 -30 -117 -30 -281 0 -400 26
-100 90 -238 152 -331 l45 -66 -47 -16 c-61 -22 -163 -91 -190 -128 -39 -56
-63 -138 -63 -224 0 -69 6 -94 41 -185 22 -58 43 -112 47 -121 6 -13 -3 -17
-52 -22 -86 -9 -168 -43 -212 -87 l-38 -38 -38 40 c-59 61 -149 125 -228 163
-262 126 -636 121 -844 -11 -91 -58 -158 -120 -193 -180 -29 -47 -71 -122 -75
-132 -1 -2 -17 6 -35 16 -51 30 -102 35 -146 17 -78 -33 -111 -83 -124 -188
-5 -39 -16 -81 -24 -94 -39 -58 -153 -113 -237 -113 -32 0 -40 -5 -53 -31 -9
-16 -15 -47 -13 -67 3 -34 7 -38 53 -55 59 -22 153 -19 203 7 18 9 32 12 32 7
0 -5 -4 -12 -8 -15 -8 -5 -22 -49 -51 -161 -9 -33 -22 -48 -71 -84 -79 -55
-144 -144 -171 -232 -11 -37 -18 -73 -14 -78 10 -16 73 -30 110 -24 48 8 153
80 192 132 18 23 33 36 33 27 0 -31 -41 -224 -64 -304 l-24 -82 30 -25 c16
-14 37 -25 47 -25 35 0 119 115 135 184 l7 29 36 -57 c45 -73 53 -125 24 -162
-26 -33 -26 -40 -1 -47 12 -3 18 -11 15 -19 -9 -22 48 -69 92 -75 33 -4 45 0
83 29 71 54 101 105 107 179 4 55 -1 82 -37 194 -43 136 -100 357 -100 387 0
30 38 21 55 -13 9 -17 51 -67 93 -111 75 -78 167 -142 244 -169 30 -10 35 -16
26 -26 -17 -20 -10 -174 11 -280 36 -173 116 -327 232 -444 118 -119 264 -182
454 -194 l80 -4 -73 14 c-144 28 -244 71 -350 150 -183 138 -322 441 -322 702
0 58 2 64 17 58 33 -14 277 -18 366 -6 225 30 413 117 553 256 47 46 74 85
113 165 l53 105 -5 -76 c-5 -92 -37 -158 -115 -236 -61 -62 -130 -99 -227
-125 l-70 -18 55 6 c72 7 195 56 256 103 99 74 144 182 129 311 -5 36 -9 112
-10 170 -2 155 -46 279 -152 428 -25 35 -43 65 -41 66 83 64 156 96 239 103
l65 6 61 -109 c73 -131 152 -242 253 -359 88 -102 104 -113 129 -91 38 34 62
20 136 -81 88 -121 300 -374 395 -473 40 -41 68 -68 63 -60 -19 31 -262 330
-385 474 -71 82 -128 153 -128 157 0 4 12 10 27 14 47 12 185 82 267 136 l79
52 25 -29 c24 -29 138 -201 222 -335 25 -40 75 -105 113 -144 37 -40 67 -81
67 -91 0 -36 -12 -64 -28 -64 -15 0 -156 -107 -254 -194 -52 -46 -58 -55 -58
-91 0 -53 -7 -61 -56 -68 -123 -20 -594 -194 -754 -279 -233 -124 -437 -297
-608 -517 -36 -47 -50 -57 -92 -68 -121 -31 -271 -114 -341 -189 -20 -22 -64
-86 -98 -144 -91 -156 -131 -296 -131 -468 l0 -83 -50 -50 c-69 -69 -88 -132
-65 -221 17 -66 55 -135 81 -145 12 -4 14 -16 8 -59 -10 -81 -2 -98 58 -128
37 -19 68 -26 109 -26 l56 0 -5 -70 c-6 -85 8 -111 73 -135 35 -14 63 -17 120
-12 l74 5 3 -36 c3 -31 9 -40 45 -60 23 -12 63 -25 90 -28 40 -5 58 -1 105 23
l57 29 13 -25 c23 -43 95 -81 154 -81 51 0 53 1 83 47 17 25 31 52 31 60 0 18
7 16 37 -6 30 -24 124 -45 167 -37 44 8 77 67 83 150 l5 61 59 -3 c111 -7 227
51 244 121 6 21 12 22 93 23 140 2 247 56 334 169 24 30 44 53 45 51 2 -1 -1
-27 -7 -56 -17 -90 -12 -230 10 -303 l20 -66 -49 -133 c-64 -175 -82 -258 -82
-383 0 -211 61 -356 228 -545 65 -73 73 -79 180 -124 148 -63 236 -86 363 -93
263 -15 549 112 667 294 67 104 123 327 123 486 l0 81 45 -93 c61 -124 154
-258 226 -325 64 -60 197 -132 213 -116 5 5 8 11 5 13 -2 2 -33 24 -69 49
-141 99 -252 233 -335 403 -67 136 -85 209 -124 495 -57 416 -68 522 -57 526
6 2 101 26 211 53 110 28 225 57 255 65 30 9 56 16 58 16 1 0 2 -7 2 -15 0 -8
21 -85 46 -172 46 -161 83 -243 109 -243 19 0 19 1 -7 82 l-22 68 46 87 c54
103 126 269 157 365 13 38 27 68 31 68 5 0 25 13 43 30 42 36 47 37 47 5 0
-18 7 -28 26 -35 68 -26 151 -1 209 64 26 29 41 35 103 46 40 6 75 10 77 8 6
-6 -12 -113 -30 -173 l-15 -53 -107 -58 c-59 -32 -115 -68 -126 -79 -31 -32
-96 -173 -108 -236 l-11 -57 -58 -22 c-127 -47 -249 -153 -302 -262 -34 -70
-47 -126 -48 -204 0 -57 -3 -65 -40 -110 -23 -27 -53 -74 -68 -104 -23 -48
-27 -67 -27 -145 0 -78 4 -98 27 -145 15 -31 43 -74 63 -97 24 -29 35 -51 35
-75 1 -22 11 -45 30 -68 17 -19 30 -46 30 -61 0 -36 68 -112 126 -139 40 -20
57 -22 143 -18 95 5 98 4 130 -23 32 -26 33 -28 17 -50 -28 -40 -21 -83 19
-118 49 -43 88 -61 146 -68 l49 -6 0 -43 c0 -39 4 -46 38 -68 114 -76 236 -75
339 3 33 26 67 41 107 49 74 15 115 39 139 80 27 45 40 108 27 131 -8 16 -4
21 20 31 68 28 99 107 69 172 -14 31 -85 66 -101 50 -9 -9 -3 -21 25 -50 56
-58 51 -78 -33 -131 -38 -24 -70 -50 -70 -58 0 -8 11 -24 25 -36 l25 -22 -20
-42 c-31 -61 -110 -92 -159 -61 -26 16 -51 3 -51 -27 0 -36 -31 -62 -96 -81
-66 -19 -132 -14 -190 13 l-39 18 4 68 3 67 -61 -6 c-103 -11 -196 40 -189
102 4 34 21 36 111 8 51 -15 68 -16 125 -6 76 13 197 70 197 92 0 18 -2 17
-80 -11 -81 -29 -186 -36 -256 -16 -51 15 -110 49 -172 99 -23 18 -30 20 -37
9 -11 -19 -127 -9 -195 16 -48 18 -51 21 -72 81 -11 35 -33 74 -47 87 -20 18
-26 34 -26 64 0 30 -7 48 -29 71 -38 42 -79 127 -91 188 -15 84 17 177 84 241
34 33 36 39 36 96 0 74 23 165 56 224 34 61 105 149 127 156 10 4 23 17 29 31
7 16 34 33 85 54 40 17 77 28 82 26 5 -3 21 1 37 9 16 7 59 19 95 24 37 6 83
18 104 27 50 20 129 20 161 -1 13 -9 32 -31 40 -49 13 -25 28 -37 68 -51 78
-28 119 -50 154 -86 30 -30 31 -36 26 -84 l-6 -51 42 -19 c63 -28 85 -49 133
-123 56 -86 67 -120 67 -201 0 -63 2 -69 44 -126 25 -32 56 -82 69 -109 22
-46 24 -57 16 -114 -5 -35 -16 -79 -25 -98 -24 -50 -78 -94 -117 -94 -60 0
-73 -9 -92 -63 -25 -71 -122 -168 -192 -193 -59 -21 -60 -34 -2 -34 28 0 53 9
82 29 53 37 127 115 156 164 16 26 30 37 46 37 12 0 25 7 29 15 3 8 12 15 19
15 18 0 90 77 113 121 9 19 32 90 51 159 43 160 60 338 45 465 -6 50 -10 91
-9 92 1 1 37 -7 80 -17 44 -11 140 -29 215 -40 76 -12 182 -33 237 -46 55 -13
123 -24 151 -24 76 0 172 33 222 76 l43 37 57 -13 c31 -6 116 -14 187 -17 225
-9 419 30 589 120 148 79 226 188 267 377 26 117 27 305 3 413 -9 40 -18 83
-21 97 -12 52 -119 245 -161 288 -52 53 -211 132 -379 187 l-112 38 45 51 c91
104 128 229 106 359 -12 65 -11 72 7 91 24 27 61 100 61 122 0 12 4 14 18 8 9
-5 50 -9 91 -9 69 0 75 2 96 29 13 16 26 42 29 57 3 16 11 29 18 29 25 0 115
48 152 80 35 31 37 36 30 74 -3 23 -15 63 -25 89 l-18 49 44 54 c52 63 59 85
53 160 -5 55 -35 104 -65 104 -16 0 -16 0 2 43 17 40 19 122 6 181 -16 65
-103 139 -202 169 -9 3 -24 29 -33 58 -35 106 -123 206 -227 260 -45 23 -108
24 -183 5 -55 -15 -56 -14 -113 15 -32 16 -87 35 -123 40 -65 11 -66 11 -133
-26 -37 -21 -75 -47 -85 -60 -16 -21 -19 -22 -57 -8 -91 33 -229 11 -279 -46
-17 -19 -29 -21 -120 -21 -73 0 -131 -7 -211 -26 -60 -14 -126 -29 -145 -34
-19 -4 -47 -11 -61 -14 -26 -7 -26 -6 -33 54 -4 34 -9 67 -12 73 -2 7 15 20
41 30 77 32 152 129 117 151 -5 3 -12 45 -16 93 -24 317 -160 664 -368 938
-54 71 -103 114 -116 100 -2 -2 14 -25 36 -52 112 -135 226 -351 305 -580 62
-179 94 -303 102 -397 3 -43 8 -91 11 -105 5 -25 -1 -30 -93 -78 -181 -95
-353 -141 -557 -150 -144 -7 -149 -20 -11 -30 l85 -6 0 -46 c0 -25 7 -77 16
-116 9 -38 17 -77 18 -86 0 -11 -48 -49 -139 -109 -223 -148 -424 -305 -592
-464 l-81 -76 -124 -34 c-160 -44 -342 -106 -497 -167 -156 -62 -162 -66 -139
-74 10 -4 87 21 189 60 146 57 526 195 535 195 2 0 1 -8 -3 -17 -5 -15 -3 -15
18 3 13 11 53 45 89 76 238 204 672 495 965 649 150 78 374 146 590 178 39 6
85 13 103 16 l32 6 0 -44 0 -45 -47 -7 c-56 -8 -143 -45 -190 -81 -61 -46 -95
-146 -68 -198 15 -28 15 -30 -20 -61 -36 -33 -65 -89 -65 -123 0 -14 -27 -32
-106 -71 -152 -74 -487 -276 -754 -454 -57 -39 -110 -70 -117 -70 -7 0 -13 -4
-13 -8 0 -11 -200 -149 -216 -149 -33 0 -157 193 -185 288 -15 50 -29 55 -29
10 1 -76 84 -220 161 -276 l39 -29 -52 -41 c-78 -60 -176 -115 -272 -152 -91
-35 -116 -34 -116 3 0 46 82 97 155 97 l46 0 28 63 c16 34 31 77 35 96 l6 34
-21 -19 c-12 -10 -35 -43 -51 -71 -17 -29 -36 -53 -43 -53 -15 0 -34 69 -42
156 l-6 64 52 54 c45 49 71 90 71 116 0 4 -27 -20 -60 -53 -50 -52 -60 -58
-60 -40 0 26 -4 28 -51 37 -36 6 -37 5 -67 -47 -17 -30 -60 -81 -96 -114 -57
-52 -66 -65 -66 -95 0 -23 -8 -42 -23 -56 -28 -26 -34 -27 -39 -6 -2 12 -21
16 -94 19 -90 3 -134 15 -134 37 0 6 -11 35 -25 64 -14 29 -29 64 -35 78 -5
14 -55 57 -122 105 -105 75 -116 80 -164 81 -132 1 -264 54 -361 145 -31 30
-62 55 -67 55 -19 0 129 -141 194 -185 63 -43 68 -44 165 -50 85 -6 108 -11
152 -37 89 -50 170 -114 175 -139 3 -13 9 -33 14 -44 6 -15 -3 -11 -35 15
-127 103 -196 151 -234 161 -38 10 -43 9 -59 -11 -11 -13 -18 -39 -18 -63 0
-49 49 -119 135 -193 50 -44 55 -51 55 -89 l0 -41 -162 16 -163 17 -68 52
c-77 58 -156 101 -196 106 -14 2 -28 4 -31 4 -2 1 12 18 32 39 33 34 36 43 42
116 5 62 3 84 -10 106 -14 23 -15 33 -5 60 17 50 13 79 -14 112 l-25 30 22 18
c18 14 23 30 25 81 5 81 -4 96 -48 80 -18 -6 -34 -10 -35 -8 -2 1 14 45 35 97
64 160 110 342 141 560 6 47 16 101 22 121 6 20 9 57 7 83 l-4 46 37 0 c26 0
38 4 38 14 0 8 5 16 10 18 13 4 30 110 30 185 0 47 3 56 36 85 20 18 59 63 86
100 l51 68 38 -35 c27 -24 44 -32 56 -28 20 8 123 83 167 122 l29 26 -7 -25
c-33 -126 -65 -326 -66 -425 -3 -122 65 -397 130 -529 89 -180 235 -321 405
-391 47 -20 45 -18 -58 59 -183 138 -331 347 -405 576 -34 104 -56 212 -44
219 6 3 10 26 10 51 -1 25 2 63 5 85 44 273 70 411 83 437 16 30 12 78 -6 78
-5 0 -15 -20 -21 -45 -10 -39 -20 -52 -78 -94 -36 -26 -81 -62 -100 -80 l-33
-31 -53 45 c-125 106 -216 270 -234 420 -15 124 -16 120 32 148 23 14 78 60
122 104 106 102 184 161 312 230 97 53 234 162 205 163 -23 0 -175 -81 -287
-154 -119 -78 -258 -191 -344 -279 -30 -31 -58 -54 -63 -51 -26 16 -24 -132 3
-251 23 -100 87 -225 151 -291 l30 -32 -44 -54 c-23 -29 -55 -69 -70 -88 l-27
-35 -1 75 c-3 392 -93 616 -302 756 -40 27 -74 49 -76 50 -2 1 2 11 9 22 15
23 -2 215 -26 297 -69 242 -147 393 -270 523 -170 181 -364 264 -641 276 -60
3 -120 3 -134 0z m325 -69 c172 -35 350 -163 461 -332 71 -108 162 -282 209
-401 31 -80 37 -106 38 -181 2 -97 -13 -145 -43 -136 -10 3 -29 1 -43 -4 l-25
-10 25 -61 c30 -75 25 -120 -18 -180 -54 -74 -105 -75 -165 -4 -52 61 -63 58
-57 -18 3 -50 0 -70 -15 -98 -17 -30 -25 -35 -56 -34 -47 2 -66 19 -66 61 0
30 -3 34 -22 31 -17 -2 -26 -14 -35 -49 -7 -25 -28 -63 -46 -84 -31 -36 -34
-37 -96 -36 -76 1 -159 23 -218 57 -42 24 -56 44 -30 44 12 0 42 38 35 45 -2
2 -23 -1 -48 -5 -61 -12 -164 -5 -226 14 -227 70 -424 407 -424 726 0 183 93
442 195 545 81 81 125 95 405 129 53 6 186 -4 265 -19z m780 -1101 c57 -46
144 -161 185 -243 61 -123 96 -364 85 -596 -4 -77 -8 -168 -9 -202 -1 -35 -5
-65 -9 -69 -3 -3 -30 2 -59 12 -43 15 -79 19 -188 17 -142 -2 -226 -7 -299
-19 l-43 -7 8 34 c11 52 9 518 -3 530 -8 8 -13 -10 -17 -58 -6 -80 -11 -301
-8 -425 l2 -88 43 0 c69 0 69 1 64 -166 -4 -126 -10 -171 -40 -294 -19 -80
-39 -162 -44 -184 l-8 -39 -59 89 -59 88 33 99 c40 125 110 368 110 385 0 8
-6 12 -12 9 -7 -2 -12 -11 -11 -19 2 -8 -15 -68 -38 -134 -22 -65 -51 -161
-65 -213 -13 -52 -26 -96 -28 -98 -2 -2 -36 40 -76 94 -40 54 -98 127 -128
163 -31 36 -62 72 -69 81 -12 15 -7 23 45 73 51 48 58 60 54 86 -2 16 -8 27
-13 25 -4 -3 -26 30 -49 74 -23 43 -69 120 -103 169 -89 131 -238 295 -253
279 -10 -9 17 -59 35 -64 10 -2 29 -19 42 -36 58 -79 299 -442 299 -452 0 -16
-85 -95 -165 -155 -82 -61 -200 -119 -304 -151 l-75 -22 -58 64 c-100 108
-274 315 -305 361 -92 134 -134 268 -134 429 -1 166 30 222 165 296 38 21 74
47 80 58 6 11 12 22 13 24 2 2 25 -16 51 -42 85 -79 195 -120 312 -116 64 2
66 2 109 -39 103 -98 227 -123 328 -68 28 16 63 41 78 56 l26 27 37 -18 c57
-30 95 -25 136 16 20 19 39 50 44 68 8 31 11 32 68 38 74 7 131 34 156 73 16
25 18 44 15 101 -3 39 -8 78 -12 88 -5 13 -2 17 13 17 11 0 25 7 32 15 18 22
27 19 75 -21z m-2422 -798 c151 -45 269 -116 368 -224 77 -82 118 -149 173
-282 54 -128 60 -173 39 -313 -15 -106 -52 -174 -135 -253 -164 -154 -308
-221 -524 -244 -49 -5 -120 -14 -157 -19 -84 -13 -170 -2 -263 36 -36 14 -63
27 -61 29 1 2 34 -2 72 -8 186 -28 489 77 665 231 31 28 25 26 -60 -18 -204
-105 -366 -145 -595 -145 -125 0 -156 3 -188 18 -43 21 -114 97 -164 174 -31
48 -83 168 -83 192 0 5 24 -1 53 -14 270 -119 563 -138 827 -55 79 25 213 80
207 85 -2 2 -36 -7 -76 -21 -162 -55 -262 -70 -461 -70 -202 0 -269 10 -457
67 -114 35 -105 22 -119 160 l-6 67 46 12 c25 6 46 16 46 21 0 5 -8 7 -17 5
-70 -19 -73 -19 -68 10 2 16 7 51 10 78 3 28 14 78 26 112 l20 62 52 11 c128
26 175 31 388 37 147 4 277 2 369 -6 78 -7 144 -10 147 -7 9 9 -182 64 -266
76 -170 25 -494 -10 -624 -68 -26 -12 -47 -17 -47 -12 0 19 92 128 137 161
157 117 273 151 493 145 120 -3 160 -8 233 -30z m2460 -342 l137 -6 0 -62 c0
-97 -60 -403 -129 -656 -50 -184 -55 -197 -83 -205 -58 -18 -304 -119 -314
-129 -7 -6 -22 -38 -34 -71 -12 -33 -28 -67 -36 -76 -8 -9 -19 -42 -25 -75
-12 -66 -34 -124 -46 -124 -33 1 -38 20 -41 166 l-4 147 31 24 c65 51 161 197
161 245 0 37 25 109 35 101 4 -4 5 0 2 9 -3 9 -2 32 4 50 5 18 26 110 46 203
31 143 37 195 40 323 l4 154 57 -6 c31 -3 119 -8 195 -12z m-3464 -5 c24 -9
30 -16 25 -28 -3 -9 -9 -37 -11 -62 l-5 -46 -30 14 c-40 20 -90 9 -133 -28
-27 -24 -37 -42 -46 -90 -6 -33 -16 -62 -20 -65 -5 -3 -9 -15 -9 -28 0 -29
-53 -79 -110 -105 -70 -32 -200 -27 -200 8 1 33 24 48 88 54 124 13 212 72
212 143 0 46 32 135 71 195 31 48 32 49 84 49 28 0 66 -5 84 -11z m7513 -188
c43 -27 52 -29 71 -18 12 6 63 17 112 22 89 11 91 10 148 -18 72 -34 142 -97
169 -152 14 -25 23 -67 26 -113 l5 -74 33 7 c54 10 101 -4 146 -44 38 -34 42
-43 49 -102 10 -80 -2 -133 -36 -170 -35 -35 -27 -56 22 -64 58 -10 60 -11 67
-45 14 -73 8 -95 -36 -137 -55 -50 -74 -89 -54 -109 8 -7 21 -44 30 -81 14
-62 14 -69 -2 -87 -41 -46 -131 -60 -167 -26 -20 18 -23 19 -35 5 -10 -12 -9
-20 5 -41 15 -23 16 -33 6 -65 -16 -53 -49 -73 -107 -66 -25 2 -55 13 -67 24
-33 29 -54 19 -60 -29 -6 -45 -47 -110 -89 -141 -33 -25 -105 -27 -158 -5 -33
14 -37 13 -79 -14 -42 -26 -52 -28 -151 -28 -95 0 -109 2 -125 20 -10 12 -34
30 -52 42 -24 14 -32 25 -28 36 3 9 -23 -12 -59 -46 -71 -68 -99 -76 -167 -48
-54 23 -70 47 -76 117 -6 60 -7 61 -22 42 -62 -76 -171 -46 -184 52 -8 52 4
90 36 115 26 22 27 21 -92 44 -92 17 -108 26 -127 72 -17 41 0 106 25 96 14
-5 14 -3 2 11 -12 15 -9 23 24 65 29 39 42 48 60 44 13 -2 31 1 41 6 16 9 7
16 -56 45 -102 46 -104 49 -97 154 l5 87 59 52 58 52 -27 22 c-32 25 -37 63
-12 100 61 91 151 149 246 158 48 4 58 8 53 20 -3 9 10 38 31 69 74 107 178
135 296 81 56 -26 58 -26 68 -8 5 10 10 27 10 37 0 23 54 60 105 71 52 11 96
1 157 -37z m-7546 2 c31 -26 34 -32 34 -84 0 -52 -2 -57 -25 -63 -43 -11 -107
-77 -135 -141 -31 -67 -60 -185 -60 -239 0 -20 -4 -36 -8 -36 -5 0 -32 -38
-60 -84 -73 -119 -145 -202 -181 -209 -44 -9 -91 10 -91 36 0 43 59 126 121
172 33 24 69 55 80 67 10 13 42 95 70 183 28 88 59 169 69 180 26 29 47 84 53
133 7 56 44 112 75 112 13 0 39 -12 58 -27z m6301 -97 l1 -74 -56 -23 c-71
-28 -223 -103 -274 -135 -20 -13 -39 -24 -42 -24 -2 0 -7 24 -10 53 -4 29 -15
85 -25 124 l-19 72 47 6 c144 17 206 28 277 49 44 13 84 24 89 25 6 1 11 -31
12 -73z m-6252 -142 c6 -51 5 -57 -17 -72 -94 -66 -127 -176 -97 -324 6 -29
33 -99 61 -156 l50 -102 -18 -95 c-10 -52 -21 -92 -25 -88 -16 16 -81 210
-116 343 -69 264 -41 410 100 517 23 18 45 33 48 33 4 0 10 -25 14 -56z m44
-150 c12 -33 11 -37 -9 -57 -21 -19 -22 -26 -17 -111 7 -107 19 -147 83 -281
42 -88 48 -110 52 -180 4 -86 -17 -166 -59 -219 -20 -26 -65 -35 -103 -20 -21
8 -20 22 5 80 62 139 55 307 -18 468 -43 95 -55 197 -31 256 15 36 64 100 77
100 4 0 13 -16 20 -36z m-254 -414 c4 -14 16 -45 27 -69 19 -43 19 -43 0 -65
-24 -25 -52 -80 -52 -99 0 -23 -40 -67 -60 -67 -32 0 -32 17 1 112 29 83 33
106 34 213 2 156 15 189 30 80 7 -44 15 -91 20 -105z m3216 112 c-25 -49 -81
-124 -132 -178 l-39 -40 10 -143 c12 -156 19 -186 47 -193 54 -14 85 28 102
141 8 51 19 82 35 102 14 16 30 45 36 65 11 32 22 41 95 75 88 41 255 99 286
99 28 0 27 -66 -1 -75 -15 -5 -20 -15 -20 -44 0 -23 8 -48 20 -64 25 -32 25
-47 0 -90 l-21 -35 26 -37 c29 -44 30 -48 10 -65 -12 -10 -14 -24 -9 -56 6
-42 5 -43 -37 -70 -53 -34 -177 -83 -233 -93 l-41 -7 1 -64 c0 -36 12 -166 27
-290 47 -405 68 -640 57 -655 -75 -108 -396 -493 -494 -593 -198 -202 -247
-234 -377 -248 l-56 -7 -6 88 c-5 75 -3 100 18 171 14 47 30 124 36 172 l12
87 147 145 c80 80 168 177 195 215 26 39 54 75 61 80 19 16 38 310 38 585 0
224 -3 299 -20 491 -6 62 -5 67 17 83 19 13 20 16 6 16 -13 0 -17 9 -18 38 0
20 -2 46 -4 57 -1 11 -6 55 -9 98 l-6 78 32 30 c18 16 36 29 40 29 3 0 46 33
95 74 48 41 89 73 91 71 2 -2 -6 -21 -17 -43z m3399 -86 c0 -28 9 -42 49 -79
l50 -44 -38 -37 c-36 -36 -38 -36 -52 -18 -8 11 -40 50 -72 88 l-57 68 52 28
c29 15 56 27 61 28 4 0 7 -15 7 -34z m-99 -73 c18 -27 51 -70 74 -98 27 -32
41 -57 38 -70 -2 -11 -6 -43 -9 -71 -6 -49 -5 -52 31 -89 40 -39 106 -74 141
-75 20 0 21 -3 12 -47 -8 -33 -7 -52 1 -65 6 -10 11 -24 11 -32 0 -8 -55 -53
-123 -99 -158 -109 -227 -164 -227 -181 0 -7 29 -52 65 -99 36 -48 65 -88 65
-91 0 -2 -14 -8 -32 -11 -17 -4 -104 -42 -192 -84 -89 -43 -198 -90 -244 -106
-46 -16 -130 -52 -188 -80 l-106 -51 -39 83 c-45 98 -94 182 -161 274 -26 37
-48 70 -48 73 0 4 -11 23 -24 44 -13 21 -27 61 -31 89 -6 48 -4 57 31 119 21
37 45 94 54 126 14 51 21 62 57 84 l42 24 -26 -46 c-14 -25 -32 -48 -39 -51
-11 -4 -14 -32 -14 -117 -1 -61 -5 -145 -10 -186 -10 -86 -3 -100 44 -100 28
0 36 7 65 54 18 30 37 70 43 90 7 20 15 35 19 34 4 -2 58 -65 120 -142 62 -76
139 -159 171 -184 62 -48 138 -95 138 -85 0 3 -37 46 -81 95 l-82 89 22 23 22
23 -35 139 c-19 77 -44 179 -55 227 l-19 89 58 66 c31 37 69 78 84 91 14 14
26 31 26 39 0 12 4 11 22 -4 36 -32 221 -257 286 -350 71 -99 81 -102 20 -5
-71 114 -189 261 -296 370 -81 82 -100 107 -91 118 22 26 160 106 267 154 59
26 108 48 109 49 1 0 16 -21 34 -47z m-3580 -202 l4 -94 -80 -32 c-319 -126
-578 -343 -747 -625 -28 -47 -52 -87 -54 -88 -1 -2 -35 12 -76 32 -113 55
-211 77 -362 79 l-128 2 128 124 c171 166 353 316 449 370 100 58 345 166 510
226 176 65 339 115 346 107 4 -4 9 -49 10 -101z m3125 -166 c-77 -90 -96 -118
-87 -129 6 -7 16 -49 21 -92 13 -105 27 -174 52 -262 19 -67 20 -74 5 -89 -14
-14 -23 -8 -99 72 -46 48 -96 105 -113 126 -38 50 -70 53 -80 7 -13 -61 -71
-148 -98 -148 -22 0 14 314 42 375 26 55 135 159 266 254 l110 79 39 -38 39
-39 -97 -116z m-3098 -1 c10 -35 10 -112 1 -352 -6 -169 -9 -392 -5 -497 l5
-190 -117 -121 c-64 -66 -151 -164 -192 -217 l-75 -96 -3 59 c-2 46 -7 63 -23
74 -17 11 -19 18 -10 34 6 12 11 49 11 84 0 51 -5 70 -25 101 -14 20 -30 37
-34 37 -5 0 -6 20 -4 44 9 75 -22 124 -110 174 -39 23 -104 54 -144 71 -39 16
-93 47 -121 68 l-49 39 46 55 c25 31 68 84 94 118 35 45 74 79 145 126 101 66
300 169 387 200 73 26 77 36 9 20 -144 -34 -259 -86 -376 -172 l-63 -46 42 49
c72 85 177 180 213 194 47 18 352 169 365 181 16 16 20 10 33 -37z m2063 24
c7 -13 9 -41 5 -74 -3 -29 -1 -88 5 -131 10 -71 9 -79 -7 -88 -10 -5 -37 -27
-61 -49 -39 -35 -43 -43 -43 -85 0 -53 13 -71 50 -71 51 0 181 54 267 110 l31
21 -26 -50 c-25 -47 -30 -50 -82 -60 -30 -6 -78 -24 -105 -40 -48 -27 -55 -37
-137 -192 -81 -154 -179 -365 -216 -468 -14 -39 -16 -75 -12 -236 3 -104 4
-192 3 -194 -2 -4 -283 -74 -340 -84 l-33 -6 0 197 c0 108 5 253 12 322 l12
125 74 113 c45 69 77 110 84 106 7 -5 9 -2 5 9 -4 10 9 42 33 81 22 36 61 108
87 161 26 52 53 95 59 95 13 0 29 41 39 101 5 24 22 53 51 83 35 38 44 54 45
84 0 33 5 41 46 67 44 29 73 71 102 148 13 32 36 35 52 5z m-851 -13 c7 -8 49
-41 94 -72 44 -31 140 -114 211 -183 72 -70 145 -135 163 -144 28 -14 31 -20
26 -44 -4 -15 -32 -67 -63 -117 -32 -49 -72 -115 -91 -145 -19 -30 -35 -57
-37 -59 -2 -2 -33 25 -70 60 -99 94 -118 105 -198 113 -191 19 -379 114 -420
213 -8 18 -35 60 -60 92 -25 33 -45 69 -45 81 0 22 0 22 30 3 16 -10 69 -46
117 -79 78 -54 97 -63 160 -73 39 -6 116 -11 171 -11 87 0 101 -3 117 -20 34
-38 46 7 30 120 -7 49 -10 54 -60 85 -76 49 -135 119 -135 161 0 29 3 34 24
34 13 0 29 -7 36 -15z m-546 -167 c7 -7 18 -35 25 -62 16 -63 45 -120 88 -173
19 -24 29 -43 23 -43 -33 0 -187 -174 -264 -299 l-45 -73 -5 33 c-3 19 -15
142 -25 274 -11 132 -24 254 -29 271 l-10 31 67 5 c36 3 86 14 111 26 25 11
46 21 48 21 2 1 9 -5 16 -11z m1923 -54 c-49 -88 -61 -123 -61 -179 0 -46 9
-67 88 -205 48 -85 124 -208 167 -273 74 -111 79 -120 62 -133 -18 -14 -115
-13 -229 2 -60 7 -116 -16 -176 -73 l-37 -36 -108 98 c-59 54 -152 134 -206
178 -68 56 -97 86 -93 96 3 9 20 59 39 111 l33 95 106 20 106 19 58 101 c33
55 58 104 56 109 -4 14 19 35 32 30 8 -3 53 19 102 49 49 30 90 53 92 52 1 -1
-12 -29 -31 -61z m1322 -38 c22 -12 50 -17 84 -14 44 3 52 0 57 -17 16 -62 73
-105 137 -105 34 -1 36 -2 18 -12 -11 -6 -26 -19 -32 -29 -16 -21 -194 -97
-362 -154 -69 -23 -133 -45 -141 -49 -10 -4 -21 4 -32 21 -9 16 -35 55 -57 88
-23 33 -41 62 -41 65 0 3 40 32 89 64 50 31 120 86 158 121 52 49 70 61 78 51
6 -7 25 -21 44 -30z m-2171 -19 c28 -22 6 -53 -45 -63 -26 -5 -34 0 -66 40
l-38 45 68 -6 c37 -3 74 -10 81 -16z m2767 -133 c65 -24 164 -15 247 22 57 27
66 29 98 17 48 -16 99 -16 134 2 l29 15 -6 -107 c-6 -126 -29 -201 -88 -294
-38 -58 -42 -61 -72 -56 -18 4 -81 16 -142 27 -142 27 -431 39 -513 20 -77
-16 -97 -27 -156 -81 -65 -60 -111 -137 -132 -221 -10 -41 -23 -69 -33 -73
-94 -37 -527 -191 -674 -241 l-188 -64 -24 23 c-31 28 -99 168 -124 255 -33
112 -34 122 -14 129 174 61 689 272 802 328 82 40 208 94 351 149 167 65 283
127 300 161 8 17 28 47 44 67 l28 38 44 -49 c28 -31 62 -56 89 -67z m-2785 26
c0 -5 -4 -10 -10 -10 -5 0 -10 5 -10 10 0 6 5 10 10 10 6 0 10 -4 10 -10z
m-860 -104 c84 -75 206 -128 344 -147 68 -9 89 -9 100 0 13 11 30 0 105 -70
50 -45 88 -85 87 -88 -76 -126 -139 -255 -146 -296 -5 -27 -11 -122 -14 -210
-13 -344 -17 -393 -35 -398 -16 -4 -16 -12 -4 -108 8 -57 16 -126 18 -154 2
-27 11 -95 19 -150 8 -54 13 -101 11 -103 -2 -2 -10 9 -18 25 -44 85 -173 186
-278 218 -30 9 -70 25 -90 36 -89 47 -254 65 -291 32 -10 -9 -18 -30 -18 -49
0 -33 -1 -33 -32 -26 -18 4 -73 7 -123 7 -185 -1 -347 -79 -425 -203 l-27 -44
-6 63 c-4 34 -7 126 -7 204 l0 142 87 104 c47 57 135 156 195 221 l108 116 53
-13 c28 -7 77 -16 107 -19 66 -6 190 3 190 15 0 5 -7 9 -14 9 -13 0 -12 9 4
53 55 156 172 396 280 573 39 64 69 118 67 121 -5 5 -134 -150 -190 -229 -25
-35 -48 -79 -52 -98 -4 -19 -18 -62 -31 -94 -13 -33 -24 -66 -24 -74 0 -8 -11
-38 -24 -66 -13 -28 -32 -79 -41 -114 -16 -57 -20 -63 -40 -58 -44 11 -161 26
-207 26 l-47 0 22 45 c12 24 28 44 35 45 16 0 15 60 -3 230 -8 74 -15 144 -15
156 0 26 306 404 327 404 3 0 22 -15 43 -34z m-2113 -136 c107 -18 201 -56
362 -148 86 -49 199 -113 252 -141 97 -52 119 -75 119 -126 0 -13 -4 -27 -10
-30 -17 -10 -11 -55 8 -62 42 -16 63 -49 63 -106 1 -30 -6 -67 -14 -83 -13
-25 -13 -33 -1 -54 7 -14 13 -21 14 -16 0 5 7 3 15 -4 18 -15 19 -75 4 -169
-26 -163 -41 -236 -59 -283 -14 -38 -17 -55 -9 -65 19 -22 7 -158 -17 -190
-27 -38 -92 -69 -158 -77 -47 -6 -59 -4 -85 15 -48 36 -61 22 -62 -68 0 -43
-6 -94 -13 -113 -13 -34 -14 -35 -62 -32 -27 2 -73 14 -102 27 -43 20 -53 30
-58 55 -5 23 -12 30 -30 30 -20 0 -22 -4 -17 -34 25 -155 -121 -218 -182 -79
-13 29 -27 73 -30 98 -8 51 -21 58 -31 18 -28 -118 -108 -160 -211 -113 -39
17 -43 22 -43 56 0 24 9 49 25 70 29 39 31 50 8 58 -12 5 -26 -4 -48 -28 -16
-19 -39 -39 -50 -44 -60 -28 -155 -21 -191 15 -24 24 -13 112 25 187 22 45 27
64 19 74 -9 10 -19 6 -49 -24 -30 -30 -47 -38 -86 -41 -26 -3 -67 0 -90 6
l-41 11 -4 58 c-2 31 -1 58 3 60 16 7 -7 54 -38 78 -48 37 -73 81 -73 132 0
37 8 53 73 136 l74 94 6 104 c9 142 28 237 72 344 75 190 252 344 455 398 65
17 180 20 267 6z m3538 -422 l104 -82 -20 -33 c-11 -18 -27 -47 -36 -65 -21
-43 -102 -140 -113 -133 -4 2 -15 -17 -24 -43 -52 -145 -177 -399 -205 -417
-12 -7 -80 207 -71 218 14 15 -2 47 -22 47 -11 0 -45 -7 -75 -16 -30 -9 -56
-14 -58 -12 -1 1 -4 91 -6 198 -3 187 -3 196 19 230 12 19 23 39 25 43 1 5 54
-43 117 -105 101 -100 245 -217 255 -206 2 2 -59 59 -135 127 -76 67 -156 142
-179 165 l-42 42 27 60 c15 32 52 103 82 156 l55 98 99 -95 c55 -52 147 -132
203 -177z m2240 232 c217 -11 315 -23 418 -50 143 -38 274 -111 388 -218 53
-50 73 -78 112 -159 25 -54 58 -140 73 -192 25 -88 26 -103 21 -240 -6 -187
-37 -314 -88 -368 -41 -42 -138 -112 -196 -142 -130 -65 -393 -107 -612 -96
-278 13 -468 96 -632 273 -126 136 -174 248 -174 402 1 106 16 163 72 271 30
58 33 72 28 115 -9 63 9 163 42 236 27 60 74 107 155 153 51 29 94 31 393 15z
m-1903 -246 c-67 -17 -142 -56 -189 -96 -39 -35 -36 -22 7 25 38 43 104 78
163 86 71 10 82 1 19 -15z m226 -199 c13 -27 37 -68 54 -90 17 -22 35 -45 40
-51 5 -7 -8 -32 -36 -66 -38 -47 -62 -64 -161 -113 -87 -43 -131 -60 -171 -63
-30 -2 -54 0 -54 4 0 13 139 98 170 104 34 7 67 92 81 206 10 78 9 87 -8 99
-62 46 -184 18 -235 -55 -35 -50 -88 -68 -138 -48 l-34 14 40 45 c22 24 54 62
70 84 36 50 43 55 75 55 40 0 111 28 139 55 19 18 38 25 80 27 l55 3 5 -80 c4
-51 14 -98 28 -130z m1007 -54 c-59 -88 -78 -171 -72 -309 5 -135 27 -213 84
-310 87 -147 242 -261 458 -338 l80 -29 -55 -8 c-30 -5 -145 -9 -255 -9 -282
-1 -506 37 -769 128 -55 19 -101 33 -103 31 -1 -2 10 -15 25 -30 16 -16 72
-43 137 -66 l110 -39 -3 -104 c-1 -56 -10 -177 -19 -266 l-16 -164 -28 59
c-14 32 -38 73 -53 92 -17 23 -26 48 -26 71 0 50 -25 142 -58 208 -29 60 -110
154 -165 192 -28 19 -32 27 -29 57 4 32 -1 40 -54 89 -31 30 -90 70 -129 91
-54 27 -77 46 -93 75 -20 34 -91 86 -278 205 -17 10 -14 12 21 12 87 2 246 63
321 123 67 54 65 55 35 -29 -16 -43 -34 -103 -41 -133 -7 -30 -23 -76 -36
-102 -28 -56 -29 -58 -9 -58 22 0 84 131 109 229 12 47 25 92 30 99 4 7 6 25
5 40 -5 67 19 71 196 28 61 -14 151 -31 200 -36 104 -11 292 -13 281 -3 -3 4
-136 23 -294 43 l-287 36 160 41 c88 23 170 45 183 49 20 6 22 3 22 -32 1 -22
8 -50 16 -64 14 -24 15 -21 10 41 l-5 66 172 56 c95 32 190 67 212 80 l40 23
3 -41 c2 -34 -4 -51 -33 -94z m-1292 -419 c40 -27 88 -58 107 -70 19 -12 31
-22 25 -22 -26 -1 -156 -32 -213 -51 -35 -12 -65 -19 -67 -17 -5 5 23 187 31
199 11 19 48 7 117 -39z m-1732 -216 c37 -8 89 -26 116 -39 57 -29 142 -103
162 -141 8 -14 18 -26 23 -26 12 0 -18 68 -48 107 -14 18 -20 33 -14 33 58 0
179 -120 235 -234 33 -66 51 -137 56 -226 0 -8 7 -37 14 -65 37 -137 49 -346
25 -460 -43 -215 -239 -402 -510 -486 -107 -34 -309 -34 -423 0 -171 49 -226
80 -334 188 -125 124 -156 180 -184 335 -29 157 -22 255 30 419 21 68 42 150
46 182 4 31 11 57 16 57 5 0 9 13 9 28 0 38 79 134 150 184 62 42 156 76 242
85 83 8 213 -14 248 -43 28 -24 60 -24 60 0 0 7 -13 25 -30 41 -16 16 -30 39
-30 52 0 20 5 23 38 23 20 0 67 -7 103 -14z"/>
<path d="M3550 4869 c0 -5 5 -7 10 -4 6 3 10 8 10 11 0 2 -4 4 -10 4 -5 0 -10
-5 -10 -11z"/>
<path d="M1155 5574 c-70 -11 -135 -26 -139 -32 -2 -4 38 -5 90 -4 182 7 433
-29 616 -88 108 -34 100 -18 -19 38 -130 62 -223 83 -383 87 -74 2 -148 1
-165 -1z"/>
<path d="M1015 5080 l-100 -19 75 4 c245 15 344 16 514 5 103 -6 190 -9 192
-7 12 12 -194 29 -376 32 -169 3 -222 0 -305 -15z"/>
<path d="M2854 3316 c101 -59 138 -87 208 -159 67 -68 137 -177 169 -260 33
-86 36 -59 4 38 -58 178 -180 311 -359 390 -93 41 -102 37 -22 -9z"/>
<path d="M4145 2440 c-10 -32 -11 -282 -1 -338 16 -86 26 -26 25 146 0 181 -8
242 -24 192z"/>
<path d="M6170 5373 c0 -121 41 -373 60 -373 10 0 3 189 -10 264 -19 111 -33
166 -42 166 -4 0 -8 -26 -8 -57z"/>
<path d="M4720 5013 c-38 -204 -60 -375 -60 -464 0 -150 57 -264 170 -339 51
-33 130 -74 130 -67 0 2 -25 21 -55 42 -60 41 -136 120 -163 169 -15 27 -17
68 -17 311 0 177 5 313 13 369 7 48 11 90 9 93 -3 2 -14 -49 -27 -114z"/>
<path d="M2655 4759 l117 -121 -7 -82 c-18 -215 -85 -407 -198 -574 -32 -45
-57 -86 -57 -89 0 -14 74 78 130 161 96 144 150 312 150 471 0 42 4 75 9 73 5
-1 42 -43 81 -91 79 -96 71 -94 133 -38 l28 25 97 -103 97 -104 56 -5 c31 -2
65 0 74 6 15 8 7 13 -39 27 -77 24 -160 75 -223 137 l-52 51 29 41 c42 57 37
65 -12 20 -54 -49 -118 -98 -122 -93 -15 21 -162 189 -249 287 -85 95 -115
122 -135 122 -21 0 -9 -16 93 -121z"/>
<path d="M1985 3911 c35 -40 166 -120 248 -152 44 -16 81 -28 83 -26 6 6 -105
71 -241 143 -79 41 -104 51 -90 35z"/>
</g>
</svg>
