<?xml version="1.0" standalone="no"?>
<!DOCTYPE svg PUBLIC "-//W3C//DTD SVG 20010904//EN"
 "http://www.w3.org/TR/2001/REC-SVG-20010904/DTD/svg10.dtd">
<svg version="1.0" xmlns="http://www.w3.org/2000/svg"
 width="920.000000pt" height="920.000000pt" viewBox="0 0 920.000000 920.000000"
 preserveAspectRatio="xMidYMid meet">

<g transform="translate(0.000000,920.000000) scale(0.100000,-0.100000)"
fill="#000000" stroke="none">
<path d="M4900 8660 c-8 -5 -39 -10 -68 -10 -29 0 -85 -7 -125 -15 -40 -8
-121 -19 -182 -24 -178 -16 -445 -60 -494 -82 -27 -11 -95 -26 -161 -34 -63
-7 -164 -25 -225 -39 -60 -13 -159 -30 -220 -36 -346 -33 -405 -45 -507 -96
-38 -19 -95 -59 -128 -89 -32 -29 -72 -61 -89 -70 -32 -16 -174 -197 -196
-250 -7 -16 -23 -43 -35 -58 -13 -16 -42 -63 -65 -105 -128 -234 -173 -299
-241 -348 -34 -24 -85 -73 -113 -109 -59 -74 -224 -239 -330 -330 -45 -38 -82
-80 -101 -115 -48 -86 -103 -174 -127 -204 -12 -15 -24 -39 -28 -55 -3 -15
-23 -49 -45 -75 -50 -60 -93 -137 -114 -203 -10 -28 -33 -72 -52 -98 -55 -71
-84 -167 -84 -274 0 -103 12 -125 55 -97 13 9 28 16 32 16 4 0 6 -46 2 -102
-5 -102 -37 -233 -75 -314 -15 -31 -20 -34 -63 -34 -55 0 -74 -11 -69 -36 2
-12 13 -20 31 -22 25 -3 26 -5 14 -23 -15 -21 -131 -94 -245 -154 -39 -20
-104 -66 -144 -101 -40 -36 -91 -73 -113 -84 -61 -29 -169 -157 -180 -213 -4
-18 -17 -50 -30 -72 -13 -22 -27 -58 -31 -80 -5 -27 -22 -55 -54 -90 -61 -65
-66 -75 -80 -173 -9 -62 -10 -90 -1 -108 6 -14 11 -38 11 -55 0 -45 23 -92 69
-137 40 -40 41 -42 41 -110 0 -68 1 -71 35 -99 20 -15 52 -42 73 -58 58 -48
157 -105 194 -111 89 -17 133 -85 79 -123 -46 -32 -109 -61 -135 -61 -52 0
-75 -17 -82 -59 -6 -39 -7 -40 -63 -52 -101 -22 -141 -51 -141 -103 0 -34 25
-66 51 -66 8 0 60 -43 115 -94 64 -59 116 -98 140 -106 22 -7 54 -26 72 -41
18 -16 37 -29 42 -29 6 0 5 -11 -2 -25 -6 -14 -19 -25 -27 -25 -22 0 -107 -87
-120 -123 -31 -82 -1 -212 57 -250 46 -29 118 -90 151 -129 l32 -36 -63 -64
c-35 -34 -95 -90 -133 -124 l-70 -61 -3 -148 c-4 -167 -2 -184 33 -221 14 -15
25 -35 25 -44 0 -64 153 -158 345 -212 154 -43 742 -66 839 -33 39 13 110 15
483 12 524 -4 496 1 675 -120 26 -18 61 -41 79 -52 32 -21 57 -65 178 -316 51
-107 69 -134 119 -180 32 -30 85 -69 119 -86 l61 -33 186 0 c173 0 187 1 206
20 11 11 20 27 20 36 0 13 5 11 19 -8 38 -47 49 -48 869 -48 l770 0 93 -30
c52 -17 143 -55 203 -85 86 -43 120 -55 156 -55 71 0 80 15 80 138 0 93 2 102
19 102 28 0 47 26 31 45 -7 8 -21 15 -31 15 -18 0 -19 9 -19 128 0 85 -5 145
-15 178 -19 62 -19 274 -1 364 29 137 56 222 104 327 27 59 57 133 67 163 74
230 240 343 605 411 42 7 123 39 230 90 91 44 174 79 185 79 26 0 160 64 202
96 38 29 118 149 187 279 27 50 51 93 55 98 17 18 107 -23 151 -68 53 -55 88
-75 130 -75 33 0 50 26 50 76 l0 24 233 0 c254 0 286 5 406 60 83 38 135 90
204 201 83 133 86 148 98 490 10 309 7 381 -27 513 -25 102 -105 338 -131 391
-37 71 -145 245 -222 354 -36 52 -69 100 -74 107 -4 7 6 53 23 103 91 270 115
512 90 911 -12 199 -23 249 -65 305 l-34 44 10 66 c6 37 9 113 7 170 l-3 104
-59 60 c-58 59 -59 60 -53 104 13 93 -45 307 -108 404 -19 28 -91 110 -160
181 -72 75 -125 137 -125 148 1 11 9 33 18 50 9 17 27 50 40 72 18 34 22 57
22 130 0 60 -4 93 -12 99 -13 9 -146 51 -317 98 -107 29 -219 91 -258 142 -32
42 -71 63 -117 63 -25 0 -51 11 -85 35 -65 47 -140 79 -235 100 -67 15 -110
17 -265 12 -244 -7 -330 -27 -401 -92 -25 -23 -26 -23 -120 -9 -180 27 -360
91 -492 175 -32 21 -74 35 -130 46 -46 8 -125 23 -176 34 -78 16 -135 19 -355
19 -152 0 -268 -4 -277 -10z m600 -60 c19 -6 86 -19 148 -30 96 -16 123 -25
180 -59 143 -86 285 -136 475 -167 105 -17 105 -17 96 -41 -5 -13 -9 -42 -9
-64 0 -23 -3 -39 -7 -37 -5 2 -38 18 -75 37 -55 27 -82 34 -151 38 -77 5 -86
4 -106 -16 -18 -18 -21 -33 -21 -101 0 -120 43 -453 66 -513 5 -14 0 -17 -31
-17 -32 0 -48 11 -141 97 -100 93 -104 99 -115 154 -6 31 -28 88 -48 125 -33
60 -56 85 -187 196 -195 167 -219 184 -291 202 -77 20 -166 21 -182 2 -11 -13
-18 -13 -53 0 -43 15 -116 19 -134 6 -20 -13 -34 -50 -34 -91 0 -27 -4 -41
-13 -41 -7 0 -66 -7 -130 -15 -65 -8 -204 -17 -310 -20 -106 -4 -296 -13 -423
-21 -128 -8 -319 -14 -425 -14 l-193 0 -38 37 c-34 33 -40 35 -62 25 -14 -6
-28 -22 -31 -35 -6 -23 -11 -25 -113 -31 -127 -9 -152 -21 -152 -71 0 -30 7
-40 58 -80 55 -43 94 -56 107 -35 3 6 11 10 16 10 24 0 -7 -21 -94 -63 -50
-24 -104 -55 -118 -69 -21 -19 -51 -29 -155 -47 -71 -13 -171 -36 -223 -52
-51 -16 -96 -29 -98 -29 -3 0 6 15 19 33 14 17 35 52 48 77 38 75 150 218 189
242 20 12 59 43 87 69 95 88 226 138 409 154 222 19 303 30 420 56 72 15 174
33 227 38 54 6 115 17 135 25 21 7 52 18 68 24 40 15 364 62 495 73 58 5 121
13 140 19 19 5 60 11 90 11 30 1 69 5 85 9 47 12 565 12 605 0z m1627 -174
c66 -18 158 -60 201 -92 74 -57 -12 -67 -343 -39 -99 9 -196 20 -215 26 -19 5
-55 12 -80 15 -59 6 -190 34 -190 40 0 12 97 46 153 53 108 14 416 12 474 -3z
m-2099 -71 c44 -14 52 -19 52 -40 0 -24 -2 -25 -70 -25 l-70 0 0 33 c0 53 7
56 88 32z m221 -1 c104 -23 118 -39 34 -39 -55 0 -74 4 -100 23 -18 13 -33 25
-33 28 0 8 30 4 99 -12z m1291 -50 c36 -8 94 -19 130 -24 36 -5 88 -13 115
-19 57 -12 264 -30 440 -38 119 -6 121 -5 152 21 l31 26 120 -127 c121 -130
252 -277 248 -280 0 -1 -33 7 -71 18 -58 16 -114 21 -325 26 -230 5 -258 8
-283 25 -124 87 -354 102 -410 26 -11 -15 -22 -49 -25 -79 -3 -38 -11 -58 -26
-71 -12 -9 -23 -17 -26 -18 -3 0 -19 39 -34 88 -37 113 -87 222 -114 246 -16
14 -22 31 -22 63 0 48 18 133 29 133 3 0 35 -7 71 -16z m-847 -293 c28 -42 60
-112 53 -118 -4 -5 -98 73 -236 195 -81 72 -106 101 -111 125 -3 18 -9 42 -13
55 -11 32 273 -206 307 -257z m1808 252 c13 -16 12 -17 -3 -4 -10 7 -18 15
-18 17 0 8 8 3 21 -13z m-2166 -14 c11 -17 2 -18 -19 -3 -17 12 -17 14 -4 14
9 0 20 -5 23 -11z m-59 -45 c57 -40 64 -49 64 -78 0 -26 -8 -41 -34 -64 -49
-43 -73 -48 -101 -22 -29 27 -63 151 -56 203 1 4 15 7 32 7 21 0 52 -15 95
-46z m-181 -21 c14 -115 60 -198 118 -214 52 -14 151 48 177 110 l12 31 92
-83 c50 -46 133 -116 184 -157 l93 -74 -3 -61 -3 -60 -145 0 c-164 1 -166 1
-310 98 -146 98 -248 215 -315 360 -19 42 -35 80 -35 86 0 9 31 15 101 19 25
2 27 -1 34 -55z m-175 -23 c12 -33 27 -63 31 -66 18 -11 9 -25 -9 -15 -10 5
-135 28 -278 51 -366 59 -361 57 -204 60 74 1 180 7 235 14 55 7 123 14 151
15 l52 1 22 -60z m1310 50 c19 -5 60 -24 90 -42 l55 -33 5 -270 c3 -149 4
-271 4 -273 -1 -2 -50 6 -108 17 -59 12 -109 21 -112 21 -11 0 -25 59 -43 188
-24 164 -43 380 -35 393 7 12 100 11 144 -1z m1445 -75 c39 -19 122 -48 185
-64 63 -16 140 -38 170 -49 l55 -19 -1 -69 c0 -60 -5 -76 -32 -118 -18 -28
-32 -56 -32 -63 0 -20 -9 -16 -37 17 -14 17 -46 42 -72 54 -25 13 -66 48 -91
77 -35 43 -199 228 -220 249 -3 3 -14 16 -25 30 l-20 24 25 -17 c14 -10 57
-33 95 -52z m-4545 -57 c0 -14 -15 -8 -50 22 -29 25 -32 31 -20 40 11 7 21 2
42 -23 15 -17 28 -35 28 -39z m70 58 c-25 -14 -40 -13 -40 5 0 5 15 9 33 9
l32 -1 -25 -13z m142 2 c-9 -9 -15 -9 -24 0 -9 9 -7 12 12 12 19 0 21 -3 12
-12z m906 -8 c117 -11 274 -31 350 -44 75 -14 173 -30 217 -37 44 -6 90 -17
101 -23 12 -6 49 -45 82 -88 63 -78 197 -202 289 -267 29 -20 53 -39 53 -42 0
-4 -21 -10 -47 -14 -26 -4 -82 -17 -125 -29 l-78 -23 -93 75 c-116 94 -195
146 -322 210 -160 80 -281 131 -363 152 -107 27 -474 79 -611 87 -107 6 -116
8 -145 34 l-31 28 256 1 c179 0 319 -6 467 -20z m-794 -25 c17 -13 15 -14 -20
-20 -22 -4 -48 -9 -59 -11 -16 -4 -13 1 10 20 34 30 43 31 69 11z m-204 -30
c0 -8 -7 -15 -15 -15 -8 0 -15 7 -15 15 0 8 7 15 15 15 8 0 15 -7 15 -15z
m3253 -161 c64 -174 64 -170 26 -264 -29 -75 -34 -81 -58 -78 l-26 3 -3 240
c-1 152 1 236 7 230 5 -6 30 -65 54 -131z m-2902 85 l44 -40 -51 5 c-28 2 -77
17 -110 32 l-59 28 45 6 c81 12 86 11 131 -31z m409 -5 c293 -41 343 -55 571
-161 151 -72 237 -124 349 -214 l98 -79 -29 -31 c-52 -56 -35 -159 29 -174 28
-6 28 -7 46 -138 10 -73 24 -163 32 -201 7 -38 12 -72 9 -74 -2 -3 -28 -10
-57 -17 l-53 -11 -65 44 c-36 25 -88 55 -117 68 -28 13 -88 51 -132 86 -44 35
-112 81 -152 103 -93 52 -256 222 -241 252 17 31 -5 60 -73 98 -75 42 -97 74
-105 153 l-5 53 -56 23 c-82 33 -121 63 -114 87 10 31 -13 50 -49 44 -17 -4
-44 -2 -59 4 -28 11 -165 111 -166 122 -1 7 112 -5 339 -37z m-644 -10 c22 -9
64 -27 94 -41 35 -17 84 -29 136 -34 126 -13 139 -20 238 -133 35 -41 45 -58
31 -54 -11 4 -105 36 -210 73 l-190 67 -140 6 c-115 4 -135 7 -113 16 39 17
66 44 78 82 13 38 22 40 76 18z m-141 -25 c-8 -13 -56 -31 -63 -24 -3 2 10 11
29 19 42 18 42 19 34 5z m3736 -26 l54 -17 -79 -8 c-68 -6 -148 -24 -201 -44
-11 -5 -15 0 -15 18 0 27 17 53 40 61 33 12 149 6 201 -10z m196 -125 c36 -38
63 -77 63 -92 0 -6 -204 -190 -246 -223 l-32 -24 -93 21 c-51 12 -94 22 -96
23 -2 3 -33 250 -33 270 0 10 22 23 63 36 89 28 90 29 217 30 l116 1 41 -42z
m541 16 l54 -19 3 -66 c2 -36 13 -107 25 -158 12 -51 20 -95 17 -97 -6 -6 -39
10 -168 83 l-97 54 -4 74 c-4 94 -26 128 -84 133 -21 2 -43 8 -49 14 -19 19
243 4 303 -18z m-408 0 c50 -15 53 -17 35 -30 -28 -21 -47 -17 -85 16 -41 34
-29 37 50 14z m-3775 -41 c154 -49 360 -125 363 -134 10 -25 107 -144 185
-225 l88 -92 -47 14 c-60 18 -98 18 -113 0 -22 -26 5 -52 171 -166 l162 -110
-152 0 c-83 0 -174 -5 -202 -11 -61 -13 -105 -47 -120 -94 -6 -19 -16 -35 -21
-35 -28 0 -398 134 -469 170 -80 40 -81 38 52 106 133 67 189 108 214 155 22
43 11 64 -54 100 -31 18 -82 49 -112 69 -30 21 -75 47 -99 59 -31 16 -40 26
-33 33 7 7 8 17 2 28 -7 13 -28 20 -77 25 -90 9 -121 23 -179 81 l-49 49 65 6
c36 3 128 4 205 2 114 -4 155 -9 220 -30z m-608 -18 c8 -23 3 -25 -52 -16 -28
4 -43 10 -35 14 55 21 79 21 87 2z m4961 -32 c11 -16 42 -68 69 -118 43 -77
51 -100 57 -162 3 -40 4 -73 1 -73 -3 0 -32 13 -64 30 l-59 29 -31 132 c-17
72 -31 149 -31 170 0 36 2 39 19 29 11 -5 28 -22 39 -37z m-3882 12 c26 -14
53 -25 59 -25 7 0 15 -16 17 -35 5 -40 3 -40 -45 -20 -32 13 -87 75 -87 97 0
12 5 10 56 -17z m2692 -96 c7 -62 11 -114 8 -116 -3 -3 -23 -2 -46 2 -33 6
-40 10 -35 23 4 10 9 49 12 87 5 65 23 115 41 115 4 0 14 -50 20 -111z m746
75 c9 -20 15 -38 13 -40 -2 -3 -68 37 -87 53 -7 6 23 23 41 23 8 0 23 -16 33
-36z m-1519 -53 l39 -41 -73 0 c-58 0 -71 3 -63 13 6 6 13 29 17 49 8 44 19
42 80 -21z m-3435 -9 c-36 -21 -66 -38 -68 -36 -2 1 7 18 20 38 21 32 27 36
68 36 l45 0 -65 -38z m423 23 c13 -5 17 -19 17 -54 1 -85 20 -194 42 -240 22
-45 140 -173 208 -224 l35 -26 -55 -49 -55 -49 0 -81 c0 -72 3 -83 25 -107 32
-35 140 -107 253 -170 118 -66 152 -95 143 -122 -4 -12 -39 -46 -79 -75 -86
-62 -195 -164 -248 -231 -38 -47 -39 -51 -39 -125 0 -87 21 -146 63 -179 14
-11 71 -42 126 -68 56 -27 101 -51 101 -55 0 -4 -19 -16 -42 -26 -23 -10 -70
-39 -102 -63 -33 -24 -88 -60 -121 -79 -125 -73 -235 -153 -250 -182 -10 -20
-15 -58 -15 -120 0 -90 1 -93 30 -120 39 -37 115 -65 231 -86 l92 -17 -6 -67
c-8 -98 -51 -198 -172 -400 -58 -98 -115 -204 -125 -236 -10 -33 -30 -90 -44
-129 -21 -59 -26 -87 -26 -177 l0 -107 -65 -128 c-67 -132 -77 -172 -50 -210
25 -35 77 -43 301 -43 175 0 214 3 224 15 19 23 4 45 -30 45 -16 0 -30 3 -29
8 0 4 46 61 103 127 64 75 185 196 326 324 252 228 370 331 379 331 4 0 8 -42
9 -92 4 -110 17 -138 64 -138 40 0 149 61 194 109 48 50 154 201 203 287 62
108 77 224 31 224 -10 0 -54 -26 -97 -58 -71 -53 -324 -212 -337 -212 -4 0 -6
18 -6 39 0 53 -18 57 -110 26 -64 -22 -91 -25 -210 -25 -151 0 -156 2 -179 69
-20 60 -34 262 -28 416 10 287 52 408 254 728 l25 40 32 -94 c58 -172 103
-226 217 -255 146 -38 337 2 609 126 138 64 183 93 243 160 25 27 47 50 50 50
9 0 141 -171 196 -253 54 -80 90 -157 130 -280 19 -57 21 -70 9 -84 -18 -22
-15 -141 6 -263 36 -208 57 -279 138 -463 44 -100 85 -194 91 -208 8 -20 5
-41 -16 -102 -15 -44 -27 -99 -27 -127 0 -28 -2 -50 -4 -50 -2 0 -17 7 -32 15
-16 8 -36 15 -45 15 -9 0 -28 15 -43 34 -21 28 -26 46 -26 88 0 80 -36 103
-86 53 -14 -14 -27 -25 -31 -25 -3 0 -27 18 -53 40 l-48 40 -4 108 c-3 85 -8
116 -26 148 -25 48 -36 54 -106 54 -42 0 -58 5 -86 29 -77 63 -116 76 -227 76
l-102 0 -36 -35 c-20 -19 -48 -54 -62 -78 -22 -37 -25 -51 -19 -96 l6 -54
-105 -97 c-86 -80 -105 -102 -105 -126 0 -35 26 -52 56 -36 12 7 48 43 80 81
l59 69 5 -45 c7 -59 34 -100 63 -96 21 3 22 9 25 103 l3 100 81 53 c45 28 91
52 103 52 36 0 128 -46 160 -80 17 -17 54 -50 84 -73 l53 -41 -4 -93 c-5 -86
-8 -97 -49 -168 -24 -42 -57 -93 -74 -113 -17 -21 -53 -68 -80 -107 -27 -38
-50 -72 -52 -74 -2 -3 -81 -6 -176 -8 -246 -4 -513 -40 -587 -78 -86 -44 -131
-157 -138 -343 -4 -120 -5 -124 -38 -173 -31 -47 -44 -80 -59 -152 -5 -26 -7
-27 -28 -12 -27 19 -61 19 -77 0 -18 -22 5 -115 52 -204 l40 -76 -6 -107 c-8
-134 2 -162 71 -206 66 -43 168 -59 318 -52 11 1 33 -2 48 -6 37 -9 62 14 76
72 32 125 181 443 277 591 123 189 259 351 297 353 4 0 1 -12 -7 -27 -20 -40
-56 -153 -56 -177 0 -12 -9 -39 -21 -60 -14 -27 -20 -52 -17 -80 3 -29 -3 -57
-21 -96 -30 -67 -221 -398 -266 -460 -18 -25 -42 -64 -54 -87 -15 -30 -25 -40
-39 -37 -20 6 -15 12 -213 -291 -132 -202 -194 -316 -223 -408 -13 -42 -27
-64 -54 -85 -40 -31 -122 -80 -162 -98 -14 -6 -32 -19 -40 -29 -13 -16 -11
-20 17 -45 18 -16 57 -37 88 -46 42 -14 55 -22 51 -34 -26 -78 -47 -167 -62
-257 -29 -188 -29 -171 0 -183 14 -5 26 -12 26 -14 0 -3 -20 -17 -43 -31 -41
-24 -52 -25 -183 -25 -182 0 -205 7 -249 73 -24 37 -36 68 -40 107 -4 30 -12
73 -20 95 -7 22 -16 58 -20 80 -17 100 -95 211 -184 263 -25 14 -64 39 -85 54
-21 15 -44 28 -49 28 -6 0 -47 21 -91 48 l-81 47 -335 -1 c-458 -1 -859 -17
-930 -38 -75 -21 -276 -22 -327 -1 -70 30 -192 55 -262 55 -67 0 -72 2 -116
40 -25 22 -63 44 -85 50 -65 17 -70 28 -70 143 1 93 3 107 30 162 17 33 30 65
30 72 0 7 36 48 80 91 43 43 84 91 90 106 15 40 12 129 -5 152 -18 24 -20 118
-2 132 7 6 57 13 112 17 123 8 149 18 141 57 -3 15 -2 28 3 28 4 0 20 11 35
25 19 18 26 34 26 63 0 21 5 43 10 48 6 6 8 18 4 28 -10 26 -251 194 -305 211
-33 11 -87 49 -175 123 -70 59 -132 115 -138 124 -8 13 -5 28 13 62 19 39 27
46 53 46 17 0 55 15 86 35 32 19 76 38 100 44 24 5 45 11 47 13 10 12 45 90
45 101 0 21 -26 40 -78 58 -39 13 -48 21 -53 47 -13 63 -44 82 -150 93 -45 4
-94 16 -119 29 l-43 22 7 119 7 119 -30 44 c-42 61 -107 114 -154 127 l-40 11
6 76 c6 93 19 123 60 147 18 10 86 71 152 135 66 63 149 140 185 169 174 143
383 359 424 438 9 18 25 37 36 43 23 12 25 8 8 -19 -25 -40 -7 -48 124 -54
123 -5 123 -5 248 -60 l125 -55 3 -50 c3 -55 23 -82 45 -63 13 10 27 6 27 -9
0 -4 -28 -20 -62 -36 -45 -20 -83 -29 -135 -32 -89 -5 -109 -21 -72 -58 23
-23 29 -24 70 -15 24 6 100 15 169 21 111 9 133 14 197 46 39 19 74 42 77 50
4 11 14 14 35 9 22 -5 35 -1 50 14 16 16 36 21 93 23 67 3 73 5 76 25 3 19 -6
27 -50 47 -29 13 -62 31 -73 40 -19 14 -16 15 45 16 82 0 109 20 74 54 -12 13
-39 16 -130 16 -108 0 -118 2 -170 30 -31 16 -72 32 -92 36 -21 3 -59 12 -86
20 -28 8 -94 14 -153 14 -58 0 -103 4 -103 9 0 6 17 11 38 13 29 2 37 7 37 23
0 16 -13 22 -73 36 -90 20 -98 27 -83 70 6 19 11 103 11 206 0 162 2 177 22
213 39 66 63 72 317 72 219 0 222 0 259 -24 33 -22 112 -135 112 -159 0 -5 4
-9 10 -9 5 0 20 -18 32 -40 16 -28 30 -40 46 -40 33 0 38 26 13 70 -19 34 -19
39 -6 50 27 23 1 99 -54 163 l-29 33 66 -4 c57 -3 71 -1 95 18 30 24 36 60 13
80 -10 8 -56 11 -148 9 -142 -3 -190 6 -243 46 -50 37 -112 65 -145 65 -41 0
-51 -27 -21 -52 23 -18 23 -18 -36 -18 -33 0 -73 -4 -89 -9 -16 -6 -55 -15
-86 -21 -42 -8 -80 -26 -139 -67 l-81 -55 4 123 4 124 51 105 c28 58 77 143
107 189 31 46 56 88 56 93 0 6 24 47 53 92 30 44 64 98 76 118 26 43 103 115
181 168 59 41 187 170 315 320 139 163 287 298 389 358 l91 53 115 -4 c63 -2
123 -8 133 -12z m4496 -41 c60 -39 69 -50 75 -82 14 -87 5 -117 -31 -94 -9 6
-123 208 -123 219 0 8 15 0 79 -43z m601 15 c0 -6 -4 -7 -10 -4 -5 3 -10 11
-10 16 0 6 5 7 10 4 6 -3 10 -11 10 -16z m-4907 -19 c134 -34 216 -75 477
-238 l24 -15 -41 -37 c-23 -20 -100 -66 -173 -104 l-131 -67 -53 40 c-80 62
-164 155 -187 207 -14 30 -23 77 -26 140 -7 110 -14 105 110 74z m4239 -96
c35 -67 58 -121 58 -141 0 -18 -1 -33 -3 -33 -7 0 -352 81 -354 84 -5 5 223
204 232 202 5 -1 35 -52 67 -112z m-3190 -18 c10 -18 8 -17 -19 2 -16 12 -36
29 -44 38 -12 15 -10 15 19 -2 19 -10 38 -28 44 -38z m1958 -39 c88 -83 146
-145 139 -151 -2 -2 -42 1 -89 5 -109 11 -337 69 -426 108 -65 30 -194 110
-194 121 0 3 109 4 242 2 l241 -3 87 -82z m-585 22 c114 -87 219 -134 403
-181 152 -39 162 -41 330 -42 l173 -1 -5 -29 c-3 -16 -6 -36 -6 -46 0 -15 -15
-18 -108 -23 -207 -12 -301 -63 -350 -191 -22 -57 -45 -213 -58 -396 -4 -52
-10 -102 -13 -111 -5 -14 -53 4 -301 116 l-295 133 -37 63 c-21 35 -38 69 -38
75 0 6 24 18 54 27 72 23 142 85 157 140 15 56 5 175 -18 221 -10 20 -67 85
-127 146 -60 60 -108 112 -105 114 11 10 179 45 219 45 41 1 54 -5 125 -60z
m625 40 c17 -31 7 -33 -20 -4 -19 20 -20 25 -7 25 9 0 21 -9 27 -21z m179 -4
c41 -9 76 -17 78 -19 2 -2 6 -28 10 -57 3 -30 13 -66 21 -81 21 -36 10 -46
-57 -49 l-53 -3 -59 104 c-65 116 -70 133 -36 125 12 -3 55 -12 96 -20z m1792
-57 c54 -107 179 -401 173 -407 -5 -6 -63 61 -136 157 -44 59 -56 81 -52 101
3 14 -2 60 -11 101 -36 160 -33 166 26 48z m-418 -14 l144 -75 48 -111 c27
-60 70 -140 96 -177 84 -121 216 -222 305 -236 24 -3 44 -9 45 -13 1 -4 4 -67
8 -140 l6 -132 -51 0 c-28 0 -86 -9 -130 -20 -60 -16 -97 -19 -154 -15 -117 9
-160 16 -160 25 0 4 23 25 51 46 61 47 86 86 98 150 19 102 -31 246 -111 321
-41 37 -214 146 -305 192 l-43 21 0 120 c0 66 2 120 5 120 3 0 69 -34 148 -76z
m-1211 20 c-7 -36 -22 -39 -22 -5 0 22 4 31 13 28 6 -2 10 -13 9 -23z m182
-19 c39 -6 46 -11 46 -30 0 -13 3 -30 6 -39 7 -17 -1 -20 -128 -40 -68 -10
-88 -10 -88 -1 0 6 11 17 25 23 14 6 35 32 47 57 12 25 27 44 34 41 6 -2 32
-8 58 -11z m1651 -150 c36 -60 85 -216 92 -293 l6 -67 -27 24 c-14 14 -26 31
-26 38 0 32 -87 255 -156 396 -13 28 -24 53 -24 56 1 12 111 -115 135 -154z
m-3255 105 c0 -22 -4 -40 -10 -40 -5 0 -10 18 -10 40 0 22 5 40 10 40 6 0 10
-18 10 -40z m-904 15 c16 -8 36 -15 44 -15 9 0 49 -34 90 -75 41 -41 71 -75
67 -75 -15 0 -182 118 -211 149 -33 35 -31 38 10 16z m974 -32 c0 -32 -5 -28
-14 10 -4 19 -3 26 4 22 5 -3 10 -18 10 -32z m1729 17 c9 -5 1 -10 -23 -14
-21 -4 -44 -10 -52 -13 -10 -4 -14 3 -14 21 0 26 2 27 38 20 20 -4 43 -10 51
-14z m-1507 -193 c12 -22 17 -56 18 -109 0 -72 -2 -80 -31 -112 -26 -30 -116
-76 -148 -76 -13 0 -74 374 -64 393 2 4 13 7 23 7 21 0 40 28 40 59 0 15 18 1
73 -55 39 -42 80 -90 89 -107z m1853 117 c104 -25 195 -50 201 -57 6 -6 19
-32 28 -56 16 -41 16 -45 -1 -79 -10 -20 -30 -44 -44 -54 -25 -19 -27 -19
-125 6 -121 30 -289 63 -367 71 -58 7 -59 7 -79 51 -11 25 -22 60 -25 78 -5
31 -3 34 28 40 19 3 57 17 84 30 58 28 40 30 300 -30z m280 47 c3 -5 1 -12 -4
-15 -5 -3 -11 1 -15 9 -6 16 9 21 19 6z m496 -76 c42 -19 62 -37 94 -84 52
-77 180 -226 217 -252 15 -11 28 -30 28 -41 0 -56 -150 28 -249 139 -28 31
-69 91 -90 133 -41 78 -63 130 -57 130 2 0 28 -11 57 -25z m-1232 -61 c12 -37
20 -68 19 -69 -2 -1 -69 -5 -150 -8 l-148 -6 0 42 c0 23 5 49 10 57 6 9 46 21
107 31 149 25 137 29 162 -47z m-2522 -8 c96 -29 100 -31 225 -113 131 -87
135 -93 56 -86 -60 6 -70 11 -222 114 -88 60 -156 109 -150 109 5 0 46 -11 91
-24z m3410 -62 c120 -69 201 -124 230 -155 33 -36 73 -131 80 -188 9 -76 -16
-131 -79 -178 -47 -34 -52 -36 -62 -19 -6 10 -56 82 -110 159 -106 151 -139
217 -161 325 -17 79 -19 112 -5 112 5 0 53 -25 107 -56z m-1387 -76 c-136 -61
-173 -81 -210 -114 l-43 -39 18 35 c23 46 44 69 77 86 35 18 126 43 158 43
l25 0 -25 -11z m565 2 c7 -12 -12 -12 -40 0 -18 8 -17 9 7 9 15 1 30 -3 33 -9z
m180 -6 c82 -14 232 -47 279 -61 46 -13 -129 -83 -211 -83 -38 0 -53 6 -94 41
-42 35 -89 94 -89 113 0 9 15 8 115 -10z m-333 -23 c137 -34 187 -58 253 -121
28 -26 55 -49 61 -51 5 -2 22 -20 37 -41 29 -38 78 -210 92 -320 l7 -56 -38
-11 c-51 -14 -48 -15 -118 13 -50 20 -84 26 -181 29 l-119 4 -33 39 c-37 44
-72 113 -115 229 -24 64 -31 102 -37 193 -3 63 -4 116 -2 118 12 11 90 1 193
-25z m-252 -54 c0 -40 5 -100 11 -133 15 -83 84 -254 129 -322 l39 -57 -58
-26 c-71 -32 -118 -73 -177 -154 l-47 -63 -101 43 c-55 23 -128 55 -161 71
l-60 29 -8 60 c-4 33 -7 121 -5 195 3 126 5 138 30 180 45 76 93 124 154 155
54 26 229 93 247 95 4 0 7 -33 7 -73z m1070 43 c0 -31 -6 -36 -28 -21 -12 7
-12 12 -1 30 19 29 29 26 29 -9z m-4173 -10 c53 -33 322 -137 448 -174 l80
-24 -3 -203 c-2 -112 1 -312 7 -443 l11 -240 -59 -90 c-147 -227 -205 -354
-243 -528 -19 -88 -22 -133 -22 -308 1 -260 19 -374 70 -429 l33 -36 163 1
c127 0 173 4 207 17 58 22 61 22 61 -12 0 -24 -12 -38 -65 -80 -62 -49 -432
-379 -544 -485 -54 -51 -229 -253 -266 -307 l-20 -29 -157 0 c-86 0 -163 3
-172 6 -28 11 -17 54 41 163 l57 106 7 130 c6 111 11 142 37 210 17 44 38 101
46 126 9 25 53 106 97 180 145 240 183 329 194 454 9 99 -1 109 -131 134 -114
22 -200 55 -214 82 -14 25 -12 123 2 155 12 27 131 111 243 173 33 19 78 48
100 66 22 17 75 51 117 74 78 43 100 70 78 96 -6 8 -64 39 -128 70 -64 31
-127 66 -139 77 -27 26 -48 113 -39 163 9 48 136 181 257 270 164 120 156 179
-38 286 -108 59 -213 126 -245 157 -24 22 -28 33 -28 83 0 56 1 58 48 98 26
23 50 41 54 41 4 0 28 -13 55 -30z m1018 -59 l110 -8 105 -64 105 -64 -55 -3
c-74 -5 -545 27 -647 44 -39 6 -42 23 -10 59 35 41 159 52 392 36z m3122 -13
c23 -11 29 -22 36 -68 10 -66 3 -238 -13 -302 l-12 -46 -116 -26 c-65 -15
-129 -31 -144 -36 -26 -8 -28 -7 -33 28 -24 148 -52 254 -89 343 -6 13 4 18
54 28 34 7 98 32 143 56 86 46 117 50 174 23z m-2762 -61 c37 -37 42 -46 20
-32 -16 10 -56 34 -87 53 -32 19 -58 36 -58 39 0 2 17 1 38 -3 26 -4 51 -20
87 -57z m170 -49 c5 -4 1 -8 -11 -8 -11 0 -33 14 -50 32 l-29 31 40 -23 c22
-13 44 -27 50 -32z m2768 -113 c36 -71 68 -145 72 -162 l7 -33 -92 0 c-91 0
-92 0 -85 23 4 12 9 89 12 170 3 82 9 145 13 140 4 -4 37 -66 73 -138z m897
-127 c0 -127 -6 -152 -31 -122 -7 8 -29 24 -50 34 l-36 19 -8 142 c-9 174 -4
182 73 106 l52 -51 0 -128z m-3351 182 c12 -22 21 -43 21 -45 0 -5 -61 23
-100 45 l-25 14 40 12 c22 7 41 13 41 13 1 1 11 -17 23 -39z m-1025 10 c126
-11 315 -23 420 -26 l191 -7 85 -50 c47 -28 112 -73 145 -101 71 -59 301 -211
350 -232 19 -7 40 -11 47 -9 24 9 81 -38 105 -86 42 -85 64 -246 44 -319 -4
-13 -22 -33 -41 -45 -33 -19 -49 -20 -239 -18 -112 2 -206 5 -209 8 -3 2 3 40
12 83 20 91 24 298 7 358 -32 115 -90 122 -450 49 -96 -19 -187 -35 -202 -35
-15 0 -30 -4 -34 -9 -3 -5 -20 -13 -38 -16 -79 -18 -194 -99 -356 -251 l-78
-73 -6 142 c-12 257 -9 657 6 657 6 0 115 -9 241 -20z m944 -119 c125 -91 197
-151 178 -151 -4 0 -71 39 -149 86 -156 95 -237 160 -209 167 27 7 36 2 180
-102z m353 -115 c52 -24 171 -78 264 -120 l170 -76 1 -88 c1 -54 8 -102 18
-126 l16 -38 -28 19 c-98 66 -266 175 -315 204 -46 27 -74 56 -136 139 -81
110 -95 130 -88 130 2 0 47 -20 98 -44z m2909 -176 l0 -100 -59 58 c-32 31
-77 68 -99 82 -23 14 -42 28 -42 32 0 11 74 26 138 27 l62 1 0 -100z m-916 68
c-3 -13 -8 -25 -10 -27 -2 -2 -50 -6 -106 -9 -57 -2 -100 -1 -97 2 6 7 180 53
207 55 9 1 11 -6 6 -21z m117 1 c-59 -21 -65 -20 -55 5 5 12 19 16 58 15 l51
0 -54 -20z m268 -1 c8 -21 -1 -37 -20 -38 -9 0 -18 48 -11 55 11 11 23 4 31
-17z m91 2 c-19 -13 -30 -13 -30 0 0 6 10 10 23 10 18 0 19 -2 7 -10z m549
-21 c37 -27 42 -35 36 -58 -18 -68 -35 -159 -35 -186 -1 -16 -6 -59 -13 -95
l-12 -65 -22 81 c-18 66 -20 89 -12 119 6 20 9 81 7 136 -2 54 -1 99 3 99 3 0
24 -14 48 -31z m-729 7 c0 -8 2 -20 5 -28 4 -9 -18 -22 -69 -42 -47 -18 -89
-42 -115 -67 -43 -42 -143 -184 -181 -259 -13 -25 -25 -40 -27 -33 -2 6 7 33
20 60 14 26 43 105 66 174 l42 126 62 17 c34 10 87 28 117 41 65 28 80 30 80
11z m401 -44 c91 -61 128 -94 165 -149 l36 -52 -21 -29 c-32 -45 -216 -218
-266 -249 -79 -50 -69 -101 21 -110 80 -8 95 -18 179 -133 113 -155 112 -153
91 -248 -29 -126 -20 -115 -86 -109 -64 7 -236 59 -262 79 -14 12 -15 25 -6
123 5 61 7 162 4 225 -5 109 -40 376 -72 540 -20 109 -23 104 54 127 93 29
100 28 163 -15z m-1436 8 c26 -11 56 -20 66 -20 11 0 17 -4 14 -10 -3 -5 -15
-10 -25 -10 -10 0 -89 -20 -176 -45 -86 -25 -159 -43 -161 -41 -11 11 76 89
129 116 72 35 91 37 153 10z m-1717 -19 c21 -13 42 -99 42 -175 0 -79 -20
-236 -29 -236 -4 0 -33 31 -65 69 -93 109 -244 241 -311 272 -48 22 -49 21
125 53 143 26 217 31 238 17z m2895 -196 c53 -325 59 -390 55 -573 -3 -95 -7
-175 -10 -178 -3 -3 -34 9 -68 26 -46 23 -60 35 -56 48 18 62 28 152 35 307 9
181 5 220 -24 231 -14 6 -14 8 1 19 15 11 16 28 12 153 -5 102 -3 142 5 145
19 6 23 -8 50 -178z m-802 137 l43 -39 -18 -64 c-35 -131 -108 -268 -144 -269
-7 0 -70 29 -140 63 -70 35 -191 90 -269 122 -79 32 -143 61 -143 65 0 13 538
157 596 159 23 1 43 -9 75 -37z m319 -21 c-10 -33 -30 -93 -46 -133 -23 -62
-29 -70 -38 -54 -6 10 -39 58 -73 107 -38 52 -63 98 -63 114 l0 25 119 0 119
0 -18 -59z m369 -60 c1 -61 0 -63 -17 -48 -38 35 -80 22 -187 -57 -55 -41
-102 -73 -104 -71 -6 7 98 150 136 188 22 20 66 48 98 60 71 28 73 26 74 -72z
m-1799 47 c12 -24 39 -64 61 -90 21 -26 39 -48 39 -51 0 -2 -18 -12 -41 -22
-46 -21 -49 -19 -76 50 -11 28 -18 155 -9 155 2 0 14 -19 26 -42z m2614 0 c36
-96 49 -591 21 -788 -14 -98 -41 -219 -67 -299 -10 -31 -12 -32 -21 -15 -15
26 -27 220 -33 516 -5 202 -3 257 9 300 9 29 21 89 27 133 18 126 32 195 40
195 5 0 15 -19 24 -42z m-4030 -12 c73 -26 106 -49 214 -146 82 -73 208 -218
198 -227 -19 -20 -240 96 -354 187 -48 37 -151 152 -173 193 -8 14 -5 17 20
17 17 0 59 -11 95 -24z m1626 -48 l55 -24 -49 -17 -50 -17 -48 51 c-75 80 -73
80 92 7z m-1773 5 c57 -87 143 -172 241 -237 135 -89 242 -146 277 -146 l29 0
-44 -46 c-66 -68 -327 -189 -504 -235 -147 -38 -311 -23 -364 34 -32 34 -79
143 -103 235 l-20 82 32 41 c31 39 189 185 255 235 44 34 136 84 155 84 9 0
30 -21 46 -47z m1353 -86 c152 -101 145 -93 104 -129 -41 -36 -27 -45 -134 87
-40 50 -80 99 -89 109 -20 25 -16 23 119 -67z m1464 4 c63 -94 66 -117 25
-177 -18 -27 -48 -65 -67 -86 l-34 -37 -61 30 c-34 17 -64 33 -66 35 -2 2 12
21 32 44 33 39 91 168 104 230 3 17 9 30 13 30 5 0 29 -31 54 -69z m-1521
-102 l86 -106 -18 -59 c-10 -32 -22 -85 -26 -117 -7 -59 -55 -148 -200 -370
-37 -57 -93 -107 -120 -107 -6 0 -28 47 -49 105 -43 122 -99 219 -202 351
l-74 94 178 0 c195 0 238 8 285 50 l32 28 0 131 c0 95 3 127 11 118 6 -7 50
-60 97 -118z m835 30 c208 -86 372 -164 372 -177 0 -7 -85 -60 -145 -90 -15
-7 -56 -4 -151 13 l-132 23 -105 108 -104 108 31 48 c17 26 33 48 34 48 2 0
92 -37 200 -81z m1210 26 c24 -32 36 -55 28 -55 -14 0 -157 -59 -311 -128 -49
-23 -91 -40 -92 -38 -1 1 0 12 4 24 5 20 302 252 322 252 5 0 27 -25 49 -55z
m-1494 33 c-19 -33 -27 -38 -40 -27 -19 15 -18 27 4 32 33 9 43 7 36 -5z m-80
-67 c19 -21 19 -22 -5 -71 l-25 -50 -57 51 c-31 28 -57 54 -57 59 0 13 94 48
110 40 8 -5 24 -18 34 -29z m2211 -53 c10 -51 18 -136 19 -188 1 -102 -11
-230 -22 -230 -4 1 -45 52 -91 115 -84 113 -95 123 -170 142 l-34 8 54 42 c30
23 90 78 134 122 44 45 83 81 86 81 4 0 15 -42 24 -92z m-7103 -45 c-3 -57 -9
-93 -18 -103 -12 -12 -14 -5 -14 53 0 57 19 137 33 137 2 0 2 -39 -1 -87z
m4754 -39 l84 -76 0 -63 c0 -117 21 -137 166 -155 68 -9 96 -17 119 -35 71
-57 99 -84 86 -85 -33 0 -51 -32 -51 -87 0 -50 -1 -53 -20 -43 -10 6 -98 87
-194 180 l-174 170 -7 73 c-8 78 -20 117 -38 129 -19 12 -60 9 -91 -7 -21 -11
-32 -13 -40 -5 -8 8 0 21 26 46 21 19 41 34 44 34 4 0 44 -34 90 -76z m350
-72 c-7 -7 -130 20 -158 34 -33 17 -35 37 -7 83 l21 34 73 -73 c41 -41 73 -76
71 -78z m-4711 118 c-11 -4 -40 -15 -65 -23 -25 -8 -54 -18 -65 -22 -18 -7
-19 -6 -5 9 18 18 92 44 130 44 23 1 23 0 5 -8z m6115 -27 c0 -99 -21 -353
-32 -390 l-13 -42 -175 99 -175 98 -9 46 c-6 29 -6 50 0 56 15 15 367 169 387
170 13 0 17 -8 17 -37z m-5907 -20 c-18 -2 -48 -2 -65 0 -18 2 -4 4 32 4 36 0
50 -2 33 -4z m3949 -86 c-24 -23 -24 -23 -7 30 4 12 8 14 17 5 9 -9 7 -17 -10
-35z m151 11 c6 -44 1 -47 -30 -16 -27 27 -24 48 6 48 13 0 20 -9 24 -32z
m1067 -18 c33 -17 60 -32 60 -35 0 -3 -55 -5 -122 -5 l-123 0 50 34 c28 19 56
35 63 35 7 1 39 -13 72 -29z m-5671 -20 c11 -9 -4 -404 -17 -432 -10 -25 -17
-28 -62 -28 l-50 0 14 33 c8 17 28 78 45 133 27 87 31 118 31 211 0 111 6 138
24 106 5 -10 12 -20 15 -23z m4999 -15 c60 -7 64 -9 93 -51 16 -24 27 -49 24
-54 -3 -6 -27 -10 -53 -10 -43 0 -53 5 -119 63 -39 34 -72 65 -72 69 -1 3 14
3 32 -2 17 -5 60 -12 95 -15z m-429 -39 l53 -54 6 -176 5 -176 -96 0 -96 0
-11 38 c-7 20 -14 92 -17 160 l-6 122 47 70 c25 39 50 70 54 70 4 0 32 -24 61
-54z m329 -49 l23 -25 -43 8 c-73 14 -78 18 -78 62 l0 40 38 -30 c20 -17 47
-41 60 -55z m366 43 c15 -5 9 -10 -29 -25 l-48 -18 -18 24 c-10 13 -19 28 -19
32 0 8 80 -1 114 -13z m285 -20 l106 0 -25 -20 c-14 -11 -79 -47 -145 -81
-138 -71 -151 -72 -218 -10 l-41 39 79 41 c58 29 88 39 109 36 16 -3 76 -5
135 -5z m316 -3 c17 -13 16 -23 -29 -236 -25 -123 -49 -250 -53 -282 l-6 -59
-116 113 c-101 98 -187 167 -224 180 -7 2 1 15 18 28 16 13 97 79 180 146 157
128 185 142 230 110z m113 -164 c33 -178 41 -256 42 -391 l0 -124 -42 7 c-24
4 -64 16 -90 27 l-48 20 0 62 c0 33 18 149 40 256 23 107 43 210 47 228 11 63
29 34 51 -85z m-985 -217 c52 -46 67 -64 67 -86 0 -57 -18 -55 -161 15 -74 36
-151 68 -171 71 l-38 7 0 82 c0 45 -3 111 -6 146 l-7 64 124 -120 c68 -67 154
-147 192 -179z m222 244 c65 -66 132 -90 188 -67 20 9 37 14 37 12 0 -2 -18
-17 -40 -35 l-39 -31 -61 13 c-51 10 -74 23 -143 78 l-82 65 40 6 c22 3 42 7
45 8 3 0 28 -22 55 -49z m994 -56 c68 -38 126 -75 128 -81 3 -7 -16 -48 -43
-90 -84 -138 -146 -247 -161 -280 -8 -21 -20 -33 -32 -33 -17 0 -19 13 -25
163 -6 138 -32 346 -53 411 -5 19 -5 19 28 0 19 -11 90 -51 158 -90z m-1849
-55 c4 -46 11 -95 15 -110 l6 -25 -86 -3 c-48 -1 -86 1 -84 6 13 28 133 222
136 219 2 -2 8 -41 13 -87z m875 -55 c14 -9 25 -19 25 -23 -1 -13 -123 -92
-136 -87 -15 6 -21 116 -6 130 11 12 89 -2 117 -20z m1235 -34 c33 -17 60 -34
60 -38 0 -21 -45 -75 -111 -133 -81 -71 -154 -129 -163 -129 -3 0 -5 21 -4 47
0 40 12 66 71 165 39 65 75 118 79 118 5 0 35 -14 68 -30z m-1007 -29 c23 -16
62 -48 87 -71 l45 -42 -40 23 c-63 35 -185 122 -185 131 0 12 46 -9 93 -41z
m1553 -49 c-11 -10 -14 3 -8 33 l7 30 3 -28 c2 -16 1 -31 -2 -35z m-1629 1
c37 -27 140 -91 228 -144 l160 -95 3 -169 2 -169 -57 55 c-60 58 -138 113
-235 168 -39 22 -83 62 -142 130 -48 55 -105 116 -127 136 -27 25 -38 40 -31
47 17 17 117 87 124 88 4 0 38 -21 75 -47z m1313 -23 c47 -16 115 -34 153 -40
37 -7 67 -15 67 -19 0 -3 -9 -33 -19 -66 l-18 -59 -69 -12 c-76 -14 -158 -40
-221 -72 -83 -43 -154 -165 -180 -310 -9 -48 -21 -93 -26 -100 -11 -14 -268
-144 -274 -138 -2 1 3 20 11 42 7 22 21 86 30 144 10 58 31 162 47 231 l30
126 38 16 c43 19 210 155 259 211 19 21 39 49 45 63 7 16 16 22 26 18 9 -4 54
-20 101 -35z m-6780 -16 c0 -2 -9 -4 -21 -4 -11 0 -18 4 -14 10 5 8 35 3 35
-6z m4492 -16 c21 -62 98 -203 145 -265 38 -51 52 -63 74 -63 50 0 57 29 58
223 1 135 1 137 24 137 12 0 79 -27 149 -61 l127 -62 -52 -59 c-42 -47 -57
-58 -82 -58 -17 0 -41 -7 -54 -16 -18 -13 -22 -23 -17 -48 4 -26 -1 -38 -30
-71 -20 -22 -63 -74 -96 -115 l-60 -74 -119 3 c-113 3 -121 1 -163 -23 -68
-40 -86 -78 -94 -197 l-7 -102 -62 149 c-65 157 -80 212 -113 407 -25 149 -26
208 -2 234 21 24 126 71 184 82 24 5 74 9 111 10 l68 1 11 -32z m218 -114 c0
-84 -4 -143 -9 -140 -27 17 -133 204 -146 259 l-7 27 81 0 81 0 0 -146z m2448
41 c12 -47 22 -90 22 -94 0 -5 -17 -5 -37 0 -21 5 -58 9 -82 9 -37 0 -42 3
-36 18 3 9 13 43 22 75 14 48 20 57 39 57 13 0 26 5 29 10 14 22 23 6 43 -75z
m-1860 -39 c28 -28 52 -54 52 -58 0 -4 -28 8 -62 27 -61 33 -76 51 -77 89 -1
23 9 16 87 -58z m-5608 -63 c-68 -77 -207 -209 -297 -284 -46 -39 -124 -109
-173 -156 -90 -85 -108 -95 -70 -38 11 17 25 48 31 70 20 75 99 171 179 217
25 14 76 53 113 86 38 34 106 79 153 103 47 24 88 47 91 52 3 4 7 6 10 3 3 -3
-13 -27 -37 -53z m5549 -103 c36 -74 67 -139 69 -143 2 -4 -39 26 -92 67 -53
42 -117 87 -141 102 -25 14 -45 28 -45 30 0 3 21 27 46 54 66 71 79 62 163
-110z m131 25 c92 -51 103 -61 195 -176 144 -177 181 -213 245 -234 30 -10 57
-19 59 -21 2 -2 -17 -26 -42 -53 -26 -28 -47 -55 -47 -62 0 -6 -25 -47 -56
-91 -41 -58 -59 -76 -65 -66 -5 7 -34 74 -66 148 -62 148 -64 152 -142 260
-52 73 -198 350 -184 350 4 0 50 -25 103 -55z m1773 29 c15 -3 27 -10 27 -14
0 -12 -88 -165 -207 -358 -53 -86 -122 -201 -153 -254 l-57 -97 -16 34 c-13
28 -23 35 -45 35 -53 0 -67 -29 -70 -151 -3 -96 -2 -110 13 -116 10 -3 26 -1
37 6 11 7 21 11 22 9 1 -2 -1 -62 -4 -135 -5 -112 -9 -135 -25 -153 -26 -29
-42 -36 -92 -45 l-43 -7 0 395 0 395 93 68 c120 89 293 262 342 342 l38 63 56
-6 c31 -3 68 -9 84 -11z m-219 -6 c-28 -48 -106 -137 -176 -203 -88 -81 -198
-168 -205 -161 -2 2 3 34 12 71 19 85 69 179 111 213 66 53 281 119 258 80z
m-826 -33 c2 -2 2 -22 0 -46 l-3 -44 -48 51 -48 52 48 -6 c26 -2 49 -6 51 -7z
m-38 -141 c12 -21 7 -30 -51 -108 -35 -47 -67 -85 -70 -86 -13 -1 -19 66 -19
203 l0 141 64 -63 c35 -35 69 -74 76 -87z m-984 84 c114 -81 233 -179 276
-227 55 -61 126 -205 183 -372 25 -72 45 -135 45 -139 0 -4 -11 -15 -25 -24
-22 -15 -28 -15 -53 -2 -39 20 -62 49 -123 151 -30 50 -122 182 -205 295 -83
113 -169 232 -191 266 -39 57 -41 62 -25 78 26 25 54 19 118 -26z m-4522 5
c-26 -19 -36 -16 -24 7 6 12 16 17 27 13 14 -6 14 -8 -3 -20z m5656 -70 c-10
-66 -42 -206 -81 -357 l-10 -38 -30 28 c-37 35 -37 44 1 44 18 0 33 6 36 15
11 29 -15 44 -82 47 l-65 3 58 76 c50 66 62 76 88 75 29 -1 30 1 36 49 5 45
47 150 57 141 2 -3 -2 -40 -8 -83z m1138 -70 c155 -237 183 -297 259 -553 45
-152 46 -158 50 -325 3 -93 0 -260 -6 -369 -10 -188 -12 -203 -40 -262 -40
-86 -102 -175 -152 -217 -24 -21 -78 -50 -128 -68 l-86 -33 -238 0 c-261 -1
-250 -4 -261 63 -4 27 -28 64 -88 135 -123 146 -117 127 -76 232 19 49 52 112
72 139 21 27 53 79 72 117 19 38 59 95 88 127 30 32 62 72 72 87 51 80 109
151 145 177 73 54 129 158 129 241 0 25 11 64 30 101 16 33 30 74 30 90 0 17
7 55 15 85 10 37 15 105 15 213 0 86 2 157 4 157 2 0 44 -62 94 -137z m-163
-195 c-9 -40 -18 -89 -21 -108 -3 -19 -16 -57 -29 -85 -13 -27 -28 -83 -34
-123 -12 -89 -44 -149 -109 -197 -26 -20 -56 -48 -67 -64 -11 -16 -40 -57 -64
-92 -25 -35 -68 -89 -96 -120 -28 -31 -70 -93 -94 -138 -23 -45 -56 -98 -73
-116 -16 -19 -38 -56 -48 -82 l-19 -48 -1 146 c0 159 0 159 58 159 47 0 107
37 132 83 23 39 25 55 28 210 l4 168 61 102 c33 56 115 192 182 302 67 110
134 223 150 250 50 88 50 89 53 -48 2 -86 -2 -148 -13 -199z m-6555 297 c0 -9
-95 -52 -130 -60 -48 -10 -36 -1 45 34 71 31 85 35 85 26z m4335 -92 c33 -48
118 -166 189 -262 71 -97 152 -214 179 -261 94 -160 160 -204 250 -165 27 12
22 -31 -8 -61 l-26 -26 -47 28 c-59 34 -153 97 -211 141 -35 27 -50 48 -73
105 -16 40 -49 102 -73 139 -85 127 -169 181 -289 184 -61 2 -71 5 -99 33 -28
28 -29 33 -16 49 8 10 46 55 84 101 37 45 71 82 74 81 3 0 33 -39 66 -86z
m725 2 c49 -36 181 -167 175 -173 -2 -3 -24 3 -48 12 -33 12 -62 38 -120 106
-42 49 -77 92 -77 95 0 8 27 -8 70 -40z m-2490 -155 c-53 -104 -195 -302 -243
-340 -12 -9 -45 -29 -73 -43 l-52 -26 -6 22 c-3 12 -6 63 -6 113 l0 90 158 97
c87 53 176 110 197 126 48 36 56 23 25 -39z m1400 14 l36 -6 -24 -48 c-20 -40
-25 -69 -29 -170 l-6 -121 -46 5 c-25 4 -74 7 -108 8 l-63 2 0 121 c0 100 3
125 19 151 34 55 113 76 221 58z m194 -153 c49 -93 74 -174 82 -265 6 -67 5
-78 -7 -70 -8 4 -42 28 -76 51 -34 24 -83 53 -108 64 l-47 21 4 121 c4 102 8
129 27 166 l23 43 33 -32 c19 -18 50 -63 69 -99z m-1237 78 c24 -11 43 -24 43
-29 0 -14 -115 -22 -156 -11 -22 6 -61 11 -88 11 l-49 0 23 25 c21 23 31 25
104 25 60 0 90 -5 123 -21z m1438 -61 c2 -2 1 -26 -3 -53 l-7 -49 -63 70 c-34
38 -62 72 -62 76 0 7 125 -34 135 -44z m1066 -96 c-18 -6 -52 19 -71 51 -33
53 -23 54 30 2 28 -28 46 -51 41 -53z m413 51 c-1 -27 -2 -196 -3 -377 -1
-202 -5 -326 -10 -320 -5 5 -37 84 -70 175 -88 242 -148 380 -178 411 l-27 28
34 11 c18 7 81 36 139 65 58 29 109 53 112 53 3 1 4 -20 3 -46z m-470 -92 c23
-12 52 -21 64 -21 12 0 22 -4 22 -8 0 -4 -20 -68 -45 -142 -25 -74 -57 -180
-72 -235 l-27 -99 -18 41 c-27 63 -85 282 -97 368 -13 88 -4 118 49 179 l33
37 24 -50 c19 -39 33 -54 67 -70z m-2667 88 c-41 -22 -53 -20 -44 6 4 10 19
15 44 15 l38 -1 -38 -20z m463 6 c16 -19 1 -19 -24 0 -16 12 -17 15 -4 15 8 0
21 -7 28 -15z m1320 -110 c17 -27 30 -54 30 -59 0 -19 -53 41 -76 86 -50 97
-15 77 46 -27z m-1373 53 c24 -24 48 -88 34 -88 -5 0 -37 27 -72 61 l-64 60
39 -5 c23 -3 50 -15 63 -28z m1212 -149 l-23 -74 -7 66 c-7 61 -17 107 -34
154 -5 12 11 2 40 -26 l48 -47 -24 -73z m1256 -24 c18 -38 62 -151 99 -250 37
-99 71 -191 77 -204 l10 -24 -73 6 c-63 4 -301 52 -320 63 -10 6 18 115 83
317 69 215 68 215 124 92z m-413 -100 c17 -71 42 -161 55 -198 24 -68 25 -86
3 -72 -6 3 -46 81 -90 171 l-79 165 37 48 c25 32 38 42 40 32 2 -9 17 -74 34
-146z m885 73 c-2 -18 -4 -6 -4 27 0 33 2 48 4 33 2 -15 2 -42 0 -60z m-1564
-26 l88 -88 14 -95 c27 -192 28 -206 8 -213 -10 -4 -19 -2 -21 3 -9 27 -101
141 -172 213 l-78 79 31 94 c17 52 34 95 37 95 3 0 45 -40 93 -88z m-555 61
c17 -3 32 -11 32 -19 0 -16 112 -262 146 -320 l25 -42 -31 -7 c-49 -11 -111 4
-140 35 -29 31 -139 188 -194 277 -54 87 -47 97 52 89 42 -4 92 -10 110 -13z
m170 -67 c37 -24 84 -59 104 -77 l37 -34 -10 -60 c-10 -61 -31 -105 -50 -105
-9 0 -132 245 -152 303 -9 24 -4 22 71 -27z m1028 -273 c-3 -4 -144 62 -154
72 -3 2 5 16 17 31 16 21 21 41 21 88 l0 61 60 -124 c33 -68 59 -126 56 -128z
m-1807 190 c7 -4 -33 -103 -42 -103 -5 0 -6 7 -3 16 3 9 6 38 6 66 0 46 1 49
18 37 9 -7 19 -14 21 -16z m1450 -69 c2 -2 0 -4 -6 -4 -16 0 -133 80 -133 91
0 7 117 -66 139 -87z m-6361 72 c33 -17 83 -70 107 -113 16 -27 17 -37 7 -71
-7 -22 -12 -59 -12 -82 0 -42 0 -43 -20 -25 -16 15 -20 31 -20 87 0 68 -1 70
-44 116 -46 49 -75 102 -55 102 5 0 22 -6 37 -14z m5423 -128 c114 -160 136
-174 261 -165 43 3 80 1 83 -3 3 -5 -8 -91 -25 -191 -16 -101 -30 -199 -30
-218 0 -48 -12 -32 -50 66 -21 57 -70 141 -157 270 -69 104 -128 190 -132 193
-6 5 -51 180 -46 180 1 0 45 -59 96 -132z m-122 -17 c15 -76 32 -131 52 -166
52 -92 34 -100 -46 -22 l-55 53 0 100 c0 111 9 184 20 163 4 -8 17 -65 29
-128z m-318 96 c-1 -4 -1 -16 -1 -27 0 -13 -7 -20 -20 -20 -23 0 -24 1 -8 35
10 23 31 31 29 12z m1279 -41 c16 -20 132 -58 188 -61 33 -2 83 -20 162 -59
63 -31 121 -56 127 -56 12 0 69 -98 61 -105 -2 -1 -37 -5 -79 -7 l-77 -5 -21
53 c-13 29 -34 65 -49 80 -26 25 -31 26 -97 20 -61 -5 -105 -14 -201 -42 -19
-5 -21 -1 -27 64 -4 38 -10 83 -13 100 -7 34 5 42 26 18z m-294 -58 c74 -81
144 -170 144 -184 0 -6 -14 -18 -32 -25 -18 -7 -47 -26 -64 -42 -31 -27 -34
-27 -62 -13 -16 8 -50 38 -75 66 l-45 50 18 63 c10 34 24 81 30 105 6 23 15
42 19 42 5 0 35 -28 67 -62z m-1035 -85 c-49 -132 -64 -168 -74 -178 -6 -7 -7
0 -3 20 3 17 11 57 17 90 6 33 13 70 15 83 5 27 38 62 59 62 12 0 9 -16 -14
-77z m172 45 c50 -67 57 -91 57 -203 0 -58 -2 -105 -4 -105 -3 0 -38 13 -78
30 -41 16 -93 32 -116 36 -23 4 -42 8 -42 9 0 2 20 54 43 117 24 62 47 121 50
131 11 30 62 22 90 -15z m-425 -84 c-42 -120 -60 -144 -104 -144 -19 0 -34 3
-34 6 0 3 31 47 69 97 37 51 74 102 82 114 24 39 20 18 -13 -73z m82 -14 c0
-5 -5 -10 -11 -10 -5 0 -7 5 -4 10 3 6 8 10 11 10 2 0 4 -4 4 -10z m1772 -7
c49 -56 134 -300 148 -424 11 -93 33 -212 51 -266 11 -34 38 -44 57 -20 13 15
32 117 32 169 0 21 3 38 6 38 3 0 47 -31 97 -69 126 -93 270 -190 345 -231 34
-19 62 -41 62 -49 0 -7 -13 -35 -29 -60 -15 -26 -38 -67 -49 -91 -20 -43 -65
-111 -113 -173 -25 -33 -135 -90 -227 -119 -37 -11 -123 -48 -192 -83 -97 -48
-149 -67 -230 -85 -253 -54 -348 -93 -462 -193 -75 -66 -113 -126 -159 -257
-16 -47 -48 -121 -70 -166 -23 -45 -56 -140 -76 -215 -30 -114 -36 -155 -40
-275 -4 -115 -2 -151 12 -195 10 -33 19 -105 22 -186 l6 -133 -172 0 c-170 0
-172 0 -161 20 6 12 20 74 31 138 29 175 30 176 117 266 100 102 122 144 122
230 0 73 15 154 38 206 20 47 32 142 38 330 5 130 4 158 -9 168 -24 20 -41 5
-64 -56 -31 -82 -40 -116 -58 -217 -22 -127 -67 -288 -105 -374 -17 -41 -36
-101 -41 -135 -4 -33 -19 -91 -31 -128 -25 -71 -23 -70 -188 -181 -36 -24 -90
-68 -122 -98 -123 -118 -141 -129 -203 -129 -45 0 -79 9 -151 40 -52 22 -131
50 -176 62 -45 12 -114 34 -152 49 l-71 28 121 0 c118 1 122 2 162 30 79 58
138 164 103 185 -16 11 -39 -5 -46 -31 -3 -13 -28 -47 -55 -74 l-49 -49 -118
0 c-126 0 -175 10 -260 54 -56 28 -93 66 -113 117 -7 19 -27 54 -44 77 -26 37
-31 55 -34 117 -5 89 25 190 69 239 l28 31 1 -50 c0 -41 6 -57 30 -87 48 -58
102 -70 307 -66 209 4 213 6 213 105 0 56 -3 67 -26 88 -15 14 -64 36 -109 50
-72 22 -102 25 -225 25 l-143 0 7 66 c4 37 12 76 18 88 26 49 81 105 109 111
16 4 31 11 34 16 4 5 61 9 129 9 111 0 127 -2 172 -25 54 -28 77 -26 72 6 -2
14 -21 31 -53 48 -45 23 -63 26 -173 29 -109 3 -129 1 -180 -19 -68 -28 -91
-46 -138 -115 -33 -48 -37 -60 -42 -139 -4 -78 -7 -87 -27 -95 -36 -14 -83
-80 -105 -147 -35 -108 -23 -291 20 -318 6 -4 24 -34 41 -68 16 -34 42 -74 57
-91 l27 -29 -45 25 c-25 14 -78 44 -118 67 -39 23 -102 53 -140 67 -37 14
-103 41 -147 60 l-81 36 26 100 c24 95 27 101 70 134 55 42 138 74 190 74 32
0 43 6 69 37 19 23 41 71 56 118 15 49 133 296 306 640 293 582 336 674 476
1015 46 112 87 208 91 212 12 11 100 -10 181 -45 l76 -32 7 -240 c4 -163 11
-261 22 -305 23 -97 71 -232 99 -282 14 -24 27 -68 31 -100 6 -58 116 -388
138 -417 19 -24 30 -30 45 -24 10 4 13 49 14 212 0 239 6 288 33 283 11 -2 42
-29 70 -59 70 -77 128 -103 230 -103 112 0 116 5 116 137 0 97 -2 106 -25 128
-18 19 -35 25 -69 25 -65 0 -81 -27 -72 -117 l7 -66 -36 32 c-40 35 -95 65
-140 75 -35 9 -45 21 -45 58 0 18 8 33 25 44 21 14 51 15 222 12 183 -5 204
-7 275 -32 58 -21 92 -41 141 -84 66 -58 237 -171 301 -197 67 -28 116 -15
116 30 0 43 -91 102 -316 208 -109 52 -114 55 -85 62 48 10 54 33 48 169 -8
181 -34 236 -114 236 -57 0 -118 -25 -140 -58 -14 -22 -18 -47 -18 -129 l0
-101 -48 25 c-62 35 -120 85 -148 129 -18 30 -23 55 -27 150 -7 162 2 188 102
290 l81 82 80 -12 80 -12 5 -129 5 -130 25 0 25 0 0 141 c0 110 3 145 15 159
8 10 17 43 20 74 l5 55 49 19 c38 14 132 35 207 46 3 1 13 -7 21 -16z m336
-36 c4 -34 -11 -35 -26 -2 -16 34 -15 37 6 33 10 -2 18 -14 20 -31z m222 -31
c58 -13 144 -27 192 -31 l88 -7 15 -51 c30 -109 36 -144 33 -211 l-3 -68 -140
151 c-77 84 -150 158 -163 167 -12 8 -46 18 -75 21 -35 4 -57 13 -69 27 -22
27 -23 39 0 32 9 -3 64 -16 122 -30z m-1835 -7 c10 -15 127 -99 140 -99 21 0
37 18 44 50 l6 33 57 -85 c66 -100 89 -143 123 -234 34 -90 70 -137 100 -132
20 4 24 0 29 -31 3 -20 6 -52 6 -71 1 -80 71 -176 176 -238 l63 -38 -149 4
c-207 6 -255 -1 -298 -44 -31 -31 -34 -39 -29 -79 4 -38 2 -45 -13 -45 -39 0
-45 -26 -50 -209 l-5 -176 -41 125 c-23 69 -45 150 -49 180 -3 31 -19 77 -35
105 -34 60 -74 178 -95 279 -21 106 -22 451 0 460 17 6 20 107 6 204 -7 48 -1
66 14 41z m620 -56 l52 -48 -51 -55 c-28 -30 -64 -71 -80 -90 -18 -23 -26 -28
-22 -15 3 11 13 73 22 138 10 64 19 117 22 117 2 0 28 -21 57 -47z m267 2 c5
-24 3 -25 -43 -25 -27 0 -49 2 -49 4 0 7 64 46 76 46 7 0 14 -11 16 -25z m659
-14 c15 -1 29 -7 32 -14 3 -7 -6 -62 -20 -121 l-25 -107 -29 33 c-30 35 -63
111 -74 171 -7 35 -6 36 27 39 18 2 40 3 48 2 8 -2 27 -3 41 -3z m221 -88 c36
-49 127 -180 202 -294 118 -179 134 -208 128 -232 l-7 -28 -82 49 c-153 92
-409 279 -419 307 -3 8 8 75 26 150 31 132 32 135 58 135 22 0 39 -16 94 -87z
m86 40 c75 -69 322 -347 318 -358 -3 -5 -12 -34 -21 -63 -10 -30 -21 -50 -25
-45 -4 4 -67 98 -140 208 -73 110 -148 219 -166 242 -19 23 -34 44 -34 47 0
17 32 2 68 -31z m-2688 11 c0 -3 -17 -31 -38 -62 -22 -31 -61 -95 -87 -142
-106 -185 -171 -271 -286 -375 -24 -22 -83 -84 -131 -136 -174 -192 -224 -169
-235 111 -2 63 -9 125 -15 137 -16 32 -3 185 22 265 36 118 68 139 255 173 50
9 131 20 180 24 106 10 335 13 335 5z m140 2 c0 -3 -15 -21 -34 -42 -18 -20
-66 -91 -106 -158 -124 -205 -276 -427 -351 -511 -39 -44 -87 -109 -107 -145
-54 -98 -59 -103 -112 -95 -50 7 -90 29 -90 48 0 7 16 21 35 31 19 10 65 51
102 91 37 39 91 96 119 126 28 30 74 75 102 100 52 48 153 193 235 339 26 47
70 115 97 153 42 57 54 67 80 67 16 0 30 -2 30 -4z m-4022 -131 c11 -10 -34
-54 -59 -57 l-29 -5 20 22 c11 12 20 29 20 39 0 13 5 16 23 10 12 -3 23 -8 25
-9z m4088 -43 c-9 -26 -45 -72 -57 -72 -5 0 5 22 23 49 34 51 45 58 34 23z
m2144 -148 c0 -66 -15 -71 -24 -8 -10 76 -9 89 9 74 10 -8 15 -31 15 -66z
m-2160 -33 c-28 -56 -35 -52 -8 4 12 24 23 43 26 41 2 -2 -6 -22 -18 -45z m65
-43 c-76 -181 -194 -428 -333 -698 -208 -402 -355 -708 -376 -780 -22 -79 -37
-96 -93 -105 -56 -8 -117 -31 -157 -58 l-28 -20 7 24 c17 55 79 164 184 323
61 92 111 164 111 160 0 -4 -17 -59 -37 -120 -31 -94 -35 -115 -24 -128 20
-24 45 -4 60 46 33 111 166 417 210 482 131 195 325 555 391 726 32 84 82 180
95 180 2 0 -2 -15 -10 -32z m-4509 -26 c12 -9 24 -34 27 -55 l6 -37 -44 30
c-51 35 -59 45 -51 65 7 20 36 18 62 -3z m-116 4 c0 -3 -4 -8 -10 -11 -5 -3
-10 -1 -10 4 0 6 5 11 10 11 6 0 10 -2 10 -4z m7564 -156 c13 -19 27 -50 31
-67 6 -31 5 -33 -22 -33 -81 0 -102 11 -150 72 -45 59 -45 60 -33 101 30 102
24 100 91 27 32 -36 70 -81 83 -100z m-1396 108 c19 -23 31 -92 34 -188 l3
-95 -55 2 c-47 1 -58 5 -82 32 -26 29 -28 37 -28 120 0 107 13 124 111 140 4
1 11 -5 17 -11z m-2637 -235 c2 -57 0 -106 -4 -109 -3 -4 -18 1 -33 10 -24 16
-25 21 -19 69 9 69 35 151 46 140 4 -4 9 -54 10 -110z m3839 77 c0 -5 -2 -10
-4 -10 -3 0 -8 5 -11 10 -3 6 -1 10 4 10 6 0 11 -4 11 -10z m-6951 -64 c9 -11
9 -16 0 -21 -10 -7 -28 10 -29 28 0 12 17 8 29 -7z m7191 -66 c0 -11 -6 -20
-13 -20 -8 0 -22 9 -32 20 -18 20 -17 20 13 20 25 0 32 -4 32 -20z m-4201 -69
c-1 -26 -1 -26 -14 4 -19 42 -19 66 0 41 8 -11 15 -31 14 -45z m-2906 -8 c9
-9 15 -18 13 -20 -7 -7 -86 29 -86 39 0 14 51 0 73 -19z m-82 -47 c30 -13 77
-32 104 -42 l50 -19 -80 -7 c-44 -3 -96 -9 -115 -13 -19 -3 -50 -8 -68 -11
-18 -3 -42 -14 -53 -25 -19 -19 -19 -19 -19 9 1 15 6 37 13 48 16 28 67 70 92
77 11 2 21 5 21 6 1 0 26 -10 55 -23z m3077 8 c19 -13 22 -24 22 -76 l0 -61
-30 38 c-22 27 -30 49 -30 76 0 43 5 46 38 23z m2336 -20 c13 -5 16 -23 16
-95 0 -80 -2 -89 -19 -89 -15 0 -19 11 -24 68 -12 123 -10 130 27 116z m-5134
-44 c0 -5 -4 -10 -10 -10 -5 0 -10 5 -10 10 0 6 5 10 10 10 6 0 10 -4 10 -10z
m2926 -78 c-11 -11 -24 13 -30 53 l-6 40 21 -43 c11 -24 18 -46 15 -50z m121
17 c10 0 27 -4 38 -9 14 -6 4 -9 -37 -9 -54 -1 -56 0 -67 29 l-10 31 28 -21
c16 -11 37 -20 48 -21z m1923 -28 c19 -17 30 -30 24 -31 -6 0 -31 18 -55 41
-49 45 -23 37 31 -10z m840 -29 c-9 -3 -130 67 -130 75 0 2 31 -13 70 -34 38
-21 65 -39 60 -41z m-2624 -23 c-30 -65 -79 -149 -87 -149 -3 0 -13 17 -23 37
-16 33 -16 37 -2 45 22 13 20 34 -6 52 l-22 16 25 0 c14 0 50 12 80 28 30 15
55 27 57 26 1 -1 -9 -25 -22 -55z m-326 -30 c14 -7 49 -20 79 -29 51 -16 55
-20 89 -84 19 -36 32 -69 28 -73 -11 -11 -192 14 -225 32 -65 33 -71 46 -71
147 l0 92 38 -36 c20 -20 48 -41 62 -49z m-3229 51 c43 0 79 -4 79 -9 0 -22
-32 -32 -97 -29 -68 3 -68 3 -70 33 -1 17 0 24 3 18 4 -9 31 -13 85 -13z m87
-164 l-3 -25 -50 37 -50 37 50 5 c54 5 60 -1 53 -54z m3447 -45 c-4 -17 -11
-31 -16 -31 -12 0 -11 14 3 45 15 32 22 25 13 -14z m-3525 -265 c0 -2 -8 -10
-17 -17 -16 -13 -17 -12 -4 4 13 16 21 21 21 13z m-70 -83 c-4 -21 -16 -56
-28 -78 l-21 -40 -1 49 c0 41 5 55 27 78 15 15 28 28 29 28 1 0 -2 -17 -6 -37z
m5351 -259 c-6 -24 -11 -61 -11 -83 0 -22 -9 -58 -21 -80 -15 -29 -21 -66 -26
-148 -6 -117 -19 -155 -74 -218 -36 -40 -52 -46 -40 -12 5 12 12 46 16 76 4
30 21 84 37 120 34 74 90 275 110 391 11 65 13 70 16 36 2 -22 -1 -59 -7 -82z
m-1157 -129 c100 -31 104 -33 106 -70 5 -70 17 -65 -169 -65 -181 0 -225 9
-255 52 -22 31 -21 95 2 101 9 3 66 5 126 6 89 1 122 -3 190 -24z m-4084 -91
c0 -2 -9 0 -20 6 -11 6 -20 13 -20 16 0 2 9 0 20 -6 11 -6 20 -13 20 -16z
m279 -74 c162 -39 140 -55 -27 -19 -53 12 -104 25 -112 30 -28 16 52 10 139
-11z m1819 -57 c59 -31 116 -64 127 -73 11 -10 38 -27 61 -38 71 -36 164 -163
164 -225 0 -13 7 -44 16 -70 29 -85 9 -72 -25 17 -19 47 -44 100 -57 118 -13
18 -24 36 -24 41 0 22 -46 70 -89 91 -26 14 -67 41 -91 61 -57 48 -84 61 -185
90 -82 24 -96 25 -408 26 -177 1 -311 5 -297 9 14 4 177 8 363 9 l338 1 107
-57z m-1073 20 c-41 -16 -317 -33 -303 -18 18 19 114 33 223 33 119 1 120 0
80 -15z m2123 -58 c-5 -28 -14 -54 -18 -59 -5 -4 -32 0 -61 9 -53 18 -53 18
-30 34 31 21 116 70 118 67 1 0 -3 -24 -9 -51z m117 -182 c33 -15 61 -32 63
-36 2 -5 -15 -22 -38 -38 -23 -16 -55 -50 -72 -74 -22 -31 -39 -45 -54 -45
-19 0 -24 -7 -30 -47 -9 -66 -30 -113 -50 -113 -12 0 -15 6 -10 24 3 14 11 60
16 103 14 106 29 169 52 225 22 53 16 53 123 1z m282 -125 l96 -53 -103 -7
c-89 -7 -113 -13 -172 -42 -37 -19 -68 -32 -68 -29 0 10 134 183 142 183 5 0
52 -24 105 -52z m-251 -39 c-15 -18 -38 -53 -51 -79 -13 -25 -31 -52 -40 -60
-14 -12 -15 -10 -6 13 22 58 107 174 119 162 2 -2 -8 -18 -22 -36z m470 -15
c18 -14 18 -14 -6 -3 -31 14 -36 19 -24 19 6 0 19 -7 30 -16z m1190 -1 c-3
-10 -12 -62 -21 -116 -9 -53 -21 -109 -27 -122 -14 -31 -46 -40 -90 -26 -18 5
-68 11 -110 13 -43 2 -78 6 -78 9 0 4 12 15 28 24 15 10 48 40 75 66 26 27 78
68 115 92 37 24 73 51 81 60 18 22 34 22 27 0z m-1226 -81 c35 -18 72 -76 86
-135 l6 -28 -290 3 c-160 2 -294 6 -298 11 -19 19 118 122 203 153 60 21 250
18 293 -4z m282 -71 c84 -28 179 -58 211 -67 31 -9 57 -19 57 -23 0 -3 -89 -5
-197 -4 l-197 2 -27 76 c-18 53 -22 75 -13 71 7 -3 82 -28 166 -55z m-914
-160 c7 -46 -9 -51 -172 -50 -83 0 -160 4 -171 9 -13 5 23 9 100 10 113 0 123
2 170 29 57 33 69 33 73 2z m297 -22 l50 -24 -76 -3 c-87 -3 -152 14 -157 42
-4 17 1 18 65 14 43 -3 87 -14 118 -29z m471 5 c13 -14 24 -26 24 -27 0 -1
-66 1 -147 4 -98 3 -168 11 -205 23 -32 10 -58 19 -58 22 0 2 82 4 181 4 l182
0 23 -26z m1084 -24 c-36 -12 -120 -12 -120 0 0 6 30 10 73 9 51 -1 65 -3 47
-9z m340 -80 l0 -90 -34 0 c-37 0 -284 114 -268 124 5 3 40 10 78 16 39 6 90
17 114 25 25 7 60 14 78 14 l32 1 0 -90z"/>
<path d="M5237 2043 c-17 -16 -6 -42 21 -48 15 -3 60 -33 99 -66 58 -47 80
-74 108 -129 19 -38 35 -78 35 -88 0 -21 -52 -73 -96 -95 -38 -19 -128 -116
-154 -166 -56 -106 -64 -128 -68 -205 -8 -126 8 -175 82 -252 56 -59 66 -65
97 -62 47 4 51 33 7 51 -19 8 -53 36 -75 61 -49 55 -58 95 -51 215 4 63 9 84
30 112 13 19 30 48 37 66 13 33 111 133 131 133 6 0 33 21 60 46 47 44 50 50
50 96 0 37 -8 66 -32 112 -64 121 -241 259 -281 219z"/>
<path d="M5182 1587 c-12 -13 -22 -29 -22 -36 0 -7 -19 -51 -41 -97 -47 -97
-60 -162 -35 -183 26 -22 46 -6 46 37 0 24 13 64 35 108 19 38 40 85 46 104 7
19 16 41 22 48 6 8 5 17 -3 27 -17 20 -23 19 -48 -8z"/>
</g>
</svg>
