<svg xmlns="http://www.w3.org/2000/svg" viewBox="0 0 432.63 424.5"><title>Asset 15</title><g id="Layer_2" data-name="Layer 2"><g id="Layer_1-2" data-name="Layer 1"><path d="M24,300.91c-1.43,1.36-3.1,2.23-5.47,1.19-8.42-3.66-7-34.88,25.79-40.64,34.06-6,26.16-12.48,45-9.67,3.93.58,7.86,1.77,10.21-.06,1.58-1.22.49-4.1-1.45-4.55-1.17-.27-2.4-.38-3.58-.56-22.88-3.45-11.47,4.46-81.23-5.65a43.3,43.3,0,0,1-6.71-1.33c-7.16-2.21-8.56-7-3.79-13C6.73,221.76,14.18,218,14.18,205c0-16.21-2.17-22.89,5.43-28.28,7.09-5,7.15-13.84,14.17-22.39,4-4.92,9.1-6.67,15.28-5.13,15.11,3.76,15.8,9.39,70.27,39.68a28.43,28.43,0,0,0,3,1.66c3.93,1.6,7.46-.84,7.19-5.15-.71-11-2.56-5.67-1.4-41,.51-15.36.65-30.67-5.08-45.34a6.4,6.4,0,0,1-.55-2.33c0-1.33,2.58-2.18,4.19-1,7.57,5.44,22.18,28.25,30.18,51.25a30,30,0,0,1,1.25,10.87c0,2,1.45,4.15,3,5.42a15.8,15.8,0,0,1,4.56,7.4c4.25,12.46-6.37,12.24-1.91,20.05,3.42,6,1.64,11.34-1.25,22.14-.52,1.92.22,4.38,1.85,4.3,1.17-.06,10.17-2.86,23.88,1.49,6.64,2.11,7.83,6.24,3.8,12a24.36,24.36,0,0,1-5.34,5c-1.57,1.22-1.29,2.79.63,3.31,7.43,2,14.92,2.68,21.58,5.43,1.84.76,3.94,3.08,3.91,5.08A4.82,4.82,0,0,1,209.5,254c-8,2.35-15.39,6.35-23.38,8.83s-16.34.56-24.8,1.19a3,3,0,0,0-2.65,3.92,49.59,49.59,0,0,0,3.14,7.33c.91,1.78,3.43,3.54,5.08,2.41,2.69-1.85,7.55-6.52,25.15-14.13a25.6,25.6,0,0,1,16.71-1.71c22.25,5.4,44.28,11.3,63,25.52,16.74,12.7,33.87,12.55,51.75,39.32,7.74,11.6,15.05,23.48,23.63,34.51a3.34,3.34,0,0,1,.7,1.28c.19.79-1.24,2.07-2.25,1.32a8.31,8.31,0,0,1-1.48-1.72c-5.46-7.33-10.94-14.65-15.78-22.43C318.64,324,309.46,310.55,291.47,302,267,290.44,252.18,274.1,226.1,269.73c-18.71-3.13-21.66-15.08-58.92,11.31-1.62,1.15-3.58,3.62-3.4,5.58.11,1.16.34,2.36.37,3.55.13,5.26.33,10.52-.78,15.71-.32,1.5-.38,3.4-2.39,3.76-3.07.56-3-1.73-8.67-14.54-4.15-9.42-8.14-18.92-14.77-27-.51-.63-.92-1.38-1.49-2-.94-1-2.77.35-3.21,2.29-1.32,5.74-1.67,13.33-12.67,32-4.45,7.56-3.4,12.4-.71,28.66,4,24.3-8.41,38.38-25.06,56.39-21.36,23.1-7.71,41,5.33,34.37,2.33-1.17,6.6-6.64,29-19.23.08-.05.09-.22.14-.57s-1.46-1.23-3.44-1c-3.27.39-7.57,2.05-11.47,2.2-6.79.26-7.68-8,.25-13.84,5.32-3.95,10.65-7.89,16.14-11.61,4.14-2.81,6.84-1.43,7.42,3.66.78,6.84-2.57,17.77-2.14,28,.15,3.5.48,5.18,1.75,6.89s4.15,2.24,5.53.8c1.67-1.74,2.28-4.24,2.9-6.6,7.51-28.56-13.54-48.57,4.86-62C160,339.79,167,335.25,162.87,325c-1.26-3.17-2-6.54-1.16-10.06s1.57-7,4.61-8.5c1.79-.87,3.7-1.36,3.94-2.17.15-.52.29-1,.41-1.46,1.89-7.16,7.47-9.34,13.35-4.87,6.85,5.21,10.68,13.79,8.4,26.63-2.16,12.12-7.52,28.83,13.81,42.55.66.42,1.43.74,2.09,1.2,1.09.76.76,2.94-.35,2.86a4.58,4.58,0,0,1-1.85-.76c-11.78-7-19.33-16.6-19-31.05.33-13.1,7.26-23.71-1.27-35.2-5.75-7.75-11.09-6.28-12-1.18-.61,3.29-1.76,5.29-5.12,6.4-3.08,1-4.8,5.55-4.2,9.84,1.25,9.09,9.39,15.14-11.08,29-10.82,7.32-7.61,18-5.13,28.64,5.14,22.05.31,45-9.36,43.18-5-.94-5.89-7.45-6.43-13.11a2.49,2.49,0,0,0-3.68-2.17A79.21,79.21,0,0,0,111.19,415c-7.35,5.85-14,12.82-22.91,7.85-12.33-6.88-9.16-22.24-.71-33.68,5.26-7.11,14.54-15.32,22.18-27,10.61-16.23,7.48-28,4.42-48.15-.3-2-2-2.86-3.68-1.82A40.17,40.17,0,0,0,99.2,322.44a213.39,213.39,0,0,0-17.89,28.39c-6,11.27-19.18,14.55-29.74,7.39a54.68,54.68,0,0,1-16.79-18.75c-7.13-12.58,3.7-26.46-4-29.93-4.66-2.11-5.58-5.54-4.28-10.07a1.31,1.31,0,0,0-.05-.67c-.1-.37.39-.59.93-.94a5.9,5.9,0,0,1,4.18-.59c12.48,2.92,14.17,22.66,22.16,35.31A22.21,22.21,0,0,0,56,336c1.36,1.46,3.35.14,3.1-1.84C57.66,322.46,42.83,309.31,45,287.68c.51-5.13-4.24-7.33-8.27-3.59a31.19,31.19,0,0,0-7.28,9.56c-.85,1.8-1.66,3.64-2.13,4S25.44,299.54,24,300.91Zm104.45-61.59c0,.18-.08-.69-.39-1.91s-1.57-.6-1.08.35S128.42,239.13,128.44,239.32Zm-11.79-48.49c-4.9-2.91-18.21-8.78-52.67-31.82a56.6,56.6,0,0,0-16.3-7c-9-2-13.72,5.73-17.65,14.89-2.1,4.9-4.62,9.44-9.06,12.65-10.7,7.72,5.47,30.78-13.94,47-2,1.73-4.43,3.84-3.61,6.92,1.07,4,3.52,3.63,26.32,6.68,12.91,1.73,25.79,3.92,38.89,3.07,11-.7,21.92-.81,32.77,1.41a2.34,2.34,0,0,0,1-.13c.57-.17,1.8-1.72,2.69-3.51,3.18-6.35,4.21-6.67,8.57-9.31a3.63,3.63,0,0,0,.9-5.22c-1.15-1.29-2.49-2.41-3.46-3.73-1.19-1.6-.56-4.2.68-4.13a4.21,4.21,0,0,1,2,.89c7.17,4.78,6.7,10.26,10.74,11.2,5.48,1.27,6.66,5.66,7.71,10.23.27,1.16.22,2.43.42,3.66.31,2,2.34,1.78,3.25,0,2.9-5.58,2.09-6.5-6-15-18.7-19.61-35.81-22.85-21.49-30.85,1.59-.89,3.35-1.49,4.95-2.36a27.08,27.08,0,0,1,3.11-1.21C118.29,194.55,118.36,191.85,116.65,190.83Zm7.28,58.38c-4.84,2.32-9.75,1-14.75.36-2-.26-4.25,1.2-5.53,2.73-7,8.37-18-2.29-30.46,3.93-8.7,4.36-18,6.42-27.51,8-19.49,3.32-27.95,15.09-28.42,27.54a10.65,10.65,0,0,0,.69,5.11c.89,1.78,4,1.71,5.32.22,4.45-4.95,7.57-14.69,14.89-17.39,7.16-2.65,10.51,3.4,10,11-1.28,17.81,8.77,25,13.29,39.72,3.07,10-.9,12.75-4.79,10.23-5.37-3.48-10.49-16.39-12.7-22.38-1.87-5.05-4.73-13.26-9.68-16.54-1.66-1.1-5-.2-4.92,1.77,0,1,.74,1.93,2.12,2.66,11.6,6.17-.33,19.52,5.34,30.47C41.06,345,46.87,352,55,356.74s18.8,1.55,23.47-6.85c7.84-14.12,17.43-32.29,31.13-41.07,7-4.51,3.46-8.31,11.75-21.24a56.84,56.84,0,0,0,8.6-25,25,25,0,0,0-1.52-12C127.68,248.69,125.73,248.35,123.93,249.21Zm33.27-80.49c-.56,2.66,1.36,29.6-13.73,65.15-2.9,6.84.61,7.55,3.16,13,1.45,3.1,3.67,4,7.12,3.83,34.66-2,45-1.79,49.13-2.41,2-.3,2.57-1.73,1.77-2.07a7.53,7.53,0,0,0-1.5-.53c-38.82-8.66-24.53-4.44-47.89-8A5.24,5.24,0,0,1,153,237c-1.08-.79.16-3,1.46-3a15.91,15.91,0,0,1,2.34.25c15.43,1.92,23.59,4.57,31.67-4.13,4.33-4.67,3.59-7.49-2.5-9.1-14.37-3.78-20.41-.57-24.25-.38-2,.11-3.69-2.76-3.33-4.72,1.16-6.34,6.79-16.39,2.57-24.21-5.39-10,7.93-11.92.25-22.92C160,167.14,157.58,166.93,157.2,168.72Zm-23.55,31.77a2,2,0,0,1-.84,0c-3.49-.76-7-5.63-9.65-4.58-4.76,1.89-9.85,3.21-14.29,6.24a2.89,2.89,0,0,0-.12,4.66l28,24.91a2.67,2.67,0,0,0,4.38-.8c7.19-14.87,13.3-42.91,12.14-55.51-.18-2-1.84-2.45-3.3-1.1-4.5,4.19-8.95,8.37-13.52,12.42s-1.59,6.67-1.26,10.11C135.42,198.87,134.12,200.41,133.65,200.49Zm2.1-17.11c4.86-4.61,9.16-8.73,13.55-12.74,6.61-6,7.24-13.68,4.93-21.4-4.77-15.89-12.63-30.32-22.45-43.68a11.67,11.67,0,0,0-1.82-2.25c-1.22-1-2.14.4-1.62,2.33,6.9,26-.82,51.35,4,76.69C132.74,184.29,134.3,184.75,135.75,183.38Zm3.31,62.7a23,23,0,0,1-1.45,2.86c-3.81,6.09-2.88,11.47,1.8,16.76,8.2,9.27,10.92,18.4,18.31,34.31.3.65.4,1.56.77,2.25.63,1.15,2.28-.69,2.5-2.67,1.67-14.51-1.09-22.57-12.09-35.65-1.28-1.53-2.28-3.94-1.16-4.75s.48-3.46-.47-5.21a83.05,83.05,0,0,0-4.73-7.9C141.41,244.43,139.79,244.47,139.06,246.08ZM131.14,379.7c-6.17,3.37-15.91,10.3-17.76,12.76a5.93,5.93,0,0,0-1.39,2.8c-.22,1.73,2.31,3.1,4.28,2.77,4.23-.72,8.54-2.51,13.08-2.19a3.76,3.76,0,0,0,4.2-2.84,49.57,49.57,0,0,0,1.21-11.27A2.33,2.33,0,0,0,131.14,379.7ZM110.4,246.56a26.7,26.7,0,0,0,7.22,1c5.69-.06,7.49-2.45,5.8-7.76a18.36,18.36,0,0,0-1.72-3.71c-1.72-2.92-3.06-3.37-6.2-1.93a14.14,14.14,0,0,0-7.56,8.16A3.26,3.26,0,0,0,110.4,246.56Zm44.27,12.82a5.11,5.11,0,0,0,4.51,1.45c9.47-.56,19.31,1.9,28.4-2.08,1.83-.8,1.57-1.73-.42-1.65-10,.43-20.12,3.1-30.77.24C154.46,256.82,153.32,257.91,154.67,259.38Zm8.22-5c11.16,2,34.88-2.63,32.89-2.54L163,253.4C161,253.5,160.93,254,162.89,254.39Zm-34.22-60.8a2.39,2.39,0,0,0,1.07,1.6c.88.69,1.54,0,1.6-.81C131.42,193.09,128.66,192.49,128.67,193.59Z"/><path d="M284.29,264.41c3.16,2.27,2.79,2.19,7.39,10.45,31.27,56.19,23.84,28.87,44.49,70.56a8,8,0,0,1,.81,1.88c.23,1.12-2.2,1.61-3.2-.11-2.67-4.58-7-16.95-25.17-38.66-13.41-16-18.46-36.25-27.79-42.54-.88-.6-4-1.49-3.75-2.79.16-.78,3.36-4.37,3.81-7.9.38-3,.76-1.24-16.53-60.44-3.49-12-11.27-16-14.81-20.1-8.33-9.63-19.26-11.55-31.13-10.64-6.88.53-13.45,2.63-20,4.45-10.46,2.89-14.94,4.34-17.31,4.48-2,.13-2.68-3.17-1-4.28a20.64,20.64,0,0,1,4.1-1.77c23.82-9.3,39.73-5,56.49-10,9.74-2.88,4.11-5.59,8-26,2.14-11.17,7.13-20.71,16-27.95,7.33-6,12.79-13.63,18.78-20.79,4.07-4.86,2.24-9-4.12-10.24s-16.47.07-17.28-10.6c-.7-9.31,2.8-17,10-22.93,3.6-3,7.51-2.43,11.52-.28,6.91,3.68,8.88,3.23,13.87-2.93,6.81-8.41,12.92-20.62,19-17.43,3.92,2,2.79,8.17.93,13.33-.68,1.87-.53,1.95.47.23,7.08-12.15,9.55-17,22.63-26.89C345,1.09,350.5,0,356.06,0c42.44.42,41.65,15,64.86,16.92,3.18.27,6.44.48,9.36,1.9,3.8,1.84,3,6.15-2.4,7.31-14.17,3.08-27.15,9.51-40.47,14.83C357.72,52.82,333.19,55,329,54.59c-4.71-.45-6.38-3.91-3.46-7.65a43.85,43.85,0,0,1,4.86-5c1.46-1.36,1.05-2-.67-1a29,29,0,0,0-11.82,14.71,3.91,3.91,0,0,0,2.53,4.83c5.9,1.41,13.45-.79,24.82.3,12.85,1.24,22.1,9,27.41,19.41,9.35,18.41-6,30.6-21.45,30.77a106.19,106.19,0,0,1-43.45-8.28c-6.89-3-12.49-7.06-14.09-14.12-.44-2-1.79-4.82-3.79-4.72-2.77.14-5.56,2.53-7.2,4.93-12,17.56-28.23,18.71-31.74,46.89-2.11,16.9,1.44,20.56-9.6,24.4-.9.31-1.89.4-2.9.71-1.57.48-1,1.94.86,2.74,8.17,3.57,13.55,10.55,19.8,16.39,8.57,8,8.24,18.05,15.6,39.46,2.1,6.12,4.36,13.19,6,19.64,2.66,10.32,4.12,15.84,2.56,20.1C282.59,261,282.67,263.24,284.29,264.41ZM329.85,51.58a11.85,11.85,0,0,0,3.23-.09c44-3.92,62.49-20.45,94.72-28.59.12,0,.2-.25.27-.5A1.26,1.26,0,0,0,427.2,21a16,16,0,0,0-3.34-.7c-26.79-1.56-28.7-18.6-69.62-17.2a21.16,21.16,0,0,0-12.81,4.32c-23.55,19-14.72,22.1-36.39,58.67-1.27,2.16-2.53,4.36-4.77,5.73-1.93,1.18-4.42,1.76-5.58-.19-3.92-6.63-13.33-13.26-8.95-19.09a3.31,3.31,0,0,1,3.68-1.17c3.14.83,4,3.4,4.67,6.17a34,34,0,0,1,.28,3.42c.27,1.89,3.4,2.14,4.87.8,2.69-2.45,3.91-6,5.18-9.33,6.16-16.27,12.65-23.86,12-28.85-.26-2-3.31-2.74-4.89-1.51-4.57,3.57-7.66,11.77-14.92,18.33-11.2,10.14-15.21-7.07-24.15,1.55a24.2,24.2,0,0,0-7.55,16.42c-.36,6.09,1.95,8.84,8,9.81,8.81,1.43,14.33,0,15.65,9.35.52,3.73,1.49,2.19,3.47,3.28,4.52,2.49,8.34-.89,12.5-1.38,3.1-.37,3.64-3.15,4.88-5.24,6.1-10.31,23.73-5.53,28.66-.25,4.33,4.64,2.46,11.18-4.24,12.33-5.33.91-11.27-4-19.94-4.34-1.83-.07-3.9-.46-5.21,1a12.56,12.56,0,0,1-7.93,4.25c-2,.28-3.57,1.78-2.88,3.65A9.79,9.79,0,0,0,302,95.79a52.67,52.67,0,0,0,7.1,4.13,101.88,101.88,0,0,0,42.77,8c17.73-.38,26.33-17.11,16.57-29.32-7.95-9.94-17.75-16.4-31.22-15.19-11.93,1.07-27.69,1.69-22.7-9,3.85-8.23,9.38-15.47,17.9-19,14.35-6,21.18-14.19,35.08-14.17,4.56,0,7.68,1.65,7.84,4.07.23,3.43-2.69,4.5-5,5.86-18.62,11-27.45,3-30.87,6.3s-7,6.32-10.28,10C327.89,49,328.08,51.29,329.85,51.58Zm-15,27.29c9.73,1.63,14.33,4.25,16.37,4.42,2.4.21,4.77-.09,5.77-2.57s-.39-4.41-2.47-5.74c-7.21-4.6-17.92-6-21.91,0C311.48,76.68,312.86,78.54,314.83,78.87Zm53.64-54c-7-.67-15,1.77-19.91,5.92-1.53,1.28-.92,2.92,1.07,3a28.78,28.78,0,0,0,19.65-6C370.86,26.62,370.46,25,368.47,24.83ZM308.8,53.11a29,29,0,0,0,3.89-9c.44-1.94-.36-2.24-1.32-.49a40.94,40.94,0,0,0-3.6,9C307.23,54.59,307.77,54.82,308.8,53.11Zm-9.25,15.11c1-.71,3-4.37-.28-2.5l-.67.39C296.89,67.14,297.91,69.36,299.55,68.22Zm-11.21-10.3c1,2.75,3.42,1.74,2.41-1C290.06,55,287.65,56.05,288.34,57.92Z"/><path d="M279.59,224.22c.07-4.73-2.85-7.91-4.93-18.17a51,51,0,0,1-.25-19.74c.12-.74-.84-1.06-1.89-.12a4.16,4.16,0,0,1-2.17,1.27c-1.9.25-3.2-5-3.84-6.46-4.46-9.87-8.7-10.24-14.69-15.39-1.51-1.3-2.22-2.8-1.85-3.11s.53-.45.73-.42c22,2.45,35.76-2.72,57.59,5.56,4.73,1.79,5.14,2.7,4.23,7.76-.73,4.08-1.27,8.13-.34,12.23,2.94,13.06,8.33,4.18,28.26,22,6.46,5.76,13,6,20.07,1.77s12.56-10.44,22.25-8.3c1.95.43,2.54-.3,1.8-2.15-4.52-11.4,7.66-16.9-3.63-34.58-3-4.7-5.6-5.63-11.08-4.36-14.33,3.32-23.07,7.73-33.91,1.81-2.78-1.51-5.83-2.73-9.19-2-2.37.51-4.28,1.65-5,4.15-.65,2.32.63,4,2.13,5.44,5.65,5.59,17.45,3.68,35.6,18.49,1.47,1.2,3.08,2.26,4.39,3.56s1.88,4.12.78,4.64a3.12,3.12,0,0,1-2.15,0c-7.5-2.11-7.2-5.93-19.54-9.18-1.93-.51-3.2.8-1.91,2.32.41.48.83,1,1.2,1.49,1.14,1.63-.44,2.66-2,1.48a24.92,24.92,0,0,1-6.17-6.67c-1.1-1.66-.3-3.71,1.69-3.68,3.36.06,6.29,1.73,9.4,2.62,1.91.55,3.38-.6,2.36-1.36a16,16,0,0,0-2-1.08c-5.07-2.69-10.57-4.3-16-6.15C315.45,173,316,161.92,325,159.07c12.1-3.85,8.25,9.82,37.82,1.78,7.21-2,14-5.21,19.39,2.2,15.86,21.79-3.31,30,8.48,40.71.12.11.08.41,0,.8a3.81,3.81,0,0,1-3.37,2.13,15.72,15.72,0,0,1-3.61-.59c-11.66-2.84-14.1,5.1-26,9.85-16.18,6.45-20.72-10.55-37.36-15.53-12.76-3.82-12-15.55-11.09-24.53a5.94,5.94,0,0,0-2.74-5.47c-9.58-4.76-26.81-5.47-44.27-4.23-2,.14-2.37,1.33-.94,2.72a45.43,45.43,0,0,1,7.51,9.25c1,1.71,3.35,2.75,4.67,1.26.44-.51.86-1,1.33-1.5,1.41-1.41,5-.17,4.71,1.8-.67,4.22-6.75,12.68.94,36,2.7,8.2,4.12,16.84,6.06,25.3a5.32,5.32,0,0,1-.3,1.88c-.08.5-1.56.18-1.81.08a2.52,2.52,0,0,1-1.49-1.69c-1-2.9-1.78-6-2.52-9A32,32,0,0,1,279.59,224.22Z"/></g></g></svg>