<?xml version="1.0" encoding="iso-8859-1"?>
<!-- Generator: Adobe Illustrator 19.0.0, SVG Export Plug-In . SVG Version: 6.00 Build 0)  -->
<svg version="1.1" id="Layer_1" xmlns="http://www.w3.org/2000/svg" xmlns:xlink="http://www.w3.org/1999/xlink" x="0px" y="0px"
	 viewBox="0 0 298.41 298.41" style="enable-background:new 0 0 298.41 298.41;" xml:space="preserve">
<g id="XMLID_1152_">
	<g>
		<g>
			<circle cx="76.189" cy="81.079" r="14.421"/>
			<path d="M229.429,51.108h7.076c6.692,0,12.117-5.425,12.117-12.117s-5.425-12.117-12.117-12.117H160.77
				c-6.692,0-12.117,5.425-12.117,12.117s5.425,12.117,12.117,12.117h7.076c-34.226,11.095-60.343,40.18-67.202,76.105
				c-0.391,2.046-0.725,4.113-0.989,6.201l-19.911-2.204l-11.393-22.084l14.204,15.827l2.659-11.704
				c1.192-5.247-2.095-10.466-7.341-11.658l-16.941-3.849c-1.506-0.237-3.859-0.631-5.758-0.117l-26.896,7.814
				c-2.485,0.722-4.31,2.842-4.653,5.407l-4.685,35.012c-0.478,3.576,2.033,6.864,5.609,7.342c3.578,0.478,6.864-2.034,7.342-5.609
				l4.12-30.792l11.348-3.297l-9.74,36.491l-3.186,31.489l-21.508,37.032H7.61C3.407,218.512,0,221.919,0,226.123
				c0,4.204,3.407,7.61,7.61,7.61h99.052c4.763,5.196,11.352,8.69,18.751,9.467l-19.284,22.562
				c-0.887,1.038-1.089,2.498-0.518,3.738c0.571,1.24,1.812,2.035,3.178,2.035h21.212c1.95,0,3.802-0.853,5.069-2.336l22.081-25.834
				h80.886l22.081,25.834c1.267,1.483,3.119,2.336,5.069,2.336h21.212c1.366,0,2.607-0.794,3.178-2.035
				c0.571-1.24,0.369-2.7-0.518-3.738l-19.168-22.426c15.854-0.611,28.52-13.649,28.52-29.653v-67.652
				C298.41,101.674,269.462,64.084,229.429,51.108z M30.53,218.512L30.53,218.512l17.823-30.687c0.499-0.859,0.824-1.806,0.959-2.79
				l3.811-27.823l5.368,1.219l12.003,27.293l1.103,32.788H30.53z M86.826,218.511L86.826,218.511l-1.17-34.765
				c-0.032-0.968-0.25-1.921-0.64-2.808l-10.01-22.761l1.781-7.838l-2.654-0.294c-4.272-0.473-8-3.036-9.971-6.856
				c-0.222-0.43-0.393-0.883-0.51-1.351l-6.496-25.912l12.58,24.386c0.125,0.243,0.265,0.476,0.417,0.699
				c1.067,1.557,2.767,2.589,4.67,2.8l24.04,2.661v6.311v60.9c0,1.645,0.14,3.257,0.397,4.828H86.826z M141.489,209.887
				c-9.246,0-16.74-7.495-16.74-16.74c0-9.245,7.495-16.74,16.74-16.74c9.245,0,16.74,7.495,16.74,16.74
				S150.734,209.887,141.489,209.887z M189.561,144.812h-73.206c0.504-42.002,32.469-76.43,73.425-80.813L189.561,144.812z
				 M257.803,209.887c-9.245,0-16.74-7.495-16.74-16.74c0-9.246,7.495-16.74,16.74-16.74s16.74,7.495,16.74,16.74
				C274.543,202.392,267.048,209.887,257.803,209.887z M207.214,144.812l0.22-80.82c40.986,4.356,72.981,38.798,73.486,80.82
				H207.214z"/>
		</g>
	</g>
</g>
<g>
</g>
<g>
</g>
<g>
</g>
<g>
</g>
<g>
</g>
<g>
</g>
<g>
</g>
<g>
</g>
<g>
</g>
<g>
</g>
<g>
</g>
<g>
</g>
<g>
</g>
<g>
</g>
<g>
</g>
</svg>
