<svg width="152" height="140" viewBox="0 0 152 140" fill="none" xmlns="http://www.w3.org/2000/svg">
    <path d="M42.0745 87.68C42.8623 86.2192 43.7964 84.8439 44.926 83.5996L44.7753 84.3542L44.7718 84.3715L44.769 84.389C44.5144 86.0024 44.1743 87.578 43.8285 89.1566C43.8102 89.2406 43.7917 89.3244 43.7734 89.4084C43.4477 90.8943 43.1205 92.3869 42.8713 93.882C41.7366 100.173 41.5029 106.76 43.2832 112.728C45.0729 118.727 48.8865 124.057 55.7429 127.8C62.5352 131.555 71.3844 132.059 79.0753 131.01L82.8753 130.491L82.8867 130.489L82.7585 129.635L82.8867 130.489H82.8868L82.8877 130.489L82.8912 130.489L82.9055 130.487L82.9627 130.478L83.1836 130.446C83.3753 130.418 83.6522 130.378 83.9914 130.332C84.6706 130.238 85.5985 130.114 86.5951 129.996C88.5535 129.764 90.6635 129.569 91.7291 129.625C92.2165 129.812 92.5696 129.987 92.8159 130.145C93.0499 130.295 93.1517 130.406 93.1912 130.462C93.1873 130.468 93.1824 130.476 93.1765 130.484C93.1487 130.524 93.1033 130.577 93.033 130.642C92.7292 130.922 92.1621 131.243 91.3674 131.568C90.5938 131.885 89.6807 132.176 88.7513 132.43C82.645 134.069 74.4199 134.271 68.6033 134.415C67.7943 134.434 67.0319 134.453 66.3282 134.475C57.4346 134.646 50.943 133.957 43.9384 128.803C43.3395 128.205 42.7692 127.266 42.2524 125.998C41.7282 124.712 41.2805 123.141 40.9108 121.36C40.1714 117.799 39.7591 113.472 39.6411 109.065C39.5233 104.661 39.7004 100.202 40.1299 96.3816C40.5612 92.5451 41.2378 89.4461 42.0745 87.68Z" stroke="black"/>
    <path fill-rule="evenodd" clip-rule="evenodd" d="M150.469 102.326C150.123 101.98 150.123 101.635 150.296 101.462C150.469 100.771 150.641 100.252 144.596 97.8323C135.614 95.7582 120.587 83.6595 118.169 67.5854C118.169 66.2027 117.996 64.3014 117.823 61.8817C117.65 58.4249 117.305 54.1039 117.132 49.7829C116.441 29.0422 113.678 24.894 109.359 18.499C109.014 17.9804 108.669 17.6348 108.323 17.1162C100.723 5.88163 88.4594 1.56066 77.0594 1.73348C74.6412 1.73348 72.2231 2.07916 69.8049 2.59768C62.3776 3.9804 55.4685 7.95571 49.7685 14.5236C44.414 22.1286 43.3776 24.0298 40.4412 32.6718C36.9867 43.0422 36.1231 47.0175 35.2594 52.0298C34.914 53.9311 34.5685 56.0051 33.8776 58.5977C32.1503 66.7212 30.2503 73.2891 27.1412 78.9928C21.9594 88.8447 13.1504 96.1039 7.45039 100.771C3.13221 104.4 0.541304 106.647 2.26857 107.511C2.95948 107.857 3.47766 107.857 3.99585 107.857C4.51403 107.857 5.20494 107.857 6.41403 108.203C8.65948 108.894 9.35039 108.894 10.3868 108.548C10.9049 108.548 11.2504 108.376 12.114 108.376C16.4322 107.857 22.6503 104.4 28.5231 101.116C28.8685 100.943 29.3867 100.598 29.7322 100.425C29.9049 100.771 29.214 101.808 28.1776 103.536C25.414 108.376 19.8867 117.709 23.3412 124.622C29.9049 137.758 56.5049 138.277 70.4958 138.622C71.1867 138.622 71.8776 138.622 72.5685 138.622C87.4231 138.968 112.123 134.301 122.832 123.067C130.087 115.462 127.15 111.314 123.35 106.129C121.796 103.882 120.069 101.635 118.859 98.6965C122.314 100.943 135.269 107.166 140.105 106.301C142.696 105.783 151.85 104.055 150.469 102.326ZM103.487 113.906C102.969 115.116 102.278 116.672 101.587 118.227C99.514 123.067 97.0958 128.771 94.3322 131.018C88.8049 135.338 75.1594 135.511 67.5594 135.511C67.214 135.511 66.8685 135.511 66.5231 135.511C57.5412 135.684 50.6322 134.993 43.5503 129.635C37.6776 123.931 37.8503 95.0669 41.4776 87.4619C46.314 77.6101 57.8867 75.1903 67.5594 73.1162C68.9412 72.7706 70.3231 72.5977 71.5322 72.2521C86.214 68.7953 100.896 74.8446 105.214 91.6101C106.941 98.8693 106.769 107.166 103.487 113.906ZM104.178 54.2767C98.3049 58.7706 92.9503 62.2274 85.5231 62.7459C79.3049 63.2644 73.0867 63.0916 67.214 60.499C56.3322 55.8323 52.1867 38.7212 58.7503 28.8693C60.9958 25.4125 65.314 24.5483 69.114 24.894C71.3594 25.0669 73.4322 25.9311 75.5049 26.7953C77.2322 27.4866 79.1322 28.3508 81.0322 28.5237C84.6594 29.0422 87.2503 27.8323 90.5322 26.2767C90.7049 26.2767 90.7049 26.1039 90.8776 26.1039C93.814 24.7212 100.032 24.0298 102.969 25.9311C112.123 31.6348 112.296 48.0545 104.178 54.2767Z" fill="black" stroke="black" stroke-width="0.75" stroke-miterlimit="10" stroke-linecap="round" stroke-linejoin="round"/>
    <path fill-rule="evenodd" clip-rule="evenodd" d="M81.0344 46.1542C81.0344 44.7715 81.3798 44.2529 82.4162 44.7715C83.6253 45.29 85.8707 45.1171 85.5253 46.8455C85.1798 48.4011 83.1071 50.1295 81.5526 49.9566C79.8253 49.7838 80.6889 48.0554 80.8616 46.4998L81.0344 46.1542Z" stroke="black" stroke-miterlimit="10"/>
    <path d="M36.9861 124.451C36.2952 122.895 33.877 120.303 33.1861 120.13C32.1498 119.957 32.668 121.167 32.668 121.686C32.668 122.204 32.4952 122.723 32.1498 123.068C30.4225 123.933 29.5589 123.414 29.3861 123.241C28.0043 122.723 26.7952 121.858 25.7589 122.895C26.1043 125.661 26.277 128.081 23.168 128.253C22.9952 128.253 22.6498 128.253 22.477 128.426C22.3043 128.599 22.1316 128.772 22.1316 129.118C21.9589 129.291 21.7861 129.463 21.7861 129.809C21.7861 129.982 21.7861 130.328 21.7861 130.5C22.477 132.402 24.5498 134.13 26.6225 135.34C28.0043 136.204 29.7316 136.895 31.2861 137.241C31.8043 137.414 32.3225 137.414 32.8407 137.414C33.1861 137.414 33.7043 137.414 34.0498 137.241C35.4316 137.241 36.2952 136.895 36.8134 135.858C38.1952 134.476 38.7134 132.574 38.5407 130.328C38.5407 129.118 38.1952 127.908 37.8498 126.698C37.677 126.007 37.3316 125.315 36.9861 124.451ZM38.0225 130.673C38.1952 130.673 38.368 130.673 38.5407 130.5C38.1952 130.5 38.1952 130.5 38.0225 130.673Z" fill="#E4FEFF"/>
    <path d="M26.6225 135.34C24.5498 134.13 22.477 132.402 21.7861 130.5C21.7861 130.328 21.7861 129.982 21.7861 129.809C21.7861 129.463 21.9589 129.291 22.1316 129.118C22.1316 128.772 22.3043 128.599 22.477 128.426C22.6498 128.253 22.9952 128.253 23.168 128.253C26.277 128.081 26.1043 125.661 25.7589 122.895C26.7952 121.858 28.0043 122.723 29.3861 123.241C29.5589 123.414 30.4225 123.933 32.1498 123.068C32.4952 122.723 32.668 122.204 32.668 121.686C32.668 121.167 32.1498 119.957 33.1861 120.13C33.877 120.303 36.2952 122.895 36.9861 124.451C37.3316 125.315 37.677 126.007 37.8498 126.698C38.1952 127.908 38.5407 129.118 38.5407 130.328C38.7134 132.574 38.1952 134.476 36.8134 135.858C36.2952 136.895 35.4316 137.241 34.0498 137.241C33.7043 137.414 33.1861 137.414 32.8407 137.414C32.3225 137.414 31.8043 137.414 31.2861 137.241C29.7316 136.895 28.0043 136.204 26.6225 135.34ZM26.6225 135.34L26.968 134.994L26.6225 135.34ZM38.0225 130.673C38.1952 130.673 38.368 130.673 38.5407 130.5C38.1952 130.5 38.1952 130.5 38.0225 130.673Z" stroke="black" stroke-miterlimit="10"/>
    <path d="M116.099 131.363C115.063 133.437 113.335 135.165 111.263 136.202C110.226 136.721 109.017 137.067 107.981 137.239C107.808 137.239 107.635 137.412 107.463 137.412C104.181 138.449 101.417 135.857 100.899 131.363L101.59 131.709L100.899 131.363C100.554 128.597 101.072 125.486 101.763 122.894C101.763 122.548 101.935 122.375 102.108 122.029L102.281 121.684C103.663 119.264 104.872 122.375 106.081 122.894C107.463 123.412 108.672 123.066 108.844 122.894C111.09 120.992 112.126 121.684 112.299 124.449C112.299 124.968 112.472 125.486 112.644 126.005C112.817 126.178 112.99 126.351 113.163 126.523C113.681 126.869 114.199 126.696 115.063 125.832C117.826 125.486 116.444 130.326 116.099 131.363Z" fill="#E4FEFF"/>
    <path d="M116.099 131.363C115.063 133.437 113.335 135.165 111.263 136.202C110.226 136.721 109.017 137.067 107.981 137.239C107.808 137.239 107.635 137.412 107.463 137.412C104.181 138.449 101.417 135.857 100.899 131.363L101.59 131.709L100.899 131.363C100.554 128.597 101.072 125.486 101.763 122.894C101.763 122.548 101.935 122.375 102.108 122.029L102.281 121.684C103.663 119.264 104.872 122.375 106.081 122.894C107.463 123.412 108.672 123.066 108.844 122.894C111.09 120.992 112.126 121.684 112.299 124.449C112.299 124.968 112.472 125.486 112.644 126.005C112.817 126.178 112.99 126.351 113.163 126.523C113.681 126.869 114.199 126.696 115.063 125.832C117.826 125.486 116.444 130.326 116.099 131.363Z" stroke="black" stroke-miterlimit="10"/>
    <path d="M67.5596 41.3132C67.5596 39.0663 72.2232 34.7453 74.4687 41.3132" stroke="black" stroke-linecap="round" stroke-linejoin="bevel"/>
    <path d="M91.7412 41.3132C91.7412 39.0663 96.4048 34.7453 98.6503 41.3132" stroke="black" stroke-linecap="round" stroke-linejoin="bevel"/>
</svg>
